<svg width="127" height="74" viewBox="0 0 127 74" fill="none" xmlns="http://www.w3.org/2000/svg">
<path d="M126.997 67.6769C126.855 71.9816 98.305 74.5105 63.2351 73.334C28.1653 72.152 -0.142401 67.7098 0.00053896 63.4051C0.143479 59.1004 28.693 56.5715 63.7629 57.748C98.8327 58.9245 127.14 63.3722 126.997 67.6769Z" fill="#F3F0F3"/>
<path d="M126.997 64.4826C126.855 68.7873 98.305 71.3163 63.2351 70.1398C28.1653 68.9578 -0.142401 64.5156 0.00053896 60.2109C0.143479 55.9062 28.693 53.3773 63.7629 54.5538C98.8327 55.7303 127.14 60.1779 126.997 64.4826Z" fill="#F9F9F9"/>
<path d="M124.623 62.355C124.584 28.5497 98.1676 0.791755 64.9175 0.0165784C31.6674 -0.758598 3.98644 25.7458 2.37561 59.5127C2.37561 59.5127 19.5339 64.5541 58.6391 66.5828C103.055 68.8863 124.623 62.355 124.623 62.355Z" fill="#F3F0F3"/>
<path d="M82.3396 7.16911C76.8474 5.14046 70.9484 3.97494 64.7855 3.832C34.6801 3.13379 9.61601 27.1258 8.15363 57.704C8.15363 57.704 19.9187 61.1565 46.2857 63.2677C44.7793 38.5665 59.3647 15.6026 82.3396 7.16911Z" fill="white"/>
<path d="M97.8102 61.5853C112.572 60.7991 119.993 59.6501 119.993 59.6501C120.032 59.3752 120.059 59.1058 120.098 58.8309C112.918 59.7875 105.501 60.7111 97.8102 61.5853Z" fill="white"/>
</svg>
