<svg width="40" height="24" viewBox="0 0 40 24" fill="none" xmlns="http://www.w3.org/2000/svg" xmlns:xlink="http://www.w3.org/1999/xlink">
<path d="M38.4,1.364C38.4,0.098 37.445,-0.928 36.267,-0.928L34.133,-0.928C32.955,-0.928 32,0.098 32,1.364L32,21.232C32,22.498 32.955,23.524 34.133,23.524L36.267,23.524C37.445,23.524 38.4,22.498 38.4,21.232L38.4,1.364ZM23.532,3.962L25.665,3.962C26.843,3.962 27.798,5.013 27.798,6.31L27.798,21.177C27.798,22.473 26.843,23.524 25.665,23.524L23.532,23.524C22.354,23.524 21.398,22.473 21.398,21.177L21.398,6.31C21.398,5.013 22.354,3.962 23.532,3.962ZM14.868,9.26L12.735,9.26C11.557,9.26 10.602,10.325 10.602,11.638L10.602,21.147C10.602,22.46 11.557,23.524 12.735,23.524L14.868,23.524C16.046,23.524 17.002,22.46 17.002,21.147L17.002,11.638C17.002,10.325 16.046,9.26 14.868,9.26ZM4.267,14.151L2.133,14.151C0.955,14.151 0,15.2 0,16.494L0,21.181C0,22.475 0.955,23.524 2.133,23.524L4.267,23.524C5.445,23.524 6.4,22.475 6.4,21.181L6.4,16.494C6.4,15.2 5.445,14.151 4.267,14.151Z" clip-rule="evenodd" fill-rule="evenodd" fill="#FFFFFF" fill-opacity="0.29"/>
</svg>
