<svg width="722" height="298" viewBox="0 0 722 298" fill="none" xmlns="http://www.w3.org/2000/svg" xmlns:xlink="http://www.w3.org/1999/xlink">
<path d="M0,21C0,14.477 0,11.215 1.066,8.642C2.487,5.212 5.212,2.487 8.642,1.066C11.215,0 14.477,0 21,0L701,0C707.524,0 710.784,0 713.358,1.066C716.788,2.487 719.514,5.212 720.934,8.642C722,11.215 722,14.477 722,21L722,277C722,283.524 722,286.784 720.934,289.358C719.514,292.788 716.788,295.514 713.358,296.934C710.784,298 707.524,298 701,298L21,298C14.477,298 11.215,298 8.642,296.934C5.212,295.514 2.487,292.788 1.066,289.358C0,286.784 0,283.524 0,277L0,21Z" fill="url(#pattern_0_24_523)"/>
<g style="mix-blend-mode:hard-light">
<path d="M0,197C0,190.477 0,187.215 1.066,184.642C2.487,181.212 5.212,178.487 8.642,177.066C11.215,176 14.477,176 21,176L701,176C707.524,176 710.784,176 713.358,177.066C716.788,178.487 719.514,181.212 720.934,184.642C722,187.215 722,190.477 722,197L722,277C722,283.523 722,286.785 720.934,289.358C719.514,292.788 716.788,295.513 713.358,296.934C710.784,298 707.524,298 701,298L21,298C14.477,298 11.215,298 8.642,296.934C5.212,295.513 2.487,292.788 1.066,289.358C0,286.785 0,283.523 0,277L0,197Z" fill="url(#pf_0_26_696)"/>
</g>
<g opacity="0.5" style="mix-blend-mode:hard-light">
<path d="M0,21C0,14.477 0,11.215 1.066,8.642C2.487,5.212 5.212,2.487 8.642,1.066C11.215,0 14.477,0 21,0L701,0C707.524,0 710.784,0 713.358,1.066C716.788,2.487 719.514,5.212 720.934,8.642C722,11.215 722,14.477 722,21L722,101C722,107.523 722,110.785 720.934,113.358C719.514,116.788 716.788,119.513 713.358,120.934C710.784,122 707.524,122 701,122L21,122C14.477,122 11.215,122 8.642,120.934C5.212,119.513 2.487,116.788 1.066,113.358C0,110.785 0,107.523 0,101L0,21Z" fill="url(#pf_0_77_740)"/>
</g>
<defs>
<linearGradient id="pf_0_26_696" x1="361" y1="176" x2="361" y2="298" gradientUnits="userSpaceOnUse">
<stop stop-color="#262626" stop-opacity="0"/>
<stop offset="1" stop-color="#262626"/>
</linearGradient>
<linearGradient id="pf_0_77_740" x1="361" y1="0" x2="361" y2="122" gradientUnits="userSpaceOnUse">
<stop stop-color="#262626" stop-opacity="0"/>
<stop offset="1" stop-color="#262626"/>
</linearGradient>
</defs>
</svg>
