<svg width="258" height="252" viewBox="0 0 258 252" fill="none" xmlns="http://www.w3.org/2000/svg" xmlns:xlink="http://www.w3.org/1999/xlink">
<path d="M78.582,26.555C73.087,35.812 72.53,48.692 74.234,59.323C75.937,69.954 79.014,80.474 78.776,91.237C78.673,95.897 78.682,99.326 79.973,103.805C82.038,110.958 88.83,116.015 90.82,123.188C93.274,132.029 88.2,142.975 94.201,149.914C96.331,152.375 99.471,153.711 101.91,155.868C104.346,158.025 106.015,161.836 104.125,164.486C104.125,164.486 104.061,164.575 103.947,164.737C129.78,157.154 155.62,149.562 181.458,141.97C182.024,138.494 180.848,134.494 179.045,131.305C176.368,126.568 172.502,122.294 171.498,116.944C170.314,110.622 173.409,104.233 173.118,97.806C172.718,88.924 168.32,75.485 164.643,67.39C159.709,56.529 151.794,51.805 149.568,40.086C147.344,28.367 143.67,16.16 135.327,11.663L78.582,26.555Z" fill="#242326"/>
<path d="M138.841,137.465C138.841,137.465 139.835,130.217 144.178,126.656C148.523,123.095 226.13,117.684 240.42,116.673C254.707,115.661 265.641,142.506 243.948,150.777C227.935,156.012 197.36,158.893 176.297,160.205C155.233,161.516 135.958,145.423 138.841,137.465Z" fill="#989980"/>
<path d="M180.257,128.54C182.795,121.931 179.86,113.709 174.029,109.415C172.217,108.08 170.042,107.044 167.937,106.045C164.204,104.269 160.343,102.431 158.041,98.79C155.092,94.124 155.868,88.151 157.015,82.922L157.152,82.293C158.194,77.571 159.27,72.687 157.581,68.448C156.273,65.162 153.542,62.786 150.653,60.27C150.206,59.88 149.753,59.486 149.303,59.085C149.354,60.043 149.374,60.964 149.361,61.846C149.341,63.27 149.303,64.727 149.261,66.271C149.082,73.045 148.878,80.724 150.355,87.213C151.83,93.689 155.184,99.853 158.898,102.916L161.022,104.668L158.286,104.996C153.818,105.531 148.316,101.511 144.907,95.22C141.613,89.141 139.848,81.293 139.656,71.894C139.579,68.116 139.714,64.368 139.844,60.741C139.977,57.041 140.116,53.213 140.026,49.383C139.846,41.777 135.195,29.27 135.149,29.145L137.023,27.837C138.021,28.695 138.986,29.722 139.911,30.905C139.474,22.409 137.292,16.439 133.42,13.156C130.805,10.937 127.327,9.892 123.062,10.037C125.128,12.896 126.5,16.075 127.064,19.34C128.441,27.318 125.135,35.672 118.837,40.128L116.745,41.606L116.981,39.056C117.121,37.544 117.152,36.008 117.075,34.462C115.923,36.26 114.588,37.915 113.086,39.404C109.685,42.774 105.409,45.298 100.721,46.7C98.018,47.509 95.248,47.927 92.485,47.939L89.993,47.952L90.843,46.903C90.424,47.244 89.994,47.573 89.554,47.885C89.298,48.064 88.755,48.493 88.182,48.946C87.304,49.639 86.334,50.405 85.601,50.922C85.236,71.544 91.625,92.064 103.626,108.764L102,110.424C93.149,104.349 85.777,95.773 80.492,85.451C80.033,92.541 79.973,98.825 83.092,103.919C84.514,106.241 86.081,108.494 87.596,110.671C89.017,112.712 90.486,114.823 91.852,117.015C95.825,123.38 96.968,130.455 95.453,139.279C93.708,149.442 86.403,156.207 81.773,157.763L78.544,158.848L80.411,155.998C83.827,150.784 85.933,144.44 86.343,138.134C86.778,131.43 85.303,125.312 82.08,120.442C81.035,118.863 79.533,117.446 77.942,115.948C75.763,113.894 73.51,111.772 72.36,109.069C72.307,108.944 72.254,108.817 72.204,108.692C67.99,108.051 63.906,104.133 62.094,98.888C60.24,93.524 60.3,87.002 62.268,79.508C63.023,76.638 63.975,73.832 64.897,71.118C65.555,69.181 66.233,67.181 66.83,65.184C66.634,64.389 66.437,63.595 66.244,62.8C64.361,55.054 62.446,46.047 63.561,37.203C64.311,31.266 66.567,25.675 69.92,21.441C72.03,16.944 74.798,13.027 78.147,9.798C82.29,5.801 87.377,2.823 92.855,1.183C97.839,-0.309 102.974,-0.608 107.727,0.317C115.954,-1.838 124.589,-0.575 132.069,3.884C139.124,8.089 144.697,14.93 147.358,22.651C148.329,25.47 148.938,28.412 149.528,31.259C150.319,35.081 151.066,38.691 152.615,42.069C154.197,45.517 156.645,48.727 159.012,51.83C162.869,56.888 166.858,62.118 167.342,68.634C167.549,71.423 167.068,74.177 166.604,76.838C166.085,79.813 165.593,82.623 166.009,85.411C166.791,90.647 170.488,94.616 174.405,98.819C176.997,101.6 179.676,104.477 181.538,107.819C184.799,113.677 185.276,121.035 182.817,127.504C182.561,128.177 180.68,131.836 180.366,132.473L180.257,128.54ZM70.551,84.57C69.769,87.592 69.218,90.592 69.2,93.373C69.181,96.167 69.697,98.972 70.62,101.424C70.402,98.671 70.5,95.877 70.598,93.132C70.664,91.289 70.731,89.384 70.696,87.55C70.676,86.581 70.629,85.589 70.551,84.57Z" fill="#242326"/>
<path d="M74.217,121.726C74.217,121.726 67.202,119.647 62.17,122.142C57.136,124.634 7.469,215.553 0.665,228.158C-6.14,240.762 13.824,261.777 30.293,245.412C41.656,232.972 69.655,183.877 79.522,165.221C89.387,146.567 82.655,122.378 74.217,121.726Z" fill="#989980"/>
</svg>
