<svg width="92" height="92" viewBox="0 0 92 92" fill="none" xmlns="http://www.w3.org/2000/svg" xmlns:xlink="http://www.w3.org/1999/xlink">
<path d="M45.072,2.311C45.408,1.474 46.592,1.474 46.928,2.311L57.663,29.043C57.806,29.399 58.14,29.642 58.523,29.668L87.264,31.617C88.163,31.678 88.529,32.804 87.838,33.382L65.731,51.852C65.437,52.098 65.309,52.491 65.403,52.863L72.431,80.8C72.65,81.674 71.693,82.37 70.929,81.891L46.532,66.574C46.207,66.37 45.793,66.37 45.468,66.574L21.071,81.891C20.307,82.37 19.35,81.674 19.569,80.8L26.597,52.863C26.691,52.491 26.563,52.098 26.269,51.852L4.162,33.382C3.471,32.804 3.837,31.678 4.736,31.617L33.477,29.668C33.86,29.642 34.194,29.399 34.337,29.043L45.072,2.311Z" fill="#596235"/>
<path d="M46,66.421C46.185,66.421 46.369,66.472 46.532,66.574L70.929,81.891C71.693,82.37 72.65,81.674 72.431,80.8L65.403,52.863C65.309,52.491 65.437,52.098 65.731,51.852L87.838,33.382C88.529,32.804 88.163,31.678 87.264,31.617L58.523,29.668C58.14,29.642 57.806,29.399 57.663,29.043L46.928,2.311C46.76,1.893 46.38,1.684 46,1.684L46,66.421Z" clip-rule="evenodd" fill-rule="evenodd" fill="#ADC1BF"/>
</svg>
