<svg width="722" height="298" viewBox="0 0 722 298" fill="none" xmlns="http://www.w3.org/2000/svg" xmlns:xlink="http://www.w3.org/1999/xlink">
<path d="M0,21C0,14.477 0,11.215 1.066,8.642C2.487,5.212 5.212,2.487 8.642,1.066C11.215,0 14.477,0 21,0L701,0C707.524,0 710.784,0 713.358,1.066C716.788,2.487 719.514,5.212 720.934,8.642C722,11.215 722,14.477 722,21L722,277C722,283.524 722,286.784 720.934,289.358C719.514,292.788 716.788,295.514 713.358,296.934C710.784,298 707.524,298 701,298L21,298C14.477,298 11.215,298 8.642,296.934C5.212,295.514 2.487,292.788 1.066,289.358C0,286.784 0,283.524 0,277L0,21Z" fill="url(#pattern_0_197_1785)"/>
<g style="mix-blend-mode:hard-light">
<path d="M0,197C0,190.477 0,187.215 1.066,184.642C2.487,181.212 5.212,178.487 8.642,177.066C11.215,176 14.477,176 21,176L701,176C707.524,176 710.784,176 713.358,177.066C716.788,178.487 719.514,181.212 720.934,184.642C722,187.215 722,190.477 722,197L722,277C722,283.523 722,286.785 720.934,289.358C719.514,292.788 716.788,295.513 713.358,296.934C710.784,298 707.524,298 701,298L21,298C14.477,298 11.215,298 8.642,296.934C5.212,295.513 2.487,292.788 1.066,289.358C0,286.785 0,283.523 0,277L0,197Z" fill="url(#pf_0_197_1786)"/>
</g>
<g opacity="0.5" style="mix-blend-mode:hard-light">
<path d="M0,21C0,14.477 0,11.215 1.066,8.642C2.487,5.212 5.212,2.487 8.642,1.066C11.215,0 14.477,0 21,0L701,0C707.524,0 710.784,0 713.358,1.066C716.788,2.487 719.514,5.212 720.934,8.642C722,11.215 722,14.477 722,21L722,101C722,107.523 722,110.785 720.934,113.358C719.514,116.788 716.788,119.513 713.358,120.934C710.784,122 707.524,122 701,122L21,122C14.477,122 11.215,122 8.642,120.934C5.212,119.513 2.487,116.788 1.066,113.358C0,110.785 0,107.523 0,101L0,21Z" fill="url(#pf_0_197_1787)"/>
</g>
<path d="M648,226C646.895,226 646,226.895 646,228C646,229.105 646.895,230 648,230L648,226ZM656.8,234.4L683.2,234.4L683.2,230.4L656.8,230.4L656.8,234.4ZM690,241.2L690,252.2L694,252.2L694,241.2L690,241.2ZM683.2,259L665.6,259L665.6,263L683.2,263L683.2,259ZM658.8,252.2L658.8,232.4L654.8,232.4L654.8,252.2L658.8,252.2ZM652.4,226L648,226L648,230L652.4,230L652.4,226ZM658.8,232.4C658.8,228.865 655.935,226 652.4,226L652.4,230C653.725,230 654.8,231.075 654.8,232.4L658.8,232.4ZM665.6,259C661.844,259 658.8,255.956 658.8,252.2L654.8,252.2C654.8,258.165 659.635,263 665.6,263L665.6,259ZM690,252.2C690,255.956 686.956,259 683.2,259L683.2,263C689.165,263 694,258.165 694,252.2L690,252.2ZM683.2,234.4C686.956,234.4 690,237.444 690,241.2L694,241.2C694,235.235 689.165,230.4 683.2,230.4L683.2,234.4Z" fill="#FFFFFF"/>
<path d="M665.8,268.7C665.8,269.418 665.218,270 664.5,270L664.5,274C667.427,274 669.8,271.627 669.8,268.7L665.8,268.7ZM664.5,270C663.782,270 663.2,269.418 663.2,268.7L659.2,268.7C659.2,271.627 661.573,274 664.5,274L664.5,270ZM663.2,268.7C663.2,267.982 663.782,267.4 664.5,267.4L664.5,263.4C661.573,263.4 659.2,265.773 659.2,268.7L663.2,268.7ZM664.5,267.4C665.218,267.4 665.8,267.982 665.8,268.7L669.8,268.7C669.8,265.773 667.427,263.4 664.5,263.4L664.5,267.4Z" fill="#FFFFFF"/>
<path d="M685.6,268.7C685.6,269.418 685.018,270 684.3,270L684.3,274C687.227,274 689.6,271.627 689.6,268.7L685.6,268.7ZM684.3,270C683.582,270 683,269.418 683,268.7L679,268.7C679,271.627 681.373,274 684.3,274L684.3,270ZM683,268.7C683,267.982 683.582,267.4 684.3,267.4L684.3,263.4C681.373,263.4 679,265.773 679,268.7L683,268.7ZM684.3,267.4C685.018,267.4 685.6,267.982 685.6,268.7L689.6,268.7C689.6,265.773 687.227,263.4 684.3,263.4L684.3,267.4Z" fill="#FFFFFF"/>
<path d="M668.788,248.262C667.828,247.715 666.607,248.051 666.061,249.011C665.515,249.971 665.85,251.192 666.81,251.738L668.788,248.262ZM681.982,251.742C682.944,251.2 683.284,249.98 682.741,249.018C682.199,248.056 680.979,247.715 680.017,248.258L681.982,251.742ZM666.81,251.738C669.514,253.276 671.885,254.205 674.406,254.2C676.924,254.195 679.29,253.26 681.982,251.742L680.017,248.258C677.533,249.658 675.891,250.197 674.399,250.2C672.91,250.203 671.268,249.672 668.788,248.262L666.81,251.738Z" fill="#FFFFFF"/>
<defs>
<linearGradient id="pf_0_197_1786" x1="361" y1="176" x2="361" y2="298" gradientUnits="userSpaceOnUse">
<stop stop-color="#262626" stop-opacity="0"/>
<stop offset="1" stop-color="#262626"/>
</linearGradient>
<linearGradient id="pf_0_197_1787" x1="361" y1="0" x2="361" y2="122" gradientUnits="userSpaceOnUse">
<stop stop-color="#262626" stop-opacity="0"/>
<stop offset="1" stop-color="#262626"/>
</linearGradient>
</defs>
</svg>
