<svg width="96" height="84" viewBox="0 0 96 84" fill="none" xmlns="http://www.w3.org/2000/svg" xmlns:xlink="http://www.w3.org/1999/xlink">
<path d="M87.57,17.085C87.574,17.085 87.577,17.081 87.575,17.077C86.086,14.65 79.858,7.963 78.1,6.705C76.34,5.445 65.24,1.085 61.68,0.625C58.12,0.165 47.44,-0.075 35.76,4.325C24.9,8.425 19.9,12.125 15.1,16.325C10.32,20.525 9.56,21.725 8.4,23.025C7.24,24.325 3.56,29.785 2.66,32.985C1.76,36.185 0.84,40.585 0.66,45.105C0.48,49.625 0.76,54.985 1.36,57.645C1.96,60.305 6.52,68.705 9.2,72.425C11.88,76.125 19.06,83.065 34.46,82.345C49.86,81.625 60.1,78.325 66,75.065C83.52,65.465 91.12,54.005 91.9,48.705C93.34,39.205 94.96,32.485 93.42,28.465C91.902,24.429 89.046,19.516 87.565,17.093C87.563,17.089 87.566,17.085 87.57,17.085L87.57,17.085ZM87.8,39.465C87.74,41.285 85.6,48.465 83.5,52.145C81.4,55.845 78.2,60.145 74.56,63.185C70.92,66.205 66.44,69.245 59.26,72.565C52.08,75.885 48.02,76.285 44.44,76.925C40.86,77.565 33.76,77.205 31.6,76.745C27.98,75.985 20.88,73.905 18.74,72.025C16.6,70.165 11.34,66.425 10.02,63.485C8.7,60.545 6.62,56.345 5.88,54.185C5.14,52.025 4.48,47.945 4.68,45.365C4.9,42.765 9.06,31.225 12.24,28.465C15.42,25.705 18.8,20.545 23.62,18.065C28.44,15.605 35,11.705 39.84,10.065C44.66,8.425 50.62,7.045 55.26,7.105C59.9,7.165 64.66,8.425 68.32,9.365C71.98,10.305 76.98,13.065 79.74,15.545C82.5,18.025 85.64,21.645 87.52,25.725C89.42,29.825 87.84,37.625 87.8,39.445L87.8,39.465Z" fill="url(#pf_0_65_1097)"/>
<path d="M12.24,28.455C12.24,28.459 12.244,28.461 12.247,28.459C15.425,25.697 18.804,20.543 23.62,18.065C28.44,15.605 35,11.705 39.84,10.065C44.66,8.425 50.62,7.045 55.26,7.105C59.9,7.165 64.66,8.425 68.32,9.365C71.98,10.305 76.98,13.065 79.74,15.545L79.74,15.545C81.029,16.701 82.04,16.096 80.859,14.831C80.678,14.637 80.498,14.443 80.32,14.245C77.88,11.545 74.58,9.945 72.56,8.485C70.54,7.025 65.3,5.825 62.52,4.425C59.74,3.045 50.96,3.425 47.96,3.665C44.96,3.905 37.98,6.205 33.66,7.865C29.34,9.525 24.36,13.425 21.98,15.005C19.58,16.585 14.34,21.365 12.32,23.605C10.3,25.865 6.82,33.505 6.18,35.385C5.56,37.245 4.72,43.145 4.68,45.345C4.9,42.747 9.054,31.223 12.233,28.451C12.236,28.449 12.24,28.451 12.24,28.455L12.24,28.455Z" fill="url(#pf_0_65_1099)"/>
<defs>
<linearGradient id="pf_0_65_1097" x1="2.757" y1="61.127" x2="90.637" y2="21.945" gradientUnits="userSpaceOnUse">
<stop stop-color="#E8DDE2"/>
<stop offset="1" stop-color="#EAC3D8"/>
</linearGradient>
<linearGradient id="pf_0_65_1099" x1="2.552" y1="40.482" x2="78.797" y2="6.487" gradientUnits="userSpaceOnUse">
<stop stop-color="#DDC3D0"/>
<stop offset="1" stop-color="#D3A9C3"/>
</linearGradient>
</defs>
</svg>
