<svg width="138" height="110" viewBox="0 0 138 110" fill="none" xmlns="http://www.w3.org/2000/svg" xmlns:xlink="http://www.w3.org/1999/xlink">
<path d="M135.04,46.315C135.03,46.32 135.019,46.315 135.017,46.304C134.485,42.282 130.277,30.02 128.74,27.365C127.2,24.705 115.3,12.645 110.94,9.985C106.58,7.325 92.86,0.825 75.16,-0.215C58.7,-1.175 50.06,0.725 41.42,3.405C32.78,6.085 31.1,7.205 28.84,8.205C26.6,9.205 18.66,14.185 15.64,17.805C12.62,21.425 8.88,26.625 6.04,32.385C3.2,38.145 0.46,45.265 -0.3,49.065C-1.08,52.865 -0.02,66.405 1.32,72.765C2.66,79.125 7.98,92.265 28.34,100.265C48.72,108.245 63.94,109.865 73.5,109.085C101.8,106.765 118.28,96.265 122.38,89.865C129.74,78.365 135.72,70.585 136.08,64.465C136.439,58.356 135.583,50.334 135.063,46.326C135.061,46.315 135.05,46.31 135.04,46.315L135.04,46.315ZM122.38,75.475C122.367,75.481 122.357,75.49 122.351,75.503C121.203,77.847 114.287,85.894 109.44,89.465C104.58,93.045 97.92,96.785 91.46,98.625C85,100.445 77.4,101.785 66.16,101.945C54.92,102.105 49.42,100.285 44.4,99.025C39.38,97.785 30.38,93.205 27.86,91.365C23.6,88.285 15.58,81.465 13.9,77.805C12.22,74.145 7.54,66.245 7.54,61.665C7.54,57.085 7.26,50.425 7.54,47.185C7.82,43.945 9.32,38.285 11.1,35.045C12.88,31.805 24.96,19.245 30.68,17.485C36.4,15.745 43.8,11.005 51.48,10.585C59.16,10.165 69.94,8.925 77.14,9.585C84.36,10.245 92.88,11.905 98.88,14.665C104.88,17.405 110.3,21.825 114.52,25.145C118.74,28.465 123.6,34.965 125.76,39.785C127.92,44.605 129.88,51.105 129.98,57.505C130.08,63.888 123.554,73.096 122.409,75.446C122.402,75.459 122.393,75.468 122.38,75.475L122.38,75.475Z" fill="url(#pf_0_65_1101)"/>
<path d="M30.66,17.505C36.38,15.765 43.78,11.025 51.46,10.605C59.14,10.185 69.92,8.945 77.12,9.605C84.34,10.265 92.86,11.925 98.86,14.685C104.86,17.425 110.28,21.845 114.5,25.165C118.72,28.485 123.58,34.985 125.74,39.805L125.74,39.805C126.73,42.02 128.385,41.822 127.596,39.527C127.475,39.175 127.355,38.821 127.24,38.465C125.64,33.565 122.28,29.565 120.5,26.485C118.72,23.405 112.64,18.825 109.82,15.425C107,12.005 95.4,7.445 91.36,6.025C87.34,4.605 76.94,3.525 70.38,3.205C63.82,2.865 55.12,5.045 51.08,5.705C47.06,6.365 37.5,9.525 33.56,11.285C29.62,13.045 20.68,20.965 18.78,23.005C16.88,25.065 12.38,32.245 11.08,35.065C12.86,31.825 24.94,19.265 30.66,17.505Z" fill="url(#pf_0_65_1103)"/>
<defs>
<linearGradient id="pf_0_65_1101" x1="-0.58" y1="54.405" x2="136.12" y2="54.405" gradientUnits="userSpaceOnUse">
<stop stop-color="#E8DDE2"/>
<stop offset="1" stop-color="#EAC3D8"/>
</linearGradient>
<linearGradient id="pf_0_65_1103" x1="11.08" y1="27.505" x2="129.7" y2="27.505" gradientUnits="userSpaceOnUse">
<stop stop-color="#DDC3D0"/>
<stop offset="1" stop-color="#D3A9C3"/>
</linearGradient>
</defs>
</svg>
