<svg width="108" height="152" viewBox="0 0 108 152" fill="none" xmlns="http://www.w3.org/2000/svg" xmlns:xlink="http://www.w3.org/1999/xlink">
<path d="M88.425,146.697C87.391,142.136 98.379,136.11 95.297,131.46C91.261,125.37 89.617,95.975 91.413,85.119C97.721,79.833 105.443,75.68 107.333,67.896C108.484,63.157 107.069,58.227 105.873,53.501C102.989,42.089 107.958,25.606 107.569,13.839C97.523,11.171 81.483,5.23 70.641,0.542L37.262,0.542C26.421,5.23 10.381,11.173 0.334,13.839C-0.056,25.606 4.913,42.089 2.03,53.501C0.837,58.229 -0.58,63.159 0.572,67.896C2.462,75.68 10.185,79.833 16.492,85.119C18.368,96.45 21.993,124.79 13.443,131.455C8.953,134.954 19.787,140.395 18.86,144.484C18.86,144.484 32.845,151.769 51.505,151.769C70.164,151.773 88.425,146.697 88.425,146.697Z" fill="#989980"/>
<path d="M56.232,15.568C56.54,12.909 56.82,10.288 57.141,7.77C56.711,10.355 56.393,12.961 56.232,15.568Z" fill="#A8DBD1"/>
<path d="M28.322,45.866C31.707,50.268 39.669,47.611 41.511,45.771C53.237,34.045 54.792,30.4 58.625,18.469L59.43,17.785C58.973,25.21 63.253,38.812 74.854,46.664C78.063,48.835 80.026,46.241 80.69,43.587C83.739,30.116 81.724,17.034 79.124,4.045C76.104,2.848 73.227,1.66 70.645,0.544L37.266,0.544C34.748,1.632 31.945,2.79 29.006,3.958C24.395,25.397 24.942,41.472 28.322,45.866Z" fill="#596235"/>
<path d="M105.265,38.836C104.824,40.102 104.529,41.412 104.235,42.591C101.913,53.536 107.219,64.48 101.913,74.761C97.601,83.051 87.652,86.037 78.698,87.695C81.682,87.695 86.326,86.369 87.32,87.695C90.691,97.852 89.423,105.47 90.419,116.082C90.861,120.578 91.3,122.849 90.306,124.839C88.648,128.487 89.642,130.477 92.628,133.129C93.466,133.967 94.089,135.152 94.745,136.322C95.817,134.62 96.298,132.968 95.299,131.459C91.262,125.369 89.619,95.973 91.415,85.117C97.722,79.831 105.445,75.679 107.335,67.894C108.485,63.156 107.07,58.225 105.875,53.499C104.781,49.167 104.819,44.099 105.265,38.836Z" fill="#737368"/>
<path d="M20.991,88.027C22.317,85.373 28.288,87.695 32.268,87.695C21.987,82.721 8.721,78.741 4.41,67.464C1.756,61.164 5.074,53.536 4.078,46.571C4.078,45.624 3.57,44.675 2.917,43.729C2.997,47.215 2.783,50.531 2.032,53.503C0.838,58.23 -0.578,63.161 0.572,67.898C2.462,75.682 10.185,79.835 16.492,85.121C17.742,92.677 19.77,107.797 18.448,119.008C19.567,116.835 20.714,114.593 20.991,112.236C21.987,103.946 16.681,94.991 20.991,88.027Z" fill="#737368"/>
<path d="M26.733,130.779C26.733,130.779 44.19,128.725 48.678,128.909C48.678,128.909 50.338,118.05 45.102,114.949C45.102,114.949 29.22,116.139 23.725,116.437C18.23,116.732 20.628,131.456 26.733,130.779Z" fill="#F7D1BF"/>
<path d="M54.957,118.133C59.795,120.034 64.198,124.263 68.814,123.084C70.18,122.748 72.365,121.259 74.621,119.875C76.869,118.436 79.184,117.126 80.452,116.782C82.56,116.261 84.441,117.901 82.915,118.793C81.305,119.737 78.302,122.048 75.269,124.234C72.209,126.373 69.137,128.446 66.59,128.412C62.418,128.361 56.152,128.241 52.558,124.776C51.176,123.477 53.197,117.475 54.957,118.133Z" fill="#DEAE97"/>
<path d="M52.444,116.238C57.001,117.861 61.252,121.618 65.587,120.407C66.868,120.073 68.86,118.661 70.921,117.468C72.971,116.214 75.082,115.173 76.299,115.186C77.963,115.262 78.944,116.733 77.582,117.597C75.906,118.665 73.526,120.535 71.066,122.212C68.591,123.848 66.043,125.317 63.619,125.377C59.657,125.457 53.69,125.473 50.274,122.397C48.966,121.252 50.784,115.637 52.444,116.238Z" fill="#DEAE97"/>
<path d="M72.829,120.892L61.553,120.892C52.488,120.892 45.137,113.544 45.137,104.477L45.137,92.857L89.243,92.857L89.243,104.477C89.245,113.544 81.896,120.892 72.829,120.892Z" fill="#E3D0BF"/>
<path d="M48.357,92.859L45.139,92.859L45.139,104.477C45.139,113.544 52.488,120.893 61.555,120.893L69.649,120.893C64.455,119.552 59.499,116.867 55.893,113.44C50.704,107.822 49.005,100.268 48.357,92.859Z" fill="#E6E6E6"/>
<path d="M78.593,92.859L74.387,92.859L74.721,113.925C78.124,108.559 78.593,105.475 78.593,92.859Z" fill="#FFFFFF"/>
<path d="M81.589,118.815L52.718,118.815L52.718,120.911L81.589,120.911L81.589,118.815Z" fill="#E3D0BF"/>
<path d="M52.107,111.533C54.03,109.853 60.159,109.231 66.654,104.836C68.695,103.395 73.796,102.321 73.742,106.033C73.714,107.862 70.703,110.379 67.762,112.749C64.795,115.087 61.877,117.318 61.19,117.984C60.491,118.634 58.454,119.884 56.401,121.086C54.342,122.296 52.259,123.428 51.214,123.682C50.173,123.915 48.996,122.193 48.722,119.762C48.462,117.353 49.135,114.113 52.107,111.533Z" fill="#F7D1BF"/>
<path d="M58.795,117.279C64.43,118.801 69.64,121.805 75.209,121.359C81.007,120.974 83.491,121.393 89.339,121.467C93.075,121.623 93.553,125.359 91.649,125.382C84.644,125.451 78.705,125.357 72.644,125.555C67.659,125.701 60.506,127.26 56.324,124.134C54.71,122.959 56.743,116.771 58.795,117.279Z" fill="#F7D1BF"/>
<path d="M58.951,118.46C63.672,120.548 67.849,125.259 72.495,125.165C77.325,125.129 79.58,124.211 84.476,124.635C86.161,124.768 87.707,128.784 86.136,128.565C80.984,127.904 75.104,129.39 70.094,129.189C68.036,129.127 64.571,129.173 61.464,129.338C58.353,129.448 55.586,129.593 54.87,129.056C54.155,128.509 54.614,125.695 55.606,123.068C56.584,120.458 58.122,118.112 58.951,118.46Z" fill="#F7D1BF"/>
<path d="M51.036,111.613C51.036,111.613 48.348,112.774 45.569,114.42C42.77,116.032 39.936,118.184 39.227,119.597C37.766,122.418 38.682,126.155 42.015,127.953C43.675,128.824 47.219,129.192 50.603,129.42C54.008,129.689 57.268,129.769 58.59,129.605C59.9,129.39 60.912,127.708 61.696,125.636C62.471,123.548 63.006,121.059 63.165,119.3C63.318,117.538 63.017,114.372 61.279,112.235C59.572,110.122 56.237,108.932 51.036,111.613Z" fill="#F7D1BF"/>
</svg>
