<svg width="174" height="400" viewBox="0 0 174 400" fill="none" xmlns="http://www.w3.org/2000/svg" xmlns:xlink="http://www.w3.org/1999/xlink">
<path d="M63.029,79.399L63.029,92.49L63.029,117.989L100.876,117.989L100.876,87.104L100.876,79.399L63.029,79.399Z" fill="#F7D1BF"/>
<path d="M100.876,79.399L63.029,79.399L63.029,92.49L63.029,107.567C76.471,106.662 89.917,102.839 100.876,95.567L100.876,87.106L100.876,79.399Z" fill="#1A1A1A"/>
<path d="M103.661,118.01C103.661,124.47 86.625,135.395 86.625,135.395C86.625,135.395 60.248,124.47 60.248,118.01C60.248,111.55 69.966,109.762 81.955,109.762C93.945,109.762 103.661,111.55 103.661,118.01Z" fill="#F7D1BF"/>
<path d="M100.876,109.762L100.876,113.121C100.876,113.121 103.922,120.169 100.789,121.967C97.656,123.765 86.625,130.849 86.625,135.395C86.625,135.395 105.41,165.836 109.531,151.225C113.653,136.616 110.166,117.216 109.531,114.52C108.896,111.826 100.876,109.762 100.876,109.762Z" fill="#737368"/>
<path d="M63.029,109.762L63.029,113.121C63.029,113.121 61.405,120.169 65.129,121.967C68.852,123.765 86.623,130.849 86.623,135.395C86.623,135.395 59.644,167.746 54.747,153.137C49.851,138.528 53.994,117.218 54.747,114.52C55.502,111.826 63.029,109.762 63.029,109.762Z" fill="#737368"/>
<path d="M47.758,169.051C47.758,169.051 79.16,188.433 119.188,169.051C119.188,169.051 123.962,214.958 123.962,225.431C123.962,235.904 126.771,244.423 131.827,255.612C136.882,266.802 161.458,323.389 172.765,394.813C172.765,394.813 97.558,406.955 0.93,393.339C0.93,393.339 20.232,293.239 28.412,268.91C36.592,244.581 44.206,232.954 44.206,223.965C44.207,210.998 44.207,203.179 47.758,169.051Z" fill="#596235"/>
<path d="M119.61,173.165L123.106,119.662L121.357,119.056L116.871,173.165L119.61,173.165Z" fill="#596235"/>
<path d="M47.703,171.879L44.207,118.375L45.954,117.77L50.442,171.879L47.703,171.879Z" fill="#596235"/>
<path d="M45.727,84.344C50.336,84.344 54.072,79.712 54.072,73.998C54.072,68.285 50.336,63.653 45.727,63.653C41.119,63.653 37.383,68.285 37.383,73.998C37.383,79.712 41.119,84.344 45.727,84.344Z" transform="rotate(-57.815 45.727 73.998)" fill="#F7D1BF"/>
<path d="M110.742,64.872C115.351,64.872 119.087,60.24 119.087,54.526C119.087,48.812 115.351,44.18 110.742,44.18C106.133,44.18 102.397,48.812 102.397,54.526C102.397,60.24 106.133,64.872 110.742,64.872Z" transform="rotate(-8.855 110.742 54.526)" fill="#F7D1BF"/>
<path d="M110.937,58.439C113.566,76.508 102.817,95.746 93.103,98.903C85.656,101.323 55.335,95.246 47.123,74.538C39.892,56.304 36.293,46.885 36.293,46.885C31.921,29.581 42.297,12.049 59.471,7.73L68.268,5.517C85.42,1.203 100.383,9.738 104.782,27.012C107.237,36.661 108.309,40.371 110.937,58.439Z" fill="#F7D1BF"/>
<path d="M61.853,73.117C62.223,74.192 65.148,74.163 68.388,73.049C71.628,71.936 73.955,70.161 73.585,69.084C73.215,68.008 70.291,68.037 67.051,69.151C63.812,70.265 61.485,72.039 61.853,73.117Z" fill="#F89C9C"/>
<path d="M100.834,63.67C104.259,63.67 107.036,62.747 107.036,61.609C107.036,60.471 104.259,59.548 100.834,59.548C97.408,59.548 94.631,60.471 94.631,61.609C94.631,62.747 97.408,63.67 100.834,63.67Z" transform="rotate(-37.943 100.834 61.609)" fill="#F89C9C"/>
<path d="M101.314,52.893C100.871,56.127 98.656,58.859 96.038,59.039C93.44,59.215 90.835,56.857 89.859,53.754C90.634,50.779 91.989,47.733 94.369,47.011C95.982,46.522 97.747,47.251 99.168,48.481C99.973,49.179 100.688,50.025 101.357,50.932C101.419,51.594 101.401,52.252 101.314,52.893Z" fill="#FFFFFF"/>
<path d="M89.858,53.754C89.867,52.232 90.356,50.146 91.229,48.968C92.102,47.791 93.346,46.964 94.685,46.672C97.301,46.098 100.013,47.831 101.947,49.859L104.862,48.047L101.366,52.381C101.366,52.381 99.119,46.917 94.801,47.94C91.004,48.84 89.858,53.754 89.858,53.754Z" fill="#1A1A1A"/>
<path d="M99.966,48.758C99.966,48.758 101.245,48.138 101.689,47.015C101.689,47.015 101.321,48.62 100.773,49.168L99.966,48.758Z" fill="#1A1A1A"/>
<path d="M96.045,58.945C98.241,58.945 100.021,56.336 100.021,53.118C100.021,49.9 98.241,47.291 96.045,47.291C93.848,47.291 92.068,49.9 92.068,53.118C92.068,56.336 93.848,58.945 96.045,58.945Z" transform="rotate(-15.575 96.045 53.118)" fill="#1A1A1A"/>
<path d="M97.986,51.283C98.046,51.612 97.857,51.934 97.563,52.004C97.269,52.073 96.982,51.865 96.922,51.536C96.862,51.207 97.051,50.886 97.345,50.815C97.639,50.746 97.926,50.955 97.986,51.283Z" fill="#FFFFFF"/>
<path d="M98.391,53.649C98.529,54.405 98.092,55.149 97.415,55.311C96.737,55.472 96.074,54.988 95.937,54.231C95.799,53.475 96.236,52.731 96.913,52.57C97.589,52.41 98.251,52.892 98.391,53.649Z" fill="#FFFFFF"/>
<path d="M60.649,63.794C62.644,66.468 66.091,67.867 68.685,66.804C71.258,65.75 72.605,62.434 72.034,59.219C69.846,56.932 67.071,54.853 64.44,55.319C62.659,55.635 61.322,57.108 60.56,58.864C60.128,59.861 59.856,60.948 59.653,62.067C59.918,62.688 60.255,63.266 60.649,63.794Z" fill="#FFFFFF"/>
<path d="M72.034,59.219C71.287,57.868 69.803,56.24 68.395,55.6C66.987,54.96 65.394,54.804 63.97,55.166C61.187,55.876 59.431,58.684 58.566,61.391L54.896,61.137L60.347,63.364C60.347,63.364 59.843,57.452 64.476,56.349C68.549,55.379 72.034,59.219 72.034,59.219Z" fill="#1A1A1A"/>
<path d="M59.885,59.642C59.885,59.642 58.477,59.833 57.485,59.144C57.485,59.144 58.68,60.277 59.44,60.43L59.885,59.642Z" fill="#1A1A1A"/>
<path d="M66.364,67.231C68.739,67.231 70.665,64.629 70.665,61.419C70.665,58.208 68.739,55.606 66.364,55.606C63.988,55.606 62.063,58.208 62.063,61.419C62.063,64.629 63.988,67.231 66.364,67.231Z" transform="rotate(-28.303 66.364 61.419)" fill="#1A1A1A"/>
<path d="M68.375,59.924C68.453,60.248 68.774,60.449 69.092,60.373C69.41,60.298 69.602,59.973 69.524,59.65C69.446,59.327 69.125,59.125 68.807,59.202C68.489,59.278 68.295,59.601 68.375,59.924Z" fill="#FFFFFF"/>
<path d="M66.276,62.454C66.472,63.254 67.265,63.751 68.05,63.565C68.834,63.378 69.311,62.579 69.117,61.779C68.921,60.979 68.128,60.482 67.343,60.669C66.559,60.856 66.082,61.654 66.276,62.454Z" fill="#FFFFFF"/>
<path d="M92.352,43.695C94.44,43.385 96.566,43.366 98.674,43.239C99.41,43.196 100.109,43.14 100.758,43.142C101.46,43.145 98.008,41.961 95.848,41.968C93.892,41.975 90.338,42.26 89.331,42.541C87.873,42.949 86.315,44.239 85.761,45.783C85.511,46.481 86.559,47.04 87.485,46.218C87.486,46.22 89.19,44.165 92.352,43.695Z" fill="#4F2A12"/>
<path d="M63.807,51.61C61.891,52.499 60.106,53.651 58.274,54.705C57.635,55.073 57.02,55.408 56.48,55.768C55.896,56.156 58.129,53.27 59.938,52.089C61.574,51.02 64.7,49.306 65.697,48.988C67.139,48.529 69.151,48.749 70.461,49.736C71.052,50.182 70.486,51.225 69.26,51.047C69.26,51.046 66.706,50.265 63.807,51.61Z" fill="#4F2A12"/>
<path d="M70.835,77.839C70.835,77.855 73.687,77.168 75.357,76.346C79.352,74.822 89.926,70.507 94.841,69.09C96.666,68.754 99.461,67.546 99.449,67.533C99.445,67.577 97.043,72.82 96.508,75.669C95.92,78.539 94.703,82.224 89.364,84.37C84.056,86.418 78.053,82.882 76.029,81.121C74.084,79.339 70.844,77.85 70.835,77.839Z" fill="#E04151"/>
<path d="M82.235,81.462C79.455,81.05 78.536,80.691 76.114,79.354C75.259,78.882 73.786,78.422 72.975,78.122C73.362,78.022 75.118,77.846 78.017,76.646C79.37,76.143 84.087,75.122 86.371,74.111C89.652,72.685 89.453,72.479 92.882,71.084C96.154,69.645 97.613,69.126 98.563,68.593C97.729,70.113 94.404,75.29 93.275,77.007C91.855,79.514 84.974,82.006 82.235,81.462Z" fill="#731E2B"/>
<path d="M94.331,71.748C94.54,71.085 94.761,70.418 94.846,70.238C94.344,70.414 93.576,70.768 92.827,71.096C90.616,72.018 89.257,72.811 84.696,74.494C82.342,75.349 79.357,76.103 78.02,76.646C77.736,76.765 77.465,76.872 77.202,76.97C77.298,77.07 77.395,77.172 77.489,77.272C78.371,78.195 79.86,78.643 81.159,78.309C85.063,77.311 88.838,75.886 92.421,74.057C93.313,73.602 94.019,72.731 94.331,71.748Z" fill="#FEF9F9"/>
<path d="M87.31,78.427C84.588,79.49 79.642,79.651 79.102,80.774C79.963,81.07 80.885,81.268 82.236,81.462C84.976,82.004 91.857,79.512 93.279,77.005C93.649,76.417 94.251,75.504 94.922,74.465C92.736,74.57 90.309,77.304 87.31,78.427Z" fill="#FF8080"/>
<path d="M86.621,71.184C86.46,71.184 86.3,71.113 86.193,70.975C86.008,70.739 86.048,70.397 86.286,70.212C87.396,69.339 88.417,68.374 88.374,67.22C88.348,66.525 87.931,65.863 87.488,65.159C86.911,64.241 86.315,63.293 86.505,62.135C86.554,61.838 86.832,61.638 87.131,61.687C87.427,61.736 87.628,62.015 87.579,62.313C87.456,63.064 87.918,63.801 88.41,64.581C88.909,65.373 89.426,66.193 89.46,67.18C89.52,68.826 88.228,70.068 86.957,71.068C86.857,71.148 86.739,71.184 86.621,71.184Z" fill="#DB6946"/>
<path d="M85.168,14.134C96.958,16.94 109.637,45.739 109.648,53.507C113.914,46.091 109.582,35.718 107.142,27.571C104.628,19.172 94.674,-3.229 75.773,0.537C56.87,4.303 79.954,12.893 85.168,14.134Z" fill="#242326"/>
<path d="M108.331,48.475C108.817,56.074 108.407,63.394 108.866,70.986C109.325,78.578 110.917,86.883 114.885,93.55C118.161,99.056 123.377,102.873 127.446,102.22C123.175,98.976 119.576,92.607 117.855,86.241C115.687,78.226 116.008,68.492 115.801,60.659C115.525,50.222 110.515,34.38 102.554,28.068C102.554,28.067 107.826,40.591 108.331,48.475Z" fill="#242326"/>
<path d="M32.888,62.179C31.416,68.223 28.993,73.813 27.416,79.812C25.84,85.811 25.167,92.576 27.215,98.506C28.907,103.404 32.918,107.348 37.013,107.595C33.76,104.273 31.988,98.642 32.02,93.365C32.062,86.72 34.961,79.197 36.846,73.056C39.357,64.876 38.742,51.604 32.75,45.206C32.75,45.208 33.989,57.656 32.888,62.179Z" fill="#242326"/>
<path d="M36.857,50.469C37.465,73.332 47.816,96.512 66.672,109.454C53.9,91.68 47.391,69.495 48.534,47.639L36.857,50.469Z" fill="#242326"/>
<path d="M76.185,2.845C64.886,-1.638 51.645,2.29 42.974,10.651C34.212,19.101 29.94,32.128 30.867,44.807C31.67,55.786 36.18,66.404 42.958,75.034C41.787,65.519 42.529,57.656 48.226,50.413C49.118,49.954 52.061,47.503 52.879,46.926C58.896,42.668 62.769,35.381 63.382,27.72C63.206,34.592 60.821,41.422 56.483,46.766C63.801,46.73 71.061,43.722 76.259,38.572C78.574,36.279 80.464,33.571 81.863,30.628C82.311,33.458 82.421,36.337 82.158,39.171C88.045,35.006 91.194,27.025 89.905,19.546C88.636,12.204 82.989,5.544 76.185,2.845Z" fill="#242326"/>
<path d="M82.685,37.799C83.004,34.242 82.362,31.876 81.634,28.286C78.293,37.941 68.19,43.149 58.247,45.779C64.507,40.098 65.505,29.638 62.606,23.011C63.232,35.767 56.337,42.543 48.583,49.019C48.277,49.308 48.164,49.87 48.177,50.478C48.195,50.456 48.209,50.434 48.228,50.411C49.12,49.952 52.063,47.501 52.881,46.924C58.898,42.666 62.771,35.379 63.384,27.718C63.208,34.59 60.823,41.42 56.485,46.764C63.803,46.728 71.063,43.72 76.261,38.57C78.576,36.277 80.466,33.569 81.865,30.626C82.313,33.456 82.423,36.335 82.16,39.169C87.209,35.597 90.242,29.219 90.189,22.755C89.134,27.695 88.413,35.105 82.685,37.799Z" fill="#242326"/>
<path d="M41.55,16.462C34.092,20.511 29.802,28.937 28.739,37.357C27.676,45.776 29.393,54.282 31.398,62.527C33.403,70.773 35.717,79.045 35.875,87.529C36.008,94.632 34.671,102.075 37.452,108.613C39.298,112.956 44.465,115.862 47.07,119.797C54.154,130.496 52.427,145.933 45.407,156.65C49.45,155.291 56.59,149.04 58.299,139.084C59.928,129.593 58.187,122.975 54.86,117.643C52.048,113.137 48.868,109.068 46.094,104.54C42.571,98.788 42.909,91.564 43.36,84.834C44.064,74.314 44.77,63.794 45.474,53.274L41.55,16.462Z" fill="#242326"/>
<path d="M145.723,127.091C148.01,121.079 147.655,114.039 144.516,108.4C139.972,100.239 130.232,94.833 128.853,85.592C128.019,79.993 130.595,74.373 130.176,68.728C129.427,58.647 119.766,51.757 115.554,42.567C112.739,36.426 112.456,29.427 110.253,23.04C104.918,7.558 87.933,-3.731 70.323,1.962C60.188,5.238 70.336,12.554 79.475,10.085C100.305,4.458 104.553,19.071 105.109,31.174C105.462,38.881 107.177,46.625 111.654,52.909C115.454,58.242 120.253,61.929 122.678,68.011C124.581,72.786 123.269,78.154 122.168,83.174C121.067,88.193 120.294,93.815 123.041,98.16C126.422,103.511 133.635,104.712 138.731,108.468C144.892,113.005 147.685,121.736 144.91,128.963C145.207,128.352 145.479,127.728 145.723,127.091Z" fill="#242326"/>
<path d="M81.204,31.488C81.148,31.504 81.088,31.51 81.025,31.499C80.811,31.463 80.667,31.26 80.704,31.045C81.816,24.56 80.928,17.688 78.206,11.698C78.115,11.5 78.204,11.268 78.401,11.177C78.597,11.088 78.831,11.176 78.922,11.373C81.71,17.507 82.617,24.54 81.478,31.18C81.453,31.33 81.342,31.446 81.204,31.488Z" fill="#4F2A12"/>
<path d="M48.264,50.699C48.2,50.717 48.131,50.721 48.062,50.705C47.852,50.656 47.72,50.443 47.769,50.233C48.917,45.326 49.136,40.096 48.4,35.111C48.367,34.896 48.518,34.695 48.732,34.664C48.946,34.633 49.147,34.78 49.178,34.996C49.929,40.078 49.706,45.409 48.534,50.412C48.502,50.554 48.394,50.659 48.264,50.699Z" fill="#4F2A12"/>
</svg>
