<svg width="136" height="60" viewBox="0 0 136 60" fill="none" xmlns="http://www.w3.org/2000/svg" xmlns:xlink="http://www.w3.org/1999/xlink">
<path d="M42.403,46.543C42.665,46.412 42.958,46.341 43.258,46.314C43.559,46.294 43.865,46.33 44.159,46.416C44.762,46.591 45.221,47.018 45.768,47.143C46.316,47.29 46.902,47.232 47.454,47.087C47.731,47.014 48.003,46.913 48.27,46.8C48.54,46.695 48.805,46.57 49.076,46.457C48.584,46.769 48.076,47.063 47.51,47.255C46.949,47.448 46.32,47.52 45.714,47.364C45.094,47.206 44.642,46.771 44.107,46.582C43.57,46.387 42.964,46.372 42.403,46.543Z" fill="#DA821C"/>
<path d="M51.49,51.788C51.245,51.671 51.035,51.485 50.863,51.268C50.697,51.046 50.576,50.791 50.512,50.52C50.443,50.252 50.454,49.958 50.512,49.695C50.569,49.432 50.652,49.185 50.645,48.948C50.648,48.712 50.536,48.49 50.375,48.295C50.219,48.093 50.01,47.926 49.819,47.727C49.633,47.529 49.446,47.304 49.375,47.025C49.313,46.758 49.359,46.439 49.578,46.275C49.4,46.475 49.395,46.762 49.484,46.996C49.565,47.233 49.747,47.427 49.943,47.602C50.141,47.776 50.355,47.944 50.541,48.158C50.725,48.369 50.875,48.652 50.875,48.949C50.877,49.243 50.785,49.501 50.725,49.748C50.658,49.993 50.647,50.239 50.685,50.491C50.721,50.742 50.815,50.987 50.953,51.208C51.087,51.433 51.273,51.627 51.49,51.788Z" fill="#DA821C"/>
<path d="M48.586,49.851C48.359,49.614 48.136,49.363 47.989,49.057C47.838,48.754 47.771,48.391 47.871,48.046C47.922,47.876 48.025,47.72 48.139,47.6C48.256,47.48 48.373,47.377 48.473,47.264C48.575,47.154 48.635,47.028 48.649,46.878C48.669,46.733 48.624,46.569 48.477,46.482C48.647,46.519 48.751,46.711 48.762,46.88C48.778,47.052 48.718,47.241 48.617,47.375C48.419,47.653 48.159,47.839 48.092,48.115C48.009,48.387 48.049,48.701 48.154,48.99C48.263,49.282 48.43,49.563 48.586,49.851Z" fill="#DA821C"/>
<path d="M46.565,49.007C46.583,48.512 46.734,48.033 46.955,47.594C47.182,47.159 47.481,46.756 47.873,46.453C47.624,46.876 47.378,47.277 47.163,47.701C46.942,48.122 46.761,48.557 46.565,49.007Z" fill="#DA821C"/>
<path d="M65.903,21.674C65.903,21.674 66.602,17.273 68.57,16.958C70.536,16.642 70.965,16.368 71.443,13.83C71.443,13.83 71.507,17.446 70.09,17.603C68.673,17.761 68.252,18.552 67.507,20.669C66.761,22.788 65.903,21.674 65.903,21.674Z" fill="#C85D27"/>
<path d="M65.963,23.046C65.963,23.046 69.876,18.594 69.437,16.671C68.673,13.324 69.203,10.089 70.634,7.533C70.634,7.533 66.814,11.994 67.151,14.517C67.683,18.479 64.084,20.31 63.344,21.172C62.603,22.031 65.963,23.046 65.963,23.046Z" fill="#E6966E"/>
<path d="M48.054,48.049C37.892,41.041 34.657,32.381 38.946,23.664C40.78,20.183 43.465,17.841 46.928,16.698C48.885,16.052 51.086,15.791 53.473,15.923C57.159,16.126 60.352,17.224 61.551,17.686C63.293,18.356 64.408,17.398 65.954,16.072C66.246,15.822 66.549,15.562 66.868,15.303L71.522,11.187L70.727,12.583C69.372,14.826 68.098,18.461 67.79,19.657C67.699,20.007 67.605,20.37 67.628,20.783C67.685,21.826 68.392,23.51 73.143,28.722C73.577,29.197 73.972,29.698 74.317,30.213C76.438,33.368 76.844,37.277 75.46,41.224C74.303,44.524 71.942,47.695 68.984,49.921C67.569,50.986 65.84,51.668 63.848,51.949C59.282,52.592 54.434,50.997 51.951,49.99C50.485,49.395 49.105,48.709 48.069,48.06L48.054,48.049Z" fill="#FD7631"/>
<path d="M53.758,49.335C45.484,45.455 41.114,35.343 44.586,26.238C47.207,19.203 52.7,17.864 56.61,17.962C60.519,18.06 61.147,17.832 61.259,17.576C59.886,17.07 56.894,16.112 53.471,15.923C51.084,15.793 48.882,16.054 46.926,16.698C43.463,17.841 40.778,20.183 38.944,23.664C34.655,32.381 37.892,41.041 48.052,48.049L48.067,48.058C49.105,48.708 50.483,49.393 51.949,49.988C54.433,50.995 59.28,52.59 63.846,51.948C65.838,51.668 67.567,50.984 68.982,49.92C69.074,49.849 69.165,49.776 69.257,49.704C64.053,51.376 58.375,51.378 53.758,49.335Z" fill="#C85D27"/>
<path d="M64.096,19.374C64.096,19.374 57.401,21.774 52.942,29.154C48.482,36.535 47.548,46.13 47.548,46.13C47.548,46.13 48.375,38.77 52.84,29.774C56.762,22.532 64.096,19.374 64.096,19.374Z" fill="#FF8C50"/>
<path d="M65.296,21.039C65.296,21.039 65.657,26.603 60.543,34.599C55.572,42.371 50.014,47.158 50.014,47.158C50.014,47.158 55.898,42.489 60.836,34.73C65.575,27.285 65.296,21.039 65.296,21.039Z" fill="#FFA678"/>
<path d="M59.16,19.22C57.664,19.02 56.145,19.131 54.698,19.466C53.25,19.8 51.871,20.388 50.645,21.193C49.428,22.01 48.337,23.009 47.443,24.165C46.545,25.315 45.794,26.589 45.139,27.898C43.827,30.512 42.991,33.402 42.969,36.357C42.953,37.83 43.156,39.318 43.635,40.729C44.1,42.143 44.862,43.476 45.899,44.583C44.803,43.53 43.996,42.199 43.468,40.784C42.948,39.362 42.708,37.852 42.692,36.352C42.665,34.85 42.884,33.357 43.252,31.913C43.622,30.467 44.158,29.07 44.814,27.737C45.491,26.413 46.255,25.135 47.184,23.964C47.648,23.381 48.154,22.828 48.709,22.327C49.261,21.823 49.856,21.362 50.492,20.965C51.764,20.17 53.181,19.602 54.658,19.298C55.398,19.151 56.151,19.071 56.905,19.051C57.658,19.033 58.418,19.073 59.16,19.22Z" fill="#FF8C50"/>
<path d="M69.363,26.251C69.82,26.855 70.186,27.521 70.502,28.207C70.814,28.894 71.07,29.607 71.26,30.336C71.632,31.797 71.739,33.321 71.58,34.812C71.5,35.557 71.346,36.294 71.133,37.01C70.927,37.729 70.647,38.425 70.328,39.098C69.678,40.445 68.864,41.691 67.968,42.877C67.055,44.051 66.03,45.143 64.893,46.106C63.754,47.068 62.505,47.917 61.143,48.548C59.786,49.188 58.324,49.631 56.818,49.784C55.314,49.927 53.765,49.782 52.339,49.256C53.789,49.706 55.32,49.809 56.795,49.609C58.273,49.424 59.701,48.958 61.018,48.3C63.666,46.992 65.901,44.978 67.681,42.656C68.572,41.495 69.39,40.263 70.034,38.953C70.682,37.644 71.106,36.227 71.309,34.774C71.5,33.319 71.425,31.822 71.093,30.374C70.758,28.927 70.195,27.512 69.363,26.251Z" fill="#FF8C50"/>
<path d="M50.021,47.397C53.248,47.088 56.368,46.16 59.178,44.668C60.586,43.926 61.912,43.041 63.142,42.038C64.368,41.031 65.499,39.906 66.507,38.671C65.613,39.99 64.539,41.196 63.329,42.252C62.123,43.313 60.782,44.226 59.356,44.984C57.927,45.737 56.41,46.335 54.839,46.745C53.27,47.159 51.646,47.382 50.021,47.397Z" fill="#FF8C50"/>
<path d="M61.388,20.182C60.036,20.412 58.718,20.775 57.488,21.319C56.258,21.865 55.122,22.594 54.124,23.481C53.119,24.361 52.25,25.386 51.468,26.475C50.69,27.567 49.992,28.721 49.319,29.891C49.865,28.655 50.485,27.447 51.233,26.313C51.976,25.178 52.853,24.118 53.879,23.211C54.908,22.308 56.089,21.568 57.372,21.063C58.65,20.55 60.016,20.274 61.388,20.182Z" fill="#FFA678"/>
<path d="M67.815,47.033C68.788,45.97 69.722,44.88 70.558,43.721L71.162,42.837L71.71,41.921C71.881,41.609 72.039,41.29 72.204,40.976C72.358,40.657 72.485,40.325 72.626,39.998C73.154,38.681 73.435,37.266 73.446,35.837C73.457,34.407 73.201,32.967 72.759,31.575C73.334,32.921 73.693,34.372 73.729,35.842C73.764,36.577 73.68,37.308 73.566,38.032C73.497,38.391 73.401,38.745 73.316,39.098C73.198,39.443 73.093,39.793 72.964,40.134C72.425,41.489 71.679,42.752 70.785,43.889C69.9,45.034 68.887,46.07 67.815,47.033Z" fill="#FFA678"/>
<path d="M15.449,56.775C15.602,56.524 15.814,56.309 16.054,56.127C16.298,55.951 16.576,55.819 16.872,55.735C17.474,55.565 18.089,55.683 18.621,55.498C19.163,55.331 19.629,54.972 20.019,54.554C20.217,54.346 20.393,54.115 20.56,53.878C20.734,53.645 20.89,53.399 21.06,53.161C20.81,53.685 20.534,54.204 20.157,54.667C19.783,55.128 19.288,55.523 18.693,55.714C18.084,55.909 17.469,55.781 16.915,55.904C16.355,56.024 15.834,56.334 15.449,56.775Z" fill="#DA821C"/>
<path d="M25.935,56.399C25.665,56.428 25.387,56.385 25.128,56.29C24.87,56.19 24.632,56.038 24.435,55.842C24.233,55.652 24.086,55.398 23.998,55.142C23.907,54.89 23.845,54.636 23.713,54.438C23.589,54.237 23.379,54.108 23.138,54.026C22.898,53.939 22.633,53.908 22.367,53.839C22.104,53.772 21.824,53.68 21.617,53.48C21.423,53.288 21.293,52.992 21.392,52.736C21.347,53.001 21.496,53.246 21.695,53.397C21.89,53.554 22.149,53.623 22.405,53.667C22.664,53.709 22.936,53.74 23.208,53.821C23.475,53.901 23.753,54.062 23.91,54.315C24.066,54.563 24.126,54.83 24.206,55.071C24.279,55.314 24.402,55.528 24.567,55.722C24.73,55.915 24.941,56.072 25.175,56.187C25.405,56.31 25.667,56.375 25.935,56.399Z" fill="#DA821C"/>
<path d="M22.447,56.298C22.127,56.218 21.808,56.122 21.518,55.94C21.229,55.763 20.981,55.49 20.881,55.148C20.834,54.975 20.839,54.788 20.872,54.627C20.906,54.464 20.95,54.313 20.975,54.166C21.002,54.019 20.986,53.88 20.919,53.745C20.859,53.611 20.734,53.499 20.563,53.502C20.729,53.442 20.917,53.551 21.017,53.687C21.122,53.823 21.171,54.016 21.157,54.184C21.137,54.525 21.015,54.819 21.106,55.091C21.18,55.367 21.38,55.61 21.621,55.799C21.87,55.987 22.16,56.136 22.447,56.298Z" fill="#DA821C"/>
<path d="M20.284,56.655C20.036,56.227 19.91,55.739 19.863,55.251C19.823,54.761 19.863,54.26 20.036,53.798C20.048,54.288 20.052,54.759 20.097,55.233C20.135,55.704 20.212,56.171 20.284,56.655Z" fill="#DA821C"/>
<path d="M22.167,23.227C22.167,23.227 20.424,19.127 21.924,17.816C23.424,16.504 23.64,16.045 22.7,13.64C22.7,13.64 24.672,16.669 23.555,17.556C22.437,18.443 22.501,19.336 22.993,21.526C23.484,23.715 22.167,23.227 22.167,23.227Z" fill="#C85D27"/>
<path d="M22.947,24.357C22.947,24.357 23.901,18.507 22.508,17.11C20.085,14.679 18.816,11.656 18.673,8.729C18.673,8.729 17.802,14.537 19.43,16.496C21.982,19.571 19.905,23.035 19.733,24.157C19.56,25.28 22.947,24.357 22.947,24.357Z" fill="#E6966E"/>
<path d="M21.039,55.054C8.707,54.508 1.368,48.886 0.376,39.222C0.082,35.298 1.115,31.889 3.444,29.081C4.759,27.496 6.488,26.106 8.58,24.951C11.812,23.165 15.099,22.402 16.362,22.157C18.194,21.799 18.631,20.395 19.237,18.452C19.352,18.086 19.47,17.705 19.604,17.315L21.362,11.357L21.429,12.963C21.47,15.582 22.321,19.339 22.693,20.517C22.802,20.861 22.914,21.219 23.154,21.556C23.754,22.411 25.247,23.461 32.041,25.357C32.66,25.529 33.262,25.745 33.828,25.997C37.3,27.545 39.718,30.643 40.642,34.721C41.413,38.132 41.095,42.072 39.769,45.53C39.134,47.184 38.033,48.679 36.493,49.974C32.965,52.942 28.01,54.163 25.371,54.627C23.812,54.901 22.28,55.054 21.055,55.054L21.039,55.054Z" fill="#FD7631"/>
<path d="M26.555,53.117C17.485,54.22 8.413,47.971 6.522,38.41C5.011,31.056 8.955,27.007 12.32,25.013C15.685,23.021 16.095,22.494 16.055,22.218C14.622,22.517 11.578,23.294 8.578,24.95C6.486,26.105 4.757,27.495 3.442,29.081C1.113,31.889 0.08,35.297 0.374,39.221C1.367,48.885 8.705,54.507 21.037,55.053L21.055,55.053C22.28,55.053 23.812,54.902 25.371,54.627C28.01,54.162 32.965,52.94 36.493,49.974C38.033,48.678 39.134,47.183 39.769,45.529C39.811,45.42 39.849,45.309 39.889,45.201C36.364,49.382 31.553,52.397 26.555,53.117Z" fill="#C85D27"/>
<path d="M19.415,22.236C19.415,22.236 15.014,27.824 15.154,36.446C15.293,45.069 19.595,53.697 19.595,53.697C19.595,53.697 16.389,47.021 15.399,37.027C14.874,28.805 19.415,22.236 19.415,22.236Z" fill="#FF8C50"/>
<path d="M21.314,23.011C21.314,23.011 24.574,27.535 24.484,37.026C24.395,46.251 22.227,53.259 22.227,53.259C22.227,53.259 24.736,46.179 24.803,36.981C24.866,28.156 21.314,23.011 21.314,23.011Z" fill="#FFA678"/>
<path d="M15.148,24.726C13.773,25.351 12.545,26.251 11.498,27.303C10.448,28.356 9.592,29.584 8.98,30.917C8.382,32.256 7.99,33.682 7.843,35.137C7.692,36.588 7.732,38.066 7.872,39.523C8.148,42.435 8.973,45.328 10.524,47.843C11.292,49.1 12.253,50.252 13.409,51.195C14.553,52.148 15.907,52.871 17.372,53.26C15.885,52.949 14.493,52.249 13.296,51.329C12.101,50.401 11.096,49.247 10.287,47.986C9.467,46.727 8.859,45.346 8.405,43.926C7.952,42.504 7.663,41.036 7.513,39.558C7.382,38.076 7.353,36.588 7.518,35.102C7.603,34.362 7.738,33.624 7.943,32.905C8.142,32.185 8.402,31.479 8.73,30.805C9.385,29.455 10.285,28.223 11.377,27.182C11.926,26.665 12.521,26.197 13.151,25.78C13.777,25.364 14.441,24.994 15.148,24.726Z" fill="#FF8C50"/>
<path d="M27.528,25.27C28.235,25.54 28.899,25.91 29.53,26.322C30.16,26.739 30.755,27.207 31.303,27.724C32.393,28.765 33.293,29.999 33.95,31.347C34.278,32.022 34.537,32.727 34.737,33.447C34.944,34.166 35.076,34.904 35.161,35.644C35.327,37.13 35.296,38.618 35.167,40.1C35.016,41.578 34.728,43.048 34.274,44.468C33.819,45.887 33.213,47.269 32.393,48.528C31.582,49.791 30.579,50.943 29.384,51.872C28.186,52.791 26.795,53.492 25.307,53.802C26.773,53.414 28.126,52.69 29.271,51.737C30.427,50.796 31.388,49.642 32.155,48.385C33.707,45.871 34.53,42.977 34.808,40.065C34.947,38.609 34.987,37.13 34.837,35.679C34.692,34.224 34.298,32.798 33.699,31.459C33.088,30.126 32.232,28.898 31.181,27.846C30.131,26.795 28.903,25.895 27.528,25.27Z" fill="#FF8C50"/>
<path d="M22.359,53.457C24.93,51.483 27.081,49.04 28.672,46.282C29.472,44.907 30.126,43.452 30.635,41.95C31.14,40.446 31.501,38.891 31.7,37.31C31.642,38.902 31.372,40.493 30.907,42.032C30.448,43.57 29.797,45.056 28.99,46.456C28.177,47.853 27.21,49.165 26.096,50.346C24.986,51.53 23.729,52.582 22.359,53.457Z" fill="#FF8C50"/>
<path d="M17.548,24.357C16.523,25.27 15.6,26.277 14.845,27.392C14.092,28.508 13.517,29.729 13.142,31.01C12.757,32.289 12.565,33.618 12.48,34.957C12.402,36.296 12.42,37.644 12.472,38.994C12.28,37.657 12.164,36.303 12.197,34.946C12.224,33.589 12.404,32.227 12.792,30.912C13.184,29.6 13.793,28.345 14.611,27.236C15.422,26.123 16.435,25.163 17.548,24.357Z" fill="#FFA678"/>
<path d="M37.248,43.702C37.507,42.285 37.719,40.865 37.815,39.439L37.857,38.369L37.835,37.3C37.814,36.944 37.779,36.591 37.752,36.237C37.712,35.885 37.645,35.535 37.592,35.185C37.34,33.788 36.827,32.44 36.079,31.223C35.33,30.006 34.349,28.921 33.233,27.976C34.436,28.812 35.51,29.851 36.321,31.076C36.74,31.68 37.057,32.344 37.344,33.017C37.476,33.358 37.581,33.708 37.698,34.055C37.781,34.41 37.877,34.762 37.95,35.119C38.213,36.554 38.249,38.02 38.097,39.459C37.953,40.901 37.645,42.318 37.248,43.702Z" fill="#FFA678"/>
<path d="M92.084,49.306C93.844,47.316 95.205,45.009 96.504,42.714C97.543,40.876 98.381,38.931 97.608,36.822C96.81,34.643 94.92,32.74 93.334,31.08C91.314,28.965 89.075,27.042 86.669,25.356C84.756,24.018 82.822,22.976 80.414,23.287C77.788,23.626 75.179,24.836 72.853,25.995C67.792,28.518 63.284,31.922 58.484,34.859C57.386,35.53 56.26,36.147 55.115,36.735C55.108,36.647 55.093,36.56 55.088,36.473C55.042,35.809 53.974,35.724 54.019,36.395C54.039,36.682 54.074,36.963 54.108,37.244C49.711,39.425 45.117,41.257 41.03,43.953C36.802,46.743 32.578,50.661 32.346,55.799C32.333,56.087 32.362,56.236 32.413,56.298C32.408,56.294 32.404,56.29 32.399,56.287C32.598,56.586 32.896,57 33.208,57.315C35.94,58.616 39.472,58.213 42.376,57.738C43.213,57.6 44.049,57.471 44.885,57.341C44.943,57.393 44.996,57.45 45.054,57.502C45.442,57.842 46.001,57.529 46.017,57.161C50.663,56.441 55.32,55.806 60.008,55.336C65.319,54.805 70.651,54.455 75.99,54.268C76.131,54.426 76.273,54.583 76.414,54.732C76.832,55.177 77.508,54.685 77.321,54.219C77.568,54.211 77.815,54.199 78.061,54.192C80.589,54.124 83.174,54.15 85.624,53.495C88.213,52.806 90.354,51.265 92.084,49.306Z" fill="#FE6D00"/>
<path d="M37.914,50.703C38.666,44.08 51.142,45.119 55.792,41.418C62.498,35.303 72.519,32.644 81.129,29.652C83.185,28.634 85.419,27.448 87.284,25.797C87.079,25.648 86.876,25.5 86.669,25.355C84.756,24.016 82.822,22.974 80.414,23.285C77.788,23.624 75.179,24.834 72.853,25.993C67.792,28.516 63.284,31.92 58.484,34.857C57.386,35.528 56.26,36.145 55.115,36.733C55.108,36.645 55.093,36.558 55.088,36.471C55.042,35.807 53.974,35.722 54.019,36.393C54.039,36.68 54.074,36.961 54.108,37.242C49.711,39.423 45.117,41.255 41.03,43.951C36.802,46.741 32.578,50.659 32.346,55.797C32.333,56.085 32.362,56.234 32.413,56.296C32.408,56.292 32.404,56.288 32.399,56.285C32.598,56.584 32.896,56.998 33.208,57.313C35.94,58.614 39.472,58.211 42.376,57.736C43.018,57.631 43.661,57.531 44.305,57.429C40.657,55.43 37.674,52.949 37.914,50.703Z" fill="#D65C00"/>
<path d="M73.321,52.798C70.56,49.404 67.503,45.46 68.441,40.886C68.503,40.589 68.035,40.436 67.973,40.739C66.999,45.501 70.072,49.565 72.96,53.115C73.156,53.358 73.517,53.039 73.321,52.798Z" fill="#DB5E25"/>
<path d="M51.412,48.76C50.139,46.008 49.66,43.051 49.99,40.068C50.024,39.762 49.535,39.737 49.5,40.041C49.161,43.103 49.669,46.148 50.977,48.972C51.106,49.255 51.543,49.041 51.412,48.76Z" fill="#CC5823"/>
<path d="M46.81,55.155C45.426,53.159 43.844,50.73 45.045,48.312C45.181,48.04 44.767,47.777 44.629,48.053C43.341,50.645 44.862,53.19 46.373,55.367C46.549,55.619 46.986,55.411 46.81,55.155Z" fill="#DB5E25"/>
<path d="M45.246,55.24C44.92,54.685 44.593,54.131 44.267,53.576C44.109,53.308 43.672,53.52 43.829,53.788C44.156,54.344 44.482,54.897 44.809,55.452C44.967,55.719 45.404,55.508 45.246,55.24Z" fill="#DB5E25"/>
<path d="M79.536,38.837C77.691,35.169 77.328,31.018 78.517,27.134C78.607,26.84 78.139,26.691 78.049,26.987C76.826,30.984 77.2,35.272 79.099,39.049C79.239,39.328 79.676,39.114 79.536,38.837Z" fill="#CC5823"/>
<path d="M76.773,29.311C76.601,28.592 76.632,27.869 76.866,27.17C76.964,26.878 76.496,26.731 76.398,27.023C76.139,27.794 76.104,28.61 76.295,29.405C76.367,29.706 76.846,29.61 76.773,29.311Z" fill="#CC5823"/>
<path d="M98.737,11.698C99.036,11.649 99.363,11.862 99.702,12.297C99.871,12.515 100.043,12.789 100.215,13.113C100.301,13.275 100.389,13.449 100.473,13.638C100.551,13.826 100.629,14.028 100.705,14.238C100.857,14.663 101.008,15.131 101.148,15.64C101.266,16.156 101.376,16.709 101.474,17.297C101.569,17.884 101.607,18.516 101.654,19.165C101.686,19.818 101.652,20.506 101.627,21.202C101.496,22.603 101.111,24.397 100.319,26.159C99.539,27.924 98.349,29.594 97.077,30.861C95.809,32.136 94.517,33.061 93.57,33.682C93.097,33.994 92.694,34.215 92.426,34.378C92.155,34.536 92.005,34.625 92.005,34.625C92.005,34.625 92.11,34.487 92.299,34.24C92.484,33.99 92.77,33.645 93.088,33.197C93.728,32.303 94.564,31.048 95.27,29.613C95.983,28.178 96.504,26.561 96.779,25.017C97.066,23.474 97.124,21.997 97.238,20.832C97.394,18.487 97.46,16.264 97.619,14.59C97.643,14.381 97.672,14.182 97.703,13.99C97.728,13.799 97.754,13.618 97.784,13.447C97.846,13.106 97.922,12.807 98.013,12.556C98.196,12.052 98.437,11.747 98.737,11.698Z" fill="#8CC63F"/>
<path d="M131.842,13.793C130.883,15.729 129.656,17.679 128.192,19.522C126.728,21.365 125.045,23.12 123.213,24.727C121.388,26.332 119.388,27.798 117.386,29.065C115.376,30.342 113.324,31.439 111.325,32.386C107.321,34.287 103.533,35.583 100.457,36.471C97.374,37.355 94.987,37.832 93.674,37.925C91.176,38.093 89.528,36.903 90.201,34.79C90.537,33.732 91.46,32.444 93.115,30.969C94.766,29.489 97.166,27.842 100.313,25.944C103.464,24.047 106.41,22.28 109.124,20.565C110.472,19.705 111.798,18.866 113.017,18.029C113.645,17.627 114.227,17.188 114.833,16.785C115.125,16.573 115.416,16.364 115.704,16.155C115.998,15.95 116.286,15.743 116.562,15.529C121.094,12.201 124.771,8.857 127.697,5.659C128.444,4.866 129.065,4.108 129.673,3.451C129.952,3.116 130.224,2.805 130.489,2.521C130.763,2.236 131.011,1.978 131.231,1.751C132.143,0.837 132.925,0.432 133.504,0.812C133.794,1.002 134.034,1.389 134.212,2.005C134.295,2.314 134.384,2.684 134.418,3.106C134.453,3.529 134.465,4.012 134.455,4.558C134.415,5.643 134.241,6.974 133.84,8.529C133.751,8.924 133.62,9.318 133.49,9.732C133.353,10.143 133.221,10.581 133.054,11.02C132.709,11.889 132.334,12.834 131.842,13.793Z" fill="#8CC63F"/>
<path d="M121.299,40.134C121.299,39.764 121.239,39.426 121.146,39.172C121.048,38.916 120.945,38.768 120.82,38.655C120.695,38.526 120.51,38.378 120.188,38.189C119.871,38.002 119.417,37.801 118.881,37.61C118.336,37.421 117.716,37.244 117.014,37.071C116.675,36.981 116.334,36.892 115.989,36.819C115.646,36.745 115.307,36.651 114.962,36.591C113.594,36.295 112.223,36.085 110.895,35.927C109.565,35.767 108.275,35.665 107.063,35.626C106.456,35.589 105.872,35.598 105.307,35.582C104.747,35.589 104.204,35.582 103.695,35.597C101.654,35.647 100.061,35.758 99.196,35.738C98.368,35.7 97.699,35.519 97.291,35.139C96.886,34.767 96.754,34.232 97.07,33.557C97.385,32.881 98.153,32.052 99.588,31.228C101.019,30.408 103.13,29.586 106.071,29.127C107.541,28.912 109.006,28.801 110.449,28.79C111.891,28.799 113.309,28.875 114.683,29.077C115.37,29.164 116.045,29.298 116.709,29.425C117.369,29.577 118.024,29.715 118.657,29.908C119.895,30.247 121.248,30.702 122.579,31.413C123.245,31.772 123.913,32.202 124.542,32.732C125.17,33.26 125.758,33.897 126.224,34.615C126.69,35.328 127.033,36.132 127.215,36.899C127.4,37.67 127.441,38.414 127.394,39.1C127.176,41.841 125.712,43.731 124.366,44.858C123.679,45.434 123.024,45.841 122.438,46.146C121.852,46.45 121.333,46.652 120.894,46.775C120.016,47.02 119.454,46.956 119.283,46.546C119.104,46.136 119.363,45.362 119.929,44.237C120.203,43.677 120.544,43.029 120.829,42.32C120.969,41.969 121.101,41.589 121.181,41.231C121.257,40.883 121.308,40.504 121.299,40.134Z" fill="#8CC63F"/>
<path d="M109.732,13.053C108.678,16.384 107.278,20.752 105.498,24.547C104.618,26.441 103.59,28.168 102.615,29.489C102.102,30.146 101.661,30.715 101.199,31.147C100.75,31.581 100.409,31.92 100.092,32.103C99.521,32.466 98.982,32.595 98.572,32.484C98.16,32.374 97.875,32.025 97.763,31.47C97.706,31.193 97.694,30.864 97.728,30.491C97.743,30.302 97.781,30.113 97.813,29.894C97.842,29.671 97.884,29.435 97.94,29.188C97.995,28.939 98.066,28.684 98.147,28.41C98.214,28.121 98.296,27.817 98.392,27.501C98.443,27.345 98.496,27.182 98.55,27.015C98.601,26.842 98.655,26.664 98.71,26.481C98.82,26.113 98.955,25.737 99.094,25.327C99.638,23.678 100.165,22.044 100.747,20.48C101.32,18.904 101.942,17.398 102.63,15.987C103.985,13.169 105.656,10.766 107.388,9.149C107.831,8.748 108.239,8.409 108.607,8.137C108.994,7.874 109.349,7.682 109.65,7.553C110.255,7.297 110.666,7.308 110.871,7.596C111.076,7.885 111.075,8.451 110.846,9.298C110.744,9.735 110.608,10.269 110.405,10.873C110.313,11.185 110.211,11.522 110.102,11.887C109.981,12.241 109.854,12.625 109.732,13.053Z" fill="#8CC63F"/>
<path d="M105.922,39.702C103.51,39.213 100.54,38.625 97.91,38.304C95.286,37.952 93.019,37.872 92.186,37.685C91.402,37.518 90.956,36.998 91.361,36.381C91.763,35.773 93.048,34.989 95.756,34.706C98.459,34.441 101.028,34.763 103.183,35.41C105.349,36.047 107.103,37.01 108.37,37.977C108.685,38.224 108.959,38.452 109.186,38.665C109.409,38.884 109.587,39.086 109.716,39.263C109.973,39.619 110.031,39.884 109.868,40.042C109.529,40.375 108.341,40.178 105.922,39.702Z" fill="#8CC63F"/>
<path d="M98.289,13.817C98.886,11.827 99.364,12.223 99.992,12.723C99.894,12.565 99.798,12.42 99.702,12.297C99.363,11.862 99.034,11.649 98.737,11.698C98.437,11.747 98.196,12.054 98.015,12.555C97.924,12.805 97.848,13.104 97.786,13.445C97.755,13.616 97.73,13.797 97.705,13.988C97.674,14.178 97.647,14.378 97.621,14.588C97.461,16.263 97.398,18.485 97.24,20.83C97.128,21.995 97.068,23.472 96.781,25.016C96.542,26.362 96.114,27.766 95.535,29.054C94.604,29.723 93.792,30.362 93.115,30.971C91.567,32.35 90.668,33.562 90.281,34.578C93.456,31.742 95.036,30.028 95.967,29.527C98.41,28.212 97.957,14.922 98.289,13.817Z" fill="#7EB339"/>
<path d="M124.364,44.858C125.712,43.731 127.175,41.841 127.392,39.1C127.439,38.414 127.398,37.67 127.213,36.899C127.033,36.132 126.688,35.327 126.222,34.615C125.756,33.897 125.168,33.262 124.54,32.732C123.911,32.203 123.243,31.773 122.578,31.414C121.246,30.702 119.893,30.247 118.657,29.908C118.541,29.873 118.42,29.846 118.302,29.813C118.148,30.015 130.142,34.659 125.477,42.077C124.357,44.404 121.934,45.839 119.249,46.427C119.258,46.469 119.265,46.51 119.281,46.547C119.452,46.957 120.014,47.02 120.892,46.775C121.331,46.652 121.85,46.449 122.436,46.146C123.022,45.843 123.679,45.435 124.364,44.858Z" fill="#7EB339"/>
<path d="M130.489,2.519C130.226,2.802 129.952,3.114 129.673,3.449C129.063,4.106 128.443,4.864 127.697,5.657C124.771,8.857 121.094,12.2 116.562,15.527C116.286,15.742 115.998,15.948 115.704,16.153C115.416,16.362 115.125,16.572 114.833,16.783C114.227,17.186 113.645,17.623 113.017,18.027C111.798,18.865 110.472,19.704 109.124,20.563C108.283,21.095 107.414,21.634 106.528,22.178C106.759,21.619 106.978,21.055 107.192,20.491C106.164,21.679 105.222,22.909 104.703,24.293C113.759,18.572 122.95,12.315 129.783,3.756C130.955,2.419 132.94,2.021 134.386,2.832C134.342,2.522 134.275,2.243 134.21,2.003C134.032,1.385 133.792,0.998 133.502,0.81C132.924,0.431 132.142,0.835 131.229,1.749C131.011,1.978 130.765,2.234 130.489,2.519Z" fill="#7EB339"/>
</svg>
