<svg width="710" height="272" viewBox="0 0 710 272" fill="none" xmlns="http://www.w3.org/2000/svg" xmlns:xlink="http://www.w3.org/1999/xlink">
<mask id="mask_0_14_470" style="mask-type:alpha" maskUnits="userSpaceOnUse" x="14" y="208" width="30" height="30">
<rect  x="13" y="207" width="60" height="60" rx="8" fill="url(#pattern_0_14_470)"/>
</mask>
<path d="M360,140C398.66,140 430,108.66 430,70C430,31.34 398.66,0 360,0C321.34,0 290,31.34 290,70C290,108.66 321.34,140 360,140Z" clip-rule="evenodd" fill-rule="evenodd" stroke="#FFFFFF" stroke-width="3" stroke-miterlimit="3.999327"/>
<path d="M360,126C390.928,126 416,100.928 416,70C416,39.072 390.928,14 360,14C329.072,14 304,39.072 304,70C304,100.928 329.072,126 360,126Z" clip-rule="evenodd" fill-rule="evenodd" fill="#FEFEFE"/>
<path d="M701.569,217.335L694.822,217.335L692.58,211.624C691.727,209.46 689.569,208 687.202,208L669.533,208C667.174,208 665.008,209.46 664.155,211.624L661.914,217.335L654.427,217.335C649.777,217.335 646,221.045 646,225.611L646,255.723C646,260.29 649.777,264 654.427,264L701.573,264C706.223,264 710,260.29 710,255.723L709.996,225.611C709.996,221.052 706.218,217.335 701.569,217.335Z" fill="#FFFFFF"/>
<path d="M687.611,232.055C687.932,231.789 688.072,231.146 686.836,229.994C681.509,225.026 672.503,225.898 667.535,231.225L666.241,232.811L666.241,229.813L666.233,229.698C666.177,229.287 665.825,228.971 665.399,228.971C664.934,228.971 664.557,229.348 664.557,229.813L664.557,234.891C664.557,235.511 665.06,236.013 665.68,236.013L671.312,236.013L671.427,236.006C671.838,235.95 672.154,235.598 672.154,235.172L672.147,235.057C672.091,234.646 671.739,234.33 671.312,234.33L667.18,234.329L667.604,233.803L668.803,232.331L669.036,232.089C673.359,227.719 681.124,226.969 685.688,231.225L686.001,231.509C686.865,232.269 687.179,232.31 687.461,232.155L687.566,232.089L687.611,232.055ZM691.2,249.746L691.2,244.668C691.2,244.048 690.698,243.545 690.078,243.545L684.445,243.545L684.33,243.553C683.92,243.609 683.603,243.961 683.603,244.387L683.61,244.501C683.666,244.912 684.018,245.229 684.445,245.229L688.577,245.229L688.154,245.755L686.954,247.227L686.721,247.47C682.398,251.84 674.633,252.589 670.069,248.333L669.756,248.049C668.892,247.29 668.578,247.249 668.296,247.404L668.191,247.47L668.146,247.504C667.826,247.77 667.685,248.412 668.921,249.565C674.248,254.532 683.254,253.66 688.222,248.333L689.516,246.748L689.516,249.746L689.524,249.86C689.58,250.271 689.932,250.588 690.358,250.588C690.823,250.588 691.2,250.211 691.2,249.746Z" clip-rule="evenodd" fill-rule="evenodd" fill="#000000" stroke="#000000" stroke-width="0.4" stroke-miterlimit="3.999327"/>
<g mask="url(#mask_0_14_470)">
<rect  x="0" y="192" width="147.152" height="80" fill="url(#pattern_0_197_1088)"/>
</g>
</svg>
