<svg width="636" height="478" viewBox="0 0 636 478" fill="none" xmlns="http://www.w3.org/2000/svg" xmlns:xlink="http://www.w3.org/1999/xlink">
<path d="M320.614,15.533C397.78,17.056 481.392,-14.386 539.74,35.825C608.574,95.057 657.196,193.675 626.718,278.946C597.864,359.678 489.572,360.812 410.996,396.04C336.888,429.266 270.84,495.786 192.681,473.542C101.983,447.728 27.162,372.254 6.202,280.83C-14.751,189.438 18.399,87.618 90.295,26.954C151.946,-25.067 239.756,13.937 320.614,15.533Z" clip-rule="evenodd" fill-rule="evenodd" fill="#FFEEE9"/>
<path d="M302.616,124.373C302.616,124.373 307.638,110.986 309.494,109.226C311.349,107.467 313.684,96.03 314.228,93.791C314.228,93.791 316.084,95.438 316.18,95.966C316.276,96.494 314.964,107.371 314.964,107.371C314.964,107.371 317.667,106.539 318.131,106.155C318.595,105.787 323.249,90.16 323.249,90.16C323.249,90.16 325.009,90.432 325.201,90.896C325.393,91.36 321.202,106.795 321.202,106.795L321.666,107.259C321.666,107.259 328.64,94.143 329.199,92.655C329.199,92.655 330.783,92.479 330.879,93.039C330.975,93.599 324.561,108.746 324.561,108.746L325.121,109.018C325.121,109.018 331.727,96.254 332.095,95.95C332.462,95.63 333.95,95.342 334.046,95.95C334.142,96.558 328.096,109.946 328.096,109.946L333.294,108.65L335.342,104.46L336.077,105.483L334.686,111.066C334.686,111.066 322.322,116.824 320.93,118.135C319.539,119.431 311.349,130.307 311.349,130.307L304.359,129.092L302.616,124.373Z" fill="#989980"/>
<path d="M314.036,110.249C316.947,109.817 318.563,113.368 317.939,115.831C317.219,113.56 316.548,111.145 314.036,110.249Z" fill="#596235"/>
<path d="M311.349,130.323L302.616,124.373L297.385,130.899L307.75,138.321C309.893,133.554 311.349,130.323 311.349,130.323Z" fill="#F9C6AE"/>
<path d="M297.385,130.898L284.813,146.573L259.462,101.548L256.359,144.638C256.359,144.638 286.621,179.971 288.86,177.731C290.492,176.1 301.816,151.388 307.75,138.304L297.385,130.898Z" fill="#989980"/>
<path d="M284.926,146.67C284.142,148.221 283.182,149.629 282.175,151.005C281.151,152.364 280.063,153.692 278.816,154.875C279.599,153.324 280.559,151.916 281.567,150.541C282.59,149.181 283.662,147.854 284.926,146.67Z" fill="#596235"/>
<path d="M254.439,198.382C254.439,198.382 260.757,303.98 260.261,308.746C259.75,313.513 241.292,369.623 241.292,369.623L231.007,369.623C231.007,369.623 229.695,352.412 234.702,336.274C239.708,320.135 235.789,296.734 233.006,285.138C233.006,285.138 222.833,232.259 228.384,209.226L254.439,198.382Z" fill="#D67F1A"/>
<path d="M230.943,369.623L228.975,383.747L269.634,383.747L240.508,376.005L241.291,369.623L230.943,369.623Z" fill="#663F18"/>
<path d="M254.44,199.102L241.42,228.244L232.99,251.165C232.99,251.165 238.413,302.381 232.99,317.064C227.568,331.747 211.381,375.989 211.381,375.989L201.065,375.989C201.065,375.989 197.274,354.396 203.128,342.08C208.982,329.78 215.172,309.93 212.677,300.797C210.166,291.664 192.139,238.689 196.01,201.661L254.44,199.102Z" fill="#F7931E"/>
<path d="M201.033,376.004L199.065,390.127L239.724,390.127L210.597,382.386L211.381,376.004L201.033,376.004Z" fill="#754C24"/>
<path d="M230.735,96.559C230.735,96.559 205.047,107.291 202.328,108.411C199.609,109.53 195.722,123.574 195.242,127.525C194.762,131.475 194.826,192.96 195.962,201.453C195.962,201.453 227.232,211.818 255.575,198.526L255.463,155.676C255.463,155.676 265.028,151.117 266.228,143.951C267.427,136.786 264.26,105.276 259.446,101.549C256.535,99.31 239.404,95.967 239.404,95.967L230.735,96.559Z" fill="#D96846"/>
<path d="M209.302,105.498C213.461,120.037 219.395,146.461 208.71,150.62C203.608,152.619 198.921,150.971 194.97,147.948C194.986,137.264 195.082,128.899 195.258,127.507C195.738,123.572 199.625,109.513 202.36,108.393C203.128,108.089 205.847,106.954 209.302,105.498Z" fill="#989980"/>
<path d="M240.86,128.707C226.576,129.523 219.555,112.84 216.595,102.459C223.697,99.5 230.735,96.557 230.735,96.557L239.404,95.981C239.404,95.981 246.97,97.453 252.904,99.116C254.583,110.249 254.951,127.923 240.86,128.707Z" fill="#989980"/>
<path d="M224.945,156.538C227.296,156.89 229.631,157.098 231.967,157.306C234.302,157.482 236.637,157.594 238.956,157.594C241.292,157.626 243.611,157.53 245.946,157.338C248.281,157.178 250.601,156.842 252.968,156.538C250.761,157.402 248.473,158.154 246.106,158.505C244.938,158.761 243.739,158.825 242.555,158.969C241.356,159.033 240.172,159.113 238.972,159.097C236.573,159.081 234.19,158.889 231.839,158.473C229.471,158.074 227.152,157.45 224.945,156.538Z" fill="#2F3020" fill-opacity="0.18"/>
<path d="M238.493,135.905L220.898,135.905L220.898,146.19L238.493,146.19L238.493,135.905Z" fill="#FFFFFF"/>
<path d="M238.493,135.905L220.898,135.905L220.898,138.32L238.493,138.32L238.493,135.905Z" fill="#989980"/>
<path d="M224.737,107.115C226.464,108.33 228.384,109.194 230.367,109.802C232.35,110.393 234.414,110.713 236.477,110.697C238.54,110.729 240.636,110.473 242.619,109.946C243.595,109.642 244.554,109.242 245.338,108.602C246.138,107.994 246.714,107.035 246.698,105.963C246.922,107.019 246.41,108.154 245.626,108.906C244.826,109.674 243.835,110.186 242.827,110.569C240.78,111.273 238.62,111.529 236.477,111.561C234.334,111.513 232.174,111.177 230.159,110.425C228.16,109.69 226.24,108.618 224.737,107.115Z" fill="#596235"/>
<path d="M226.496,85.346L225.505,103.804C225.505,103.804 233.454,111.098 242.971,105.723L244.587,88.353L226.496,85.346Z" fill="#F7D1BF"/>
<path d="M226.384,87.186C226.384,87.186 227.392,99.854 243.403,100.974L244.586,88.338L226.496,85.331L226.384,87.186Z" fill="#F9C6AE"/>
<path d="M220.594,42.527C218.691,47.982 213.796,51.245 209.638,49.805C205.495,48.366 203.672,42.767 205.575,37.313C207.478,31.859 212.373,28.596 216.531,30.035C220.658,31.475 222.482,37.073 220.594,42.527Z" fill="#242326"/>
<path d="M257.958,61.162C258.518,65.16 258.47,69.047 257.862,72.646C256.119,83.186 249.801,91.296 241.275,92.511C229.839,94.143 218.755,82.739 216.531,67.048C214.308,51.357 221.762,37.329 233.198,35.698C244.65,34.082 255.735,45.47 257.958,61.162Z" fill="#F7D1BF"/>
<path d="M217.203,70.486C217.203,70.486 213.364,64.791 210.405,67.798C207.446,70.79 214.468,92.83 223.185,83.601L224.017,81.794L217.203,70.486Z" fill="#F7D1BF"/>
<path d="M239.292,59.432L244.267,77.906L245.322,77.622L240.348,59.148L239.292,59.432Z" fill="#603813"/>
<path d="M236.365,82.355C242.859,83.667 249.417,81.747 255.159,78.74C250.025,82.835 242.619,84.898 236.365,82.355Z" fill="#603813"/>
<path d="M247.801,57.835C248.121,59.051 247.881,60.17 247.29,60.314C246.698,60.474 245.962,59.61 245.642,58.395C245.322,57.179 245.562,56.06 246.154,55.916C246.762,55.756 247.498,56.619 247.801,57.835Z" fill="#2E1708"/>
<path d="M229.119,61.13C229.343,62.362 230.015,63.273 230.623,63.177C231.231,63.065 231.535,61.978 231.311,60.73C231.087,59.498 230.415,58.587 229.807,58.683C229.199,58.811 228.896,59.898 229.119,61.13Z" fill="#2E1708"/>
<path d="M249.257,50.333C246.634,50.093 244.01,50.429 241.563,51.309C241.323,50.509 241.083,49.693 240.844,48.894C243.691,48.222 246.65,48.174 249.497,48.766C249.417,49.294 249.337,49.821 249.257,50.333Z" fill="#2E1708"/>
<path d="M223.713,55.451C225.936,54.044 228.432,53.148 231.007,52.812C230.847,51.98 230.703,51.165 230.543,50.333C227.696,51.021 225.041,52.332 222.785,54.156C223.105,54.588 223.409,55.02 223.713,55.451Z" fill="#2E1708"/>
<path d="M215.252,74.423C215.348,74.343 215.46,74.295 215.572,74.231C215.859,74.55 216.147,74.87 216.403,75.222C217.027,75.99 217.571,76.838 218.115,77.685L219.714,80.277C219.426,79.285 219.058,78.325 218.611,77.398C218.163,76.47 217.603,75.59 216.995,74.758C216.339,73.959 215.604,73.175 214.74,72.583C213.876,72.007 212.836,71.527 211.781,71.687C212.804,71.847 213.636,72.423 214.388,73.047C214.644,73.271 214.868,73.495 215.108,73.735C215.012,73.783 214.916,73.831 214.82,73.895C214.308,74.359 213.876,75.014 213.812,75.702C213.636,77.094 214.116,78.373 214.692,79.493C215.028,80.037 215.268,80.629 215.668,81.124C216.051,81.62 216.419,82.148 216.819,82.628C216.291,81.476 215.652,80.405 215.22,79.253C214.948,78.693 214.836,78.101 214.628,77.526C214.548,76.95 214.42,76.358 214.548,75.814C214.58,75.286 214.884,74.822 215.252,74.423Z" fill="#603813"/>
<path d="M228.24,36.577C228.24,36.577 237.837,50.045 252.456,46.254C252.472,46.254 243.275,35.81 228.24,36.577Z" fill="#F9C6AE"/>
<path d="M223.633,29.444C223.633,29.444 232.638,46.222 252.472,46.254C252.472,46.254 255.351,50.781 256.327,54.236C256.327,54.236 258.102,44.623 251.048,37.281C243.978,29.924 231.199,25.573 223.633,29.444Z" fill="#242326"/>
<path d="M223.633,29.443C223.633,29.443 199.785,37.761 212.389,66.919L217.203,70.486C217.203,70.486 217.843,46.03 231.615,38.672L223.633,29.443Z" fill="#242326"/>
<path d="M216.852,33.521C207.479,42.639 208.47,55.466 212.373,66.903C206.215,56.426 205.719,40.895 216.852,33.521Z" fill="#99591E"/>
<path d="M193.691,222.151C193.691,222.151 199.977,229.268 199.977,231.764C199.977,234.259 199.977,236.29 199.977,236.29L194.283,237.314L194.283,239.697L198.169,245.247L209.526,244L211.637,240.273C211.637,240.273 210.278,223.526 209.414,222.167C208.55,220.807 206.311,217.912 206.311,217.912L193.691,222.151Z" fill="#5CF3FF"/>
<path d="M203.32,159.899C208.15,135.363 210.39,108.219 202.328,108.411C194.267,108.619 179.327,152.829 179.711,171.607C180.079,190.385 189.372,213.258 189.372,213.258L190.028,214.665L203.512,209.963C200.457,198.015 199.497,179.317 203.32,159.899Z" fill="#989980"/>
<path d="M190.028,214.649L193.691,222.55L206.295,217.896C205.255,215.8 204.311,213.097 203.496,209.946L190.028,214.649Z" fill="#FF8585"/>
<path d="M199.193,110.25C193.963,117 191.26,125.301 188.413,133.251C184.558,145.327 180.975,157.755 180.431,170.455C180.383,178.916 181.983,187.361 183.982,195.583C184.958,199.725 186.157,203.82 187.389,207.915C181.359,192.048 176.688,174.597 180.415,157.611C182.047,149.198 184.382,140.928 187.293,132.867C190.412,124.965 193.435,116.632 199.193,110.25Z" fill="#596235"/>
<path d="M357.726,99.453C357.726,99.453 363.148,100.748 362.764,106.506C362.38,112.264 361.197,120.07 359.917,125.508C358.622,130.93 357.406,138.48 356.942,141.311C356.478,144.142 354.527,152.603 353.295,156.426C352.08,160.249 350.112,168.71 345.074,168.39C340.019,168.071 337.988,165.639 338.356,161.992C338.724,158.346 339.38,151.244 340.371,147.293C341.379,143.358 343.49,134.465 343.794,132.53C344.082,130.579 345.138,123.893 345.794,121.334C346.449,118.79 348.033,109.769 348.273,108.506C348.529,107.258 349.648,98.061 357.726,99.453Z" fill="#C69C6D"/>
<path d="M359.629,118.119C359.821,117.063 360.013,116.023 360.045,114.952C360.077,113.752 359.917,112.568 359.709,111.385C359.325,109.225 358.813,107.082 358.157,104.987C357.853,104.043 357.486,103.035 356.67,102.444C355.486,101.58 353.711,101.948 352.655,102.939C351.599,103.931 351.152,105.387 350.944,106.81C350.736,108.282 350.768,109.801 351.024,111.273C351.615,114.68 353.407,117.783 354.303,121.126C355.102,124.117 355.182,127.3 356.494,130.115C356.622,130.387 356.75,130.595 357.038,130.707C357.997,129.091 358.029,126.628 358.381,124.804C358.797,122.581 359.213,120.342 359.629,118.119Z" fill="#FFDA88"/>
<path d="M357.022,130.708C356.734,130.596 356.606,130.388 356.478,130.116C355.166,127.301 355.07,124.118 354.287,121.127C353.391,117.784 351.6,114.681 351.008,111.274C350.752,109.802 350.736,108.299 350.944,106.811C351.136,105.388 351.6,103.932 352.639,102.941C353.279,102.333 354.191,101.965 355.086,101.965C354.767,102.461 354.303,102.861 353.935,103.324C353.295,104.14 352.863,105.116 352.575,106.092C351.776,108.811 351.919,111.802 352.959,114.441C353.455,115.704 354.159,116.872 354.735,118.104C355.934,120.647 356.606,123.446 356.686,126.261C356.702,126.709 356.702,127.173 356.862,127.573C357.022,127.988 357.374,128.356 357.822,128.372C357.662,129.236 357.422,130.036 357.022,130.708Z" fill="#DEA466"/>
<path d="M356.398,136.048C356.382,132.753 354.943,129.634 353.359,126.739C352.271,124.724 351.088,122.756 349.84,120.837C349.408,120.181 348.769,119.446 348.017,119.637C347.361,119.797 347.073,120.549 346.897,121.205C346.145,124.052 345.57,127.011 345.81,129.954C346.353,136.72 351.056,142.67 351.28,149.452C351.296,149.788 351.104,151.275 351.488,151.339C352.032,151.419 352.255,150.22 352.319,149.916C352.735,148.332 353.263,146.829 353.871,145.309C355.055,142.334 356.414,139.295 356.398,136.048Z" fill="#FFDA88"/>
<path d="M344.242,140C344.114,139.856 343.938,139.712 343.762,139.728C343.618,139.744 343.49,139.856 343.394,139.968C342.946,140.512 342.834,141.231 342.738,141.919C342.066,146.957 341.89,152.06 342.194,157.13C342.37,160.105 342.754,163.192 344.338,165.735C344.626,166.215 345.025,166.695 345.569,166.775C346.257,166.887 346.865,166.311 347.297,165.767C349.168,163.304 349.84,160.153 350.368,157.114C350.544,156.107 350.704,155.083 350.656,154.059C350.624,153.163 350.416,152.284 350.208,151.404C349.488,148.541 348.48,145.726 346.961,143.199C346.273,142.079 345.137,140.943 344.242,140Z" fill="#FFDA88"/>
<path d="M348.017,119.637C347.361,119.797 347.073,120.549 346.897,121.205C346.145,124.052 345.57,127.011 345.81,129.954C346.353,136.72 351.056,142.67 351.28,149.452C351.296,149.788 351.104,151.275 351.488,151.339C352.032,151.419 352.255,150.22 352.319,149.916C352.511,149.18 352.735,148.476 352.959,147.756C352.144,147.101 351.952,146.189 351.76,145.133C351.2,141.982 349.952,139.007 348.897,135.984C347.857,132.961 346.993,129.794 347.265,126.611C347.377,125.204 347.745,123.764 348.593,122.644C349.009,122.085 349.536,121.589 349.952,121.029C349.904,120.965 349.872,120.901 349.84,120.837C349.408,120.181 348.769,119.446 348.017,119.637Z" fill="#DEA466"/>
<path d="M343.746,139.728C343.602,139.744 343.474,139.856 343.378,139.968C342.93,140.512 342.818,141.231 342.722,141.919C342.051,146.957 341.875,152.06 342.179,157.13C342.354,160.105 342.738,163.192 344.322,165.735C344.61,166.215 345.01,166.695 345.553,166.775C346.241,166.887 346.849,166.311 347.281,165.767C347.649,165.272 347.969,164.744 348.257,164.2C347.841,164.152 347.345,164.504 346.881,164.552C346.001,164.664 345.393,163.704 345.09,162.872C343.442,158.506 343.49,153.691 343.778,149.037C343.906,147.053 344.098,144.99 345.138,143.311C345.473,142.767 345.841,142.607 346.417,142.511C346.433,142.511 346.449,142.511 346.465,142.511C345.809,141.615 344.946,140.751 344.21,139.984C344.098,139.856 343.938,139.712 343.746,139.728Z" fill="#DEA466"/>
<g opacity="0.35">
<path d="M348.289,108.506C348.049,109.754 346.465,118.775 345.81,121.334C345.154,123.877 344.114,130.579 343.81,132.53C343.522,134.482 341.395,143.359 340.387,147.294C339.38,151.228 338.74,158.33 338.372,161.993C338.052,165.032 339.428,167.207 342.786,168.055C342.211,165.384 342.003,161.225 343.634,154.523C347.393,138.96 347.233,127.748 349.632,113.577C351.392,103.228 356.83,100.845 359.629,100.333C358.606,99.709 357.726,99.501 357.726,99.501C349.648,98.062 348.529,107.259 348.289,108.506Z" fill="#C69C6D"/>
</g>
<path d="M324.648,86.657C324.648,86.657 330.151,85.761 332.022,91.232C333.877,96.702 335.797,104.363 336.693,109.866C337.588,115.368 339.364,122.806 340.02,125.605C340.675,128.388 342.131,136.961 342.467,140.96C342.803,144.958 344.242,153.516 339.46,155.163C334.677,156.795 331.862,155.355 330.806,151.836C329.751,148.317 327.624,141.52 327.032,137.489C326.44,133.458 324.984,124.453 324.504,122.534C324.025,120.614 322.425,114.04 322.041,111.433C321.673,108.826 319.658,99.885 319.402,98.637C319.146,97.39 316.651,88.48 324.648,86.657Z" fill="#C69C6D"/>
<path d="M333.573,103.164C333.349,102.125 333.125,101.069 332.741,100.077C332.31,98.958 331.702,97.934 331.062,96.926C329.878,95.071 328.583,93.295 327.159,91.616C326.519,90.848 325.8,90.064 324.808,89.841C323.384,89.505 321.881,90.512 321.289,91.84C320.697,93.167 320.841,94.687 321.209,96.079C321.593,97.518 322.185,98.91 322.985,100.173C324.84,103.084 327.687,105.276 329.798,108.011C331.686,110.458 332.981,113.369 335.269,115.464C335.493,115.672 335.701,115.816 336.004,115.8C336.276,113.945 335.349,111.642 334.981,109.834C334.517,107.595 334.037,105.372 333.573,103.164Z" fill="#FFDA88"/>
<path d="M336.005,115.784C335.701,115.8 335.509,115.656 335.285,115.448C332.998,113.353 331.686,110.442 329.815,107.995C327.703,105.243 324.856,103.068 323.001,100.157C322.201,98.894 321.609,97.518 321.226,96.062C320.858,94.671 320.714,93.151 321.306,91.824C321.657,91.008 322.361,90.32 323.177,89.984C323.081,90.56 322.793,91.12 322.633,91.696C322.361,92.703 322.329,93.759 322.441,94.767C322.745,97.598 324.025,100.301 326.008,102.332C326.952,103.308 328.039,104.124 329.047,105.036C331.126,106.923 332.822,109.258 333.989,111.817C334.165,112.217 334.357,112.649 334.661,112.969C334.965,113.289 335.445,113.497 335.861,113.337C336.021,114.169 336.117,115.016 336.005,115.784Z" fill="#DEA466"/>
<path d="M337.476,120.951C336.197,117.912 333.669,115.592 331.094,113.529C329.319,112.089 327.463,110.73 325.576,109.434C324.936,109.002 324.057,108.571 323.433,109.018C322.889,109.418 322.921,110.234 323.001,110.89C323.401,113.817 324.009,116.76 325.352,119.383C328.439,125.413 335.077,129.108 337.892,135.282C338.036,135.586 338.42,137.042 338.82,136.946C339.348,136.802 339.092,135.618 339.044,135.314C338.82,133.699 338.724,132.099 338.692,130.468C338.644,127.269 338.74,123.942 337.476,120.951Z" fill="#FFDA88"/>
<path d="M327.767,129.268C327.591,129.188 327.383,129.124 327.207,129.204C327.08,129.268 327.016,129.428 326.968,129.556C326.76,130.227 326.936,130.947 327.112,131.619C328.439,136.529 330.231,141.296 332.454,145.87C333.765,148.558 335.301,151.261 337.732,152.988C338.18,153.308 338.724,153.612 339.268,153.484C339.955,153.324 340.291,152.556 340.467,151.884C341.235,148.893 340.659,145.726 339.971,142.703C339.747,141.712 339.508,140.704 339.076,139.776C338.692,138.961 338.18,138.225 337.636,137.505C335.861,135.138 333.861,132.931 331.494,131.171C330.438,130.403 328.967,129.796 327.767,129.268Z" fill="#FFDA88"/>
<path d="M323.433,109.018C322.889,109.418 322.921,110.234 323.001,110.89C323.401,113.817 324.009,116.76 325.352,119.383C328.439,125.413 335.077,129.108 337.892,135.282C338.036,135.586 338.42,137.041 338.82,136.945C339.348,136.801 339.092,135.618 339.044,135.314C338.948,134.562 338.868,133.826 338.82,133.075C337.812,132.771 337.284,132.019 336.692,131.107C334.965,128.42 332.662,126.149 330.534,123.765C328.407,121.382 326.392,118.775 325.416,115.736C324.984,114.393 324.76,112.937 325.112,111.561C325.288,110.89 325.576,110.218 325.752,109.546C325.688,109.498 325.624,109.466 325.576,109.418C324.936,108.986 324.057,108.554 323.433,109.018Z" fill="#DEA466"/>
<path d="M327.207,129.204C327.08,129.268 327.016,129.428 326.968,129.556C326.76,130.228 326.936,130.948 327.112,131.619C328.439,136.53 330.231,141.296 332.454,145.871C333.765,148.558 335.301,151.261 337.732,152.989C338.18,153.309 338.724,153.612 339.268,153.484C339.955,153.324 340.291,152.557 340.467,151.885C340.627,151.277 340.707,150.669 340.771,150.062C340.371,150.174 340.051,150.685 339.635,150.925C338.868,151.357 337.94,150.717 337.332,150.078C334.133,146.671 332.326,142.224 330.806,137.809C330.167,135.938 329.543,133.955 329.863,131.987C329.959,131.348 330.246,131.06 330.742,130.756C330.758,130.74 330.774,130.74 330.79,130.74C329.831,130.164 328.711,129.7 327.751,129.284C327.591,129.188 327.383,129.124 327.207,129.204Z" fill="#DEA466"/>
<g opacity="0.35">
<path d="M319.402,98.637C319.658,99.885 321.673,108.826 322.041,111.433C322.409,114.04 324.025,120.614 324.504,122.533C324.984,124.453 326.44,133.458 327.032,137.489C327.624,141.519 329.751,148.317 330.806,151.836C331.686,154.763 333.782,156.251 337.204,155.739C335.653,153.484 333.861,149.741 332.79,142.911C330.295,127.108 325.816,116.807 322.585,102.796C320.218,92.559 324.345,88.288 326.728,86.721C325.544,86.545 324.648,86.673 324.648,86.673C316.651,88.48 319.146,97.389 319.402,98.637Z" fill="#C69C6D"/>
</g>
<path d="M369.418,191.758L310.685,191.758L315.499,121.221L319.002,123.54L322.505,121.221L326.008,123.54L329.527,121.221L333.03,123.54L336.533,121.221L340.035,123.54L343.538,121.221L347.041,123.54L350.56,121.221L354.063,123.54L357.566,121.221L361.085,123.54L364.604,121.221L369.418,191.758Z" fill="#D9B17D"/>
<path d="M315.163,126.213L310.685,191.776L369.402,191.776L369.338,190.928C331.334,173.446 319.066,142.368 315.163,126.213Z" fill="#C69C6D"/>
<path d="M199.993,179.86L159.638,179.86L159.638,191.761L199.993,191.761L199.993,179.86Z" fill="#8E9CBA"/>
<path d="M200.009,179.86L198.538,179.86L198.538,191.761L200.009,191.761L200.009,179.86Z" fill="#8E9CBA"/>
<path d="M189.596,168.136L186.893,168.136L186.893,179.876L189.596,179.876L189.596,168.136Z" fill="#8E9CBA"/>
<path d="M189.596,168.136L186.893,168.136L186.893,169.767L189.596,169.767L189.596,168.136Z" fill="#CDCBD6"/>
<path d="M199.993,151.709L159.638,151.709L159.638,168.136L199.993,168.136L199.993,151.709Z" fill="#8E9CBA"/>
<path d="M196.378,155.451L163.284,155.451L163.284,164.36L196.378,164.36L196.378,155.451Z" fill="#535B6E"/>
<path d="M171.89,155.451L170.93,155.451L170.93,164.36L171.89,164.36L171.89,155.451Z" fill="#CDCBD6"/>
<path d="M180.303,155.451L179.344,155.451L179.344,164.36L180.303,164.36L180.303,155.451Z" fill="#CDCBD6"/>
<path d="M188.732,155.451L187.773,155.451L187.773,164.36L188.732,164.36L188.732,155.451Z" fill="#CDCBD6"/>
<path d="M132.696,147.869L125.579,147.869L125.579,193.007L132.696,193.007L132.696,147.869Z" fill="#677187"/>
<path d="M119.996,168.503L120.284,170.79C120.412,171.862 121.324,172.662 122.395,172.662L135.879,172.662C136.951,172.662 137.862,171.862 137.99,170.79L138.278,168.503L119.996,168.503Z" fill="#AFC1E6"/>
<path d="M141.238,131.122L140.422,131.122L117.837,131.122L117.021,131.122C116.11,131.122 115.406,131.922 115.518,132.818L120.124,170.437C120.252,171.525 121.18,172.341 122.268,172.341L135.959,172.341C137.047,172.341 137.975,171.525 138.103,170.437L142.709,132.818C142.853,131.922 142.149,131.122 141.238,131.122Z" fill="#8E9CBA"/>
<path d="M137.591,152.619L140.422,131.122L117.837,131.122L120.668,152.619L137.591,152.619Z" fill="#77819C"/>
<path d="M137.031,152.572L121.228,152.572L118.253,130.979C118.253,130.979 120.844,129.315 129.113,129.315C137.287,129.315 139.974,130.979 139.974,130.979L137.031,152.572Z" fill="#AFC1E6"/>
<path d="M134.216,134.497C134.216,135.041 131.944,135.473 129.129,135.473C126.314,135.473 124.043,135.041 124.043,134.497C124.043,133.953 126.314,133.521 129.129,133.521C131.944,133.521 134.216,133.969 134.216,134.497Z" fill="#CAD3E6"/>
<path d="M125.131,157.769L123.611,157.769C123.131,157.769 122.747,157.386 122.747,156.906C122.747,156.426 123.131,156.042 123.611,156.042L125.131,156.042C125.61,156.042 125.994,156.426 125.994,156.906C125.994,157.37 125.61,157.769 125.131,157.769Z" fill="#565E70"/>
<path d="M129.881,157.769L128.378,157.769C127.898,157.769 127.514,157.386 127.514,156.906C127.514,156.426 127.898,156.042 128.378,156.042L129.897,156.042C130.377,156.042 130.761,156.426 130.761,156.906C130.761,157.37 130.361,157.769 129.881,157.769Z" fill="#565E70"/>
<path d="M134.648,157.769L133.128,157.769C132.648,157.769 132.264,157.386 132.264,156.906C132.264,156.426 132.648,156.042 133.128,156.042L134.648,156.042C135.127,156.042 135.511,156.426 135.511,156.906C135.511,157.37 135.127,157.769 134.648,157.769Z" fill="#565E70"/>
<path d="M125.131,160.792L123.611,160.792C123.131,160.792 122.747,160.408 122.747,159.928C122.747,159.448 123.131,159.064 123.611,159.064L125.131,159.064C125.61,159.064 125.994,159.448 125.994,159.928C125.994,160.408 125.61,160.792 125.131,160.792Z" fill="#565E70"/>
<path d="M129.881,160.792L128.378,160.792C127.898,160.792 127.514,160.408 127.514,159.928C127.514,159.448 127.898,159.064 128.378,159.064L129.897,159.064C130.377,159.064 130.761,159.448 130.761,159.928C130.761,160.408 130.361,160.792 129.881,160.792Z" fill="#565E70"/>
<path d="M134.648,160.792L133.128,160.792C132.648,160.792 132.264,160.408 132.264,159.928C132.264,159.448 132.648,159.064 133.128,159.064L134.648,159.064C135.127,159.064 135.511,159.448 135.511,159.928C135.511,160.408 135.127,160.792 134.648,160.792Z" fill="#565E70"/>
<path d="M125.131,163.815L123.611,163.815C123.131,163.815 122.747,163.431 122.747,162.952C122.747,162.472 123.131,162.088 123.611,162.088L125.131,162.088C125.61,162.088 125.994,162.472 125.994,162.952C125.994,163.431 125.61,163.815 125.131,163.815Z" fill="#565E70"/>
<path d="M129.881,163.815L128.378,163.815C127.898,163.815 127.514,163.431 127.514,162.952C127.514,162.472 127.898,162.088 128.378,162.088L129.897,162.088C130.377,162.088 130.761,162.472 130.761,162.952C130.761,163.431 130.361,163.815 129.881,163.815Z" fill="#565E70"/>
<path d="M134.648,163.815L133.128,163.815C132.648,163.815 132.264,163.431 132.264,162.952C132.264,162.472 132.648,162.088 133.128,162.088L134.648,162.088C135.127,162.088 135.511,162.472 135.511,162.952C135.511,163.431 135.127,163.815 134.648,163.815Z" fill="#565E70"/>
<path d="M125.131,166.855L123.611,166.855C123.131,166.855 122.747,166.472 122.747,165.992C122.747,165.512 123.131,165.128 123.611,165.128L125.131,165.128C125.61,165.128 125.994,165.512 125.994,165.992C125.994,166.472 125.61,166.855 125.131,166.855Z" fill="#565E70"/>
<path d="M129.881,166.855L128.378,166.855C127.898,166.855 127.514,166.472 127.514,165.992C127.514,165.512 127.898,165.128 128.378,165.128L129.897,165.128C130.377,165.128 130.761,165.512 130.761,165.992C130.761,166.472 130.361,166.855 129.881,166.855Z" fill="#565E70"/>
<path d="M134.648,166.855L133.128,166.855C132.648,166.855 132.264,166.472 132.264,165.992C132.264,165.512 132.648,165.128 133.128,165.128L134.648,165.128C135.127,165.128 135.511,165.512 135.511,165.992C135.511,166.472 135.127,166.855 134.648,166.855Z" fill="#565E70"/>
<path d="M125.131,157.561L123.611,157.561C123.131,157.561 122.747,157.178 122.747,156.698C122.747,156.218 123.131,155.834 123.611,155.834L125.131,155.834C125.61,155.834 125.994,156.218 125.994,156.698C125.994,157.178 125.61,157.561 125.131,157.561Z" fill="#758099"/>
<path d="M129.881,157.561L128.378,157.561C127.898,157.561 127.514,157.178 127.514,156.698C127.514,156.218 127.898,155.834 128.378,155.834L129.897,155.834C130.377,155.834 130.761,156.218 130.761,156.698C130.761,157.178 130.361,157.561 129.881,157.561Z" fill="#758099"/>
<path d="M134.648,157.561L133.128,157.561C132.648,157.561 132.264,157.178 132.264,156.698C132.264,156.218 132.648,155.834 133.128,155.834L134.648,155.834C135.127,155.834 135.511,156.218 135.511,156.698C135.511,157.178 135.127,157.561 134.648,157.561Z" fill="#758099"/>
<path d="M125.131,160.584L123.611,160.584C123.131,160.584 122.747,160.2 122.747,159.72C122.747,159.24 123.131,158.856 123.611,158.856L125.131,158.856C125.61,158.856 125.994,159.24 125.994,159.72C125.994,160.2 125.61,160.584 125.131,160.584Z" fill="#758099"/>
<path d="M129.881,160.584L128.378,160.584C127.898,160.584 127.514,160.2 127.514,159.72C127.514,159.24 127.898,158.856 128.378,158.856L129.897,158.856C130.377,158.856 130.761,159.24 130.761,159.72C130.761,160.2 130.361,160.584 129.881,160.584Z" fill="#758099"/>
<path d="M134.648,160.584L133.128,160.584C132.648,160.584 132.264,160.2 132.264,159.72C132.264,159.24 132.648,158.856 133.128,158.856L134.648,158.856C135.127,158.856 135.511,159.24 135.511,159.72C135.511,160.2 135.127,160.584 134.648,160.584Z" fill="#758099"/>
<path d="M125.131,163.623L123.611,163.623C123.131,163.623 122.747,163.239 122.747,162.759C122.747,162.279 123.131,161.896 123.611,161.896L125.131,161.896C125.61,161.896 125.994,162.279 125.994,162.759C125.994,163.239 125.61,163.623 125.131,163.623Z" fill="#758099"/>
<path d="M129.881,163.623L128.378,163.623C127.898,163.623 127.514,163.239 127.514,162.759C127.514,162.279 127.898,161.896 128.378,161.896L129.897,161.896C130.377,161.896 130.761,162.279 130.761,162.759C130.761,163.239 130.361,163.623 129.881,163.623Z" fill="#758099"/>
<path d="M134.648,163.623L133.128,163.623C132.648,163.623 132.264,163.239 132.264,162.759C132.264,162.279 132.648,161.896 133.128,161.896L134.648,161.896C135.127,161.896 135.511,162.279 135.511,162.759C135.511,163.239 135.127,163.623 134.648,163.623Z" fill="#758099"/>
<path d="M125.131,166.647L123.611,166.647C123.131,166.647 122.747,166.263 122.747,165.784C122.747,165.304 123.131,164.92 123.611,164.92L125.131,164.92C125.61,164.92 125.994,165.304 125.994,165.784C125.994,166.263 125.61,166.647 125.131,166.647Z" fill="#758099"/>
<path d="M129.881,166.647L128.378,166.647C127.898,166.647 127.514,166.263 127.514,165.784C127.514,165.304 127.898,164.92 128.378,164.92L129.897,164.92C130.377,164.92 130.761,165.304 130.761,165.784C130.761,166.263 130.361,166.647 129.881,166.647Z" fill="#758099"/>
<path d="M134.648,166.647L133.128,166.647C132.648,166.647 132.264,166.263 132.264,165.784C132.264,165.304 132.648,164.92 133.128,164.92L134.648,164.92C135.127,164.92 135.511,165.304 135.511,165.784C135.511,166.263 135.127,166.647 134.648,166.647Z" fill="#758099"/>
<path d="M137.031,137.857L121.228,137.857L121.228,152.573L137.031,152.573L137.031,137.857Z" fill="#5DB9F4"/>
<g opacity="0.35">
<path d="M137.031,152.332L137.031,152.572L129.417,152.572L121.228,146.59L121.228,140.768L137.031,152.332Z" fill="#FFFFFF"/>
<path d="M137.031,142.464L137.031,148.27L122.795,137.857L130.745,137.857L137.031,142.464Z" fill="#FFFFFF"/>
</g>
<path d="M129.257,171.815C129.721,171.815 130.185,171.799 130.633,171.783L131.113,168.952C130.505,168.984 129.881,169 129.257,169C128.538,169 127.85,168.984 127.178,168.936L127.738,171.783C128.234,171.799 128.729,171.815 129.257,171.815Z" fill="#565E70"/>
<path d="M132.888,168.807L132.408,171.67C133,171.622 133.592,171.542 134.136,171.462C135.239,170.583 136.135,169.431 136.727,168.104C135.623,168.407 134.312,168.647 132.888,168.807Z" fill="#565E70"/>
<path d="M121.516,168.023C122.107,169.367 123.003,170.535 124.091,171.414C124.683,171.51 125.29,171.59 125.93,171.654L125.37,168.775C123.947,168.615 122.635,168.359 121.516,168.023Z" fill="#565E70"/>
<path d="M129.257,171.606C129.721,171.606 130.185,171.59 130.633,171.574L131.113,168.743C130.505,168.775 129.881,168.791 129.257,168.791C128.538,168.791 127.85,168.775 127.178,168.727L127.738,171.574C128.234,171.606 128.729,171.606 129.257,171.606Z" fill="#FCEE21"/>
<path d="M132.888,168.598L132.408,171.461C133,171.397 133.592,171.333 134.136,171.253C135.239,170.374 136.135,169.222 136.727,167.895C135.623,168.198 134.312,168.454 132.888,168.598Z" fill="#3A9B07"/>
<path d="M121.516,167.815C122.107,169.159 123.003,170.327 124.091,171.206C124.683,171.302 125.29,171.382 125.93,171.446L125.37,168.567C123.947,168.407 122.635,168.151 121.516,167.815Z" fill="#FF0000"/>
<path d="M132.696,172.662L125.579,172.662L125.579,174.917L132.696,174.917L132.696,172.662Z" fill="#535B6E"/>
<path d="M383.877,190.825L71.591,190.825L71.591,207.903L383.877,207.903L383.877,190.825Z" fill="#AA4D31"/>
<path d="M361.92,207.903L81.35,207.903L81.35,407.961L361.92,407.961L361.92,207.903Z" fill="#D96846"/>
<g opacity="0.3">
<path d="M175.973,208.969L166.057,208.969L166.057,407.897L175.973,407.897L175.973,208.969Z" fill="#FFFFFF" fill-opacity="0.31"/>
</g>
<g opacity="0.3">
<path d="M299.742,208.969L289.825,208.969L289.825,407.897L299.742,407.897L299.742,208.969Z" fill="#FFFFFF" fill-opacity="0.31"/>
</g>
<g opacity="0.6">
<path d="M357.04,207.903L81.35,207.903L81.35,217.662L357.04,217.662L357.04,207.903Z" fill="#FFFFFF" fill-opacity="0.31"/>
</g>
<path d="M327.633,351.028L327.633,376.203C327.633,377.076 333.948,377.789 341.748,377.789C349.548,377.789 355.863,377.076 355.863,376.203L355.863,351.028L327.633,351.028Z" fill="#E3E5FF"/>
<path d="M341.748,377.789C349.548,377.789 355.863,377.076 355.863,376.203L355.863,351.028L341.748,351.028L341.748,377.789Z" fill="#D6D9FF"/>
<path d="M355.848,351.029C355.848,351.902 349.533,352.615 341.733,352.615C333.933,352.615 327.618,351.902 327.618,351.029C327.618,350.155 333.933,349.442 341.733,349.442C349.533,349.457 355.848,350.155 355.848,351.029Z" fill="#EDEEFF"/>
<path d="M346.943,351.028C346.943,351.348 344.614,351.61 341.748,351.61C338.881,351.61 336.552,351.348 336.552,351.028C336.552,350.708 338.881,350.446 341.748,350.446C344.614,350.446 346.943,350.708 346.943,351.028Z" fill="#A67C52"/>
<path d="M316.806,324.689L316.806,349.864C316.806,350.737 323.121,351.45 330.921,351.45C338.721,351.45 345.036,350.737 345.036,349.864L345.036,324.689L316.806,324.689Z" fill="#E3E5FF"/>
<path d="M330.921,351.45C338.721,351.45 345.036,350.737 345.036,349.864L345.036,324.689L330.921,324.689L330.921,351.45Z" fill="#D6D9FF"/>
<path d="M330.921,326.276C338.717,326.276 345.036,325.566 345.036,324.69C345.036,323.814 338.717,323.104 330.921,323.104C323.125,323.104 316.806,323.814 316.806,324.69C316.806,325.566 323.125,326.276 330.921,326.276Z" fill="#EDEEFF"/>
<path d="M336.116,324.69C336.116,325.01 333.788,325.272 330.921,325.272C328.054,325.272 325.726,325.01 325.726,324.69C325.726,324.369 328.054,324.107 330.921,324.107C333.788,324.107 336.116,324.369 336.116,324.69Z" fill="#A67C52"/>
<path d="M295.458,351.028L295.458,376.203C295.458,377.076 301.774,377.789 309.574,377.789C317.373,377.789 323.689,377.076 323.689,376.203L323.689,351.028L295.458,351.028Z" fill="#E3E5FF"/>
<path d="M309.559,377.789C317.359,377.789 323.674,377.076 323.674,376.203L323.674,351.028L309.559,351.028L309.559,377.789Z" fill="#D6D9FF"/>
<path d="M323.674,351.029C323.674,351.902 317.359,352.615 309.559,352.615C301.759,352.615 295.444,351.902 295.444,351.029C295.444,350.155 301.759,349.442 309.559,349.442C317.359,349.457 323.674,350.155 323.674,351.029Z" fill="#EDEEFF"/>
<path d="M314.769,351.028C314.769,351.348 312.44,351.61 309.574,351.61C306.707,351.61 304.379,351.348 304.379,351.028C304.379,350.708 306.707,350.446 309.574,350.446C312.44,350.446 314.769,350.708 314.769,351.028Z" fill="#A67C52"/>
<path d="M282.362,335.532L264.987,335.532L264.987,377.383L282.362,377.383L282.362,335.532Z" fill="#FFFFFF"/>
<path d="M282.362,349.851L264.987,349.851L264.987,377.397L282.362,377.397L282.362,349.851Z" fill="#5DB9F4"/>
<path d="M291.064,335.532L282.376,335.532L282.376,377.383L291.064,377.383L291.064,335.532Z" fill="#A5BDF0"/>
<path d="M291.064,349.851L282.376,349.851L282.376,377.397L291.064,377.397L291.064,349.851Z" fill="#2CA5F4"/>
<path d="M291.064,335.532L283.773,320.777L273.689,320.078L282.376,335.532L291.064,335.532Z" fill="#C2D6FF"/>
<path d="M264.987,335.532L273.689,320.078L282.376,335.532L264.987,335.532Z" fill="#FFFFFF"/>
<path d="M264.987,335.531L278.796,329.172L282.376,335.531L264.987,335.531Z" fill="#C2D6FF"/>
<path d="M273.689,320.078L273.689,316.265C273.689,315.421 274.329,314.766 275.057,314.854L282.653,315.799C283.279,315.872 283.744,316.469 283.744,317.196L283.773,320.776L273.689,320.078Z" fill="#A5BDF0"/>
<path d="M260.898,332.358C260.898,332.358 259.501,333.348 258.744,333.814C257.987,334.279 257.696,334.221 257.405,335.152C257.114,336.084 257.347,336.608 257.696,337.015C258.046,337.422 257.871,337.655 258.453,337.946C259.035,338.237 261.771,342.501 262.12,343.956C262.469,345.411 263.051,347.158 262.819,348.918C262.586,350.665 263.692,354.812 266.486,357.373C269.28,359.934 280.892,367.399 292.781,366.759C304.67,366.119 319.542,358.945 322.335,350.839C322.335,350.839 322.699,350.068 322.335,348.933C322.335,348.933 322.976,348.191 322.496,347.667C322.496,347.667 321.972,347.667 322.321,346.401C322.321,346.401 322.758,346.052 321.011,345.921C321.011,345.921 319.134,345.44 313.925,347.23C313.925,347.23 300.493,353.706 292.009,352.571C283.526,351.436 276.439,348.06 271.681,345.528C271.681,345.528 271.113,345.222 267.883,344C267.883,344 266.049,343.476 264.739,340.9C264.739,340.9 262.164,336.346 261.902,334.25L260.898,332.358Z" fill="#FECF4B"/>
<path d="M322.35,350.838C322.35,350.838 322.714,350.067 322.35,348.932C322.35,348.932 322.99,348.19 322.51,347.666C322.51,347.666 321.986,347.666 322.336,346.4C322.336,346.4 322.437,346.327 322.35,346.226C317.825,347.55 305.572,353.327 301.119,354.753C295.691,356.499 288.444,355.626 282.143,353.88C275.843,352.134 269.993,347.317 266.486,344.96C263.794,343.141 260.476,336.65 259.137,333.565C258.992,333.653 258.861,333.755 258.73,333.827C257.973,334.293 257.682,334.235 257.391,335.166C257.1,336.097 257.333,336.621 257.682,337.029C258.031,337.436 257.857,337.669 258.439,337.96C259.021,338.251 261.756,342.515 262.106,343.97C262.164,344.188 262.222,344.421 262.28,344.654C263.561,345.702 264.841,347.186 265.162,351.872C265.351,354.68 267.01,357.445 269.731,359.788C272.961,361.869 277.938,364.444 283.57,365.812C286,366.205 288.575,366.351 291.238,366.205C305.15,365.419 315.904,357.547 317.999,355.189C319.396,353.618 320.72,352.556 322.059,351.581C322.161,351.333 322.263,351.086 322.35,350.838Z" fill="#FEC014"/>
<path d="M258.73,333.814C257.973,334.279 257.682,334.221 257.391,335.152C257.1,336.084 257.333,336.608 257.682,337.015C257.958,337.35 257.9,337.568 258.177,337.786C258.482,337.524 258.904,337.117 259.137,336.724C259.53,336.069 260.185,336.069 260.709,335.589C261.233,335.109 261.364,334.847 261.887,334.236L260.883,332.358C260.898,332.358 259.501,333.348 258.73,333.814Z" fill="#FEEAB2"/>
<path d="M322.51,347.667C322.51,347.667 321.986,347.667 322.336,346.401C322.336,346.401 322.772,346.052 321.026,345.921C321.026,345.921 321.011,345.921 320.997,345.906C320.91,346.27 321.23,346.474 321.492,346.838C321.841,347.347 321.259,347.987 321.608,348.409C321.666,348.482 321.754,348.526 321.826,348.584C322.219,348.875 322.408,349.399 322.292,349.879C322.219,350.184 322.015,350.461 322.03,350.781C322.045,350.941 322.117,351.087 322.219,351.218C322.263,351.101 322.307,350.97 322.35,350.854C322.35,350.854 322.714,350.083 322.35,348.948C322.35,348.933 322.99,348.191 322.51,347.667Z" fill="#703817"/>
<g opacity="0.7">
<path d="M319.876,348.627C316.762,351.901 313.43,355.016 309.472,357.227C303.142,360.749 295.531,362.03 288.372,361.186C282.944,360.545 277.574,358.697 272.932,355.801C270.779,354.463 268.392,353.182 266.893,351.057C265.482,349.049 265.103,346.561 264.07,344.363C262.368,340.784 259.85,337.728 257.784,334.396C257.624,334.556 257.507,334.759 257.391,335.152C257.1,336.084 257.333,336.607 257.682,337.015C258.031,337.422 257.857,337.655 258.439,337.946C259.021,338.237 261.756,342.501 262.106,343.956C262.455,345.411 263.037,347.157 262.804,348.918C262.571,350.664 263.677,354.812 266.471,357.373C269.265,359.934 280.877,367.399 292.766,366.759C304.655,366.119 319.527,358.945 322.321,350.839C322.321,350.839 322.685,350.068 322.321,348.933C322.321,348.933 322.961,348.191 322.481,347.667C322.481,347.667 321.957,347.667 322.307,346.401C322.307,346.401 322.379,346.343 322.35,346.27C321.361,346.925 320.429,348.06 319.876,348.627Z" fill="#FEE8A8"/>
</g>
<path d="M258.292,336.126C258.292,336.126 256.765,336.897 255.935,337.232C255.12,337.581 254.829,337.479 254.407,338.352C253.971,339.226 254.131,339.778 254.407,340.244C254.684,340.695 254.48,340.899 255.018,341.277C255.557,341.656 257.609,346.283 257.725,347.782C257.841,349.281 258.147,351.1 257.652,352.788C257.157,354.476 257.609,358.74 259.981,361.708C262.352,364.677 272.67,373.83 284.515,375.023C296.36,376.216 312.163,371.414 316.165,363.833C316.165,363.833 316.645,363.12 316.456,361.941C316.456,361.941 317.213,361.301 316.805,360.719C316.805,360.719 316.281,360.631 316.82,359.438C316.82,359.438 317.3,359.162 315.598,358.754C315.598,358.754 313.808,357.983 308.394,358.958C308.394,358.958 294.134,363.294 285.926,360.864C277.719,358.434 271.229,354.025 266.922,350.78C266.922,350.78 266.412,350.387 263.4,348.684C263.4,348.684 261.669,347.884 260.766,345.134C260.766,345.134 258.918,340.244 258.976,338.134L258.292,336.126Z" fill="#FECF4B"/>
<path d="M316.18,363.833C316.18,363.833 316.66,363.12 316.471,361.941C316.471,361.941 317.227,361.301 316.82,360.719C316.82,360.719 316.296,360.632 316.834,359.438C316.834,359.438 316.936,359.38 316.878,359.264C312.192,359.875 299.198,363.687 294.599,364.43C288.968,365.332 281.939,363.338 275.987,360.646C270.036,357.954 264.986,352.293 261.887,349.427C259.5,347.215 257.23,340.288 256.372,337.043C256.212,337.116 256.066,337.174 255.935,337.232C255.12,337.581 254.829,337.48 254.407,338.353C253.971,339.226 254.131,339.779 254.407,340.244C254.684,340.695 254.48,340.899 255.018,341.278C255.557,341.656 257.609,346.283 257.725,347.782C257.74,348.015 257.769,348.248 257.798,348.495C258.904,349.732 259.951,351.391 259.544,356.062C259.297,358.856 260.519,361.854 262.833,364.59C265.714,367.151 270.24,370.454 275.58,372.68C277.923,373.437 280.44,373.99 283.089,374.252C296.957,375.605 308.787,369.479 311.232,367.471C312.862,366.132 314.331,365.288 315.787,364.531C315.932,364.299 316.063,364.066 316.18,363.833Z" fill="#FEC014"/>
<path d="M255.95,337.232C255.135,337.581 254.844,337.479 254.422,338.352C253.985,339.226 254.145,339.778 254.422,340.244C254.654,340.608 254.553,340.812 254.8,341.088C255.135,340.87 255.615,340.535 255.906,340.186C256.401,339.604 257.041,339.706 257.638,339.298C258.234,338.905 258.394,338.658 259.005,338.134L258.307,336.126C258.292,336.126 256.764,336.897 255.95,337.232Z" fill="#FEEAB2"/>
<path d="M316.835,360.719C316.835,360.719 316.311,360.632 316.849,359.439C316.849,359.439 317.329,359.162 315.627,358.755C315.627,358.755 315.612,358.755 315.598,358.74C315.452,359.089 315.743,359.337 315.932,359.73C316.209,360.297 315.525,360.836 315.816,361.301C315.86,361.374 315.932,361.432 316.005,361.505C316.354,361.84 316.456,362.407 316.267,362.858C316.136,363.149 315.903,363.397 315.874,363.717C315.86,363.877 315.903,364.037 316.005,364.168C316.063,364.052 316.136,363.95 316.194,363.833C316.194,363.833 316.675,363.12 316.485,361.942C316.471,361.942 317.228,361.316 316.835,360.719Z" fill="#703817"/>
<g opacity="0.7">
<path d="M314.084,361.272C310.504,364.022 306.735,366.598 302.472,368.17C295.676,370.673 287.964,370.774 281.008,368.839C275.755,367.384 270.72,364.706 266.587,361.141C264.666,359.482 262.513,357.852 261.348,355.524C260.257,353.327 260.272,350.795 259.588,348.481C258.467,344.683 256.444,341.278 254.916,337.669C254.742,337.8 254.582,337.989 254.407,338.353C253.971,339.226 254.131,339.779 254.407,340.245C254.684,340.696 254.48,340.899 255.018,341.278C255.557,341.656 257.609,346.284 257.725,347.782C257.841,349.281 258.147,351.1 257.652,352.788C257.157,354.476 257.609,358.74 259.981,361.709C262.352,364.677 272.67,373.83 284.515,375.024C296.36,376.217 312.163,371.415 316.165,363.833C316.165,363.833 316.645,363.12 316.456,361.941C316.456,361.941 317.213,361.301 316.805,360.719C316.805,360.719 316.281,360.632 316.82,359.439C316.82,359.439 316.893,359.395 316.878,359.322C315.816,359.817 314.71,360.792 314.084,361.272Z" fill="#FEE8A8"/>
</g>
<path d="M390.685,333.144L387.353,331.136L387.353,314.823L381.969,314.823L376.585,314.823L376.585,331.136L373.252,333.144C371.026,334.483 369.673,336.884 369.673,339.474L369.673,379.157L381.983,379.157L394.294,379.157L394.294,339.474C394.265,336.884 392.912,334.483 390.685,333.144Z" fill="#29ABE2"/>
<path d="M394.265,345.601L369.644,345.601L369.644,372.842L394.265,372.842L394.265,345.601Z" fill="#E3E4FF"/>
<path d="M388.415,311.593L375.493,311.593L375.493,318.054L388.415,318.054L388.415,311.593Z" fill="#000000"/>
<path d="M390.686,333.144L387.353,331.136L387.353,314.823L382.58,314.823L382.58,331.136L385.913,333.144C388.139,334.483 389.492,336.884 389.492,339.474L389.492,379.157L394.265,379.157L394.265,339.474C394.265,336.884 392.912,334.483 390.686,333.144Z" fill="#9BC0D1"/>
<path d="M376.629,333.144L373.296,331.136L373.296,314.823L367.912,314.823L362.528,314.823L362.528,331.136L359.195,333.144C356.969,334.483 355.616,336.884 355.616,339.474L355.616,379.157L367.927,379.157L380.237,379.157L380.237,339.474C380.208,336.884 378.855,334.483 376.629,333.144Z" fill="#29ABE2"/>
<path d="M380.208,345.601L355.586,345.601L355.586,372.842L380.208,372.842L380.208,345.601Z" fill="#E3E4FF"/>
<path d="M374.358,311.593L361.436,311.593L361.436,318.054L374.358,318.054L374.358,311.593Z" fill="#000000"/>
<path d="M376.628,333.144L373.296,331.136L373.296,314.823L368.523,314.823L368.523,331.136L371.855,333.144C374.082,334.483 375.435,336.884 375.435,339.474L375.435,379.157L380.208,379.157L380.208,339.474C380.208,336.884 378.855,334.483 376.628,333.144Z" fill="#9BC0D1"/>
<path d="M319.41,438.995C319.41,443.884 315.452,447.842 310.563,447.842C305.673,447.842 301.715,443.884 301.715,438.995C301.715,434.106 305.673,430.147 310.563,430.147C315.452,430.147 319.41,434.106 319.41,438.995Z" fill="#596235"/>
<path d="M310.563,442.326C312.403,442.326 313.895,440.834 313.895,438.993C313.895,437.153 312.403,435.661 310.563,435.661C308.723,435.661 307.231,437.153 307.231,438.993C307.231,440.834 308.723,442.326 310.563,442.326Z" fill="#FFFFFF"/>
<path d="M314.143,434.789L306.983,434.789L304.946,426.131L316.18,426.131L314.143,434.789Z" fill="#596235"/>
<path d="M310.563,442.326C312.403,442.326 313.895,440.834 313.895,438.993C313.895,437.153 312.403,435.661 310.563,435.661C308.723,435.661 307.231,437.153 307.231,438.993C307.231,440.834 308.723,442.326 310.563,442.326Z" fill="#FFFFFF"/>
<path d="M460.985,251.756L447.103,254.506L440.045,258.028L451.701,265.988L459.69,265.114L463.604,261.549L465.787,260.254L460.985,251.756Z" fill="#E4A98D"/>
<path d="M440.045,258.027L436.727,259.729L439.041,264.881L446.506,270.629L457.944,269.814L457.027,268.373L453.462,267.849L443.828,257.052L440.045,258.027Z" fill="#E4A98D"/>
<path d="M500.537,256.384L492.155,356.617L517.272,422.929L526.847,422.929C526.847,422.929 517.97,362.554 517.97,361.157C517.97,359.76 542.257,253.43 542.257,253.43L500.537,256.384Z" fill="#596235"/>
<path d="M493.843,255.99L505.878,279.142C505.878,279.142 530.543,361.273 534.035,373.249C537.528,385.225 550.29,426.407 550.29,426.407L559.865,426.407C559.865,426.407 549.097,378.24 550.29,371.27C551.483,364.285 555.79,265.173 553.462,249.471L550.29,247.026L493.843,255.99Z" fill="#596235"/>
<path d="M498.311,143.664C498.311,143.664 490.889,140.812 490.947,157.823C490.976,164.59 491.107,246.065 458.308,251.653L463.663,262.815C463.663,262.815 489.725,257.925 496.695,235.821C503.666,213.717 516.806,144.392 498.311,143.664Z" fill="#989980"/>
<path d="M504.204,136.17L493.843,145.032C493.843,145.032 494.018,245.513 493.843,255.99C493.843,255.99 533.919,259.483 553.462,249.471C553.462,249.471 549.169,155.757 547.539,150.635C545.91,145.513 527.181,134.773 527.181,134.773L504.204,136.17Z" fill="#D96846"/>
<path d="M502.516,132.198L498.311,136.52L495.415,142.69L495.997,143.214L498.311,137.699L500.843,151.756L505.034,142.676L507.711,137.102L502.516,132.198Z" fill="#DBDBDB"/>
<path d="M513.445,114.241C513.445,114.241 520.808,112.48 521.506,103.152L511.888,105.35L513.445,114.241Z" fill="#000000"/>
<path d="M478.899,81.966C478.899,81.966 472.787,125.592 484.137,127.164C495.473,128.735 500.712,118.956 500.712,118.956C500.712,118.956 502.458,136.579 505.252,143.214L524.446,132.053C524.446,132.053 513.285,117.399 513.459,104.827C513.459,104.827 518,103.255 519.746,98.889C521.492,94.524 522.016,84.585 522.016,84.585C522.016,84.585 503.171,71.503 479.263,76.727L478.899,81.966Z" fill="#FF8585"/>
<path d="M512.586,83.813L506.547,90.725C500.377,87.931 504.655,82.125 504.655,82.125L500.173,81.179C492.17,85.574 484.661,76.887 484.661,76.887C484.006,80.102 480.979,82.212 478.724,83.362C478.84,82.46 478.898,81.951 478.898,81.951L479.19,77.498L481.183,76.319C482.857,76.013 484.501,75.81 486.116,75.679C487.644,76.974 489.681,77.687 489.681,77.687C494.92,79.2 500.843,76.872 500.843,76.872C501.672,79.448 507.711,83.333 507.711,83.333L512.586,83.813Z" fill="#E36B6B"/>
<path d="M484.661,76.902C484.661,76.902 489.201,83.887 499.664,79.521C499.664,79.521 498.616,81.791 504.03,82.664C504.03,82.664 502.458,87.554 507.522,88.078C507.522,88.078 502.283,95.237 502.458,100.112L504.903,100.985C504.903,100.985 508.046,86.506 513.285,87.903C518.523,89.3 515.904,105.176 509.094,105.351C509.094,105.351 516.777,109.367 520.08,105.351C523.398,101.334 523.689,95.441 521.273,92.021C521.273,92.021 526.701,91.919 528.098,87.379C528.098,87.379 528.448,81.267 522.86,80.045C522.86,80.045 530.543,65.391 512.222,63.47C512.222,63.47 505.237,52.658 492.155,54.39C479.073,56.136 481.169,64.343 481.169,64.343C481.169,64.343 469.818,62.772 468.61,71.663C467.388,80.569 477.851,86.491 484.661,76.902Z" fill="#000000"/>
<path d="M494.833,93.141C494.76,94.261 494.265,95.149 493.712,95.105C493.174,95.076 492.781,94.13 492.854,93.01C492.927,91.889 493.421,91.002 493.974,91.045C494.527,91.075 494.906,92.006 494.833,93.141Z" fill="#2E1708"/>
<path d="M481.052,92.253C480.979,93.374 480.484,94.261 479.931,94.218C479.393,94.189 479,93.243 479.073,92.122C479.146,91.002 479.64,90.114 480.193,90.158C480.746,90.187 481.125,91.133 481.052,92.253Z" fill="#2E1708"/>
<path d="M483.322,107.781L482.782,107.863L482.852,108.328L483.322,108.328L483.322,107.781ZM485.651,87.656C485.124,87.509 485.124,87.509 485.124,87.509C485.124,87.509 485.124,87.509 485.124,87.509C485.124,87.51 485.124,87.51 485.124,87.511C485.123,87.513 485.122,87.515 485.122,87.519C485.12,87.525 485.117,87.534 485.114,87.547C485.107,87.571 485.097,87.607 485.084,87.654C485.059,87.749 485.021,87.888 484.974,88.067C484.88,88.426 484.747,88.945 484.592,89.593C484.281,90.887 483.878,92.693 483.512,94.741C482.783,98.82 482.186,103.927 482.782,107.863L483.863,107.7C483.295,103.953 483.862,98.997 484.588,94.934C484.949,92.911 485.347,91.127 485.654,89.848C485.808,89.209 485.939,88.697 486.031,88.345C486.078,88.169 486.114,88.033 486.139,87.941C486.151,87.896 486.161,87.861 486.167,87.838C486.171,87.826 486.173,87.818 486.175,87.812C486.175,87.809 486.176,87.807 486.176,87.806C486.176,87.805 486.177,87.805 486.177,87.804C486.177,87.804 486.177,87.804 486.177,87.804C486.177,87.804 486.177,87.804 485.651,87.656ZM483.322,108.328L485.651,108.328L485.651,107.235L483.322,107.235L483.322,108.328Z" fill="#603813"/>
<path d="M509.996,97.187C510.796,95.877 511.931,94.786 513.445,94.175C512.557,94.175 511.684,94.539 510.942,95.048C510.185,95.557 509.589,96.285 509.137,97.056C508.672,97.842 508.41,98.7 508.221,99.574C508.148,100.01 508.104,100.447 508.061,100.883C508.075,101.32 508.061,101.756 508.104,102.193C508.352,101.349 508.541,100.519 508.817,99.719C509.079,99.064 509.327,98.409 509.647,97.798C510.127,97.973 510.578,98.191 510.898,98.511C511.335,98.919 511.568,99.486 511.582,100.141C511.626,100.796 511.466,101.48 511.364,102.193C511.568,101.902 511.728,101.567 511.902,101.247C511.99,100.898 512.164,100.549 512.179,100.156C512.324,99.399 512.048,98.497 511.437,97.944C511.015,97.565 510.505,97.318 509.996,97.187Z" fill="#603813"/>
<path d="M492.737,84.993C492.737,84.993 496.463,85.109 499.14,87.67L500.843,86.332C500.843,86.332 496.695,82.665 492.737,83.479L492.737,84.993Z" fill="#2E1708"/>
<path d="M479.131,86.839C479.131,86.839 481.46,85.442 484.37,85.5L484.836,83.347C484.836,83.347 479.888,83.856 479.131,85.093L479.131,86.839Z" fill="#2E1708"/>
<path d="M488.445,67.297C492.272,60.181 504.975,61.971 506.402,70.047L505.849,69.989C506.911,67.617 509.792,67.486 511.888,68.33C509.356,67.719 506.722,68.199 506.052,71.036C504.932,63.018 492.941,60.865 488.445,67.297Z" fill="#666666"/>
<path d="M500.712,118.957C500.712,118.957 503.87,115.93 506.62,111.623C506.62,111.623 510.927,124.691 502.414,131.646L500.712,118.957Z" fill="#E36B6B"/>
<path d="M503.739,138.311C503.739,138.311 505.994,140.479 516.69,138.965L507.697,142.574L500.828,151.771L503.739,138.311Z" fill="#FBB03B"/>
<path d="M500.843,151.757L507.362,141.978L522.831,129.755L521.856,128.256L523.34,128.256L532.173,136.405L514.26,154.667L507.711,143.215L500.843,151.757Z" fill="#FFFFFF"/>
<path d="M550.29,426.422L551.978,432.854L525.93,442.356L565.337,442.356L559.865,426.422L550.29,426.422Z" fill="#2F3020"/>
<path d="M517.272,422.929L518.96,429.361L492.912,438.863L532.319,438.863L526.847,422.929L517.272,422.929Z" fill="#2F3020"/>
<path d="M482.304,250.869L466.166,256.588L458.308,262.045L473.66,269.539L483.089,267.109L487.164,262.147L489.536,260.211L482.304,250.869Z" fill="#F9C6AE"/>
<path d="M542.533,147.565C542.533,147.565 549.649,147.827 550.246,159.658C550.842,171.489 546.215,207.999 542.533,219.219C538.488,231.588 519.032,255.045 487.629,263.194L481.809,249.705C481.809,249.705 512.979,237.146 519.032,220.848C525.086,204.579 527.414,144.786 542.533,147.565Z" fill="#989980"/>
<path d="M547.54,150.635C550.494,154.433 550.596,159.54 550.596,164.153C550.421,173.539 549.504,182.882 548.296,192.18C547.001,201.508 545.823,210.821 542.985,219.858C537.688,233.071 526.687,243.272 515.016,250.868C518.814,248.132 522.452,245.178 525.785,241.918C532.362,235.501 538.547,228.094 541.792,219.436C543.203,215.056 544.018,210.428 544.848,205.844C546.521,196.662 547.743,187.378 548.777,178.094C549.286,173.452 549.737,168.795 549.926,164.124C550.13,159.555 550.217,154.578 547.54,150.635Z" fill="#596235"/>
<path d="M478.433,113.019C478.433,113.019 484.603,117.53 493.843,114.299Z" fill="#FF8585"/>
<path d="M478.433,113.019C483.395,114.983 488.619,115.027 493.843,114.299C489.187,117.079 482.435,116.875 478.433,113.019Z" fill="#603813"/>
<path d="M385.49,438.995C385.49,443.884 381.532,447.842 376.643,447.842C371.753,447.842 367.795,443.884 367.795,438.995C367.795,434.106 371.753,430.147 376.643,430.147C381.532,430.147 385.49,434.106 385.49,438.995Z" fill="#596235"/>
<path d="M376.657,442.326C378.498,442.326 379.989,440.834 379.989,438.993C379.989,437.153 378.498,435.661 376.657,435.661C374.817,435.661 373.325,437.153 373.325,438.993C373.325,440.834 374.817,442.326 376.657,442.326Z" fill="#FFFFFF"/>
<path d="M380.237,434.789L373.078,434.789L371.04,426.131L382.26,426.131L380.237,434.789Z" fill="#596235"/>
<path d="M255.368,379.245C254.597,379.245 253.971,378.62 253.971,377.848L253.971,280.962C253.971,280.191 254.597,279.565 255.368,279.565C256.139,279.565 256.765,280.191 256.765,280.962L256.765,377.848C256.765,378.62 256.139,379.245 255.368,379.245Z" fill="#596235"/>
<path d="M276.628,379.245C275.857,379.245 275.231,378.62 275.231,377.848L275.231,280.962C275.231,280.191 275.857,279.565 276.628,279.565C277.399,279.565 278.025,280.191 278.025,280.962L278.025,377.848C278.025,378.62 277.399,379.245 276.628,379.245Z" fill="#596235"/>
<path d="M297.903,379.245C297.132,379.245 296.506,378.62 296.506,377.848L296.506,280.962C296.506,280.191 297.132,279.565 297.903,279.565C298.674,279.565 299.3,280.191 299.3,280.962L299.3,377.848C299.3,378.62 298.674,379.245 297.903,379.245Z" fill="#596235"/>
<path d="M319.163,379.245C318.392,379.245 317.766,378.62 317.766,377.848L317.766,280.962C317.766,280.191 318.392,279.565 319.163,279.565C319.935,279.565 320.56,280.191 320.56,280.962L320.56,377.848C320.56,378.62 319.935,379.245 319.163,379.245Z" fill="#596235"/>
<path d="M340.438,379.245C339.667,379.245 339.041,378.62 339.041,377.848L339.041,280.962C339.041,280.191 339.667,279.565 340.438,279.565C341.209,279.565 341.835,280.191 341.835,280.962L341.835,377.848C341.835,378.62 341.209,379.245 340.438,379.245Z" fill="#596235"/>
<path d="M361.698,379.245C360.927,379.245 360.301,378.62 360.301,377.848L360.301,280.962C360.301,280.191 360.927,279.565 361.698,279.565C362.469,279.565 363.095,280.191 363.095,280.962L363.095,377.848C363.095,378.62 362.469,379.245 361.698,379.245Z" fill="#596235"/>
<path d="M382.973,379.245C382.202,379.245 381.576,378.62 381.576,377.848L381.576,280.962C381.576,280.191 382.202,279.565 382.973,279.565C383.744,279.565 384.37,280.191 384.37,280.962L384.37,377.848C384.37,378.62 383.744,379.245 382.973,379.245Z" fill="#596235"/>
<path d="M404.248,355.977C403.477,355.977 402.851,355.351 402.851,354.58L402.851,280.962C402.851,280.191 403.477,279.565 404.248,279.565C405.019,279.565 405.645,280.191 405.645,280.962L405.645,354.58C405.63,355.351 405.019,355.977 404.248,355.977Z" fill="#596235"/>
<path d="M420.517,307.17L236.232,307.17C235.461,307.17 234.835,306.544 234.835,305.773C234.835,305.002 235.461,304.376 236.232,304.376L420.502,304.376C421.273,304.376 421.899,305.002 421.899,305.773C421.913,306.544 421.288,307.17 420.517,307.17Z" fill="#596235"/>
<path d="M412.848,330.802L241.18,330.802C240.409,330.802 239.783,330.176 239.783,329.405C239.783,328.634 240.409,328.008 241.18,328.008L412.848,328.008C413.619,328.008 414.245,328.634 414.245,329.405C414.245,330.176 413.619,330.802 412.848,330.802Z" fill="#596235"/>
<path d="M405.194,354.435L246.113,354.435C245.342,354.435 244.716,353.809 244.716,353.038C244.716,352.266 245.342,351.641 246.113,351.641L405.179,351.641C405.951,351.641 406.576,352.266 406.576,353.038C406.591,353.809 405.965,354.435 405.194,354.435Z" fill="#596235"/>
<path d="M478.17,264.766L430.964,264.766L426.585,278.255L227.734,278.255L248.659,378.386L248.659,378.401C248.688,378.561 248.747,378.721 248.805,378.881C248.819,378.925 248.849,378.968 248.878,379.012C248.936,379.114 248.979,379.216 249.052,379.318C249.081,379.361 249.125,379.405 249.154,379.449C249.212,379.536 249.285,379.623 249.358,379.696C249.401,379.74 249.445,379.783 249.489,379.827C249.562,379.9 249.634,379.958 249.722,380.016C249.78,380.06 249.838,380.089 249.882,380.132C249.969,380.191 250.042,380.234 250.129,380.263C250.187,380.293 250.245,380.322 250.318,380.351C250.42,380.394 250.522,380.424 250.624,380.438C250.682,380.453 250.74,380.467 250.798,380.482C250.959,380.511 251.133,380.525 251.308,380.525L395.284,380.525L411.465,423.395L266.835,423.395C265.35,423.395 264.128,424.603 264.128,426.102C264.128,427.586 265.336,428.808 266.835,428.808L419.28,428.808L399.998,377.775L434.88,270.164L478.156,270.164C479.64,270.164 480.864,268.957 480.864,267.458C480.864,265.959 479.656,264.766 478.17,264.766ZM424.838,283.668L395.182,375.156L253.505,375.156L234.384,283.668L424.838,283.668Z" fill="#596235"/>
<path d="M458.308,262.043L454.641,264.663L458.308,270.411L468.261,275.999L481.809,273.03L478.695,270.12L474.562,270.178L462.674,260.21L458.308,262.043Z" fill="#F9C6AE"/>
<path d="M463.095,265.988C466.559,268.258 469.789,270.849 472.874,273.613L472.714,273.555C473.995,273.73 475.275,273.919 476.541,274.196C475.333,274.181 473.543,274.297 472.496,274.079C469.192,271.591 466.02,268.942 463.095,265.988Z" fill="#E4A98D"/>
<path d="M460.913,268.098C464.332,270.149 467.475,272.667 470.211,275.563C466.792,273.525 463.663,271.008 460.913,268.098Z" fill="#E4A98D"/>
</svg>
