<svg width="196" height="106" viewBox="0 0 196 106" fill="none" xmlns="http://www.w3.org/2000/svg" xmlns:xlink="http://www.w3.org/1999/xlink">
<mask id="mask_0_211_2242" style="mask-type:alpha" maskUnits="userSpaceOnUse" x="18" y="0" width="56" height="53">
<path d="M18,18C18,12.409 18,9.613 18.913,7.408C20.131,4.467 22.467,2.131 25.408,0.913C27.613,0 30.409,0 36,0L112,0C117.591,0 120.387,0 122.592,0.913C125.533,2.131 127.869,4.467 129.087,7.408C130,9.613 130,12.409 130,18L130,88C130,93.591 130,96.387 129.087,98.592C127.869,101.533 125.533,103.869 122.592,105.087C120.387,106 117.591,106 112,106L36,106C30.409,106 27.613,106 25.408,105.087C22.467,103.869 20.131,101.533 18.913,98.592C18,96.387 18,93.591 18,88L18,18Z" fill="url(#pattern_0_211_2242)"/>
</mask>
<path d="M18,18C18,12.409 18,9.613 18.913,7.408C20.131,4.467 22.467,2.131 25.408,0.913C27.613,0 30.409,0 36,0L112,0C117.591,0 120.387,0 122.592,0.913C125.533,2.131 127.869,4.467 129.087,7.408C130,9.613 130,12.409 130,18L130,88C130,93.591 130,96.387 129.087,98.592C127.869,101.533 125.533,103.869 122.592,105.087C120.387,106 117.591,106 112,106L36,106C30.409,106 27.613,106 25.408,105.087C22.467,103.869 20.131,101.533 18.913,98.592C18,96.387 18,93.591 18,88L18,18Z" fill="url(#pattern_0_211_1744)"/>
<g mask="url(#mask_0_211_2242)">
<rect  x="0" y="0" width="194.976" height="106" fill="url(#pattern_0_211_2243)"/>
</g>
</svg>
