<svg width="32" height="18" viewBox="0 0 32 18" fill="none" xmlns="http://www.w3.org/2000/svg" xmlns:xlink="http://www.w3.org/1999/xlink">
<path d="M27.5,9C27.5,10.059 26.603,11.421 24.229,12.608C21.944,13.75 18.684,14.5 15,14.5L15,17.5C19.048,17.5 22.788,16.683 25.57,15.291C28.263,13.945 30.5,11.807 30.5,9L27.5,9ZM15,14.5C11.316,14.5 8.056,13.75 5.771,12.608C3.397,11.421 2.5,10.059 2.5,9L-0.5,9C-0.5,11.807 1.737,13.945 4.43,15.291C7.212,16.683 10.952,17.5 15,17.5L15,14.5ZM2.5,9C2.5,7.941 3.397,6.579 5.771,5.392C8.056,4.25 11.316,3.5 15,3.5L15,0.5C10.952,0.5 7.212,1.317 4.43,2.709C1.737,4.055 -0.5,6.193 -0.5,9L2.5,9ZM15,3.5C18.684,3.5 21.944,4.25 24.229,5.392C26.603,6.579 27.5,7.941 27.5,9L30.5,9C30.5,6.193 28.263,4.055 25.57,2.709C22.788,1.317 19.048,0.5 15,0.5L15,3.5Z" fill="#828A89"/>
</svg>
