<svg width="80" height="80" viewBox="0 0 80 80" fill="none" xmlns="http://www.w3.org/2000/svg" xmlns:xlink="http://www.w3.org/1999/xlink">
<circle cx="24" cy="24" r="24" fill="#FFF2F1"/>
<path d="M25.444,31.111C25.444,30.558 24.997,30.111 24.444,30.111C23.892,30.111 23.444,30.558 23.444,31.111L25.444,31.111ZM56.556,31.111C56.556,30.558 56.108,30.111 55.556,30.111C55.003,30.111 54.556,30.558 54.556,31.111L56.556,31.111ZM45.444,37.777C45.444,37.225 44.997,36.777 44.444,36.777C43.892,36.777 43.444,37.225 43.444,37.777L45.444,37.777ZM43.444,51.111C43.444,51.663 43.892,52.111 44.444,52.111C44.997,52.111 45.444,51.663 45.444,51.111L43.444,51.111ZM36.556,37.777C36.556,37.225 36.108,36.777 35.556,36.777C35.003,36.777 34.556,37.225 34.556,37.777L36.556,37.777ZM34.556,51.111C34.556,51.663 35.003,52.111 35.556,52.111C36.108,52.111 36.556,51.663 36.556,51.111L34.556,51.111ZM60,25.444C60.552,25.444 61,24.996 61,24.444C61,23.892 60.552,23.444 60,23.444L60,25.444ZM20,23.444C19.448,23.444 19,23.892 19,24.444C19,24.996 19.448,25.444 20,25.444L20,23.444ZM45.764,19.756L44.932,20.311L44.932,20.311L45.764,19.756ZM34.236,19.756L33.404,19.202L33.404,19.202L34.236,19.756ZM33.333,63.222L46.667,63.222L46.667,61.222L33.333,61.222L33.333,63.222ZM23.444,31.111L23.444,53.333L25.444,53.333L25.444,31.111L23.444,31.111ZM56.556,53.333L56.556,31.111L54.556,31.111L54.556,53.333L56.556,53.333ZM46.667,63.222C52.128,63.222 56.556,58.794 56.556,53.333L54.556,53.333C54.556,57.69 51.024,61.222 46.667,61.222L46.667,63.222ZM33.333,61.222C28.976,61.222 25.444,57.69 25.444,53.333L23.444,53.333C23.444,58.794 27.872,63.222 33.333,63.222L33.333,61.222ZM43.444,37.777L43.444,51.111L45.444,51.111L45.444,37.777L43.444,37.777ZM34.556,37.777L34.556,51.111L36.556,51.111L36.556,37.777L34.556,37.777ZM37.934,18.777L42.066,18.777L42.066,16.777L37.934,16.777L37.934,18.777ZM44.932,20.311L48.057,24.999L49.721,23.889L46.596,19.202L44.932,20.311ZM48.889,23.444L31.111,23.444L31.111,25.444L48.889,25.444L48.889,23.444ZM31.943,24.999L35.068,20.311L33.404,19.202L30.279,23.889L31.943,24.999ZM48.889,25.444L60,25.444L60,23.444L48.889,23.444L48.889,25.444ZM31.111,23.444L20,23.444L20,25.444L31.111,25.444L31.111,23.444ZM42.066,18.777C43.218,18.777 44.293,19.353 44.932,20.311L46.596,19.202C45.586,17.687 43.886,16.777 42.066,16.777L42.066,18.777ZM37.934,16.777C36.114,16.777 34.414,17.687 33.404,19.202L35.068,20.311C35.707,19.353 36.782,18.777 37.934,18.777L37.934,16.777Z" fill="#EA3549"/>
</svg>
