<svg width="602" height="608" viewBox="0 0 602 608" fill="none" xmlns="http://www.w3.org/2000/svg" xmlns:xlink="http://www.w3.org/1999/xlink">
<path d="M549.506,248.218C549.506,251.223 547.082,253.648 544.077,253.648C541.072,253.648 538.648,251.223 538.648,248.218C538.648,245.214 541.072,242.789 544.077,242.789C547.082,242.789 549.506,245.214 549.506,248.218Z" transform="rotate(69.458 544.077 248.218)" fill="url(#pf_0_151_1308)"/>
<path d="M100.337,234.27C100.337,236.132 98.826,237.626 96.981,237.626C95.136,237.626 93.625,236.115 93.625,234.27C93.625,232.425 95.136,230.914 96.981,230.914C98.826,230.914 100.337,232.425 100.337,234.27Z" transform="rotate(69.458 96.981 234.27)" fill="url(#pf_0_151_1309)"/>
<path d="M135.51,213.964C137.364,213.964 138.866,212.462 138.866,210.608C138.866,208.755 137.364,207.252 135.51,207.252C133.657,207.252 132.154,208.755 132.154,210.608C132.154,212.462 133.657,213.964 135.51,213.964Z" transform="rotate(69.458 135.51 210.608)" fill="url(#pf_0_151_1310)"/>
<path d="M568.188,282.89C568.188,285.894 565.763,288.319 562.759,288.319C559.754,288.319 557.329,285.894 557.329,282.89C557.329,279.885 559.754,277.46 562.759,277.46C565.763,277.46 568.188,279.885 568.188,282.89Z" transform="rotate(69.458 562.759 282.89)" fill="url(#pf_0_151_1311)"/>
<path d="M262.687,540.007C262.687,543.012 260.263,545.437 257.258,545.437C254.254,545.437 251.829,543.012 251.829,540.007C251.829,537.003 254.254,534.578 257.258,534.578C260.263,534.578 262.687,537.003 262.687,540.007Z" transform="rotate(69.458 257.258 540.007)" fill="url(#pf_0_151_1312)"/>
<path d="M446.613,197.076C446.613,200.08 444.188,202.505 441.183,202.505C438.179,202.505 435.754,200.08 435.754,197.076C435.754,194.071 438.179,191.647 441.183,191.647C444.188,191.647 446.613,194.071 446.613,197.076Z" transform="rotate(69.458 441.183 197.076)" fill="url(#pf_0_151_1313)"/>
<path d="M175.585,198.701C175.585,200.194 174.373,201.424 172.862,201.424C171.35,201.424 170.138,200.212 170.138,198.701C170.138,197.19 171.35,195.977 172.862,195.977C174.373,195.977 175.585,197.19 175.585,198.701Z" transform="rotate(69.458 172.862 198.701)" fill="url(#pf_0_151_1314)"/>
<path d="M205.848,227.397C205.848,228.891 204.636,230.121 203.125,230.121C201.614,230.121 200.401,228.908 200.401,227.397C200.401,225.886 201.614,224.674 203.125,224.674C204.636,224.674 205.848,225.886 205.848,227.397Z" transform="rotate(69.458 203.125 227.397)" fill="url(#pf_0_151_1315)"/>
<path d="M204.429,208.071C204.429,209.564 203.217,210.794 201.706,210.794C200.195,210.794 198.982,209.582 198.982,208.071C198.982,206.559 200.195,205.347 201.706,205.347C203.217,205.347 204.429,206.559 204.429,208.071Z" transform="rotate(69.458 201.706 208.071)" fill="url(#pf_0_151_1316)"/>
<path d="M359.607,132.034C359.607,133.527 358.395,134.757 356.884,134.757C355.373,134.757 354.161,133.545 354.161,132.034C354.161,130.523 355.373,129.311 356.884,129.311C358.395,129.311 359.607,130.523 359.607,132.034Z" transform="rotate(69.458 356.884 132.034)" fill="url(#pf_0_151_1317)"/>
<path d="M433.915,129.112C433.915,130.606 432.703,131.835 431.192,131.835C429.681,131.835 428.468,130.623 428.468,129.112C428.468,127.601 429.681,126.389 431.192,126.389C432.703,126.389 433.915,127.601 433.915,129.112Z" transform="rotate(69.458 431.192 129.112)" fill="url(#pf_0_151_1318)"/>
<path d="M492.01,251.386C493.514,251.386 494.733,250.167 494.733,248.663C494.733,247.159 493.514,245.939 492.01,245.939C490.506,245.939 489.287,247.159 489.287,248.663C489.287,250.167 490.506,251.386 492.01,251.386Z" transform="rotate(69.458 492.01 248.663)" fill="url(#pf_0_151_1319)"/>
<path d="M443.812,242.675C443.812,244.169 442.599,245.399 441.088,245.399C439.577,245.399 438.365,244.186 438.365,242.675C438.365,241.164 439.577,239.952 441.088,239.952C442.599,239.952 443.812,241.164 443.812,242.675Z" transform="rotate(69.458 441.088 242.675)" fill="url(#pf_0_151_1320)"/>
<path d="M550.055,267.364C550.055,268.857 548.842,270.087 547.331,270.087C545.82,270.087 544.608,268.875 544.608,267.364C544.608,265.853 545.82,264.64 547.331,264.64C548.842,264.64 550.055,265.853 550.055,267.364Z" transform="rotate(69.458 547.331 267.364)" fill="url(#pf_0_151_1321)"/>
<path d="M446.338,460.513C446.338,463.517 443.914,465.942 440.909,465.942C437.904,465.942 435.48,463.517 435.48,460.513C435.48,457.508 437.904,455.083 440.909,455.083C443.914,455.083 446.338,457.508 446.338,460.513Z" transform="rotate(69.458 440.909 460.513)" fill="url(#pf_0_151_1322)"/>
<path d="M593.026,237.529C593.026,240.534 590.601,242.959 587.597,242.959C584.592,242.959 582.167,240.534 582.167,237.529C582.167,234.525 584.592,232.1 587.597,232.1C590.601,232.1 593.026,234.525 593.026,237.529Z" transform="rotate(69.458 587.597 237.529)" fill="url(#pf_0_151_1323)"/>
<path d="M204.277,440.664C202.362,442.579 199.269,442.579 197.354,440.664C195.439,438.749 195.439,435.657 197.354,433.741C199.269,431.826 202.362,431.826 204.277,433.741C206.192,435.657 206.192,438.749 204.277,440.664Z" transform="rotate(69.458 200.816 437.203)" fill="url(#pf_0_151_1324)"/>
<path d="M92.305,259.492C92.305,261.671 90.548,263.428 88.369,263.428C86.191,263.428 84.434,261.671 84.434,259.492C84.434,257.313 86.191,255.556 88.369,255.556C90.548,255.556 92.305,257.313 92.305,259.492Z" transform="rotate(69.458 88.369 259.492)" fill="url(#pf_0_151_1325)"/>
<path d="M117.306,249.457C117.306,251.636 115.549,253.393 113.37,253.393C111.191,253.393 109.434,251.636 109.434,249.457C109.434,247.278 111.191,245.521 113.37,245.521C115.549,245.521 117.306,247.278 117.306,249.457Z" transform="rotate(69.458 113.37 249.457)" fill="url(#pf_0_151_1326)"/>
<defs>
<radialGradient id="pf_0_151_1308" cx="0" cy="0" r="1" gradientUnits="userSpaceOnUse" gradientTransform="matrix(2.231039 1.546527 -1.546529 2.231041 272.137 123.258)">
<stop offset="0.1" stop-color="#AF8061"/>
<stop offset="0.19" stop-color="#976D51"/>
<stop offset="0.33" stop-color="#78553D"/>
<stop offset="0.46" stop-color="#62432F"/>
<stop offset="0.59" stop-color="#553926"/>
<stop offset="0.7" stop-color="#513624"/>
<stop offset="1" stop-color="#3F2819"/>
</radialGradient>
<radialGradient id="pf_0_151_1309" cx="0" cy="0" r="1" gradientUnits="userSpaceOnUse" gradientTransform="matrix(1.383248 0.95885 -0.958846 1.383243 48.563 116.741)">
<stop offset="0.1" stop-color="#AF8061"/>
<stop offset="0.19" stop-color="#976D51"/>
<stop offset="0.33" stop-color="#78553D"/>
<stop offset="0.46" stop-color="#62432F"/>
<stop offset="0.59" stop-color="#553926"/>
<stop offset="0.7" stop-color="#513624"/>
<stop offset="1" stop-color="#3F2819"/>
</radialGradient>
<radialGradient id="pf_0_151_1310" cx="0" cy="0" r="1" gradientUnits="userSpaceOnUse" gradientTransform="matrix(1.383243 0.958846 -0.95885 1.383248 67.855 104.896)">
<stop offset="0.1" stop-color="#AF8061"/>
<stop offset="0.19" stop-color="#976D51"/>
<stop offset="0.33" stop-color="#78553D"/>
<stop offset="0.46" stop-color="#62432F"/>
<stop offset="0.59" stop-color="#553926"/>
<stop offset="0.7" stop-color="#513624"/>
<stop offset="1" stop-color="#3F2819"/>
</radialGradient>
<radialGradient id="pf_0_151_1311" cx="0" cy="0" r="1" gradientUnits="userSpaceOnUse" gradientTransform="matrix(2.231039 1.546527 -1.546529 2.231041 281.483 140.586)">
<stop offset="0.1" stop-color="#E38954"/>
<stop offset="0.19" stop-color="#CB7847"/>
<stop offset="0.33" stop-color="#AC6237"/>
<stop offset="0.46" stop-color="#96532C"/>
<stop offset="0.59" stop-color="#894A25"/>
<stop offset="0.7" stop-color="#854723"/>
<stop offset="1" stop-color="#733918"/>
</radialGradient>
<radialGradient id="pf_0_151_1312" cx="0" cy="0" r="1" gradientUnits="userSpaceOnUse" gradientTransform="matrix(2.231039 1.546527 -1.546535 2.23105 128.74 269.15)">
<stop offset="0.1" stop-color="#E38954"/>
<stop offset="0.19" stop-color="#CB7847"/>
<stop offset="0.33" stop-color="#AC6237"/>
<stop offset="0.46" stop-color="#96532C"/>
<stop offset="0.59" stop-color="#894A25"/>
<stop offset="0.7" stop-color="#854723"/>
<stop offset="1" stop-color="#733918"/>
</radialGradient>
<radialGradient id="pf_0_151_1313" cx="0" cy="0" r="1" gradientUnits="userSpaceOnUse" gradientTransform="matrix(2.231039 1.546527 -1.546529 2.231041 220.697 97.692)">
<stop offset="0.1" stop-color="#E38954"/>
<stop offset="0.19" stop-color="#CB7847"/>
<stop offset="0.33" stop-color="#AC6237"/>
<stop offset="0.46" stop-color="#96532C"/>
<stop offset="0.59" stop-color="#894A25"/>
<stop offset="0.7" stop-color="#854723"/>
<stop offset="1" stop-color="#733918"/>
</radialGradient>
<radialGradient id="pf_0_151_1314" cx="0" cy="0" r="1" gradientUnits="userSpaceOnUse" gradientTransform="matrix(1.119127 0.775765 -0.775768 1.119133 86.487 98.93)">
<stop offset="0.1" stop-color="#E38954"/>
<stop offset="0.19" stop-color="#CB7847"/>
<stop offset="0.33" stop-color="#AC6237"/>
<stop offset="0.46" stop-color="#96532C"/>
<stop offset="0.59" stop-color="#894A25"/>
<stop offset="0.7" stop-color="#854723"/>
<stop offset="1" stop-color="#733918"/>
</radialGradient>
<radialGradient id="pf_0_151_1315" cx="0" cy="0" r="1" gradientUnits="userSpaceOnUse" gradientTransform="matrix(1.119133 0.775768 -0.775765 1.119127 101.624 113.271)">
<stop offset="0.1" stop-color="#E38954"/>
<stop offset="0.19" stop-color="#CB7847"/>
<stop offset="0.33" stop-color="#AC6237"/>
<stop offset="0.46" stop-color="#96532C"/>
<stop offset="0.59" stop-color="#894A25"/>
<stop offset="0.7" stop-color="#854723"/>
<stop offset="1" stop-color="#733918"/>
</radialGradient>
<radialGradient id="pf_0_151_1316" cx="0" cy="0" r="1" gradientUnits="userSpaceOnUse" gradientTransform="matrix(1.119127 0.775765 -0.775768 1.119133 100.909 103.615)">
<stop offset="0.1" stop-color="#E38954"/>
<stop offset="0.19" stop-color="#CB7847"/>
<stop offset="0.33" stop-color="#AC6237"/>
<stop offset="0.46" stop-color="#96532C"/>
<stop offset="0.59" stop-color="#894A25"/>
<stop offset="0.7" stop-color="#854723"/>
<stop offset="1" stop-color="#733918"/>
</radialGradient>
<radialGradient id="pf_0_151_1317" cx="0" cy="0" r="1" gradientUnits="userSpaceOnUse" gradientTransform="matrix(1.119133 0.775768 -0.775768 1.119132 178.491 65.591)">
<stop offset="0.1" stop-color="#E38954"/>
<stop offset="0.19" stop-color="#CB7847"/>
<stop offset="0.33" stop-color="#AC6237"/>
<stop offset="0.46" stop-color="#96532C"/>
<stop offset="0.59" stop-color="#894A25"/>
<stop offset="0.7" stop-color="#854723"/>
<stop offset="1" stop-color="#733918"/>
</radialGradient>
<radialGradient id="pf_0_151_1318" cx="0" cy="0" r="1" gradientUnits="userSpaceOnUse" gradientTransform="matrix(1.119133 0.775768 -0.775767 1.119131 215.645 64.13)">
<stop offset="0.1" stop-color="#E38954"/>
<stop offset="0.19" stop-color="#CB7847"/>
<stop offset="0.33" stop-color="#AC6237"/>
<stop offset="0.46" stop-color="#96532C"/>
<stop offset="0.59" stop-color="#894A25"/>
<stop offset="0.7" stop-color="#854723"/>
<stop offset="1" stop-color="#733918"/>
</radialGradient>
<radialGradient id="pf_0_151_1319" cx="0" cy="0" r="1" gradientUnits="userSpaceOnUse" gradientTransform="matrix(1.119133 0.775768 -0.775767 1.11913 246.059 123.899)">
<stop offset="0.1" stop-color="#E38954"/>
<stop offset="0.19" stop-color="#CB7847"/>
<stop offset="0.33" stop-color="#AC6237"/>
<stop offset="0.46" stop-color="#96532C"/>
<stop offset="0.59" stop-color="#894A25"/>
<stop offset="0.7" stop-color="#854723"/>
<stop offset="1" stop-color="#733918"/>
</radialGradient>
<radialGradient id="pf_0_151_1320" cx="0" cy="0" r="1" gradientUnits="userSpaceOnUse" gradientTransform="matrix(1.119133 0.775768 -0.775767 1.11913 220.593 120.912)">
<stop offset="0.1" stop-color="#E38954"/>
<stop offset="0.19" stop-color="#CB7847"/>
<stop offset="0.33" stop-color="#AC6237"/>
<stop offset="0.46" stop-color="#96532C"/>
<stop offset="0.59" stop-color="#894A25"/>
<stop offset="0.7" stop-color="#854723"/>
<stop offset="1" stop-color="#733918"/>
</radialGradient>
<radialGradient id="pf_0_151_1321" cx="0" cy="0" r="1" gradientUnits="userSpaceOnUse" gradientTransform="matrix(1.119133 0.775768 -0.775768 1.119132 273.727 133.254)">
<stop offset="0.1" stop-color="#E38954"/>
<stop offset="0.19" stop-color="#CB7847"/>
<stop offset="0.33" stop-color="#AC6237"/>
<stop offset="0.46" stop-color="#96532C"/>
<stop offset="0.59" stop-color="#894A25"/>
<stop offset="0.7" stop-color="#854723"/>
<stop offset="1" stop-color="#733918"/>
</radialGradient>
<radialGradient id="pf_0_151_1322" cx="0" cy="0" r="1" gradientUnits="userSpaceOnUse" gradientTransform="matrix(0.361009 0.250247 -0.250248 0.36101 220.558 229.398)">
<stop offset="0.1" stop-color="#E38954"/>
<stop offset="0.19" stop-color="#CB7847"/>
<stop offset="0.33" stop-color="#AC6237"/>
<stop offset="0.46" stop-color="#96532C"/>
<stop offset="0.59" stop-color="#894A25"/>
<stop offset="0.7" stop-color="#854723"/>
<stop offset="1" stop-color="#733918"/>
</radialGradient>
<radialGradient id="pf_0_151_1323" cx="0" cy="0" r="1" gradientUnits="userSpaceOnUse" gradientTransform="matrix(2.231039 1.546527 -1.546529 2.231041 293.897 117.913)">
<stop offset="0.1" stop-color="#E35554"/>
<stop offset="0.19" stop-color="#CB4847"/>
<stop offset="0.33" stop-color="#AC3837"/>
<stop offset="0.46" stop-color="#962C2C"/>
<stop offset="0.59" stop-color="#892525"/>
<stop offset="0.7" stop-color="#852323"/>
<stop offset="1" stop-color="#731818"/>
</radialGradient>
<radialGradient id="pf_0_151_1324" cx="0" cy="0" r="1" gradientUnits="userSpaceOnUse" gradientTransform="matrix(0.437031 2.411812 -2.411812 0.437031 101.017 218.117)">
<stop offset="0.1" stop-color="#E35554"/>
<stop offset="0.19" stop-color="#CB4847"/>
<stop offset="0.33" stop-color="#AC3837"/>
<stop offset="0.46" stop-color="#962C2C"/>
<stop offset="0.59" stop-color="#892525"/>
<stop offset="0.7" stop-color="#852323"/>
<stop offset="1" stop-color="#731818"/>
</radialGradient>
<radialGradient id="pf_0_151_1325" cx="0" cy="0" r="1" gradientUnits="userSpaceOnUse" gradientTransform="matrix(1.617323 1.121107 -1.121107 1.617323 44.262 129.126)">
<stop offset="0.1" stop-color="#E35554"/>
<stop offset="0.19" stop-color="#CB4847"/>
<stop offset="0.33" stop-color="#AC3837"/>
<stop offset="0.46" stop-color="#962C2C"/>
<stop offset="0.59" stop-color="#892525"/>
<stop offset="0.7" stop-color="#852323"/>
<stop offset="1" stop-color="#731818"/>
</radialGradient>
<radialGradient id="pf_0_151_1326" cx="0" cy="0" r="1" gradientUnits="userSpaceOnUse" gradientTransform="matrix(1.617328 1.121111 -1.121107 1.617323 56.757 124.116)">
<stop offset="0.1" stop-color="#E35554"/>
<stop offset="0.19" stop-color="#CB4847"/>
<stop offset="0.33" stop-color="#AC3837"/>
<stop offset="0.46" stop-color="#962C2C"/>
<stop offset="0.59" stop-color="#892525"/>
<stop offset="0.7" stop-color="#852323"/>
<stop offset="1" stop-color="#731818"/>
</radialGradient>
</defs>
</svg>
