<svg width="28" height="26" viewBox="0 0 28 26" fill="none" xmlns="http://www.w3.org/2000/svg" xmlns:xlink="http://www.w3.org/1999/xlink">
<path d="M2,1L2,0L1,0L1,1L2,1ZM26,1L27,1L27,0L26,0L26,1ZM26,25L26,26L27,26L27,25L26,25ZM2,25L1,25L1,26L2,26L2,25ZM2,2L26,2L26,0L2,0L2,2ZM25,1L25,25L27,25L27,1L25,1ZM26,24L2,24L2,26L26,26L26,24ZM3,25L3,1L1,1L1,25L3,25Z" fill="#E1523F"/>
<path d="M14,20.322C18.044,20.322 21.322,17.044 21.322,13C21.322,8.956 18.044,5.678 14,5.678C9.956,5.678 6.678,8.956 6.678,13C6.678,17.044 9.956,20.322 14,20.322Z" fill="#E1523F"/>
</svg>
