<svg width="92" height="138" viewBox="0 0 92 138" fill="none" xmlns="http://www.w3.org/2000/svg" xmlns:xlink="http://www.w3.org/1999/xlink">
<path d="M55.716,61.803L66.312,48.544L79.214,59.147L67.239,73.49L55.716,61.803Z" fill="#F7D1BF"/>
<path d="M2.34,130.615C2.34,130.615 -0.4,120.725 -0.4,115.66C-0.4,106.147 38.95,76.075 47.005,59.027C49.851,53.005 53.808,56.103 53.808,56.103L57.485,54.492L73.959,70.436L72.932,75.327C72.932,75.327 76.683,83.318 72.025,86.796C65.015,92.028 46.638,118.203 38.734,127.083C27.541,139.653 5.926,138.175 2.34,130.615Z" fill="#989980"/>
<path d="M64.298,41.933C65.267,37.402 66.205,38.269 84.854,30.526C85.543,30.24 94.061,46.086 86.762,55.075C82.238,60.649 73.813,64.468 68.039,58.54C64.491,54.899 64.298,41.933 64.298,41.933Z" fill="#F7D1BF"/>
<path d="M66.729,56.762C62.76,48.542 61.158,44.304 60.661,38.31C60.393,35.072 61.51,35.292 64.162,31.972C68.159,26.967 73.908,20.808 76.143,25.127C79.542,31.694 70.12,38.686 71.598,40.331C80.371,50.098 70.698,64.981 66.729,56.762Z" fill="#F7D1BF"/>
<path d="M61.711,123.078L65.639,123.388L79.883,4.34C80.134,2.248 78.599,0.398 76.473,0.229C74.348,0.06 72.456,1.641 72.27,3.738L61.711,123.078Z" fill="#D99357"/>
<path d="M66.118,122.695C63.685,130.949 55.095,136.7 45.544,135.945C35.993,135.191 28.731,128.186 28.042,119.684L66.118,122.695Z" fill="#4D4D4D"/>
<path d="M72.054,74.142L65.639,123.388L61.167,123.034L65.568,73.631L72.054,74.142Z" fill="#4D4D4D"/>
<path d="M67.565,75.831C67.511,76.354 67.898,76.813 68.428,76.855C68.958,76.897 69.434,76.506 69.488,75.983C69.543,75.46 69.156,75.001 68.626,74.959C68.096,74.917 67.62,75.308 67.565,75.831Z" fill="#B3B3B3"/>
<path d="M68.449,76.644C68.483,76.646 68.512,76.622 68.516,76.587L68.656,75.236C68.659,75.204 68.634,75.173 68.601,75.171C68.567,75.169 68.538,75.193 68.534,75.227L68.394,76.578C68.391,76.611 68.416,76.64 68.449,76.644Z" fill="#999999"/>
<path d="M89.157,36.729C89.157,36.729 84.408,33.673 80.322,32.858C76.237,32.044 72.155,35.18 69.67,37.665C67.185,40.151 69.412,44.066 73.073,41.836C76.734,39.607 79.107,39.389 79.767,39.389C80.426,39.389 85.442,42.738 86.354,43.344C89.369,45.345 92.919,39.392 89.157,36.729Z" fill="#F7D1BF"/>
<path d="M89.367,42.761C89.367,42.761 84.618,39.704 80.533,38.889C76.447,38.075 72.365,41.211 69.88,43.697C67.395,46.182 69.623,50.097 73.283,47.867C76.944,45.638 79.317,45.42 79.977,45.42C80.636,45.42 85.652,48.769 86.564,49.375C89.578,51.376 93.13,45.424 89.367,42.761Z" fill="#F7D1BF"/>
<path d="M88.195,48.27C88.195,48.27 83.8,45.214 80.019,44.399C76.239,43.585 72.462,46.721 70.161,49.206C67.861,51.692 69.924,55.607 73.311,53.377C76.698,51.148 78.895,50.93 79.504,50.93C80.114,50.93 84.756,54.279 85.6,54.885C88.391,56.886 91.679,50.933 88.195,48.27Z" fill="#F7D1BF"/>
<path d="M90.401,34.097C88.399,32.094 81.081,26.719 78.41,25.367C75.74,24.018 68.166,25.716 64.115,26.53C60.064,27.345 59.261,33.139 65,32.477C70.74,31.815 74.909,32.297 75.909,32.297C76.908,32.297 83.219,37.578 85.991,39.77C89.464,42.512 94.091,37.787 90.401,34.097Z" fill="#F7D1BF"/>
<path d="M37.178,120.206C36.889,120.449 36.873,120.914 37.063,121.24C37.254,121.565 37.6,121.768 37.956,121.895C38.899,122.232 39.933,122.12 40.933,122.149C41.934,122.178 43.032,122.416 43.629,123.217C44.32,124.146 44.292,125.726 45.394,126.084C46.043,126.294 46.742,125.902 47.22,125.416C47.701,124.93 48.077,124.329 48.643,123.947C49.965,123.054 51.723,123.649 53.316,123.751C53.824,123.783 54.359,123.756 54.798,123.5C55.237,123.245 55.545,122.706 55.395,122.22C55.244,121.734 54.852,121.599 53.28,121.534C51.67,121.469 37.178,120.206 37.178,120.206Z" fill="#FBB03B"/>
<path d="M58.965,126.244C59.148,126.229 59.328,126.169 59.504,126.109C59.856,125.991 60.213,125.87 60.509,125.647C60.964,125.304 61.182,124.322 60.52,124.039C59.917,123.784 58.753,124.778 58.442,125.217C58.308,125.407 58.196,125.645 58.266,125.868C58.337,126.093 58.58,126.227 58.816,126.245C58.863,126.249 58.914,126.247 58.965,126.244Z" fill="#FBB03B"/>
</svg>
