<svg width="168" height="132" viewBox="0 0 168 132" fill="none" xmlns="http://www.w3.org/2000/svg" xmlns:xlink="http://www.w3.org/1999/xlink">
<path d="M26.066,88.762L26.066,124.236L113.53,124.236L113.53,88.762C113.53,87.014 114.684,85.539 116.27,85.052C120.861,83.318 124.78,80.234 127.538,76.283C130.247,72.399 131.838,67.657 131.838,62.526C131.838,55.879 129.143,49.863 124.789,45.51C120.436,41.157 114.42,38.462 107.774,38.462C106.017,38.462 104.323,38.645 102.714,38.989C101.025,39.351 99.416,39.879 97.905,40.558C95.952,41.429 93.668,40.553 92.796,38.605C92.72,38.435 92.658,38.261 92.604,38.082C90.982,33.304 87.889,29.196 83.871,26.296C79.929,23.449 75.066,21.773 69.801,21.773C64.536,21.773 59.673,23.449 55.731,26.296C51.663,29.228 48.552,33.393 46.943,38.238C46.273,40.267 44.087,41.362 42.063,40.696C41.938,40.656 41.817,40.607 41.701,40.558L41.701,40.562C40.186,39.883 38.576,39.356 36.891,38.994C35.282,38.649 33.589,38.466 31.832,38.466C25.186,38.466 19.17,41.161 14.816,45.515C10.463,49.868 7.768,55.884 7.768,62.53C7.768,67.666 9.359,72.408 12.068,76.287C14.861,80.292 18.857,83.412 23.532,85.128C25.101,85.705 26.075,87.189 26.075,88.766L26.08,88.766L26.066,88.762ZM81.314,69.377C81.314,67.232 83.053,65.498 85.198,65.498C87.344,65.498 89.078,67.237 89.078,69.377L89.078,106.899C89.078,109.045 87.339,110.783 85.198,110.783C83.053,110.783 81.314,109.045 81.314,106.899L81.314,69.377ZM50.524,69.377C50.524,67.232 52.262,65.498 54.403,65.498C56.548,65.498 58.287,67.237 58.287,69.377L58.287,106.899C58.287,109.045 56.548,110.783 54.403,110.783C52.258,110.783 50.524,109.045 50.524,106.899L50.524,69.377ZM18.307,128.116L18.307,91.332C13.243,88.95 8.903,85.262 5.725,80.703C2.119,75.532 0,69.261 0,62.517C0,53.73 3.562,45.774 9.323,40.013C15.085,34.251 23.04,30.689 31.828,30.689C34.094,30.689 36.324,30.935 38.496,31.395C39.381,31.588 40.253,31.811 41.111,32.075C43.426,27.252 46.917,23.104 51.212,20.007C56.45,16.226 62.873,14 69.801,14C76.728,14 83.147,16.226 88.389,20.007C92.685,23.104 96.175,27.252 98.491,32.075C99.349,31.811 100.225,31.588 101.105,31.395C103.273,30.931 105.508,30.689 107.774,30.689C116.561,30.689 124.517,34.251 130.278,40.013C136.039,45.774 139.601,53.73 139.601,62.517C139.601,69.261 137.483,75.532 133.876,80.703C130.698,85.262 126.358,88.945 121.294,91.332L121.294,128.116C121.294,130.261 119.555,132 117.414,132L22.187,132C20.041,132 18.307,130.261 18.307,128.116Z" fill="#596235"/>
<circle cx="140" cy="28" r="28" fill="#596235" stroke="#FFFFFF" stroke-width="6" stroke-miterlimit="3.999327"/>
<path d="M131.563,26.241C130.04,24.642 127.508,24.58 125.908,26.103C124.308,27.627 124.247,30.159 125.77,31.759L131.563,26.241ZM135.333,36L132.437,38.759C133.17,39.529 134.18,39.975 135.244,39.999C136.307,40.023 137.336,39.622 138.103,38.886L135.333,36ZM154.77,22.886C156.364,21.356 156.415,18.824 154.885,17.23C153.356,15.636 150.823,15.585 149.23,17.114L154.77,22.886ZM125.77,31.759L132.437,38.759L138.23,33.241L131.563,26.241L125.77,31.759ZM138.103,38.886L154.77,22.886L149.23,17.114L132.563,33.114L138.103,38.886Z" fill="#FFFFFF"/>
</svg>
