<svg width="48" height="48" viewBox="0 0 48 48" fill="none" xmlns="http://www.w3.org/2000/svg" xmlns:xlink="http://www.w3.org/1999/xlink">
<path d="M2,0C0.895,0 0,0.895 0,2C0,3.105 0.895,4 2,4L2,0ZM10.8,8.4L37.2,8.4L37.2,4.4L10.8,4.4L10.8,8.4ZM44,15.2L44,26.2L48,26.2L48,15.2L44,15.2ZM37.2,33L19.6,33L19.6,37L37.2,37L37.2,33ZM12.8,26.2L12.8,6.4L8.8,6.4L8.8,26.2L12.8,26.2ZM6.4,0L2,0L2,4L6.4,4L6.4,0ZM12.8,6.4C12.8,2.865 9.935,0 6.4,0L6.4,4C7.725,4 8.8,5.075 8.8,6.4L12.8,6.4ZM19.6,33C15.844,33 12.8,29.956 12.8,26.2L8.8,26.2C8.8,32.165 13.635,37 19.6,37L19.6,33ZM44,26.2C44,29.956 40.956,33 37.2,33L37.2,37C43.165,37 48,32.165 48,26.2L44,26.2ZM37.2,8.4C40.956,8.4 44,11.444 44,15.2L48,15.2C48,9.235 43.165,4.4 37.2,4.4L37.2,8.4Z" fill="#FFFFFF"/>
<path d="M19.8,42.7C19.8,43.418 19.218,44 18.5,44L18.5,48C21.427,48 23.8,45.627 23.8,42.7L19.8,42.7ZM18.5,44C17.782,44 17.2,43.418 17.2,42.7L13.2,42.7C13.2,45.627 15.573,48 18.5,48L18.5,44ZM17.2,42.7C17.2,41.982 17.782,41.4 18.5,41.4L18.5,37.4C15.573,37.4 13.2,39.773 13.2,42.7L17.2,42.7ZM18.5,41.4C19.218,41.4 19.8,41.982 19.8,42.7L23.8,42.7C23.8,39.773 21.427,37.4 18.5,37.4L18.5,41.4Z" fill="#FFFFFF"/>
<path d="M39.6,42.7C39.6,43.418 39.018,44 38.3,44L38.3,48C41.227,48 43.6,45.627 43.6,42.7L39.6,42.7ZM38.3,44C37.582,44 37,43.418 37,42.7L33,42.7C33,45.627 35.373,48 38.3,48L38.3,44ZM37,42.7C37,41.982 37.582,41.4 38.3,41.4L38.3,37.4C35.373,37.4 33,39.773 33,42.7L37,42.7ZM38.3,41.4C39.018,41.4 39.6,41.982 39.6,42.7L43.6,42.7C43.6,39.773 41.227,37.4 38.3,37.4L38.3,41.4Z" fill="#FFFFFF"/>
<path d="M22.788,22.262C21.828,21.715 20.607,22.051 20.061,23.011C19.515,23.971 19.85,25.192 20.81,25.738L22.788,22.262ZM35.982,25.742C36.944,25.2 37.284,23.98 36.741,23.018C36.199,22.056 34.979,21.715 34.017,22.258L35.982,25.742ZM20.81,25.738C23.514,27.276 25.885,28.205 28.406,28.2C30.924,28.195 33.29,27.26 35.982,25.742L34.017,22.258C31.533,23.658 29.891,24.197 28.399,24.2C26.91,24.203 25.268,23.672 22.788,22.262L20.81,25.738Z" fill="#FFFFFF"/>
</svg>
