<svg width="254" height="148" viewBox="0 0 254 148" fill="none" xmlns="http://www.w3.org/2000/svg" xmlns:xlink="http://www.w3.org/1999/xlink">
<path d="M253.994,135.354C253.71,143.963 196.61,149.021 126.47,146.668C56.331,144.304 -0.285,135.42 0.001,126.81C0.287,118.201 57.386,113.143 127.526,115.496C197.665,117.849 254.28,126.744 253.994,135.354Z" fill="#F3F0F3"/>
<path d="M253.994,128.965C253.71,137.575 196.61,142.633 126.47,140.28C56.331,137.916 -0.285,129.031 0.001,120.422C0.287,111.812 57.386,106.755 127.526,109.108C197.665,111.461 254.28,120.356 253.994,128.965Z" fill="#F9F9F9"/>
<path d="M249.245,124.71C249.167,57.099 196.335,1.584 129.835,0.033C63.335,-1.517 7.973,51.492 4.751,119.025C4.751,119.025 39.068,129.108 117.278,133.166C206.109,137.773 249.245,124.71 249.245,124.71Z" fill="#F3F0F3"/>
<path d="M164.679,14.338C153.695,10.281 141.897,7.95 129.571,7.664C69.36,6.268 19.232,54.251 16.307,115.408C16.307,115.408 39.837,122.313 92.571,126.535C89.559,77.133 118.729,31.205 164.679,14.338Z" fill="#FFFFFF"/>
<path d="M195.62,123.171C225.143,121.598 239.987,119.3 239.987,119.3C240.064,118.75 240.119,118.212 240.196,117.662C225.836,119.575 211.003,121.422 195.62,123.171Z" fill="#FFFFFF"/>
</svg>
