<svg width="40" height="44" viewBox="0 0 40 44" fill="none" xmlns="http://www.w3.org/2000/svg" xmlns:xlink="http://www.w3.org/1999/xlink">
<path d="M22.201,8L11.201,8C9.988,8 9.001,7.103 9.001,6L9.001,4C9.001,2.897 9.988,2 11.201,2L12.905,2C13.68,0.78 15.122,0 16.701,0C18.28,0 19.722,0.78 20.497,2L22.201,2C23.413,2 24.401,2.897 24.401,4L24.401,6C24.401,7.103 23.413,8 22.201,8Z" fill="#989980"/>
<path d="M18.9,34.77C18.9,34.501 18.923,34.255 18.938,34L14.5,34C13.892,34 13.4,33.552 13.4,33C13.4,32.447 13.892,32 14.5,32L19.229,32C19.796,29.81 21.128,28.276 23.374,27.199C24.181,26.813 25.007,26.588 25.883,26.52C25.851,26.349 25.853,26.174 25.854,26L14.5,26C13.892,26 13.4,25.552 13.4,25C13.4,24.447 13.892,24 14.5,24L26.704,24C26.742,23.961 26.767,23.917 26.807,23.88C27.427,23.315 28.256,23.001 29.139,23.001C30.008,23.001 30.827,23.307 31.448,23.86C31.604,24 32.572,24.913 33.199,26.387L33.199,10C33.199,7.238 30.737,5 27.699,5L26.599,5L26.599,6C26.599,8.205 24.626,10 22.199,10L11.2,10C8.773,10 6.8,8.205 6.8,6L6.8,5L5.7,5C2.662,5 0.2,7.238 0.2,10L0.2,37C0.2,39.761 2.662,42 5.7,42L21.125,42C19.603,39.649 18.9,36.869 18.9,34.77ZM14.5,16L27.7,16C28.308,16 28.8,16.448 28.8,17C28.8,17.552 28.308,18 27.7,18L14.5,18C13.892,18 13.4,17.552 13.4,17C13.4,16.448 13.892,16 14.5,16ZM11.428,32.207L8.128,35.207C7.913,35.402 7.631,35.499 7.35,35.499C7.068,35.499 6.787,35.402 6.572,35.207L4.922,33.707C4.493,33.317 4.493,32.684 4.922,32.293C5.352,31.903 6.048,31.903 6.478,32.293L7.35,33.086L9.872,30.793C10.301,30.403 10.998,30.403 11.427,30.793C11.857,31.184 11.857,31.817 11.427,32.207L11.428,32.207ZM11.428,24.207L8.128,27.207C7.913,27.402 7.631,27.5 7.35,27.5C7.068,27.5 6.787,27.402 6.572,27.207L4.922,25.707C4.493,25.317 4.493,24.684 4.922,24.293C5.352,23.903 6.048,23.903 6.478,24.293L7.35,25.086L9.872,22.793C10.301,22.403 10.998,22.403 11.427,22.793C11.857,23.184 11.857,23.817 11.427,24.207L11.428,24.207ZM11.428,16.207L8.128,19.207C7.913,19.402 7.631,19.5 7.35,19.5C7.068,19.5 6.787,19.402 6.572,19.207L4.922,17.707C4.493,17.317 4.493,16.684 4.922,16.293C5.352,15.903 6.048,15.903 6.478,16.293L7.35,17.086L9.872,14.794C10.301,14.403 10.998,14.403 11.427,14.794C11.857,15.184 11.857,15.817 11.427,16.207L11.428,16.207Z" fill="#989980"/>
<path d="M36.5,28.968C34.681,28.096 33.233,28.662 31.543,28.885C31.502,26.749 29.974,25.346 29.907,25.287C29.477,24.903 28.789,24.906 28.361,25.295C27.933,25.683 27.935,26.315 28.358,26.706C28.368,26.716 29.301,27.601 29.343,28.883C27.659,28.658 26.215,28.098 24.401,28.968C22.201,30.023 21.101,31.605 21.101,34.77C21.101,36.88 22.04,40.417 24.401,42.681C26.601,44.791 28.879,43.736 30.45,43.736C32.022,43.736 34.3,44.791 36.5,42.681C38.86,40.417 39.8,36.879 39.8,34.77C39.8,31.606 38.7,30.023 36.5,28.968Z" fill="#989980"/>
</svg>
