<svg width="26" height="26" viewBox="0 0 26 26" fill="none" xmlns="http://www.w3.org/2000/svg" xmlns:xlink="http://www.w3.org/1999/xlink">
<path d="M13,5C10.878,5 8.843,5.844 7.343,7.346C5.843,8.848 5,10.886 5,13.01C5,17.126 8.115,20.571 12.205,20.981C12.194,20.726 12.177,20.452 12.15,20.26C11.829,17.9 11.372,15.539 10.603,13.286C9.599,10.345 7.47,7.419 7.47,7.419C7.47,7.419 8.518,7.875 8.987,8.257C9.693,8.831 10.328,9.726 10.813,10.514C12.135,12.663 13.072,17.308 13.072,17.308C13.072,17.308 14.11,14.487 14.767,13.138C15.351,11.94 16.179,10.765 16.835,9.696C16.443,9.647 16.104,9.969 15.779,10.241C15.334,10.614 14.63,11.845 14.63,11.845C14.63,11.845 14.726,10.417 14.887,9.951C15.123,9.268 15.608,8.68 16.166,8.389C16.565,8.18 18.389,7.864 19.026,7.757C17.51,6.009 15.312,5.004 13,5ZM19.8,8.801C19.695,9.607 19.494,10.696 19.133,11.239C18.89,11.604 18.235,11.914 17.84,12.103C17.203,12.409 16.22,12.452 16.22,12.452C16.22,12.452 15.248,14.22 14.914,15.168C14.262,17.024 13.814,19.065 13.579,20.918C13.576,20.945 13.573,20.973 13.569,21C17.756,20.701 21,17.213 21,13.01C20.998,11.523 20.582,10.065 19.8,8.801Z" fill="#227F0B"/>
<path d="M1,1L1,0L0,0L0,1L1,1ZM25,1L26,1L26,0L25,0L25,1ZM25,25L25,26L26,26L26,25L25,25ZM1,25L0,25L0,26L1,26L1,25ZM1,2L25,2L25,0L1,0L1,2ZM24,1L24,25L26,25L26,1L24,1ZM25,24L1,24L1,26L25,26L25,24ZM2,25L2,1L0,1L0,25L2,25Z" fill="#008200"/>
</svg>
