<svg width="34" height="36" viewBox="0 0 34 36" fill="none" xmlns="http://www.w3.org/2000/svg" xmlns:xlink="http://www.w3.org/1999/xlink">
<path d="M0,2L0,1L-1,1L-1,2L0,2ZM32,2L33,2L33,1L32,1L32,2ZM32,34L32,35L33,35L33,34L32,34ZM0,34L-1,34L-1,35L0,35L0,34ZM0,3L32,3L32,1L0,1L0,3ZM31,2L31,34L33,34L33,2L31,2ZM32,33L0,33L0,35L32,35L32,33ZM1,34L1,2L-1,2L-1,34L1,34Z" fill="#008200"/>
<path d="M16,27.763C21.391,27.763 25.762,23.392 25.762,18C25.762,12.608 21.391,8.237 16,8.237C10.608,8.237 6.237,12.608 6.237,18C6.237,23.392 10.608,27.763 16,27.763Z" fill="#008200"/>
</svg>
