<svg width="72" height="68" viewBox="0 0 72 68" fill="none" xmlns="http://www.w3.org/2000/svg" xmlns:xlink="http://www.w3.org/1999/xlink">
<g filter="url(#filter151_1340)">
<path d="M36.613,0.391C32.395,0.459 26.291,2.805 23.104,4.731C19.916,6.671 14.111,9.763 10.422,14.456C6.719,19.149 3.369,24.697 3.111,27.396C2.854,30.108 1.741,35.873 2.596,39.142C3.45,42.41 3.667,44.73 4.441,46.71C5.214,48.69 7.831,53.505 8.564,54.319C9.296,55.133 12.863,59.053 13.813,59.677C14.762,60.301 18.546,63.23 20.038,63.895C21.53,64.56 24.514,66.011 25.545,66.391C26.576,66.757 31.798,67.652 35.202,67.801C38.62,67.95 43.775,67.137 45.443,66.567C47.111,65.997 52.672,63.325 54.246,62.525C55.819,61.725 61.217,57.479 62.587,55.445C63.957,53.41 68.121,48.283 68.528,46.181C68.935,44.092 70.739,39.413 70.793,37.717C70.847,36.022 71.2,30.583 70.942,28.942C70.684,27.314 68.311,20.316 67.823,19.163C67.334,18.01 63.008,11.771 62.573,11.16C62.139,10.563 56.985,6.427 55.059,5.287C53.133,4.134 52.225,3.307 48.956,2.249C45.687,1.191 40.587,0.323 36.627,0.391L36.613,0.391Z" fill="url(#pf_0_151_1341)"/>
<path d="M35.026,0.391C30.808,0.459 24.704,2.805 21.517,4.731C18.329,6.671 12.524,9.763 8.835,14.456C5.132,19.149 1.782,24.697 1.524,27.396C1.267,30.095 0.154,35.873 1.009,39.142C1.863,42.41 2.08,44.73 2.854,46.71C3.627,48.69 6.244,53.505 6.977,54.319C7.709,55.133 11.276,59.053 12.226,59.677C13.175,60.301 16.96,63.23 18.452,63.895C19.944,64.56 22.927,66.011 23.958,66.391C24.989,66.757 30.211,67.652 33.615,67.801C37.033,67.95 42.188,67.137 43.856,66.567C45.524,65.997 51.085,63.325 52.659,62.525C54.232,61.725 59.63,57.479 61,55.445C62.37,53.41 66.534,48.283 66.941,46.181C67.348,44.092 69.152,39.413 69.206,37.717C69.26,36.022 69.613,30.583 69.355,28.942C69.097,27.301 66.724,20.316 66.236,19.163C65.747,18.01 61.421,11.771 60.986,11.16C60.552,10.563 55.398,6.427 53.472,5.287C51.546,4.134 50.638,3.307 47.369,2.249C44.1,1.191 39,0.323 35.04,0.391L35.026,0.391Z" fill="url(#pf_0_151_1342)"/>
<path d="M35.019,0.669C35.022,0.666 35.02,0.662 35.017,0.662C30.826,0.72 24.783,3.051 21.625,4.975C18.465,6.901 12.714,9.967 9.039,14.619C5.363,19.271 2.04,24.778 1.782,27.464C1.524,30.149 0.412,35.873 1.267,39.115C2.121,42.356 2.338,44.662 3.098,46.629C3.871,48.595 6.462,53.37 7.194,54.184C7.913,54.997 11.466,58.876 12.402,59.5C13.338,60.124 17.095,63.027 18.574,63.678C20.052,64.329 23.009,65.78 24.04,66.146C25.057,66.513 30.238,67.394 33.629,67.544C37.02,67.679 42.133,66.892 43.788,66.323C45.443,65.753 50.95,63.108 52.523,62.308C54.096,61.508 59.427,57.303 60.797,55.282C62.167,53.261 66.29,48.175 66.683,46.1C67.077,44.025 68.867,39.386 68.935,37.704C68.989,36.022 69.328,30.624 69.07,28.996C68.813,27.369 66.453,20.438 65.964,19.298C65.476,18.159 61.19,11.96 60.756,11.364C60.336,10.767 55.209,6.671 53.31,5.531C51.411,4.392 50.488,3.565 47.247,2.52C44.008,1.463 38.954,0.623 35.022,0.676C35.019,0.676 35.017,0.671 35.019,0.669L35.019,0.669Z" fill="url(#pf_0_151_1343)"/>
<path d="M34.592,2.819C34.592,2.826 34.586,2.832 34.579,2.832C30.578,2.891 24.823,5.099 21.815,6.915C18.804,8.732 13.311,11.648 9.812,16.043C6.312,20.438 3.139,25.659 2.894,28.209C2.65,30.759 1.592,36.171 2.406,39.236C3.22,42.302 3.423,44.485 4.156,46.344C4.888,48.202 7.37,52.732 8.062,53.492C8.754,54.265 12.131,57.94 13.026,58.524C13.922,59.12 17.502,61.86 18.913,62.484C20.323,63.108 23.145,64.478 24.121,64.831C25.098,65.183 30.035,66.011 33.263,66.146C36.491,66.282 41.374,65.522 42.947,64.993C44.521,64.464 49.783,61.955 51.275,61.196C52.767,60.436 57.867,56.448 59.169,54.536C60.471,52.624 64.405,47.795 64.785,45.828C65.164,43.862 66.873,39.467 66.928,37.88C66.982,36.293 67.307,31.166 67.063,29.633C66.819,28.101 64.568,21.523 64.106,20.451C63.645,19.38 59.549,13.507 59.142,12.937C58.735,12.367 53.852,8.488 52.035,7.417C50.217,6.345 49.349,5.558 46.257,4.555C43.168,3.552 38.347,2.753 34.606,2.805C34.598,2.805 34.592,2.811 34.592,2.819L34.592,2.819Z" fill="url(#pf_0_151_1344)"/>
<path d="M34.585,5.572C34.588,5.566 34.583,5.559 34.576,5.559C30.928,5.618 25.676,7.623 22.927,9.289C20.173,10.957 15.169,13.615 11.968,17.63C8.767,21.658 5.878,26.419 5.647,28.752C5.416,31.085 4.453,36.022 5.199,38.83C5.945,41.637 6.122,43.631 6.8,45.327C7.465,47.022 9.73,51.159 10.367,51.864C11.005,52.569 14.084,55.933 14.897,56.462C15.711,57.005 18.98,59.514 20.268,60.084C21.557,60.653 24.134,61.901 25.029,62.227C25.924,62.552 30.427,63.312 33.371,63.434C36.314,63.556 40.776,62.864 42.214,62.376C43.652,61.888 48.453,59.595 49.809,58.904C51.166,58.212 55.832,54.577 57.012,52.827C58.205,51.077 61.786,46.669 62.139,44.879C62.491,43.089 64.051,39.074 64.092,37.623C64.146,36.171 64.444,31.492 64.214,30.095C63.997,28.698 61.935,22.689 61.515,21.699C61.094,20.709 57.351,15.351 56.985,14.836C56.618,14.321 52.156,10.767 50.501,9.79C48.847,8.814 48.046,8.095 45.225,7.186C42.408,6.279 38.009,5.534 34.593,5.585C34.586,5.586 34.581,5.578 34.585,5.572L34.585,5.572Z" fill="url(#pf_0_151_1345)"/>
<path d="M34.945,9.424C31.839,9.465 27.363,11.215 25.03,12.652C22.697,14.09 18.425,16.396 15.712,19.882C12.999,23.367 10.531,27.491 10.341,29.512C10.151,31.533 9.324,35.819 9.961,38.247C10.598,40.674 10.748,42.411 11.317,43.875C11.887,45.34 13.813,48.935 14.356,49.545C14.898,50.155 17.516,53.071 18.208,53.533C18.899,54.007 21.68,56.177 22.778,56.666C23.877,57.154 26.061,58.239 26.82,58.524C27.58,58.795 31.418,59.46 33.914,59.568C36.41,59.677 40.207,59.08 41.428,58.646C42.649,58.226 46.731,56.232 47.898,55.635C49.051,55.038 53.011,51.878 54.029,50.372C55.046,48.853 58.098,45.042 58.382,43.482C58.667,41.922 60.01,38.45 60.051,37.189C60.091,35.927 60.349,31.872 60.159,30.665C59.969,29.444 58.22,24.249 57.867,23.395C57.514,22.54 54.327,17.888 54.015,17.44C53.703,16.993 49.905,13.914 48.495,13.073C47.084,12.218 46.406,11.594 44.005,10.808C41.604,10.021 37.861,9.384 34.945,9.424Z" fill="url(#pf_0_151_1346)"/>
<path d="M35.175,15.345C35.175,15.341 35.173,15.338 35.169,15.338C32.85,15.381 29.504,16.682 27.756,17.766C26.007,18.851 22.819,20.573 20.785,23.191C18.75,25.809 16.906,28.901 16.77,30.42C16.634,31.94 16.01,35.154 16.485,36.971C16.96,38.803 17.082,40.091 17.502,41.203C17.923,42.315 19.374,45.001 19.767,45.449C20.174,45.91 22.127,48.094 22.643,48.446C23.158,48.799 25.247,50.426 26.061,50.806C26.875,51.186 28.516,51.986 29.085,52.203C29.655,52.407 32.517,52.909 34.389,52.99C36.261,53.071 39.095,52.624 40.018,52.298C40.926,51.973 43.992,50.494 44.846,50.047C45.701,49.599 48.671,47.225 49.431,46.086C50.19,44.947 52.469,42.085 52.686,40.918C52.903,39.752 53.893,37.134 53.934,36.198C53.961,35.249 54.151,32.211 54.015,31.302C53.879,30.393 52.564,26.487 52.293,25.836C52.021,25.185 49.648,21.699 49.417,21.374C49.187,21.048 46.352,18.729 45.294,18.091C44.236,17.454 43.734,16.993 41.944,16.396C40.155,15.8 37.351,15.325 35.182,15.351C35.178,15.351 35.175,15.348 35.175,15.345L35.175,15.345Z" fill="url(#pf_0_151_1347)"/>
<path d="M34.999,22.058C35.002,22.057 35.001,22.052 34.997,22.052C33.628,22.085 31.645,22.922 30.604,23.611C29.573,24.303 27.674,25.415 26.467,27.111C25.26,28.806 24.161,30.786 24.08,31.763C23.999,32.74 23.632,34.801 23.917,35.981C24.202,37.161 24.27,37.989 24.514,38.707C24.772,39.413 25.626,41.149 25.857,41.447C26.101,41.746 27.254,43.143 27.566,43.373C27.878,43.604 29.112,44.648 29.6,44.892C30.089,45.137 31.052,45.652 31.391,45.788C31.73,45.923 33.425,46.235 34.537,46.289C35.65,46.344 37.332,46.059 37.874,45.842C38.417,45.638 40.234,44.675 40.75,44.391C41.265,44.106 43.015,42.573 43.462,41.841C43.91,41.108 45.266,39.264 45.402,38.518C45.537,37.772 46.121,36.09 46.134,35.479C46.148,34.869 46.27,32.916 46.175,32.333C46.08,31.749 45.32,29.227 45.158,28.82C44.995,28.413 43.584,26.161 43.449,25.944C43.313,25.727 41.631,24.249 40.994,23.828C40.37,23.421 40.071,23.123 39,22.73C37.933,22.351 36.286,22.04 35,22.065C34.997,22.065 34.995,22.06 34.999,22.058L34.999,22.058Z" fill="url(#pf_0_151_1348)"/>
<path d="M35.026,32.292C34.456,32.292 33.643,32.604 33.222,32.862C32.802,33.119 32.015,33.526 31.527,34.137C31.025,34.747 30.577,35.479 30.55,35.846C30.523,36.212 30.36,36.958 30.482,37.392C30.604,37.826 30.632,38.124 30.727,38.382C30.835,38.64 31.188,39.277 31.283,39.386C31.378,39.494 31.852,40.01 31.988,40.091C32.124,40.172 32.625,40.552 32.815,40.647C33.005,40.742 33.412,40.932 33.548,40.973C33.683,41.027 34.389,41.135 34.836,41.163C35.297,41.176 35.989,41.081 36.206,41C36.423,40.918 37.169,40.579 37.386,40.471C37.603,40.362 38.322,39.806 38.498,39.535C38.688,39.264 39.244,38.585 39.299,38.314C39.353,38.043 39.597,37.419 39.597,37.202C39.597,36.985 39.651,36.266 39.611,36.049C39.57,35.832 39.258,34.91 39.19,34.761C39.122,34.611 38.539,33.784 38.485,33.703C38.431,33.621 37.739,33.079 37.481,32.93C37.223,32.78 37.101,32.672 36.667,32.536C36.233,32.401 35.542,32.278 35.013,32.292L35.026,32.292Z" fill="url(#pf_0_151_1349)"/>
</g>
<defs>
<filter id="filter151_1340" x="-9.308594" y="-9.612793" width="55.171867" height="53.715969" filterUnits="userSpaceOnUse" color-interpolation-filters="sRGB">
<feFlood flood-opacity="0" result="BackgroundImageFix"/>
<feColorMatrix in="SourceAlpha" type="matrix" values="0 0 0 0 0 0 0 0 0 0 0 0 0 0 0 0 0 0 127 0" result="hardAlpha"/>
<feMorphology radius="0" operator="dilate" in="SourceAlpha" result="0dropshadow"/>
<feOffset dx="0" dy="4"/>
<feGaussianBlur stdDeviation="5"/>
<feComposite in2="hardAlpha" operator="out"/>
<feColorMatrix type="matrix" values="0 0 0 0 0 0 0 0 0 0 0 0 0 0 0 0 0 0 0.15 0"/>
<feBlend mode="normal" in2="BackgroundImageFix" result="0dropshadow"/>
<feBlend mode="normal" in="SourceGraphic" in2="0dropshadow" result="shape"/>
</filter>
<linearGradient id="pf_0_151_1341" x1="36.654" y1="67.815" x2="36.654" y2="0.391" gradientUnits="userSpaceOnUse">
<stop stop-color="#964871"/>
<stop offset="0.19" stop-color="#974972"/>
<stop offset="0.25" stop-color="#9D5078"/>
<stop offset="0.3" stop-color="#A75C82"/>
<stop offset="0.34" stop-color="#B56D90"/>
<stop offset="0.37" stop-color="#C883A3"/>
<stop offset="0.4" stop-color="#DE9EBA"/>
<stop offset="0.43" stop-color="#FDC2D9"/>
<stop offset="0.45" stop-color="#FDC2D9"/>
<stop offset="0.58" stop-color="#FDC2D9"/>
<stop offset="0.65" stop-color="#FDC2D9"/>
<stop offset="0.66" stop-color="#F9BDD5"/>
<stop offset="0.68" stop-color="#DE9EBA"/>
<stop offset="0.71" stop-color="#C883A3"/>
<stop offset="0.73" stop-color="#B56D90"/>
<stop offset="0.76" stop-color="#A75C82"/>
<stop offset="0.8" stop-color="#9D5078"/>
<stop offset="0.85" stop-color="#974972"/>
<stop offset="1" stop-color="#964871"/>
</linearGradient>
<radialGradient id="pf_0_151_1342" cx="0" cy="0" r="1" gradientUnits="userSpaceOnUse" gradientTransform="matrix(17.022112 0 0 17.192333 17.533 17.049)">
<stop offset="0.6" stop-color="#FDC2D9"/>
<stop offset="0.69" stop-color="#FABED6"/>
<stop offset="0.76" stop-color="#F2B5CD"/>
<stop offset="0.82" stop-color="#E3A4BF"/>
<stop offset="0.88" stop-color="#D08CAB"/>
<stop offset="0.94" stop-color="#B66E91"/>
<stop offset="1" stop-color="#964871"/>
</radialGradient>
<radialGradient id="pf_0_151_1343" cx="0" cy="0" r="1" gradientUnits="userSpaceOnUse" gradientTransform="matrix(16.886477 0 0 17.055341 17.533 17.049)">
<stop offset="0.6" stop-color="#FDC2D9"/>
<stop offset="0.71" stop-color="#FABED6"/>
<stop offset="0.79" stop-color="#F3B5CF"/>
<stop offset="0.87" stop-color="#E7A4C2"/>
<stop offset="0.94" stop-color="#D68DB1"/>
<stop offset="1" stop-color="#C4749E"/>
</radialGradient>
<radialGradient id="pf_0_151_1344" cx="0" cy="0" r="1" gradientUnits="userSpaceOnUse" gradientTransform="matrix(16.126925 0 0 16.126924 17.473 17.029)">
<stop offset="0.6" stop-color="#FDC2D9"/>
<stop offset="0.7" stop-color="#FABED6"/>
<stop offset="0.78" stop-color="#F2B4CE"/>
<stop offset="0.86" stop-color="#E5A2C0"/>
<stop offset="0.93" stop-color="#D289AD"/>
<stop offset="1" stop-color="#BC6C96"/>
</radialGradient>
<radialGradient id="pf_0_151_1345" cx="0" cy="0" r="1" gradientUnits="userSpaceOnUse" gradientTransform="matrix(14.736675 0 0 14.736674 17.633 17.051)">
<stop offset="0.6" stop-color="#FDC2D9"/>
<stop offset="0.71" stop-color="#FABED6"/>
<stop offset="0.8" stop-color="#F3B4CE"/>
<stop offset="0.89" stop-color="#E7A2C0"/>
<stop offset="0.97" stop-color="#D789AE"/>
<stop offset="1" stop-color="#D07FA6"/>
</radialGradient>
<radialGradient id="pf_0_151_1346" cx="0" cy="0" r="1" gradientUnits="userSpaceOnUse" gradientTransform="matrix(12.512267 0 0 12.790321 17.555 17.251)">
<stop offset="0.6" stop-color="#FDC2D9"/>
<stop offset="0.71" stop-color="#FABED6"/>
<stop offset="0.8" stop-color="#F3B4CE"/>
<stop offset="0.89" stop-color="#E7A2C0"/>
<stop offset="0.97" stop-color="#D789AE"/>
<stop offset="1" stop-color="#D07FA6"/>
</radialGradient>
<radialGradient id="pf_0_151_1347" cx="0" cy="0" r="1" gradientUnits="userSpaceOnUse" gradientTransform="matrix(9.31469 0 0 9.592744 17.301 17.032)">
<stop offset="0.6" stop-color="#FFD7E7"/>
<stop offset="0.69" stop-color="#FDD3E4"/>
<stop offset="0.78" stop-color="#F7C9DC"/>
<stop offset="0.85" stop-color="#EEB7CF"/>
<stop offset="0.93" stop-color="#E09EBD"/>
<stop offset="1" stop-color="#D07FA6"/>
</radialGradient>
<radialGradient id="pf_0_151_1348" cx="0" cy="0" r="1" gradientUnits="userSpaceOnUse" gradientTransform="matrix(5.561011 0 0 6.117114 17.616 16.731)">
<stop offset="0.6" stop-color="#FFDEEB"/>
<stop offset="0.69" stop-color="#FDDAE8"/>
<stop offset="0.77" stop-color="#F8D0E0"/>
<stop offset="0.85" stop-color="#EFBED4"/>
<stop offset="0.92" stop-color="#E3A5C1"/>
<stop offset="0.99" stop-color="#D385AA"/>
<stop offset="1" stop-color="#D07FA6"/>
</radialGradient>
<radialGradient id="pf_0_151_1349" cx="0" cy="0" r="1" gradientUnits="userSpaceOnUse" gradientTransform="matrix(2.224406 0 0 2.224406 17.109 18.417)">
<stop offset="0.46" stop-color="#FFE9F2"/>
<stop offset="0.55" stop-color="#FCE4EE"/>
<stop offset="0.66" stop-color="#F6D5E4"/>
<stop offset="0.78" stop-color="#ECBED3"/>
<stop offset="0.9" stop-color="#DD9DBC"/>
<stop offset="1" stop-color="#D07FA6"/>
</radialGradient>
</defs>
</svg>
