<svg width="44" height="30" viewBox="0 0 44 30" fill="none" xmlns="http://www.w3.org/2000/svg" xmlns:xlink="http://www.w3.org/1999/xlink">
<path d="M26.906,28.132L15.63,28.132C6.563,28.132 -0.786,20.783 -0.786,11.716L-0.786,0.097L43.32,0.097L43.32,11.716C43.32,20.781 35.971,28.132 26.906,28.132Z" fill="#E3D0BF"/>
<path d="M2.434,0.097L-0.784,0.097L-0.784,11.714C-0.784,20.781 6.565,28.13 15.632,28.13L23.726,28.13C18.533,26.789 13.576,24.104 9.97,20.678C4.782,15.059 3.08,7.507 2.434,0.097Z" fill="#E6E6E6"/>
<path d="M32.668,0.097L28.463,0.097L28.797,21.162C32.2,15.796 32.668,12.712 32.668,0.097Z" fill="#FFFFFF"/>
<path d="M35.665,26.055L6.793,26.055L6.793,28.15L35.665,28.15L35.665,26.055Z" fill="#E3D0BF"/>
</svg>
