<svg width="38" height="38" viewBox="0 0 38 38" fill="none" xmlns="http://www.w3.org/2000/svg" xmlns:xlink="http://www.w3.org/1999/xlink">
<path d="M0.4,-1C-0.152,-1 -0.6,-0.552 -0.6,0C-0.6,0.552 -0.152,1 0.4,1L0.4,-1ZM7.6,4.6L29.2,4.6L29.2,2.6L7.6,2.6L7.6,4.6ZM35.4,10.8L35.4,19.8L37.4,19.8L37.4,10.8L35.4,10.8ZM29.2,26L14.8,26L14.8,28L29.2,28L29.2,26ZM8.6,19.8L8.6,3.6L6.6,3.6L6.6,19.8L8.6,19.8ZM4,-1L0.4,-1L0.4,1L4,1L4,-1ZM8.6,3.6C8.6,1.059 6.541,-1 4,-1L4,1C5.436,1 6.6,2.164 6.6,3.6L8.6,3.6ZM14.8,26C11.376,26 8.6,23.224 8.6,19.8L6.6,19.8C6.6,24.329 10.272,28 14.8,28L14.8,26ZM35.4,19.8C35.4,23.224 32.625,26 29.2,26L29.2,28C33.729,28 37.4,24.329 37.4,19.8L35.4,19.8ZM29.2,4.6C32.625,4.6 35.4,7.376 35.4,10.8L37.4,10.8C37.4,6.271 33.729,2.6 29.2,2.6L29.2,4.6Z" fill="#D96846"/>
<path d="M15.6,33.3C15.6,34.239 14.839,35 13.9,35L13.9,37C15.943,37 17.6,35.344 17.6,33.3L15.6,33.3ZM13.9,35C12.961,35 12.2,34.239 12.2,33.3L10.2,33.3C10.2,35.344 11.856,37 13.9,37L13.9,35ZM12.2,33.3C12.2,32.361 12.961,31.6 13.9,31.6L13.9,29.6C11.856,29.6 10.2,31.257 10.2,33.3L12.2,33.3ZM13.9,31.6C14.839,31.6 15.6,32.361 15.6,33.3L17.6,33.3C17.6,31.257 15.943,29.6 13.9,29.6L13.9,31.6Z" fill="#D96846"/>
<path d="M31.8,33.3C31.8,34.239 31.039,35 30.1,35L30.1,37C32.144,37 33.8,35.344 33.8,33.3L31.8,33.3ZM30.1,35C29.162,35 28.4,34.239 28.4,33.3L26.4,33.3C26.4,35.344 28.057,37 30.1,37L30.1,35ZM28.4,33.3C28.4,32.361 29.162,31.6 30.1,31.6L30.1,29.6C28.057,29.6 26.4,31.257 26.4,33.3L28.4,33.3ZM30.1,31.6C31.039,31.6 31.8,32.361 31.8,33.3L33.8,33.3C33.8,31.257 32.144,29.6 30.1,29.6L30.1,31.6Z" fill="#D96846"/>
<path d="M17.095,17.131C16.615,16.858 16.004,17.025 15.731,17.506C15.458,17.986 15.626,18.596 16.106,18.869L17.095,17.131ZM27.891,18.871C28.372,18.6 28.543,17.99 28.271,17.509C28,17.028 27.39,16.858 26.909,17.129L27.891,18.871ZM16.106,18.869C18.282,20.107 20.106,20.804 22.005,20.8C23.902,20.796 25.722,20.094 27.891,18.871L26.909,17.129C24.844,18.293 23.385,18.797 22.001,18.8C20.618,18.803 19.159,18.305 17.095,17.131L16.106,18.869Z" fill="#D96846"/>
</svg>
