<svg width="284" height="284" viewBox="0 0 284 284" fill="none" xmlns="http://www.w3.org/2000/svg" xmlns:xlink="http://www.w3.org/1999/xlink">
<path d="M0,18C0,12.409 0,9.613 0.913,7.408C2.131,4.467 4.467,2.131 7.408,0.913C9.613,0 12.409,0 18,0L266,0C271.592,0 274.386,0 276.592,0.913C279.532,2.131 281.868,4.467 283.086,7.408C284,9.613 284,12.409 284,18L284,266C284,271.592 284,274.386 283.086,276.592C281.868,279.532 279.532,281.868 276.592,283.086C274.386,284 271.592,284 266,284L18,284C12.409,284 9.613,284 7.408,283.086C4.467,281.868 2.131,279.532 0.913,276.592C0,274.386 0,271.592 0,266L0,18Z" fill="#FFFFFF" stroke="#D96846" stroke-width="1" stroke-miterlimit="3.999327" stroke-dasharray="6 6 "/>
<path d="M182,112.357L182,123.5C182,124.239 181.707,124.947 181.184,125.47C180.662,125.992 179.953,126.286 179.214,126.286C178.475,126.286 177.767,125.992 177.244,125.47C176.722,124.947 176.429,124.239 176.429,123.5L176.429,112.357C176.429,111.618 176.135,110.91 175.613,110.387C175.09,109.865 174.382,109.571 173.643,109.571L112.357,109.571C111.618,109.571 110.91,109.865 110.387,110.387C109.865,110.91 109.571,111.618 109.571,112.357L109.571,123.5C109.571,124.239 109.278,124.947 108.756,125.47C108.233,125.992 107.525,126.286 106.786,126.286C106.047,126.286 105.338,125.992 104.816,125.47C104.293,124.947 104,124.239 104,123.5L104,112.357C104,110.141 104.88,108.015 106.448,106.448C108.015,104.88 110.141,104 112.357,104L173.643,104C175.859,104 177.985,104.88 179.552,106.448C181.12,108.015 182,110.141 182,112.357ZM147.346,116.118C146.807,115.493 146.14,114.992 145.39,114.648C144.64,114.305 143.825,114.127 143,114.127C142.175,114.127 141.36,114.305 140.61,114.648C139.86,114.992 139.193,115.493 138.654,116.118L118.541,141.189C118.277,141.47 118.073,141.802 117.943,142.166C117.814,142.529 117.761,142.915 117.789,143.3C117.816,143.685 117.923,144.06 118.103,144.401C118.283,144.742 118.532,145.042 118.834,145.282C119.136,145.522 119.484,145.697 119.857,145.795C120.23,145.894 120.62,145.913 121.001,145.853C121.382,145.793 121.746,145.655 122.071,145.446C122.396,145.238 122.674,144.965 122.887,144.644L140.214,123.082L140.214,179.214C140.214,179.953 140.508,180.662 141.03,181.184C141.553,181.707 142.261,182 143,182C143.739,182 144.447,181.707 144.97,181.184C145.492,180.662 145.786,179.953 145.786,179.214L145.786,123.082L163.113,144.727C163.341,145.015 163.623,145.256 163.945,145.434C164.266,145.613 164.619,145.726 164.984,145.767C165.349,145.809 165.719,145.778 166.072,145.676C166.425,145.574 166.754,145.403 167.041,145.173C167.611,144.709 167.974,144.039 168.052,143.309C168.131,142.578 167.917,141.847 167.459,141.273L147.346,116.118Z" fill="#989980"/>
</svg>
