<svg width="38" height="40" viewBox="0 0 38 40" fill="none" xmlns="http://www.w3.org/2000/svg" xmlns:xlink="http://www.w3.org/1999/xlink">
<path d="M0.4,1C-0.152,1 -0.6,1.448 -0.6,2C-0.6,2.552 -0.152,3 0.4,3L0.4,1ZM7.6,6.6L29.2,6.6L29.2,4.6L7.6,4.6L7.6,6.6ZM35.4,12.8L35.4,21.8L37.4,21.8L37.4,12.8L35.4,12.8ZM29.2,28L14.8,28L14.8,30L29.2,30L29.2,28ZM8.6,21.8L8.6,5.6L6.6,5.6L6.6,21.8L8.6,21.8ZM4,1L0.4,1L0.4,3L4,3L4,1ZM8.6,5.6C8.6,3.059 6.541,1 4,1L4,3C5.436,3 6.6,4.164 6.6,5.6L8.6,5.6ZM14.8,28C11.376,28 8.6,25.224 8.6,21.8L6.6,21.8C6.6,26.329 10.272,30 14.8,30L14.8,28ZM35.4,21.8C35.4,25.224 32.625,28 29.2,28L29.2,30C33.729,30 37.4,26.329 37.4,21.8L35.4,21.8ZM29.2,6.6C32.625,6.6 35.4,9.376 35.4,12.8L37.4,12.8C37.4,8.271 33.729,4.6 29.2,4.6L29.2,6.6Z" fill="#D96846"/>
<path d="M15.6,35.3C15.6,36.239 14.839,37 13.9,37L13.9,39C15.944,39 17.6,37.344 17.6,35.3L15.6,35.3ZM13.9,37C12.961,37 12.2,36.239 12.2,35.3L10.2,35.3C10.2,37.344 11.857,39 13.9,39L13.9,37ZM12.2,35.3C12.2,34.361 12.961,33.6 13.9,33.6L13.9,31.6C11.857,31.6 10.2,33.257 10.2,35.3L12.2,35.3ZM13.9,33.6C14.839,33.6 15.6,34.361 15.6,35.3L17.6,35.3C17.6,33.257 15.944,31.6 13.9,31.6L13.9,33.6Z" fill="#D96846"/>
<path d="M31.8,35.3C31.8,36.239 31.039,37 30.1,37L30.1,39C32.144,39 33.8,37.344 33.8,35.3L31.8,35.3ZM30.1,37C29.162,37 28.4,36.239 28.4,35.3L26.4,35.3C26.4,37.344 28.057,39 30.1,39L30.1,37ZM28.4,35.3C28.4,34.361 29.162,33.6 30.1,33.6L30.1,31.6C28.057,31.6 26.4,33.257 26.4,35.3L28.4,35.3ZM30.1,33.6C31.039,33.6 31.8,34.361 31.8,35.3L33.8,35.3C33.8,33.257 32.144,31.6 30.1,31.6L30.1,33.6Z" fill="#D96846"/>
<path d="M17.095,19.131C16.615,18.858 16.004,19.025 15.731,19.506C15.458,19.986 15.626,20.596 16.106,20.869L17.095,19.131ZM27.892,20.871C28.373,20.6 28.543,19.99 28.272,19.509C28,19.028 27.391,18.858 26.909,19.129L27.892,20.871ZM16.106,20.869C18.282,22.107 20.106,22.804 22.005,22.8C23.902,22.796 25.723,22.094 27.892,20.871L26.909,19.129C24.844,20.293 23.385,20.797 22.001,20.8C20.619,20.803 19.16,20.305 17.095,19.131L16.106,20.869Z" fill="#D96846"/>
</svg>
