<svg width="26" height="28" viewBox="0 0 26 28" fill="none" xmlns="http://www.w3.org/2000/svg" xmlns:xlink="http://www.w3.org/1999/xlink">
<path d="M0,2L0,1L-1,1L-1,2L0,2ZM24,2L25,2L25,1L24,1L24,2ZM24,26L24,27L25,27L25,26L24,26ZM0,26L-1,26L-1,27L0,27L0,26ZM0,3L24,3L24,1L0,1L0,3ZM23,2L23,26L25,26L25,2L23,2ZM24,25L0,25L0,27L24,27L24,25ZM1,26L1,2L-1,2L-1,26L1,26Z" fill="#008200"/>
<path d="M12,21.322C16.044,21.322 19.322,18.044 19.322,14C19.322,9.956 16.044,6.678 12,6.678C7.956,6.678 4.678,9.956 4.678,14C4.678,18.044 7.956,21.322 12,21.322Z" fill="#008200"/>
</svg>
