<svg width="36" height="34" viewBox="0 0 36 34" fill="none" xmlns="http://www.w3.org/2000/svg" xmlns:xlink="http://www.w3.org/1999/xlink">
<path d="M18,6.333C15.171,6.333 12.458,7.458 10.458,9.461C8.457,11.464 7.333,14.181 7.333,17.014C7.334,22.501 11.487,27.095 16.94,27.641C16.925,27.301 16.902,26.936 16.867,26.68C16.439,23.534 15.829,20.385 14.804,17.381C13.465,13.46 10.627,9.558 10.627,9.558C10.627,9.558 12.025,10.167 12.65,10.675C13.591,11.441 14.437,12.634 15.084,13.686C16.847,16.55 18.096,22.744 18.096,22.744C18.096,22.744 19.48,18.982 20.356,17.184C21.135,15.586 22.239,14.02 23.114,12.594C22.591,12.529 22.138,12.959 21.706,13.321C21.112,13.819 20.174,15.46 20.174,15.46C20.174,15.46 20.301,13.556 20.516,12.935C20.831,12.023 21.478,11.24 22.221,10.852C22.754,10.573 25.185,10.151 26.035,10.01C24.014,7.679 21.083,6.338 18,6.333ZM27.066,11.401C26.926,12.476 26.658,13.928 26.177,14.652C25.854,15.138 24.98,15.552 24.454,15.804C23.605,16.212 22.293,16.27 22.293,16.27C22.293,16.27 20.997,18.627 20.553,19.89C19.682,22.365 19.086,25.087 18.772,27.557C18.768,27.594 18.764,27.63 18.759,27.667C24.341,27.268 28.667,22.617 28.667,17.014C28.664,15.03 28.11,13.087 27.066,11.401Z" fill="#227F0B"/>
<path d="M2,1L2,0L1,0L1,1L2,1ZM34,1L35,1L35,0L34,0L34,1ZM34,33L34,34L35,34L35,33L34,33ZM2,33L1,33L1,34L2,34L2,33ZM2,2L34,2L34,0L2,0L2,2ZM33,1L33,33L35,33L35,1L33,1ZM34,32L2,32L2,34L34,34L34,32ZM3,33L3,1L1,1L1,33L3,33Z" fill="#008200"/>
</svg>
