<svg width="44" height="44" viewBox="0 0 44 44" fill="none" xmlns="http://www.w3.org/2000/svg" xmlns:xlink="http://www.w3.org/1999/xlink">
<path d="M1,0.5C0.172,0.5 -0.5,1.172 -0.5,2C-0.5,2.828 0.172,3.5 1,3.5L1,0.5ZM9,7.5L33,7.5L33,4.5L9,4.5L9,7.5ZM39.5,14L39.5,24L42.5,24L42.5,14L39.5,14ZM33,30.5L17,30.5L17,33.5L33,33.5L33,30.5ZM10.5,24L10.5,6L7.5,6L7.5,24L10.5,24ZM5,0.5L1,0.5L1,3.5L5,3.5L5,0.5ZM10.5,6C10.5,2.962 8.038,0.5 5,0.5L5,3.5C6.381,3.5 7.5,4.619 7.5,6L10.5,6ZM17,30.5C13.41,30.5 10.5,27.59 10.5,24L7.5,24C7.5,29.247 11.753,33.5 17,33.5L17,30.5ZM39.5,24C39.5,27.59 36.59,30.5 33,30.5L33,33.5C38.247,33.5 42.5,29.247 42.5,24L39.5,24ZM33,7.5C36.59,7.5 39.5,10.41 39.5,14L42.5,14C42.5,8.753 38.247,4.5 33,4.5L33,7.5Z" fill="#FFFFFF"/>
<path d="M17.5,39C17.5,39.828 16.828,40.5 16,40.5L16,43.5C18.485,43.5 20.5,41.485 20.5,39L17.5,39ZM16,40.5C15.172,40.5 14.5,39.828 14.5,39L11.5,39C11.5,41.485 13.515,43.5 16,43.5L16,40.5ZM14.5,39C14.5,38.172 15.172,37.5 16,37.5L16,34.5C13.515,34.5 11.5,36.515 11.5,39L14.5,39ZM16,37.5C16.828,37.5 17.5,38.172 17.5,39L20.5,39C20.5,36.515 18.485,34.5 16,34.5L16,37.5Z" fill="#FFFFFF"/>
<path d="M35.5,39C35.5,39.828 34.828,40.5 34,40.5L34,43.5C36.485,43.5 38.5,41.485 38.5,39L35.5,39ZM34,40.5C33.172,40.5 32.5,39.828 32.5,39L29.5,39C29.5,41.485 31.515,43.5 34,43.5L34,40.5ZM32.5,39C32.5,38.172 33.172,37.5 34,37.5L34,34.5C31.515,34.5 29.5,36.515 29.5,39L32.5,39ZM34,37.5C34.828,37.5 35.5,38.172 35.5,39L38.5,39C38.5,36.515 36.485,34.5 34,34.5L34,37.5Z" fill="#FFFFFF"/>
<path d="M19.742,20.696C19.022,20.287 18.106,20.538 17.696,21.258C17.287,21.978 17.538,22.894 18.258,23.304L19.742,20.696ZM31.737,23.307C32.458,22.9 32.713,21.985 32.307,21.263C31.9,20.542 30.985,20.287 30.263,20.693L31.737,23.307ZM18.258,23.304C20.698,24.692 22.796,25.504 25.006,25.5C27.213,25.496 29.306,24.677 31.737,23.307L30.263,20.693C27.989,21.976 26.438,22.497 25,22.5C23.564,22.503 22.014,21.989 19.742,20.696L18.258,23.304Z" fill="#FFFFFF"/>
</svg>
