<svg width="48" height="50" viewBox="0 0 48 50" fill="none" xmlns="http://www.w3.org/2000/svg" xmlns:xlink="http://www.w3.org/1999/xlink">
<path d="M2,1C0.895,1 0,1.895 0,3C0,4.105 0.895,5 2,5L2,1ZM10.8,9.4L37.2,9.4L37.2,5.4L10.8,5.4L10.8,9.4ZM44,16.2L44,27.2L48,27.2L48,16.2L44,16.2ZM37.2,34L19.6,34L19.6,38L37.2,38L37.2,34ZM12.8,27.2L12.8,7.4L8.8,7.4L8.8,27.2L12.8,27.2ZM6.4,1L2,1L2,5L6.4,5L6.4,1ZM12.8,7.4C12.8,3.865 9.935,1 6.4,1L6.4,5C7.725,5 8.8,6.075 8.8,7.4L12.8,7.4ZM19.6,34C15.844,34 12.8,30.956 12.8,27.2L8.8,27.2C8.8,33.165 13.635,38 19.6,38L19.6,34ZM44,27.2C44,30.956 40.956,34 37.2,34L37.2,38C43.165,38 48,33.165 48,27.2L44,27.2ZM37.2,9.4C40.956,9.4 44,12.444 44,16.2L48,16.2C48,10.235 43.165,5.4 37.2,5.4L37.2,9.4Z" fill="#FFFFFF"/>
<path d="M19.8,43.7C19.8,44.418 19.218,45 18.5,45L18.5,49C21.427,49 23.8,46.627 23.8,43.7L19.8,43.7ZM18.5,45C17.782,45 17.2,44.418 17.2,43.7L13.2,43.7C13.2,46.627 15.573,49 18.5,49L18.5,45ZM17.2,43.7C17.2,42.982 17.782,42.4 18.5,42.4L18.5,38.4C15.573,38.4 13.2,40.773 13.2,43.7L17.2,43.7ZM18.5,42.4C19.218,42.4 19.8,42.982 19.8,43.7L23.8,43.7C23.8,40.773 21.427,38.4 18.5,38.4L18.5,42.4Z" fill="#FFFFFF"/>
<path d="M39.6,43.7C39.6,44.418 39.018,45 38.3,45L38.3,49C41.227,49 43.6,46.627 43.6,43.7L39.6,43.7ZM38.3,45C37.582,45 37,44.418 37,43.7L33,43.7C33,46.627 35.373,49 38.3,49L38.3,45ZM37,43.7C37,42.982 37.582,42.4 38.3,42.4L38.3,38.4C35.373,38.4 33,40.773 33,43.7L37,43.7ZM38.3,42.4C39.018,42.4 39.6,42.982 39.6,43.7L43.6,43.7C43.6,40.773 41.227,38.4 38.3,38.4L38.3,42.4Z" fill="#FFFFFF"/>
<path d="M22.788,23.262C21.828,22.715 20.607,23.051 20.061,24.011C19.515,24.971 19.85,26.192 20.81,26.738L22.788,23.262ZM35.982,26.742C36.944,26.2 37.284,24.98 36.741,24.018C36.199,23.056 34.979,22.715 34.017,23.258L35.982,26.742ZM20.81,26.738C23.514,28.276 25.885,29.205 28.406,29.2C30.924,29.195 33.29,28.26 35.982,26.742L34.017,23.258C31.533,24.658 29.891,25.197 28.399,25.2C26.91,25.203 25.268,24.672 22.788,23.262L20.81,26.738Z" fill="#FFFFFF"/>
</svg>
