<svg width="106" height="16" viewBox="0 0 106 16" fill="none" xmlns="http://www.w3.org/2000/svg" xmlns:xlink="http://www.w3.org/1999/xlink">
<path d="M10.815,10.726C22.296,2.136 39.525,0.275 52.361,6.007C53.72,4.806 55.514,3.973 57.428,3.687C59.534,3.371 61.76,3.719 63.616,4.632C68.487,2.337 74.243,1.459 79.718,2.226C86.044,3.112 91.923,6.183 95.782,10.615L10.815,10.726Z" fill="#FBB03B"/>
<path d="M92.359,3.868C92.359,4.49 91.858,4.996 91.239,4.998C90.621,5 90.116,4.494 90.116,3.871C90.116,3.249 90.617,2.743 91.236,2.741C91.854,2.739 92.357,3.246 92.359,3.868Z" fill="#FBB03B"/>
<path d="M82.548,4.634C82.548,5.046 82.179,5.379 81.723,5.38C81.267,5.382 80.897,5.048 80.897,4.636C80.897,4.224 81.266,3.891 81.721,3.89C82.177,3.89 82.548,4.224 82.548,4.634Z" fill="#BC842C"/>
<path d="M50.48,1.849C50.482,2.889 49.548,3.732 48.396,3.734C47.244,3.736 46.308,2.894 46.306,1.855C46.304,0.815 47.238,-0.028 48.39,-0.03C49.542,-0.032 50.478,0.81 50.48,1.849Z" fill="#FBB03B"/>
<path d="M36.017,4.796C36.017,5.11 35.736,5.366 35.387,5.366C35.039,5.366 34.755,5.112 34.755,4.798C34.755,4.484 35.037,4.228 35.386,4.228C35.734,4.228 36.017,4.482 36.017,4.796Z" fill="#BC842C"/>
<path d="M25.863,6.306C25.865,7.05 25.195,7.654 24.372,7.654C23.548,7.654 22.879,7.054 22.877,6.31C22.875,5.566 23.544,4.962 24.368,4.962C25.192,4.96 25.861,5.562 25.863,6.306Z" fill="#BC842C"/>
<path d="M105.418,11.789C105.422,14.037 81.802,15.891 52.664,15.929C23.526,15.967 -0.099,14.175 -0.101,11.927C-0.101,11.849 -0.152,11.056 -0.095,10.98C1.461,8.837 24.526,7.825 52.655,7.787C80.385,7.751 103.232,8.696 105.367,10.789C105.474,10.897 105.418,11.682 105.418,11.789Z" fill="#E0E8EE"/>
<path d="M105.415,10.881C105.416,12.714 81.797,14.23 52.659,14.268C23.521,14.306 -0.103,12.851 -0.106,11.017C-0.108,9.185 23.503,7.436 52.642,7.4C81.78,7.364 105.413,9.049 105.415,10.881Z" fill="#FBB03B"/>
<path d="M83.723,6.834C83.725,7.621 80.59,8.263 76.725,8.269C72.859,8.274 69.724,7.639 69.722,6.852C69.72,6.065 72.855,5.422 76.721,5.417C80.587,5.412 83.722,6.047 83.723,6.834Z" fill="#F15A24"/>
<path d="M43.4,7.235C43.401,8.023 40.267,8.665 36.401,8.67C32.535,8.676 29.4,8.041 29.398,7.253C29.397,6.466 32.531,5.824 36.397,5.818C40.265,5.815 43.4,6.448 43.4,7.235Z" fill="#F15A24"/>
<path d="M89.077,9.902C88.349,9.878 87.624,9.867 86.898,9.819C86.129,9.766 85.361,9.695 84.594,9.626C82.918,9.477 81.234,9.332 79.549,9.36C78.232,9.379 76.824,9.49 75.618,10.009C75.796,10.092 75.979,10.169 76.168,10.234C77.539,10.697 79.052,10.758 80.501,10.756C81.926,10.755 83.344,10.649 84.766,10.642C88.757,10.62 92.727,10.316 96.705,10.067C98.643,9.946 100.582,9.844 102.525,9.806C101.649,9.648 100.585,9.496 99.35,9.349C97.973,9.682 96.551,9.857 95.123,9.935C93.111,10.04 91.092,9.967 89.077,9.902Z" fill="#FCC062"/>
<path d="M59.244,13.102C58.036,13.237 56.768,13.248 55.628,13.67C55.993,13.93 56.421,14.113 56.873,14.253C61.435,14.224 65.835,14.158 69.996,14.062C69.24,13.748 68.372,13.654 67.565,13.518C66.624,13.358 65.602,13.151 64.929,12.489C64.839,12.4 64.859,12.212 65.016,12.19C66.542,11.976 68.088,12.072 69.624,12.106C70.822,12.134 72.053,12.132 73.218,11.867C72.075,11.751 70.921,11.74 69.773,11.758C68.498,11.778 67.222,11.836 65.947,11.847C64.967,11.854 63.99,11.796 63.012,11.756C61.981,11.715 60.947,11.687 59.919,11.76C59.153,11.813 58.364,11.923 57.649,12.192C58.203,12.366 58.725,12.614 59.295,12.75C59.531,12.809 59.453,13.081 59.244,13.102Z" fill="#FCC062"/>
<path d="M67.311,7.507L68.69,6.487L69.57,7.505L67.311,7.507Z" fill="#22B573"/>
<path d="M61.161,6.612L59.527,5.368L59.404,6.274L61.161,6.612Z" fill="#22B573"/>
<path d="M71.377,13.406L72.381,12.046L72.508,13.065L71.377,13.406Z" fill="#22B573"/>
<path d="M54.767,9.51L53.134,9.512L53.009,9.966L54.641,10.303L54.767,9.51Z" fill="#22B573"/>
<path d="M39.987,7.351L41.491,6.037L42.119,6.648L42.121,7.61L39.987,7.351Z" fill="#22B573"/>
<path d="M17.247,9.112L19.631,8.996L17.625,10.017L17.247,9.112Z" fill="#22B573"/>
<path d="M46.104,8.667L47.488,9.344L48.115,8.325L46.104,8.667Z" fill="#22B573"/>
</svg>
