<svg width="44" height="44" viewBox="0 0 44 44" fill="none" xmlns="http://www.w3.org/2000/svg" xmlns:xlink="http://www.w3.org/1999/xlink">
<path d="M0,35.493C0.002,37.748 0.9,39.91 2.494,41.506C4.09,43.1 6.252,43.998 8.507,44L32.121,44C34.376,43.998 36.538,43.1 38.134,41.506C39.728,39.91 40.625,37.748 40.627,35.493L40.627,26.555C40.627,25.411 39.699,24.482 38.555,24.482C37.41,24.482 36.482,25.411 36.482,26.555L36.482,35.493C36.48,37.902 34.529,39.852 32.121,39.854L8.507,39.854C7.348,39.852 6.237,39.39 5.42,38.569C4.602,37.748 4.144,36.635 4.146,35.477L4.146,11.879C4.148,9.471 6.098,7.52 8.507,7.518L17.445,7.518C18.589,7.518 19.518,6.59 19.518,5.445C19.518,4.301 18.589,3.373 17.445,3.373L8.507,3.373C6.252,3.375 4.09,4.272 2.494,5.866C0.9,7.462 0.002,9.624 0,11.879L0,35.493Z" fill="#FFFFFF"/>
<path d="M41.678,2.322C40.19,0.835 38.171,0 36.067,0C33.964,0 31.945,0.835 30.456,2.322L10.657,22.121C9.867,22.907 9.343,23.92 9.156,25.019L8.41,29.365C8.116,31.09 8.675,32.852 9.911,34.089C11.148,35.327 12.91,35.884 14.635,35.59L18.981,34.844C20.08,34.657 21.094,34.133 21.879,33.343L41.679,13.544C43.165,12.056 44,10.037 44,7.933C44,5.829 43.165,3.81 41.678,2.322ZM18.948,30.413C18.767,30.593 18.533,30.715 18.28,30.759L18.278,30.759L13.931,31.505L13.934,31.503C13.536,31.571 13.127,31.443 12.843,31.157C12.557,30.873 12.429,30.467 12.497,30.069L13.243,25.722L13.241,25.72C13.285,25.467 13.407,25.233 13.589,25.052L27.795,10.847L33.155,16.208L18.948,30.413ZM38.747,10.613L36.084,13.277L30.723,7.916L33.387,5.253C34.098,4.54 35.061,4.138 36.069,4.138C37.074,4.138 38.04,4.536 38.751,5.249C39.464,5.96 39.862,6.926 39.862,7.931C39.862,8.938 39.46,9.902 38.747,10.613Z" fill="#FFFFFF"/>
</svg>
