<svg width="26" height="26" viewBox="0 0 26 26" fill="none" xmlns="http://www.w3.org/2000/svg" xmlns:xlink="http://www.w3.org/1999/xlink">
<path d="M0,0L0,-1L-1,-1L-1,0L0,0ZM24,0L25,0L25,-1L24,-1L24,0ZM24,24L24,25L25,25L25,24L24,24ZM0,24L-1,24L-1,25L0,25L0,24ZM0,1L24,1L24,-1L0,-1L0,1ZM23,0L23,24L25,24L25,0L23,0ZM24,23L0,23L0,25L24,25L24,23ZM1,24L1,0L-1,0L-1,24L1,24Z" fill="#008200"/>
<path d="M12,19.322C16.044,19.322 19.322,16.044 19.322,12C19.322,7.956 16.044,4.678 12,4.678C7.956,4.678 4.678,7.956 4.678,12C4.678,16.044 7.956,19.322 12,19.322Z" fill="#008200"/>
</svg>
