<svg width="28" height="28" viewBox="0 0 28 28" fill="none" xmlns="http://www.w3.org/2000/svg" xmlns:xlink="http://www.w3.org/1999/xlink">
<path d="M2,2L2,1L1,1L1,2L2,2ZM26,2L27,2L27,1L26,1L26,2ZM26,26L26,27L27,27L27,26L26,26ZM2,26L1,26L1,27L2,27L2,26ZM2,3L26,3L26,1L2,1L2,3ZM25,2L25,26L27,26L27,2L25,2ZM26,25L2,25L2,27L26,27L26,25ZM3,26L3,2L1,2L1,26L3,26Z" fill="#008200"/>
<path d="M14,21.322C18.044,21.322 21.322,18.044 21.322,14C21.322,9.956 18.044,6.678 14,6.678C9.956,6.678 6.678,9.956 6.678,14C6.678,18.044 9.956,21.322 14,21.322Z" fill="#008200"/>
</svg>
