<svg width="186" height="286" viewBox="0 0 186 286" fill="none" xmlns="http://www.w3.org/2000/svg" xmlns:xlink="http://www.w3.org/1999/xlink">
<path d="M70.385,58.688L19.108,61.749C15.911,73.106 15.435,84.123 18.972,95.412C19.992,98.609 21.42,102.009 24.82,103.913C27.881,105.613 31.757,105.681 35.43,105.681C53.316,105.477 71.133,103.369 88.407,99.493C85.007,97.588 83.035,94.188 83.511,90.856C85.007,94.12 89.155,96.364 93.44,96.5C97.724,96.636 102.009,94.8 104.593,92.08C90.04,85.279 70.725,72.222 70.385,58.688Z" fill="#181818"/>
<path d="M104.321,80.179C104.321,80.179 104.185,80.179 103.845,80.179C103.573,80.179 103.097,80.179 102.553,80.111C101.464,80.043 99.832,79.907 97.86,79.703C93.916,79.158 88.475,77.934 83.17,74.942C80.518,73.446 78.206,71.61 76.438,69.706C74.601,67.801 73.241,65.829 72.289,64.129C71.337,62.361 70.793,60.865 70.453,59.776C70.249,59.232 70.181,58.824 70.113,58.552C70.045,58.28 70.045,58.144 70.045,58.144C70.045,58.144 70.249,58.756 70.589,59.776C70.929,60.797 71.541,62.293 72.493,64.061C73.445,65.761 74.873,67.665 76.642,69.57C78.478,71.406 80.722,73.242 83.374,74.738C88.611,77.73 94.052,78.954 97.928,79.499C99.9,79.771 101.464,79.975 102.553,80.043C103.097,80.111 103.505,80.111 103.845,80.179C104.117,80.179 104.321,80.179 104.321,80.179Z" fill="#263238"/>
<path d="M113.162,179.402C112.958,179.47 98.065,174.709 98.065,174.709L93.372,178.382L106.157,183.958C106.157,183.958 111.802,184.57 114.522,186.202C117.243,187.835 113.162,179.402 113.162,179.402Z" fill="#263238"/>
<path d="M110.85,180.354C110.85,180.354 110.85,180.49 110.918,180.762C111.326,182.326 113.502,187.902 122.343,191.099C132.68,194.839 155.259,195.927 158.999,195.315C166.276,194.159 173.009,188.514 172.737,187.086Z" fill="#263238"/>
<path d="M172.737,187.086C172.465,189.398 158.455,189.738 141.318,187.902C124.248,186.066 110.578,182.666 110.85,180.353C111.122,178.041 125.132,177.701 142.27,179.537C159.339,181.374 173.009,184.774 172.737,187.086Z" fill="#455A64"/>
<path d="M151.042,185.455C152.198,184.299 153.762,183.619 152.946,182.326C152.742,182.803 151.586,182.735 151.178,183.143C150.77,183.483 149.682,183.075 149.138,182.939C148.458,182.735 148.118,182.122 148.186,181.51C148.254,180.898 148.594,180.354 148.934,179.81C149.614,178.722 150.362,177.702 151.178,176.682C151.45,176.342 151.79,175.934 151.858,175.458C151.926,174.982 151.654,174.506 151.178,174.37C150.77,174.234 150.294,174.438 149.886,174.71C148.186,175.662 146.554,176.886 145.942,178.586C145.534,179.674 145.602,180.83 145.126,181.85C144.65,182.871 143.289,183.755 142.133,183.279C141.453,183.007 141.113,182.258 140.909,181.578C140.705,180.898 140.637,180.218 140.161,179.674C139.685,179.13 138.733,178.79 138.121,179.266C137.101,180.014 138.393,181.714 137.509,182.598C137.169,183.007 136.489,183.075 135.945,182.871C135.401,182.735 134.924,182.394 134.516,182.054C131.66,179.742 129.552,176.75 128.532,173.418C128.396,173.009 128.26,172.533 127.988,172.193C127.716,171.853 127.24,171.581 126.764,171.581C125.947,171.649 125.607,172.533 125.607,173.213C125.607,175.186 127.036,176.886 128.396,178.382C129.96,180.15 131.524,181.918 133.156,183.687L135.333,186.203L144.582,188.243L150.838,186.951L151.042,185.455Z" fill="#FF725E"/>
<g opacity="0.6">
<path d="M151.042,185.455C152.198,184.299 153.762,183.619 152.946,182.326C152.742,182.803 151.586,182.735 151.178,183.143C150.77,183.483 149.682,183.075 149.138,182.939C148.458,182.735 148.118,182.122 148.186,181.51C148.254,180.898 148.594,180.354 148.934,179.81C149.614,178.722 150.362,177.702 151.178,176.682C151.45,176.342 151.79,175.934 151.858,175.458C151.926,174.982 151.654,174.506 151.178,174.37C150.77,174.234 150.294,174.438 149.886,174.71C148.186,175.662 146.554,176.886 145.942,178.586C145.534,179.674 145.602,180.83 145.126,181.85C144.65,182.871 143.289,183.755 142.133,183.279C141.453,183.007 141.113,182.258 140.909,181.578C140.705,180.898 140.637,180.218 140.161,179.674C139.685,179.13 138.733,178.79 138.121,179.266C137.101,180.014 138.393,181.714 137.509,182.598C137.169,183.007 136.489,183.075 135.945,182.871C135.401,182.735 134.924,182.394 134.516,182.054C131.66,179.742 129.552,176.75 128.532,173.418C128.396,173.009 128.26,172.533 127.988,172.193C127.716,171.853 127.24,171.581 126.764,171.581C125.947,171.649 125.607,172.533 125.607,173.213C125.607,175.186 127.036,176.886 128.396,178.382C129.96,180.15 131.524,181.918 133.156,183.687L135.333,186.203L144.582,188.243L150.838,186.951L151.042,185.455Z" fill="#FFFFFF"/>
</g>
<path d="M153.695,189.059C153.899,187.835 155.055,186.747 156.415,186.407C156.891,186.339 157.367,186.271 157.843,186.067C158.251,185.863 158.523,185.387 158.251,184.979C157.979,184.639 157.367,184.639 156.959,184.707C155.871,184.843 154.783,185.047 153.695,185.183C154.579,184.298 155.463,183.414 156.279,182.53C156.619,182.19 156.959,181.714 156.755,181.306C156.483,180.898 155.871,180.898 155.395,180.966C153.695,181.238 152.131,182.122 151.111,183.346C150.159,184.434 149.683,185.795 148.526,186.679C147.438,187.495 145.942,187.767 144.582,187.427C143.222,187.087 142.134,186.135 141.658,184.979C141.454,184.503 141.386,183.958 141.046,183.55C140.297,182.802 138.801,183.142 138.121,183.958C137.441,184.775 137.441,185.795 137.577,186.815C134.585,182.938 131.32,178.926 126.356,177.226C125.472,176.954 124.52,176.682 123.636,176.818C122.684,176.954 121.867,177.566 121.663,178.382C121.459,179.334 122.344,180.15 123.228,180.762C124.928,181.782 126.968,182.258 128.804,183.142C130.64,184.026 132.613,185.251 132.477,187.087C132.477,187.087 141.386,188.447 145.806,188.583C150.227,188.719 153.695,189.059 153.695,189.059Z" fill="#FF725E"/>
<g opacity="0.8">
<path d="M153.695,189.059C153.899,187.835 155.055,186.747 156.415,186.407C156.891,186.339 157.367,186.271 157.843,186.067C158.251,185.863 158.523,185.387 158.251,184.979C157.979,184.639 157.367,184.639 156.959,184.707C155.871,184.843 154.783,185.047 153.695,185.183C154.579,184.298 155.463,183.414 156.279,182.53C156.619,182.19 156.959,181.714 156.755,181.306C156.483,180.898 155.871,180.898 155.395,180.966C153.695,181.238 152.131,182.122 151.111,183.346C150.159,184.434 149.683,185.795 148.526,186.679C147.438,187.495 145.942,187.767 144.582,187.427C143.222,187.087 142.134,186.135 141.658,184.979C141.454,184.503 141.386,183.958 141.046,183.55C140.297,182.802 138.801,183.142 138.121,183.958C137.441,184.775 137.441,185.795 137.577,186.815C134.585,182.938 131.32,178.926 126.356,177.226C125.472,176.954 124.52,176.682 123.636,176.818C122.684,176.954 121.867,177.566 121.663,178.382C121.459,179.334 122.344,180.15 123.228,180.762C124.928,181.782 126.968,182.258 128.804,183.142C130.64,184.026 132.613,185.251 132.477,187.087C132.477,187.087 141.386,188.447 145.806,188.583C150.227,188.719 153.695,189.059 153.695,189.059Z" fill="#FFFFFF"/>
</g>
<path d="M120.983,194.703C120.983,194.771 120.507,194.703 119.691,194.499C118.943,194.295 117.855,193.819 116.834,193.139C115.814,192.459 115.066,191.575 114.59,190.963C114.114,190.283 113.91,189.875 113.91,189.807C113.978,189.739 114.998,191.439 117.038,192.867C119.011,194.227 121.051,194.567 120.983,194.703Z" fill="#263238"/>
<path d="M119.283,196.267C119.283,196.335 118.807,196.267 117.991,196.063C117.243,195.859 116.155,195.383 115.135,194.703C114.115,194.023 113.367,193.139 112.891,192.527C112.414,191.847 112.21,191.439 112.21,191.371C112.278,191.303 113.299,193.003 115.339,194.431C117.379,195.791 119.351,196.199 119.283,196.267Z" fill="#263238"/>
<path d="M179.13,189.535C179.13,189.535 179.062,189.739 178.926,190.079C178.79,190.419 178.586,190.895 178.246,191.439C177.634,192.527 176.614,194.023 175.186,195.383C173.758,196.743 172.261,197.695 171.173,198.308C170.629,198.58 170.153,198.784 169.813,198.92C169.473,199.056 169.269,199.124 169.269,199.056C169.269,198.988 169.949,198.716 171.037,198.035C172.125,197.423 173.554,196.403 174.914,195.111C176.274,193.751 177.294,192.391 177.974,191.303C178.722,190.215 179.062,189.467 179.13,189.535Z" fill="#263238"/>
<path d="M182.393,190.895C182.461,190.895 182.325,191.371 181.917,192.119C181.577,192.799 180.965,193.751 180.149,194.703C179.333,195.587 178.449,196.335 177.837,196.743C177.157,197.151 176.749,197.355 176.681,197.355C176.613,197.287 178.313,196.267 179.877,194.499C181.509,192.663 182.257,190.895 182.393,190.895Z" fill="#263238"/>
<path d="M166.004,146.078L172.328,144.31C172.328,144.31 177.565,145.126 178.857,144.106C180.217,143.086 179.537,142.542 179.537,142.542C182.394,141.453 181.373,140.229 181.373,140.229C181.373,140.229 184.23,140.025 184.23,137.781C184.23,136.489 173.485,134.313 173.485,134.313C173.485,134.313 173.553,132.884 174.709,132.136C175.797,131.32 182.19,132.884 184.162,132.272C186.134,131.66 185.998,129.756 185.998,129.756C185.998,129.756 172.669,127.036 169.812,128.192C167.024,129.348 153.49,134.993 151.45,137.713L155.939,147.098C155.939,147.098 156.211,147.234 158.455,147.846C160.631,148.526 166.004,146.078 166.004,146.078Z" fill="#FFBF9D"/>
<path d="M158.728,143.765C158.728,143.697 159.272,143.697 160.156,143.629C161.04,143.493 162.4,143.221 163.828,142.473C164.576,142.065 165.324,141.589 166.004,140.977C166.344,140.637 166.684,140.297 167.024,139.889C167.364,139.481 167.704,139.073 168.113,138.665C168.521,138.257 169.133,137.917 169.813,137.917C170.425,137.917 171.037,138.053 171.649,138.189C172.873,138.461 174.029,138.869 175.185,138.665C175.933,138.529 176.681,138.257 177.226,137.781C177.77,137.305 178.11,136.557 177.838,136.081L178.042,136.217C174.233,135.264 170.833,134.856 168.453,134.516C167.364,134.38 166.412,134.244 165.664,134.108C164.984,133.972 164.644,133.904 164.644,133.904C164.644,133.904 164.984,133.904 165.664,133.904C166.344,133.972 167.296,134.04 168.521,134.176C170.901,134.448 174.369,134.788 178.178,135.672L178.314,135.672L178.382,135.74C178.654,136.149 178.586,136.693 178.45,137.101C178.314,137.509 178.042,137.849 177.702,138.189C177.022,138.801 176.205,139.141 175.321,139.209C174.641,139.277 173.961,139.209 173.349,139.141C172.737,139.005 172.125,138.869 171.581,138.733C171.037,138.597 170.425,138.461 169.881,138.461C169.337,138.461 168.929,138.665 168.521,139.005C168.113,139.345 167.841,139.753 167.5,140.161C167.16,140.569 166.752,140.909 166.412,141.249C165.664,141.929 164.848,142.405 164.1,142.745C162.536,143.493 161.176,143.697 160.224,143.765C159.272,143.901 158.728,143.833 158.728,143.765Z" fill="#FF9A6C"/>
<path d="M171.649,138.597C171.785,138.665 171.513,139.889 170.833,141.317C170.153,142.745 169.337,143.765 169.201,143.697C169.065,143.629 169.609,142.473 170.289,141.045C170.969,139.685 171.513,138.529 171.649,138.597Z" fill="#FF9A6C"/>
<path d="M178.993,142.337C178.993,142.473 177.225,142.269 175.049,142.065C172.873,141.793 171.172,141.657 171.172,141.453C171.172,141.317 172.941,141.249 175.117,141.453C177.293,141.657 178.993,142.133 178.993,142.337Z" fill="#FF9A6C"/>
<path d="M182.19,140.365C182.19,140.501 179.946,140.365 177.226,139.957C174.505,139.549 172.261,139.141 172.329,138.937C172.329,138.801 174.573,138.937 177.294,139.345C180.014,139.753 182.258,140.161 182.19,140.365Z" fill="#FF9A6C"/>
<path d="M173.281,131.252C173.417,131.252 173.553,132.069 173.417,133.089C173.281,134.109 173.009,134.857 172.805,134.789C172.669,134.721 172.669,133.973 172.805,133.021C172.941,132.069 173.077,131.252 173.281,131.252Z" fill="#FF9A6C"/>
<path d="M98.201,134.312L116.699,144.105L152.811,137.101L157.911,147.71C157.911,147.71 124.928,162.195 115.679,162.331C106.43,162.467 89.7,151.654 89.7,151.654L98.201,134.312Z" fill="#FFBF9D"/>
<path d="M142.814,144.65C142.814,144.65 138.461,143.766 137.645,147.098C136.829,150.43 140.774,151.178 140.774,151.178C140.774,151.178 140.026,153.423 143.834,154.647C147.642,155.803 148.391,151.722 148.391,151.722C148.391,151.722 151.927,152.879 152.199,150.566C152.607,147.166 149.819,146.894 149.819,146.894C149.819,146.894 152.539,143.562 148.118,142.269C143.63,140.909 142.814,144.65 142.814,144.65ZM147.574,143.698C150.159,144.242 148.459,147.438 148.459,147.438C148.459,147.438 151.383,148.118 150.771,149.818C150.227,151.518 147.302,150.43 147.302,150.43C147.302,150.43 148.391,153.355 144.854,153.423C141.318,153.491 142.814,150.43 142.814,150.43C142.814,150.43 139.958,150.702 139.346,147.982C138.733,145.262 143.698,146.078 143.698,146.078C143.766,143.698 144.99,143.086 147.574,143.698Z" fill="#FF725E"/>
<g opacity="0.3">
<path d="M142.814,144.65C142.814,144.65 138.461,143.766 137.645,147.098C136.829,150.43 140.774,151.178 140.774,151.178C140.774,151.178 140.026,153.423 143.834,154.647C147.642,155.803 148.391,151.722 148.391,151.722C148.391,151.722 151.927,152.879 152.199,150.566C152.607,147.166 149.819,146.894 149.819,146.894C149.819,146.894 152.539,143.562 148.118,142.269C143.63,140.909 142.814,144.65 142.814,144.65ZM147.574,143.698C150.159,144.242 148.459,147.438 148.459,147.438C148.459,147.438 151.383,148.118 150.771,149.818C150.227,151.518 147.302,150.43 147.302,150.43C147.302,150.43 148.391,153.355 144.854,153.423C141.318,153.491 142.814,150.43 142.814,150.43C142.814,150.43 139.958,150.702 139.346,147.982C138.733,145.262 143.698,146.078 143.698,146.078C143.766,143.698 144.99,143.086 147.574,143.698Z" fill="#000000"/>
</g>
<path d="M142.882,143.765C142.882,143.765 138.53,142.881 137.714,146.214C136.898,149.478 140.842,150.294 140.842,150.294C140.842,150.294 140.094,152.538 143.902,153.763C147.711,154.919 148.459,150.838 148.459,150.838C148.459,150.838 151.995,151.994 152.267,149.682C152.675,146.282 149.887,146.01 149.887,146.01C149.887,146.01 152.607,142.677 148.187,141.385C143.698,140.025 142.882,143.765 142.882,143.765ZM147.643,142.813C150.227,143.357 148.527,146.554 148.527,146.554C148.527,146.554 151.451,147.234 150.839,148.934C150.295,150.634 147.371,149.546 147.371,149.546C147.371,149.546 148.459,152.47 144.922,152.538C141.386,152.606 142.882,149.546 142.882,149.546C142.882,149.546 140.026,149.818 139.414,147.098C138.802,144.378 143.766,145.194 143.766,145.194C143.834,142.813 145.059,142.269 147.643,142.813Z" fill="#FF725E"/>
<path d="M144.854,113.366C144.854,113.366 140.434,114.046 140.842,117.447C141.182,120.779 145.194,120.235 145.194,120.235C145.194,120.235 145.262,122.615 149.274,122.411C153.219,122.207 152.539,118.127 152.539,118.127C152.539,118.127 156.279,117.991 155.735,115.746C154.919,112.414 152.267,113.094 152.267,113.094C152.267,113.094 153.695,109.014 149.07,109.286C144.378,109.558 144.854,113.366 144.854,113.366ZM149.002,110.85C151.587,110.51 151.111,114.114 151.111,114.114C151.111,114.114 154.103,113.774 154.103,115.542C154.171,117.379 151.043,117.311 151.043,117.311C151.043,117.311 153.015,119.691 149.751,120.983C146.418,122.207 146.758,118.875 146.758,118.875C146.758,118.875 144.174,120.099 142.678,117.719C141.182,115.338 146.078,114.454 146.078,114.454C145.466,112.142 146.418,111.19 149.002,110.85Z" fill="#FF725E"/>
<g opacity="0.3">
<path d="M144.854,113.366C144.854,113.366 140.434,114.046 140.842,117.447C141.182,120.779 145.194,120.235 145.194,120.235C145.194,120.235 145.262,122.615 149.274,122.411C153.219,122.207 152.539,118.127 152.539,118.127C152.539,118.127 156.279,117.991 155.735,115.746C154.919,112.414 152.267,113.094 152.267,113.094C152.267,113.094 153.695,109.014 149.07,109.286C144.378,109.558 144.854,113.366 144.854,113.366ZM149.002,110.85C151.587,110.51 151.111,114.114 151.111,114.114C151.111,114.114 154.103,113.774 154.103,115.542C154.171,117.379 151.043,117.311 151.043,117.311C151.043,117.311 153.015,119.691 149.751,120.983C146.418,122.207 146.758,118.875 146.758,118.875C146.758,118.875 144.174,120.099 142.678,117.719C141.182,115.338 146.078,114.454 146.078,114.454C145.466,112.142 146.418,111.19 149.002,110.85Z" fill="#000000"/>
</g>
<path d="M144.65,112.55C144.65,112.55 140.229,113.23 140.637,116.562C140.977,119.895 144.99,119.351 144.99,119.351C144.99,119.351 145.058,121.731 149.07,121.527C153.015,121.323 152.335,117.242 152.335,117.242C152.335,117.242 156.075,117.106 155.531,114.862C154.715,111.53 152.063,112.21 152.063,112.21C152.063,112.21 153.491,108.129 148.866,108.401C144.174,108.741 144.65,112.55 144.65,112.55ZM148.798,110.034C151.383,109.694 150.907,113.298 150.907,113.298C150.907,113.298 153.899,112.958 153.899,114.726C153.967,116.562 150.839,116.494 150.839,116.494C150.839,116.494 152.811,118.875 149.546,120.167C146.214,121.391 146.554,118.059 146.554,118.059C146.554,118.059 143.97,119.283 142.474,116.902C140.977,114.522 145.874,113.638 145.874,113.638C145.262,111.326 146.146,110.374 148.798,110.034Z" fill="#FF725E"/>
<path d="M137.985,129.552C137.985,129.552 135.197,129.688 135.061,131.66C134.925,133.701 135.673,136.965 140.501,137.713C145.33,138.461 145.942,132.408 145.942,132.408C145.942,132.408 144.514,129.28 137.985,129.552Z" fill="#E0E0E0"/>
<g opacity="0.21">
<path d="M140.705,134.993C143.357,135.129 144.989,133.973 145.805,133.089C145.873,132.681 145.941,132.408 145.941,132.408C145.941,132.408 144.513,129.28 137.984,129.552C137.984,129.552 135.196,129.688 135.06,131.66C135.06,131.796 135.06,131.932 135.06,132.068C136.012,133.225 137.984,134.857 140.705,134.993Z" fill="#263238"/>
</g>
<path d="M138.529,128.192L137.713,131.661C137.713,131.661 139.074,133.293 141.114,133.157C143.154,133.021 143.154,132.273 143.154,132.273L143.97,128.668C143.97,128.668 142.202,127.376 140.23,127.308C138.257,127.376 138.529,128.192 138.529,128.192Z" fill="#E0E0E0"/>
<path d="M123.431,153.014C123.431,153.014 121.663,155.191 123.091,156.619C124.451,158.115 127.444,159.679 131.252,156.619C134.993,153.49 130.912,149.07 130.912,149.07C130.912,149.07 127.58,147.982 123.431,153.014Z" fill="#E0E0E0"/>
<g opacity="0.21">
<path d="M129.348,154.647C131.253,152.743 131.457,150.77 131.321,149.614C131.049,149.274 130.913,149.07 130.913,149.07C130.913,149.07 127.648,147.982 123.5,153.083C123.5,153.083 121.732,155.259 123.16,156.687C123.296,156.755 123.364,156.891 123.432,156.959C124.86,156.959 127.376,156.551 129.348,154.647Z" fill="#263238"/>
</g>
<path d="M122.82,151.791L124.86,154.715C124.86,154.715 127.036,154.783 128.26,153.219C129.552,151.655 128.94,151.111 128.94,151.111L126.832,148.118C126.832,148.118 124.656,148.594 123.296,150.023C122.004,151.383 122.82,151.791 122.82,151.791Z" fill="#E0E0E0"/>
<path d="M154.715,152.879C154.715,152.879 156.619,154.239 157.707,152.947C158.863,151.722 160.019,149.138 157.163,146.214C154.375,143.289 150.906,146.962 150.906,146.962C150.906,146.962 150.294,149.75 154.715,152.879Z" fill="#E0E0E0"/>
<g opacity="0.21">
<path d="M155.668,147.914C154.512,146.826 152.947,146.35 151.383,146.554C151.111,146.758 150.975,146.962 150.975,146.962C150.975,146.962 150.295,149.75 154.716,152.879C154.716,152.879 156.62,154.239 157.708,152.947C157.776,152.879 157.844,152.743 157.912,152.675C157.844,150.906 157.028,149.138 155.668,147.914Z" fill="#263238"/>
</g>
<path d="M153.695,153.491L156.007,151.587C155.939,150.499 155.395,149.547 154.511,148.867C153.151,147.914 152.743,148.39 152.743,148.39L150.362,150.295C150.702,151.383 151.314,152.335 152.13,153.083C153.423,154.171 153.695,153.491 153.695,153.491Z" fill="#E0E0E0"/>
<path d="M143.698,176.273C143.698,176.273 138.869,178.177 135.673,172.125C132.477,166.004 132.953,160.359 137.305,159.067C141.658,157.775 143.086,159.951 143.97,161.515C144.854,163.08 147.03,166.616 147.37,169.812C147.642,171.512 146.622,175.321 143.698,176.273Z" fill="#AE7461"/>
<g opacity="0.3">
<path d="M143.629,174.505C144.581,174.097 145.33,173.349 145.806,172.465L145.874,172.329C145.942,172.261 145.942,172.193 146.01,172.057C146.282,171.241 146.35,170.425 146.214,169.541C146.146,169.065 146.01,168.521 145.874,168.113C145.67,167.636 145.33,167.296 144.854,167.024C144.309,166.82 143.765,166.888 143.289,167.16C142.813,167.432 142.473,167.908 142.269,168.385C142.065,168.861 141.997,169.337 141.793,169.881C141.657,170.357 141.317,170.765 140.841,171.037C140.433,171.241 140.025,171.173 139.617,171.309C138.937,171.581 138.529,172.329 138.733,173.077C138.937,173.757 139.549,174.233 140.229,174.437C141.317,174.981 142.541,174.981 143.629,174.505Z" fill="#6F4439"/>
</g>
<g opacity="0.3">
<path d="M138.733,159.679C137.713,159.815 136.761,160.291 136.081,161.039L136.013,161.107C135.945,161.175 135.877,161.243 135.809,161.311C135.333,161.991 134.993,162.807 134.925,163.624C134.857,164.1 134.789,164.644 134.857,165.12C134.925,165.596 135.129,166.072 135.537,166.412C136.013,166.752 136.557,166.888 137.101,166.684C137.645,166.548 138.121,166.208 138.461,165.732C138.801,165.324 139.005,164.848 139.277,164.44C139.549,164.032 140.025,163.692 140.501,163.556C140.909,163.488 141.317,163.624 141.794,163.624C142.542,163.556 143.154,162.943 143.154,162.127C143.154,161.447 142.678,160.835 142.134,160.427C141.113,159.815 139.889,159.543 138.733,159.679Z" fill="#6F4439"/>
</g>
<g opacity="0.3">
<path d="M139.481,167.636C139.277,167.636 139.073,167.704 138.937,167.772L137.849,168.18C137.577,168.248 137.237,168.384 137.169,168.724C137.101,168.928 137.169,169.132 137.373,169.268C137.509,169.404 137.713,169.404 137.917,169.336L137.849,169.336C138.461,169.336 139.005,169.132 139.549,168.792C139.685,168.724 139.821,168.588 139.889,168.452C139.957,168.316 140.025,168.112 139.957,167.976C139.889,167.772 139.685,167.636 139.481,167.636Z" fill="#6F4439"/>
</g>
<path d="M134.857,161.992C134.857,161.992 134.721,162.332 134.585,162.944C134.177,164.508 134.245,166.072 134.721,167.636C134.925,168.248 135.061,168.588 135.061,168.588C134.993,168.52 134.993,168.452 134.925,168.384C134.789,168.18 134.721,167.908 134.653,167.704C134.109,166.14 134.109,164.508 134.517,162.944C134.585,162.74 134.653,162.468 134.789,162.264C134.721,162.128 134.789,162.06 134.857,161.992Z" fill="#FFFFFF"/>
<path d="M136.149,160.359C136.149,160.359 136.013,160.563 135.809,160.767C135.605,160.971 135.401,161.107 135.401,161.107C135.333,161.107 135.537,160.903 135.741,160.699C135.945,160.427 136.081,160.291 136.149,160.359Z" fill="#FFFFFF"/>
<path d="M137.304,173.145C136.828,172.873 136.488,172.397 136.42,171.921C136.556,172.125 136.76,172.329 136.828,172.533C137.032,172.669 137.168,172.873 137.304,173.145Z" fill="#FFFFFF"/>
<path d="M149.954,129.824C149.954,129.824 146.214,128.056 147.982,122.819C149.818,117.583 153.423,114.726 156.551,116.562C159.747,118.399 159.203,120.439 158.795,121.867C158.387,123.227 157.503,126.424 155.803,128.464C154.851,129.552 152.063,131.048 149.954,129.824Z" fill="#AE7461"/>
<g opacity="0.3">
<path d="M150.907,128.804C151.655,129.144 152.539,129.144 153.287,128.94L153.423,128.94C153.491,128.94 153.559,128.872 153.627,128.872C154.239,128.6 154.783,128.192 155.191,127.648C155.463,127.375 155.667,126.967 155.871,126.627C156.007,126.287 156.075,125.811 155.939,125.471C155.735,125.063 155.395,124.723 154.987,124.655C154.579,124.519 154.103,124.587 153.695,124.723C153.287,124.859 152.947,125.131 152.607,125.267C152.267,125.471 151.791,125.471 151.383,125.335C151.043,125.199 150.839,124.927 150.498,124.791C149.954,124.519 149.274,124.723 148.934,125.267C148.662,125.743 148.73,126.355 148.934,126.899C149.342,127.716 150.022,128.464 150.907,128.804Z" fill="#6F4439"/>
</g>
<g opacity="0.3">
<path d="M156.891,117.787C156.279,117.242 155.463,116.97 154.647,116.97L154.511,116.97C154.443,116.97 154.375,116.97 154.307,116.97C153.627,117.038 153.015,117.311 152.471,117.719C152.131,117.923 151.859,118.195 151.587,118.535C151.315,118.875 151.179,119.215 151.179,119.623C151.247,120.099 151.519,120.439 151.859,120.711C152.267,120.915 152.675,121.051 153.151,120.983C153.559,120.983 153.967,120.847 154.375,120.779C154.783,120.711 155.191,120.779 155.531,121.051C155.803,121.255 155.939,121.595 156.211,121.799C156.687,122.207 157.367,122.207 157.843,121.799C158.251,121.391 158.319,120.779 158.319,120.235C158.115,119.283 157.639,118.399 156.891,117.787Z" fill="#6F4439"/>
</g>
<g opacity="0.3">
<path d="M152.674,122.615C152.538,122.479 152.47,122.411 152.266,122.343L151.45,121.935C151.246,121.799 150.974,121.731 150.77,121.799C150.634,121.867 150.566,122.003 150.566,122.207C150.566,122.343 150.702,122.479 150.838,122.615C151.178,122.955 151.586,123.227 152.062,123.295C152.198,123.363 152.334,123.363 152.47,123.295C152.606,123.295 152.742,123.159 152.81,123.091C152.81,122.887 152.742,122.751 152.674,122.615Z" fill="#6F4439"/>
</g>
<path d="M153.423,116.766C153.423,116.766 153.151,116.902 152.742,117.106C151.654,117.718 150.702,118.67 150.09,119.758C149.818,120.166 149.75,120.439 149.682,120.439C149.682,120.371 149.682,120.302 149.75,120.234C149.818,120.03 149.886,119.894 150.022,119.69C150.634,118.534 151.586,117.582 152.742,117.038C152.946,116.97 153.082,116.902 153.287,116.834C153.287,116.766 153.355,116.766 153.423,116.766Z" fill="#FFFFFF"/>
<path d="M155.055,116.63C155.055,116.63 154.851,116.698 154.647,116.698C154.443,116.698 154.239,116.698 154.239,116.63C154.239,116.562 154.443,116.562 154.647,116.562C154.919,116.562 155.055,116.562 155.055,116.63Z" fill="#FFFFFF"/>
<path d="M148.255,124.315C148.187,123.907 148.254,123.431 148.459,123.091C148.459,123.295 148.391,123.499 148.323,123.703C148.323,123.907 148.255,124.111 148.255,124.315Z" fill="#FFFFFF"/>
<path d="M134.245,130.096C132.068,131.252 129.28,130.436 128.124,128.26C126.968,126.084 127.784,123.295 129.96,122.139C132.136,120.983 134.925,121.799 136.081,123.975C137.305,126.084 136.489,128.872 134.245,130.096Z" fill="#FF9A6C"/>
<g opacity="0.5">
<path d="M134.245,130.096C132.068,131.252 129.28,130.436 128.124,128.26C126.968,126.084 127.784,123.295 129.96,122.139C132.136,120.983 134.925,121.799 136.081,123.975C137.305,126.084 136.489,128.872 134.245,130.096Z" fill="#FF725E"/>
</g>
<path d="M133.837,129.28C131.661,130.436 128.872,129.62 127.716,127.444C126.56,125.267 127.376,122.479 129.552,121.323C131.729,120.167 134.517,120.983 135.673,123.159C136.829,125.335 136.013,128.056 133.837,129.28Z" fill="#FF9A6C"/>
<g opacity="0.3">
<path d="M132.952,127.715C131.66,128.396 130.096,127.919 129.348,126.627C128.668,125.335 129.144,123.771 130.436,123.023C131.728,122.343 133.292,122.819 134.04,124.111C134.72,125.403 134.244,126.967 132.952,127.715Z" fill="#FFFFFF"/>
</g>
<path d="M132.477,126.832C131.184,127.104 130.164,126.764 130.164,126.152C129.688,125.336 130.028,124.316 130.844,123.84C131.661,123.364 132.681,123.704 133.157,124.52C133.633,125.336 133.293,126.356 132.477,126.832Z" fill="#FF9A6C"/>
<path d="M158.592,132.68C160.564,131.66 163.012,132.544 164.032,134.516C165.052,136.489 164.168,138.937 162.196,139.957C160.224,140.977 157.776,140.093 156.756,138.121C155.735,136.081 156.552,133.632 158.592,132.68Z" fill="#FF9A6C"/>
<g opacity="0.5">
<path d="M158.592,132.68C160.564,131.66 163.012,132.544 164.032,134.516C165.052,136.489 164.168,138.937 162.196,139.957C160.224,140.977 157.776,140.093 156.756,138.121C155.735,136.081 156.552,133.632 158.592,132.68Z" fill="#FF725E"/>
</g>
<path d="M161.924,139.141C159.952,140.229 157.503,139.481 156.483,137.509C155.395,135.537 156.143,133.088 158.115,132.068C160.088,131.048 162.468,131.728 163.556,133.701C164.644,135.673 163.896,138.121 161.924,139.141Z" fill="#FF9A6C"/>
<g opacity="0.3">
<path d="M157.776,134.992C158.116,133.768 159.476,133.02 160.7,133.428C161.924,133.768 162.672,135.128 162.264,136.353C161.924,137.577 160.564,138.325 159.34,137.917C158.116,137.509 157.368,136.217 157.776,134.992Z" fill="#FFFFFF"/>
</g>
<path d="M160.699,136.965C159.951,137.373 159.067,137.101 158.659,136.353C158.251,135.604 158.523,134.72 159.271,134.312C160.019,133.904 160.904,134.176 161.312,134.924C161.72,135.672 161.448,136.557 160.699,136.965Z" fill="#FF9A6C"/>
<path d="M121.595,161.244C121.391,163.42 122.207,165.528 123.84,167.024C125.336,168.452 127.512,169.064 129.552,168.656C129.756,164.712 126.696,161.448 122.819,161.244C122.343,161.176 121.935,161.244 121.595,161.244Z" fill="#455A64"/>
<path d="M123.363,162.74C123.431,162.672 124.655,164.304 126.424,166.004C128.192,167.704 129.824,168.861 129.756,168.929C129.348,168.724 129.008,168.52 128.6,168.248C126.9,167.024 125.335,165.528 124.043,163.828C123.771,163.488 123.499,163.148 123.363,162.74Z" fill="#263238"/>
<path d="M136.285,107.585C134.857,109.217 134.245,111.394 134.653,113.502C134.993,115.542 136.353,117.31 138.257,118.194C140.774,115.134 140.298,110.714 137.237,108.197C136.897,107.993 136.557,107.789 136.285,107.585Z" fill="#455A64"/>
<path d="M136.761,109.83C136.829,109.83 136.897,111.802 137.305,114.25C137.713,116.699 138.325,118.603 138.257,118.603C138.053,118.195 137.849,117.787 137.781,117.379C137.169,115.338 136.761,113.23 136.761,111.122C136.693,110.714 136.693,110.306 136.761,109.83Z" fill="#263238"/>
<path d="M178.449,145.874C176.205,144.173 173.349,143.561 170.629,144.309C167.976,144.989 165.868,146.894 164.916,149.41C169.064,152.334 174.845,151.314 177.701,147.098C177.973,146.758 178.245,146.35 178.449,145.874Z" fill="#455A64"/>
<path d="M175.593,146.826C175.593,146.962 173.009,147.166 169.949,147.914C166.888,148.73 164.44,149.682 164.44,149.546C164.916,149.206 165.46,149.002 166.004,148.798C167.296,148.254 168.588,147.846 169.949,147.506C171.309,147.166 172.601,146.894 174.029,146.758C174.437,146.758 175.049,146.758 175.593,146.826Z" fill="#263238"/>
<path d="M132.817,142.202C132.817,143.154 131.321,143.902 129.484,143.902C127.648,143.902 126.152,143.086 126.152,142.134C126.084,142.474 126.084,142.882 126.152,143.222C126.152,144.174 127.58,144.99 129.416,145.058C131.253,145.126 132.749,144.31 132.749,143.358C132.817,142.95 132.817,142.542 132.817,142.202Z" fill="#455A64"/>
<path d="M129.484,141.522C130.98,141.522 132.204,142.066 132.612,142.746C132.748,142.61 132.816,142.406 132.816,142.202C132.816,141.25 131.388,140.433 129.552,140.365C127.715,140.365 126.219,141.114 126.219,142.066C126.219,142.27 126.287,142.474 126.355,142.61C126.763,141.93 127.987,141.454 129.484,141.522Z" fill="#263238"/>
<path d="M152.403,133.564C152.811,133.904 152.539,134.857 151.858,135.537C151.178,136.285 150.294,136.557 149.886,136.217C150.022,136.353 150.158,136.489 150.294,136.625C150.702,136.965 151.586,136.693 152.266,135.945C152.947,135.197 153.219,134.313 152.811,133.973C152.675,133.836 152.539,133.7 152.403,133.564Z" fill="#455A64"/>
<path d="M150.839,134.653C151.383,134.04 152.063,133.768 152.539,133.836C152.539,133.7 152.471,133.632 152.403,133.564C151.995,133.224 151.111,133.496 150.431,134.244C149.751,134.993 149.479,135.877 149.887,136.217C149.955,136.285 150.091,136.353 150.159,136.353C150.023,135.945 150.295,135.265 150.839,134.653Z" fill="#263238"/>
<path d="M157.503,99.221C157.775,99.969 156.822,100.989 155.394,101.465C153.966,101.941 152.606,101.737 152.334,100.989C152.402,101.261 152.538,101.601 152.606,101.873C152.878,102.621 154.238,102.825 155.666,102.349C157.095,101.873 158.047,100.853 157.775,100.105C157.707,99.833 157.639,99.493 157.503,99.221Z" fill="#455A64"/>
<path d="M154.783,99.629C155.939,99.221 157.027,99.289 157.571,99.697C157.639,99.561 157.639,99.357 157.571,99.221C157.299,98.473 155.939,98.269 154.511,98.745C153.082,99.221 152.13,100.241 152.402,100.989C152.47,101.125 152.538,101.261 152.674,101.397C152.81,100.717 153.627,100.037 154.783,99.629Z" fill="#263238"/>
<path d="M160.427,154.851L151.042,162.467C150.77,162.671 150.702,163.147 150.906,163.419C151.518,164.304 152.47,165.12 153.763,165.868C160.563,169.608 164.848,162.603 163.896,158.455C163.624,157.163 162.671,155.803 161.311,154.851C161.039,154.647 160.699,154.647 160.427,154.851Z" fill="#FF725E"/>
<g opacity="0.3">
<path d="M160.427,154.851L151.042,162.467C150.77,162.671 150.702,163.147 150.906,163.419C151.518,164.304 152.47,165.12 153.763,165.868C160.563,169.608 164.848,162.603 163.896,158.455C163.624,157.163 162.671,155.803 161.311,154.851C161.039,154.647 160.699,154.647 160.427,154.851Z" fill="#000000"/>
</g>
<path d="M159.951,154.375L150.566,161.992C150.294,162.196 150.226,162.672 150.43,162.944C151.042,163.828 151.994,164.644 153.286,165.392C160.087,169.132 164.372,162.128 163.42,157.979C163.148,156.687 162.195,155.327 160.835,154.375C160.495,154.171 160.155,154.171 159.951,154.375Z" fill="#FF725E"/>
<g opacity="0.3">
<path d="M159.136,155.327C159.408,154.987 162.468,156.075 162.468,158.659C162.468,161.243 161.72,163.148 160.632,163.216C159.476,163.284 158.047,161.175 158.047,159.271C157.911,157.299 158.863,155.735 159.136,155.327Z" fill="#000000"/>
</g>
<g opacity="0.3">
<path d="M151.518,161.856C151.518,161.38 154.103,159.951 155.871,160.292C157.571,160.632 159.543,163.42 159.475,164.236C159.407,164.984 156.211,165.46 154.579,164.916C152.947,164.304 151.45,162.604 151.518,161.856Z" fill="#000000"/>
</g>
<path d="M154.647,161.04C154.443,160.836 152.471,162.128 152.879,162.604C153.355,163.08 155.055,161.516 154.647,161.04Z" fill="#FF725E"/>
<path d="M157.163,162.127C157.435,162.059 158.387,164.168 157.707,164.168C156.959,164.236 156.891,162.195 157.163,162.127Z" fill="#FF725E"/>
<path d="M156.007,161.516C156.347,161.584 156.007,164.372 155.123,164.236C154.171,164.168 155.667,161.448 156.007,161.516Z" fill="#FF725E"/>
<path d="M158.999,158.319C158.863,157.775 161.379,157.163 161.447,157.707C161.515,158.319 159.271,159.067 158.999,158.319Z" fill="#FF725E"/>
<path d="M158.999,157.299C159.271,157.503 160.563,156.483 160.223,156.143C159.815,155.871 158.727,157.095 158.999,157.299Z" fill="#FF725E"/>
<path d="M158.863,159.407C158.863,159.611 161.108,160.155 161.04,159.679C160.972,159.271 158.931,158.863 158.863,159.407Z" fill="#FF725E"/>
<path d="M158.591,160.291C158.319,160.7 159.747,162.196 160.087,161.924C160.427,161.584 158.931,159.747 158.591,160.291Z" fill="#FF725E"/>
<path d="M158.047,156.211C158.047,156.211 157.979,156.279 157.911,156.415C157.775,156.551 157.639,156.687 157.435,156.891C157.027,157.299 156.483,157.843 155.871,158.319C155.191,158.863 154.578,159.339 154.17,159.611C153.966,159.747 153.762,159.883 153.626,159.951C153.762,159.883 153.966,159.747 154.17,159.543C154.646,159.203 155.259,158.727 155.871,158.251C156.551,157.707 157.095,157.163 157.503,156.823C157.707,156.619 157.843,156.483 157.979,156.347C157.979,156.279 158.047,156.211 158.047,156.211Z" fill="#FFFFFF"/>
<path d="M69.025,100.581C69.025,100.581 78.478,108.13 81.539,112.822C84.531,117.515 108.674,133.905 108.334,134.517C107.994,135.129 93.576,158.863 93.576,158.863L85.551,154.851L69.025,101.465Z" fill="#D96846"/>
<path d="M35.362,188.446C35.362,188.446 17.408,216.805 15.572,227.618L35.362,235.711L35.362,188.446Z" fill="#989980"/>
<path d="M23.393,96.636C23.393,97.316 19.992,106.293 19.992,106.293L2.378,125.675L36.45,181.101L39.85,189.466L92.284,186.406C92.284,186.406 84.803,146.622 84.259,140.093C83.715,133.496 69.094,100.513 69.094,100.513L51.48,102.485L46.311,100.717L23.393,96.636Z" fill="#D96846"/>
<path d="M34.274,188.718C33.594,188.446 30.193,199.871 24.345,220.818C18.496,241.764 22.509,284.541 22.509,284.541L112.89,284.541C112.89,284.541 106.906,237.207 99.085,214.153C91.4,191.438 91.808,177.157 90.04,177.293C88.408,177.429 34.274,188.718 34.274,188.718Z" fill="#596235"/>
<path d="M86.843,156.755C86.843,156.755 86.843,156.687 86.775,156.619C86.775,156.483 86.707,156.347 86.707,156.143C86.639,155.735 86.503,155.191 86.299,154.375C85.959,152.879 85.415,150.702 84.531,148.118C83.647,145.534 82.491,142.405 80.79,139.209C79.022,136.013 76.778,132.68 74.33,129.28C69.365,122.479 64.061,116.971 59.98,113.298C57.94,111.462 56.172,110.102 54.948,109.15C54.336,108.742 53.86,108.334 53.52,108.13C53.383,107.994 53.247,107.926 53.179,107.858C53.111,107.79 53.043,107.79 53.043,107.722C53.043,107.722 53.111,107.722 53.179,107.79C53.315,107.858 53.383,107.926 53.588,108.062C53.928,108.334 54.472,108.606 55.084,109.082C56.308,109.966 58.144,111.326 60.184,113.162C64.333,116.767 69.637,122.343 74.67,129.144C77.186,132.544 79.362,135.877 81.198,139.073C82.899,142.337 84.055,145.398 84.939,148.05C85.823,150.702 86.299,152.879 86.639,154.375C86.775,155.123 86.911,155.735 86.979,156.143C86.979,156.347 87.047,156.483 87.047,156.619C86.843,156.687 86.843,156.755 86.843,156.755Z" fill="#263238"/>
<path d="M2.378,125.676C2.378,125.676 -0.954,129.484 0.27,138.189C1.494,146.826 15.572,185.998 15.572,185.998L46.447,175.593L30.125,143.085L18.768,128.872L2.378,125.676Z" fill="#D96846"/>
<path d="M85.619,148.458C85.619,148.458 85.551,148.322 85.483,148.186C85.415,147.914 85.347,147.642 85.211,147.302C85.007,146.486 84.667,145.398 84.327,144.038C83.579,141.249 82.491,137.441 81.13,133.293C79.77,129.144 78.342,125.404 77.322,122.751C76.778,121.459 76.37,120.371 76.098,119.623C75.962,119.283 75.826,119.011 75.758,118.739C75.69,118.535 75.622,118.467 75.69,118.399C75.69,118.399 75.758,118.467 75.826,118.671C75.962,118.875 76.098,119.147 76.234,119.487C76.574,120.235 77.05,121.255 77.594,122.615C78.682,125.268 80.11,128.94 81.538,133.157C82.899,137.305 83.987,141.113 84.667,143.902C85.007,145.262 85.279,146.418 85.415,147.234C85.483,147.574 85.551,147.914 85.619,148.118C85.619,148.322 85.619,148.458 85.619,148.458Z" fill="#263238"/>
<path d="M15.572,185.998C15.572,185.998 15.64,185.998 15.708,185.93C15.844,185.862 15.98,185.862 16.116,185.794C16.524,185.658 17.068,185.454 17.816,185.182C19.312,184.638 21.488,183.958 24.141,183.005C29.581,181.169 37.334,178.517 46.311,175.457L46.243,175.661C43.591,170.492 40.735,164.779 37.674,158.795C36.042,155.598 34.478,152.538 32.982,149.546C32.234,148.05 31.418,146.622 30.602,145.193C29.785,143.765 29.037,142.405 28.221,141.113C26.657,138.461 25.093,136.012 23.461,133.836C22.645,132.748 21.761,131.728 20.876,130.844C19.992,129.96 18.972,129.212 18.02,128.6C16.048,127.375 14.076,126.627 12.307,126.219C10.539,125.743 8.907,125.607 7.615,125.607C6.323,125.607 5.303,125.743 4.623,125.811C4.283,125.879 4.011,125.879 3.875,125.947C3.671,125.947 3.603,126.015 3.603,125.947C3.603,125.947 3.671,125.947 3.875,125.879C4.079,125.811 4.351,125.811 4.623,125.743C5.303,125.675 6.323,125.471 7.615,125.471C8.907,125.471 10.539,125.607 12.307,126.015C14.144,126.423 16.116,127.171 18.156,128.396C19.176,129.008 20.196,129.756 21.08,130.64C21.965,131.524 22.849,132.544 23.733,133.632C25.365,135.808 26.997,138.325 28.561,140.977C29.377,142.269 30.125,143.697 30.942,145.057C31.758,146.485 32.574,147.846 33.322,149.41C34.818,152.402 36.382,155.462 38.014,158.659C41.007,164.643 43.931,170.356 46.583,175.525L46.651,175.729L46.447,175.797C37.402,178.789 29.717,181.373 24.209,183.209C21.488,184.094 19.312,184.842 17.816,185.318C17.068,185.522 16.524,185.726 16.116,185.862C15.912,185.93 15.776,185.93 15.708,185.998C15.64,185.998 15.572,185.998 15.572,185.998Z" fill="#263238"/>
<path d="M44.815,118.943C44.747,119.011 39.239,116.223 32.438,112.754C25.637,109.218 20.128,106.362 20.196,106.226C20.264,106.158 25.773,108.946 32.574,112.414C39.375,115.951 44.815,118.807 44.815,118.943Z" fill="#263238"/>
<path d="M51.48,102.961C51.548,102.961 51.888,105.885 52.16,109.49C52.432,113.094 52.568,116.086 52.5,116.086C52.432,116.086 52.092,113.162 51.82,109.558C51.548,105.953 51.412,102.961 51.48,102.961Z" fill="#263238"/>
<path d="M59.709,115.203C59.709,115.203 59.641,115.203 59.505,115.271C59.369,115.339 59.097,115.407 58.893,115.475C58.348,115.679 57.464,115.951 56.444,116.291C54.336,117.039 51.208,118.127 47.467,119.691C43.727,121.255 39.306,123.228 34.478,125.54C33.254,126.152 31.961,126.56 30.805,127.308C30.261,127.716 29.717,128.192 29.513,128.804C29.309,129.416 29.377,130.164 29.649,130.776C30.193,132.069 31.349,133.089 32.37,134.177C32.914,134.721 33.39,135.265 33.934,135.877C34.41,136.489 34.954,137.033 35.43,137.645C37.402,140.026 39.238,142.474 40.87,144.854C42.503,147.234 43.999,149.683 45.359,151.995C48.079,156.619 50.256,160.904 52.024,164.576C53.792,168.249 55.152,171.241 56.036,173.281C56.444,174.301 56.852,175.117 57.056,175.661C57.192,175.933 57.26,176.137 57.328,176.273C57.396,176.409 57.396,176.477 57.396,176.477C57.396,176.477 57.328,176.409 57.26,176.273C57.192,176.137 57.124,175.933 56.988,175.661C56.716,175.117 56.376,174.301 55.9,173.281C54.948,171.241 53.588,168.249 51.752,164.644C49.984,161.04 47.739,156.755 45.019,152.131C43.659,149.819 42.163,147.438 40.53,145.058C38.898,142.61 37.062,140.23 35.158,137.849C34.682,137.237 34.138,136.693 33.662,136.081C33.118,135.537 32.642,134.993 32.098,134.449C31.077,133.361 29.921,132.341 29.309,130.912C29.037,130.232 28.901,129.416 29.173,128.668C29.377,127.92 29.989,127.376 30.601,126.968C31.825,126.152 33.118,125.744 34.342,125.2C39.17,122.888 43.591,120.983 47.331,119.419C51.072,117.923 54.2,116.767 56.308,116.087C57.396,115.747 58.212,115.475 58.825,115.339C59.097,115.271 59.301,115.203 59.505,115.135C59.641,115.203 59.709,115.203 59.709,115.203Z" fill="#263238"/>
<g opacity="0.3">
<path d="M44.951,139.549C46.266,139.549 47.331,138.483 47.331,137.169C47.331,135.854 46.266,134.789 44.951,134.789C43.636,134.789 42.571,135.854 42.571,137.169C42.571,138.483 43.636,139.549 44.951,139.549Z" fill="#000000"/>
</g>
<g opacity="0.3">
<path d="M67.053,130.368C68.368,130.368 69.433,129.303 69.433,127.988C69.433,126.673 68.368,125.608 67.053,125.608C65.739,125.608 64.673,126.673 64.673,127.988C64.673,129.303 65.739,130.368 67.053,130.368Z" fill="#000000"/>
</g>
<g opacity="0.3">
<path d="M59.709,160.019C59.709,161.312 58.621,162.4 57.329,162.4C56.036,162.4 54.948,161.312 54.948,160.019C54.948,158.727 56.036,157.639 57.329,157.639C58.689,157.639 59.709,158.727 59.709,160.019Z" fill="#000000"/>
</g>
<g opacity="0.3">
<path d="M79.227,154.918C80.542,154.918 81.607,153.853 81.607,152.538C81.607,151.223 80.542,150.158 79.227,150.158C77.912,150.158 76.847,151.223 76.847,152.538C76.847,153.853 77.912,154.918 79.227,154.918Z" fill="#000000"/>
</g>
<path d="M95.752,189.262C95.82,189.194 96.5,189.398 97.384,189.67C98.269,189.942 98.949,190.078 98.949,190.146C98.949,190.214 98.201,190.214 97.248,190.01C96.364,189.738 95.684,189.33 95.752,189.262Z" fill="#FF9A6C"/>
<path d="M20.468,184.366C20.604,184.978 30.533,199.056 38.49,199.056C46.447,199.056 85.551,187.29 85.551,187.29L80.995,175.185L41.823,181.102L39.918,177.837L20.468,184.366Z" fill="#FFBF9D"/>
<path d="M80.995,175.185C81.199,175.049 88.475,171.853 92.488,170.969C96.5,170.085 99.153,170.425 101.737,171.853C104.389,173.281 110.17,174.845 111.462,176.137C112.414,177.09 111.53,178.79 109.762,178.654C107.994,178.45 101.125,176.954 100.989,176.954C100.989,176.954 100.921,177.022 100.853,177.158C100.513,178.042 100.785,178.994 101.465,179.674L106.089,184.026C106.089,184.026 106.157,185.999 104.865,186.339C103.573,186.679 102.553,187.223 102.553,187.223C102.553,187.223 102.009,189.875 99.969,190.079C97.928,190.283 91.808,188.311 91.468,188.311C91.196,188.243 85.415,187.359 85.415,187.359L80.995,175.185Z" fill="#FFBF9D"/>
<path d="M98.064,186.202C98.132,186.134 99.085,186.474 100.377,186.814C101.601,187.154 102.689,187.29 102.689,187.426C102.689,187.494 101.601,187.563 100.309,187.154C98.949,186.814 97.996,186.27 98.064,186.202Z" fill="#FF9A6C"/>
<path d="M89.359,187.563C91.536,188.583 93.78,189.603 95.956,190.623C96.432,190.827 96.908,191.099 97.452,190.963C98.2,190.827 98.608,190.011 98.948,189.331Z" fill="#FFBF9D"/>
<path d="M25.025,41.89C31.825,36.654 38.762,35.701 47.467,35.837C52.364,35.905 53.18,33.117 56.648,34.137C60.184,35.225 63.313,37.198 65.353,40.258C67.733,43.862 69.706,47.943 70.046,52.227C70.386,56.648 70.726,61.136 70.25,65.557C70.25,65.625 70.25,65.625 70.25,65.693C69.502,72.629 63.993,78.206 57.056,79.158L54.268,79.566C48.011,79.566 41.618,79.566 35.566,77.934C29.513,76.302 26.657,92.556 24.345,86.775C16.592,67.189 18.088,47.195 25.025,41.89Z" fill="#263238"/>
<path d="M50.187,37.742L45.631,37.062L27.949,43.455C25.433,43.523 23.392,45.495 23.188,48.011L24.549,97.045L46.311,110.782L46.311,118.263L51.888,116.427L49.303,110.034C49.303,105.409 49.303,99.561 49.303,99.561C49.303,99.561 61.001,98.813 64.401,85.211C66.101,78.479 66.713,67.189 66.917,58.008C67.189,49.643 60.456,38.15 50.187,37.742Z" fill="#FFBF9D"/>
<path d="M60.388,69.229C60.32,70.181 59.504,70.861 58.552,70.861C57.6,70.861 56.852,70.045 56.852,69.093C56.92,68.141 57.736,67.393 58.688,67.461C59.708,67.529 60.456,68.345 60.388,69.229Z" fill="#263238"/>
<path d="M63.721,62.496C63.449,62.701 62.224,61.612 60.32,61.408C58.416,61.204 56.92,62.088 56.784,61.816C56.716,61.68 56.92,61.34 57.6,60.932C58.212,60.524 59.3,60.184 60.456,60.32C61.612,60.456 62.564,60.932 63.109,61.476C63.653,61.952 63.789,62.36 63.721,62.496Z" fill="#263238"/>
<path d="M51.003,76.982C51.003,76.846 52.228,76.778 54.132,76.71C54.608,76.71 55.084,76.642 55.22,76.302C55.356,75.962 55.22,75.418 55.016,74.806C54.676,73.582 54.268,72.29 53.928,70.998C52.364,65.557 51.343,61.136 51.547,61.068C51.751,61 53.18,65.353 54.744,70.793C55.084,72.154 55.492,73.378 55.764,74.602C55.9,75.146 56.172,75.826 55.832,76.506C55.696,76.846 55.288,77.118 54.948,77.118C54.608,77.186 54.336,77.186 54.132,77.186C52.16,77.186 51.003,77.118 51.003,76.982Z" fill="#263238"/>
<path d="M49.371,99.492C49.371,99.492 40.054,99.288 31.349,92.964C31.349,92.964 35.43,102.961 49.303,102.825L49.371,99.492Z" fill="#FF9A6C"/>
<path d="M63.245,55.764C62.905,56.172 61.476,55.764 59.776,55.764C58.076,55.696 56.648,56.104 56.308,55.628C56.172,55.424 56.376,54.948 56.988,54.54C57.6,54.132 58.62,53.792 59.844,53.792C61,53.792 62.02,54.2 62.633,54.608C63.245,55.152 63.381,55.56 63.245,55.764Z" fill="#263238"/>
<path d="M39.238,67.869C39.17,68.821 39.85,69.637 40.87,69.705C41.822,69.773 42.706,69.161 42.774,68.209C42.842,67.257 42.094,66.441 41.142,66.373C40.19,66.305 39.374,66.985 39.238,67.869Z" fill="#263238"/>
<path d="M37.946,60.932C38.15,61.204 39.51,60.252 41.415,60.32C43.319,60.388 44.679,61.408 44.883,61.204C45.019,61.136 44.815,60.66 44.203,60.184C43.659,59.708 42.639,59.232 41.415,59.164C40.258,59.096 39.238,59.504 38.626,59.912C38.082,60.388 37.878,60.796 37.946,60.932Z" fill="#263238"/>
<path d="M39.306,54.88C39.646,55.356 41.142,54.948 42.91,55.016C44.678,55.016 46.175,55.492 46.515,55.016C46.651,54.812 46.447,54.336 45.835,53.928C45.223,53.52 44.134,53.112 42.91,53.044C41.686,53.044 40.598,53.384 39.986,53.792C39.374,54.2 39.17,54.608 39.306,54.88Z" fill="#263238"/>
<path d="M24.888,71.27C24.956,70.249 24.004,67.733 22.984,67.461C20.332,66.781 15.435,66.577 14.755,73.446C13.871,82.831 24.82,81.607 24.82,81.335C24.956,81.131 24.616,74.806 24.888,71.27Z" fill="#FFBF9D"/>
<path d="M21.284,77.866C21.216,77.866 21.08,77.934 20.808,78.07C20.536,78.138 20.06,78.206 19.584,78.002C18.632,77.526 17.952,75.894 18.02,74.194C18.088,73.31 18.36,72.562 18.7,71.882C19.04,71.202 19.516,70.794 20.06,70.726C20.536,70.658 20.876,70.998 21.012,71.27C21.08,71.542 21.012,71.746 21.08,71.746C21.08,71.746 21.284,71.61 21.284,71.202C21.284,70.998 21.148,70.794 20.944,70.59C20.74,70.386 20.4,70.25 20.06,70.25C19.312,70.25 18.632,70.862 18.224,71.542C17.816,72.222 17.476,73.174 17.408,74.126C17.272,76.03 18.088,77.866 19.38,78.41C19.992,78.614 20.604,78.478 20.876,78.274C21.284,78.07 21.352,77.866 21.284,77.866Z" fill="#FF9A6C"/>
<path d="M22.644,67.733L24.957,70.317C35.566,60.796 56.512,36.722 55.356,38.15C55.356,38.15 48.351,35.021 40.666,36.11C32.982,37.198 18.292,40.53 18.224,49.575C18.156,58.62 22.644,67.733 22.644,67.733Z" fill="#181818"/>
<path d="M67.529,45.903C66.713,44.135 67.597,42.095 69.093,40.803C70.589,39.51 72.562,38.898 74.466,38.286C76.37,37.742 78.342,37.13 79.974,35.974C83.103,33.662 83.919,29.445 83.511,25.705C82.695,18.564 78.002,12.103 71.814,7.955C65.625,3.807 58.076,1.698 50.459,1.086C34.681,-0.206 20.468,5.235 8.363,14.892C6.39,16.456 5.098,18.904 5.03,21.352C4.962,23.325 6.118,25.093 7.274,26.657C10.947,31.554 15.163,34.954 20.196,38.626L18.768,46.651L67.529,45.903Z" fill="#596235"/>
<path d="M78.955,22.304C78.955,22.304 78.819,22.509 78.479,22.917C78.139,23.257 77.595,23.733 76.915,24.277C76.234,24.821 75.282,25.365 74.33,25.977C73.31,26.589 72.222,27.201 71.134,28.017C70.046,28.765 69.026,29.581 68.278,30.465C67.529,31.349 66.985,32.234 66.645,33.05C65.965,34.682 66.101,35.838 66.033,35.77C66.033,35.77 65.965,35.498 65.965,35.022C65.965,34.546 66.101,33.798 66.441,32.982C66.781,32.166 67.325,31.213 68.074,30.329C68.822,29.445 69.842,28.561 70.998,27.813C72.154,27.065 73.242,26.385 74.262,25.841C75.282,25.229 76.166,24.685 76.915,24.209C78.207,23.053 78.955,22.236 78.955,22.304Z" fill="#263238"/>
<path d="M71.338,14.28C71.406,14.348 70.25,15.028 68.618,16.388C68.21,16.728 67.802,17.136 67.326,17.612C66.85,18.02 66.442,18.564 65.966,19.108C65.081,20.196 64.197,21.488 63.381,22.916C62.633,24.345 62.021,25.773 61.545,27.133C61.341,27.813 61.137,28.425 61.001,29.037C60.865,29.649 60.729,30.193 60.661,30.737C60.321,32.846 60.389,34.206 60.321,34.206C60.321,34.206 60.253,33.866 60.253,33.254C60.253,32.982 60.253,32.574 60.253,32.166C60.253,31.757 60.321,31.281 60.389,30.737C60.457,30.193 60.525,29.649 60.661,28.969C60.797,28.357 61.001,27.677 61.137,26.997C61.545,25.637 62.157,24.209 62.973,22.712C63.789,21.284 64.673,19.992 65.626,18.904C66.102,18.36 66.578,17.884 66.986,17.408C67.462,16.932 67.87,16.592 68.278,16.252C68.686,15.912 69.094,15.64 69.434,15.368C69.774,15.096 70.114,14.892 70.318,14.756C70.998,14.416 71.27,14.28 71.338,14.28Z" fill="#263238"/>
<path d="M53.588,10.607C53.588,10.607 53.588,10.947 53.52,11.491C53.452,12.035 53.384,12.851 53.316,13.871C53.18,15.843 53.044,18.632 53.18,21.624C53.316,24.684 53.588,27.405 53.86,29.377C53.996,30.329 54.132,31.145 54.2,31.689C54.268,32.233 54.336,32.573 54.336,32.573C54.336,32.573 54.2,32.301 54.064,31.757C53.928,31.213 53.792,30.397 53.588,29.445C53.248,27.473 52.908,24.752 52.772,21.692C52.636,18.632 52.84,15.843 53.044,13.871C53.18,12.851 53.248,12.103 53.384,11.559C53.52,10.947 53.588,10.607 53.588,10.607Z" fill="#263238"/>
<path d="M42.094,7.139C42.094,7.139 42.094,7.547 42.094,8.227C42.094,8.907 42.094,9.927 42.094,11.219C42.094,13.735 42.298,17.204 42.775,20.944C43.251,24.753 43.999,28.153 44.611,30.533C44.883,31.757 45.155,32.709 45.359,33.389C45.563,34.07 45.631,34.41 45.631,34.478C45.631,34.478 45.495,34.138 45.223,33.457C45.019,32.777 44.679,31.825 44.339,30.601C43.659,28.153 42.911,24.753 42.366,20.944C41.89,17.136 41.754,13.667 41.754,11.151C41.754,9.927 41.822,8.907 41.89,8.159C42.026,7.547 42.026,7.139 42.094,7.139Z" fill="#263238"/>
<path d="M20.264,15.096C20.264,15.096 20.536,15.368 21.012,15.844C21.488,16.32 22.1,17.068 22.848,17.952C24.345,19.788 26.385,22.373 28.425,25.365C30.465,28.357 32.097,31.213 33.254,33.254C33.798,34.274 34.274,35.158 34.546,35.77C34.818,36.382 34.954,36.722 34.954,36.722C34.954,36.722 34.75,36.45 34.41,35.838C34.07,35.226 33.594,34.41 33.05,33.39C31.893,31.349 30.193,28.561 28.153,25.569C26.113,22.577 24.141,19.992 22.644,18.156C21.964,17.272 21.352,16.524 20.876,15.98C20.468,15.436 20.264,15.164 20.264,15.096Z" fill="#263238"/>
<path d="M19.108,61.749C16.524,52.908 17.884,46.719 19.584,40.394C19.584,40.394 40.598,27.881 57.872,31.825C57.872,31.825 68.685,34.002 70.045,39.578L70.317,58.688C70.317,58.688 69.161,51.139 53.384,50.527C37.742,49.915 19.108,61.749 19.108,61.749Z" fill="#596235"/>
<path d="M42.912,81.539C43.048,80.926 43.456,80.382 43.932,80.042C44.884,79.362 46.176,79.362 47.128,80.11C48.012,80.858 48.488,82.219 48.216,83.511C47.604,84.191 46.788,84.667 45.836,84.667C45.7,84.667 45.564,84.667 45.428,84.667C44.748,84.599 44.068,84.327 43.592,83.783C43.048,83.171 42.776,82.355 42.912,81.539Z" fill="#FF9A6C"/>
<path d="M44.272,78.478C44.544,78.478 44.34,80.314 45.7,81.742C47.06,83.239 49.032,83.239 49.032,83.511C49.032,83.647 48.556,83.783 47.74,83.715C46.924,83.647 45.836,83.239 44.952,82.354C44.136,81.47 43.864,80.382 43.864,79.634C43.932,78.886 44.204,78.478 44.272,78.478Z" fill="#263238"/>
<path d="M69.637,39.646C69.637,39.646 69.501,39.51 69.365,39.17C69.297,39.034 69.161,38.83 69.025,38.558C68.889,38.354 68.685,38.082 68.549,37.81C67.733,36.722 66.305,35.294 64.129,34.138C61.952,32.982 59.096,32.098 55.9,31.69C52.703,31.213 49.099,31.213 45.359,31.69C43.522,31.962 41.686,32.302 39.986,32.778C38.286,33.254 36.654,33.798 35.09,34.274C32.029,35.294 29.241,36.382 26.997,37.266C24.684,38.218 22.848,38.966 21.624,39.51C21.012,39.782 20.536,39.986 20.196,40.122C19.856,40.258 19.652,40.326 19.652,40.326C19.652,40.326 19.788,40.258 20.128,40.054C20.468,39.85 20.944,39.646 21.556,39.374C22.78,38.762 24.616,37.946 26.929,36.994C29.241,36.042 31.961,34.954 35.022,33.934C36.586,33.39 38.218,32.846 39.918,32.37C41.618,31.894 43.454,31.554 45.359,31.281C49.099,30.805 52.771,30.873 55.968,31.281C59.232,31.758 62.088,32.642 64.265,33.866C66.441,35.022 67.937,36.518 68.685,37.674C68.889,37.946 69.025,38.218 69.161,38.49C69.297,38.694 69.365,38.966 69.433,39.102C69.569,39.442 69.637,39.646 69.637,39.646Z" fill="#263238"/>
</svg>
