<svg width="28" height="28" viewBox="0 0 28 28" fill="none" xmlns="http://www.w3.org/2000/svg" xmlns:xlink="http://www.w3.org/1999/xlink">
<path d="M14,6C11.878,6 9.843,6.844 8.343,8.346C6.843,9.848 6,11.886 6,14.01C6,18.126 9.115,21.571 13.205,21.981C13.194,21.726 13.177,21.452 13.15,21.26C12.829,18.9 12.372,16.539 11.603,14.286C10.599,11.345 8.47,8.419 8.47,8.419C8.47,8.419 9.518,8.875 9.987,9.257C10.693,9.831 11.328,10.726 11.813,11.514C13.135,13.663 14.072,18.308 14.072,18.308C14.072,18.308 15.11,15.487 15.767,14.138C16.351,12.94 17.179,11.765 17.835,10.696C17.443,10.647 17.104,10.969 16.779,11.241C16.334,11.614 15.63,12.845 15.63,12.845C15.63,12.845 15.726,11.417 15.887,10.951C16.123,10.268 16.608,9.68 17.166,9.389C17.565,9.18 19.389,8.864 20.026,8.757C18.51,7.009 16.312,6.004 14,6ZM20.8,9.801C20.695,10.607 20.494,11.696 20.133,12.239C19.89,12.604 19.235,12.914 18.84,13.103C18.203,13.409 17.22,13.452 17.22,13.452C17.22,13.452 16.248,15.22 15.914,16.168C15.262,18.024 14.814,20.065 14.579,21.918C14.576,21.945 14.573,21.973 14.569,22C18.756,21.701 22,18.213 22,14.01C21.998,12.523 21.582,11.065 20.8,9.801Z" fill="#227F0B"/>
<path d="M2,2L2,1L1,1L1,2L2,2ZM26,2L27,2L27,1L26,1L26,2ZM26,26L26,27L27,27L27,26L26,26ZM2,26L1,26L1,27L2,27L2,26ZM2,3L26,3L26,1L2,1L2,3ZM25,2L25,26L27,26L27,2L25,2ZM26,25L2,25L2,27L26,27L26,25ZM3,26L3,2L1,2L1,26L3,26Z" fill="#008200"/>
</svg>
