<svg width="42" height="44" viewBox="0 0 42 44" fill="none" xmlns="http://www.w3.org/2000/svg" xmlns:xlink="http://www.w3.org/1999/xlink">
<path d="M41.145,25.726C41.144,35.328 30.537,43.111 20.887,43.107C11.546,43.105 0.636,35.317 0.638,25.715C0.64,20.627 2.193,13.913 6.253,10.734C9.854,7.915 14.146,7.159 20.896,8.332C22.6,8.628 25.862,7.824 28.942,8.396C32.024,8.967 34.925,10.912 36.772,12.59C40.195,15.707 41.145,21.106 41.145,25.726Z" fill="#CE1417"/>
<path d="M25.577,11.727C25.577,11.727 23.2,8.215 21.789,9.652C21.129,10.323 23.115,10.583 24.376,11.602C26.05,12.961 26.616,13.026 25.577,11.727Z" fill="#C41316"/>
<path d="M15.973,9.426C15.973,9.426 20.296,7.705 22.206,9.891C23.099,10.912 19.986,9.914 17.851,10.061C15.015,10.257 14.126,9.965 15.973,9.426Z" fill="#C41316"/>
<path d="M23.579,1.92C23.995,2.718 22.184,2.896 22.099,3.631C21.635,7.631 22.19,10.013 22.19,10.013L20.802,10.013C20.802,10.013 21.127,4.973 20.896,3.631C20.786,2.992 20.457,2.301 20.365,1.931C20.272,1.561 21.591,0.395 22.007,0.395C22.422,0.395 22.747,1.135 23.302,1.782L23.579,1.92Z" fill="#468732"/>
<path d="M21.823,10.176C21.751,9.96 20.214,8.554 18.709,7.665C17.203,6.776 18.135,4.696 17.776,3.763C17.417,2.831 17.31,0.391 17.31,0.391C17.31,0.391 17.237,4.48 17.308,5.842C17.379,7.204 17.544,8.607 18.406,9.287C19.267,9.971 21.823,10.176 21.823,10.176Z" fill="#468732"/>
<path d="M20.953,9.347C20.953,9.347 21.263,6.847 23.021,6.201C24.779,5.553 25.136,4.703 25.49,3.805C26.507,1.216 36.157,0.107 36.157,0.107C36.157,0.107 26.781,2.725 25.519,6.293C25.047,7.625 22.93,9.445 22.19,10.011C21.45,10.577 20.953,9.347 20.953,9.347Z" fill="#468732"/>
<path d="M21.936,8.925C21.936,8.925 27.893,7.601 31.901,10.914C31.901,10.914 27.521,8.497 22.066,9.787C21.45,9.876 21.638,8.982 21.936,8.925Z" fill="#468732"/>
</svg>
