<svg width="40" height="44" viewBox="0 0 40 44" fill="none" xmlns="http://www.w3.org/2000/svg" xmlns:xlink="http://www.w3.org/1999/xlink">
<path d="M22.2,8L11.201,8C9.988,8 9.001,7.103 9.001,6L9.001,4C9.001,2.897 9.988,2 11.201,2L12.904,2C13.68,0.78 15.121,0 16.701,0C18.28,0 19.721,0.78 20.497,2L22.2,2C23.413,2 24.4,2.897 24.4,4L24.4,6C24.4,7.103 23.413,8 22.2,8Z" fill="#D96846"/>
<path d="M18.9,34.771C18.9,34.501 18.923,34.255 18.937,34L14.5,34C13.892,34 13.4,33.553 13.4,33C13.4,32.448 13.892,32 14.5,32L19.229,32C19.796,29.81 21.128,28.276 23.374,27.2C24.18,26.813 25.006,26.588 25.883,26.521C25.851,26.35 25.853,26.175 25.854,26L14.499,26C13.892,26 13.399,25.553 13.399,25C13.399,24.448 13.892,24 14.499,24L26.704,24C26.742,23.962 26.766,23.917 26.807,23.88C27.427,23.315 28.256,23.001 29.139,23.001C30.008,23.001 30.827,23.307 31.447,23.861C31.604,24 32.571,24.913 33.199,26.387L33.199,10C33.199,7.239 30.737,5 27.699,5L26.599,5L26.599,6C26.599,8.206 24.626,10 22.199,10L11.199,10C8.773,10 6.799,8.206 6.799,6L6.799,5L5.7,5C2.662,5 0.2,7.239 0.2,10L0.2,37C0.2,39.762 2.662,42 5.7,42L21.125,42C19.603,39.65 18.9,36.869 18.9,34.771ZM14.5,16L27.7,16C28.308,16 28.8,16.448 28.8,17C28.8,17.552 28.308,18 27.7,18L14.5,18C13.892,18 13.4,17.552 13.4,17C13.4,16.448 13.892,16 14.5,16ZM11.428,32.207L8.128,35.207C7.913,35.402 7.631,35.5 7.35,35.5C7.068,35.5 6.787,35.402 6.572,35.207L4.922,33.707C4.493,33.317 4.493,32.684 4.922,32.294C5.352,31.903 6.048,31.903 6.477,32.294L7.35,33.087L9.872,30.794C10.301,30.403 10.998,30.403 11.427,30.794C11.856,31.184 11.856,31.817 11.427,32.208L11.428,32.207ZM11.428,24.207L8.128,27.207C7.913,27.402 7.631,27.5 7.35,27.5C7.068,27.5 6.787,27.402 6.572,27.207L4.922,25.707C4.493,25.317 4.493,24.684 4.922,24.294C5.352,23.903 6.048,23.903 6.477,24.294L7.35,25.087L9.872,22.794C10.301,22.404 10.998,22.404 11.427,22.794C11.856,23.184 11.856,23.817 11.427,24.208L11.428,24.207ZM11.428,16.207L8.128,19.207C7.913,19.403 7.631,19.5 7.35,19.5C7.068,19.5 6.787,19.403 6.572,19.207L4.922,17.708C4.493,17.317 4.493,16.684 4.922,16.294C5.352,15.903 6.048,15.903 6.477,16.294L7.35,17.087L9.872,14.794C10.301,14.404 10.998,14.404 11.427,14.794C11.856,15.184 11.856,15.817 11.427,16.208L11.428,16.207Z" fill="#D96846"/>
<path d="M36.5,28.969C34.681,28.096 33.233,28.662 31.543,28.886C31.502,26.749 29.974,25.347 29.907,25.287C29.478,24.903 28.789,24.906 28.361,25.296C27.933,25.683 27.935,26.315 28.358,26.707C28.368,26.717 29.302,27.602 29.343,28.883C27.659,28.659 26.215,28.099 24.401,28.969C22.201,30.024 21.101,31.606 21.101,34.77C21.101,36.88 22.04,40.418 24.401,42.681C26.601,44.791 28.879,43.736 30.45,43.736C32.022,43.736 34.3,44.791 36.5,42.681C38.861,40.418 39.8,36.88 39.8,34.77C39.8,31.606 38.7,30.024 36.5,28.969Z" fill="#D96846"/>
</svg>
