<svg width="30" height="34" viewBox="0 0 30 34" fill="none" xmlns="http://www.w3.org/2000/svg" xmlns:xlink="http://www.w3.org/1999/xlink">
<path d="M6.387,2.937C2.87,2.937 0,5.807 0,9.324L0,26.55C0,30.067 2.87,32.937 6.387,32.937L23.613,32.937C27.13,32.937 30,30.067 30,26.55L30,9.324C30,5.807 27.13,2.937 23.613,2.937L6.387,2.937ZM6.387,5.478L23.613,5.478C25.767,5.478 27.459,7.17 27.459,9.323L27.459,26.55C27.459,28.701 25.767,30.396 23.613,30.396L6.387,30.396C4.236,30.396 2.543,28.703 2.543,26.55L2.543,9.323C2.543,7.172 4.236,5.478 6.387,5.478Z" fill="#FFFFFF"/>
<path d="M1.727,10.444C1.392,10.444 1.068,10.578 0.829,10.817C0.591,11.055 0.458,11.378 0.458,11.716C0.458,12.418 1.027,12.987 1.727,12.987L28.273,12.987C28.611,12.987 28.934,12.852 29.174,12.614C29.411,12.377 29.545,12.053 29.545,11.716C29.545,11.013 28.976,10.444 28.273,10.444L1.727,10.444Z" fill="#FFFFFF"/>
<path d="M8.61,0C8.273,0 7.95,0.133 7.712,0.373C7.474,0.611 7.339,0.934 7.339,1.271L7.339,6.62C7.339,6.955 7.474,7.278 7.712,7.518C7.95,7.756 8.273,7.889 8.61,7.889C8.948,7.889 9.271,7.756 9.509,7.518C9.748,7.278 9.882,6.955 9.882,6.618L9.882,1.269L9.882,1.271C9.882,0.934 9.748,0.611 9.509,0.373C9.271,0.133 8.948,0 8.61,0Z" fill="#FFFFFF"/>
<path d="M15,0C14.664,0 14.341,0.133 14.101,0.373C13.864,0.611 13.73,0.934 13.73,1.271L13.73,6.62C13.73,6.955 13.864,7.278 14.101,7.518C14.341,7.756 14.664,7.889 15,7.889C15.337,7.889 15.66,7.756 15.9,7.518C16.138,7.278 16.271,6.955 16.271,6.618L16.271,1.269L16.271,1.271C16.271,0.934 16.138,0.611 15.9,0.373C15.66,0.133 15.337,0 15,0Z" fill="#FFFFFF"/>
<path d="M21.39,0C21.052,0 20.729,0.133 20.492,0.373C20.252,0.611 20.119,0.934 20.119,1.271L20.119,6.62C20.119,6.955 20.252,7.278 20.492,7.518C20.729,7.756 21.053,7.889 21.39,7.889C21.726,7.889 22.051,7.756 22.289,7.518C22.526,7.278 22.66,6.955 22.66,6.62L22.66,1.271C22.66,0.569 22.09,0 21.39,0Z" fill="#FFFFFF"/>
<path d="M13.813,16.185L16.185,16.185C16.575,16.185 16.889,16.499 16.889,16.889L16.889,19.261C16.889,19.651 16.575,19.966 16.185,19.966L13.813,19.966C13.423,19.966 13.109,19.651 13.109,19.261L13.109,16.887C13.109,16.497 13.423,16.183 13.813,16.183L13.813,16.185Z" fill="#FFFFFF"/>
<path d="M13.813,22.559L16.187,22.559C16.577,22.559 16.892,22.873 16.892,23.263L16.892,25.635C16.892,26.025 16.577,26.34 16.187,26.34L13.813,26.34C13.423,26.34 13.109,26.025 13.109,25.635L13.109,23.263C13.109,22.873 13.423,22.559 13.813,22.559Z" fill="#FFFFFF"/>
<path d="M7.16,16.185L9.532,16.185C9.922,16.185 10.236,16.499 10.236,16.889L10.236,19.261C10.236,19.651 9.922,19.966 9.532,19.966L7.16,19.966C6.77,19.966 6.455,19.651 6.455,19.261L6.455,16.887C6.455,16.497 6.77,16.183 7.16,16.183L7.16,16.185Z" fill="#FFFFFF"/>
<path d="M7.16,22.559L9.534,22.559C9.924,22.559 10.238,22.873 10.238,23.263L10.238,25.635C10.238,26.025 9.924,26.34 9.534,26.34L7.16,26.34C6.77,26.34 6.455,26.025 6.455,25.635L6.455,23.263C6.455,22.873 6.77,22.559 7.16,22.559Z" fill="#FFFFFF"/>
<path d="M20.467,16.185L22.841,16.185C23.231,16.185 23.546,16.499 23.546,16.889L23.546,19.261C23.546,19.651 23.231,19.966 22.841,19.966L20.467,19.966C20.077,19.966 19.763,19.651 19.763,19.261L19.763,16.889C19.763,16.499 20.077,16.185 20.467,16.185Z" fill="#FFFFFF"/>
<path d="M20.469,22.559L22.841,22.559C23.231,22.559 23.545,22.873 23.545,23.263L23.545,25.637C23.545,26.027 23.231,26.342 22.841,26.342L20.469,26.342C20.079,26.342 19.764,26.027 19.764,25.637L19.764,23.265C19.764,22.875 20.079,22.561 20.469,22.561L20.469,22.559Z" fill="#FFFFFF"/>
</svg>
