<svg width="32" height="32" viewBox="0 0 32 32" fill="none" xmlns="http://www.w3.org/2000/svg" xmlns:xlink="http://www.w3.org/1999/xlink">
<path d="M9.333,8L9.333,9.2C9.735,9.2 10.109,8.999 10.332,8.666L9.333,8ZM11.208,5.187L10.21,4.522L10.21,4.522L11.208,5.187ZM20.792,5.187L21.79,4.522L21.79,4.522L20.792,5.187ZM22.667,8L21.668,8.666C21.891,8.999 22.266,9.2 22.667,9.2L22.667,8ZM18.8,18C18.8,19.546 17.546,20.8 16,20.8L16,23.2C18.872,23.2 21.2,20.872 21.2,18L18.8,18ZM16,20.8C14.454,20.8 13.2,19.546 13.2,18L10.8,18C10.8,20.872 13.128,23.2 16,23.2L16,20.8ZM13.2,18C13.2,16.454 14.454,15.2 16,15.2L16,12.8C13.128,12.8 10.8,15.128 10.8,18L13.2,18ZM16,15.2C17.546,15.2 18.8,16.454 18.8,18L21.2,18C21.2,15.128 18.872,12.8 16,12.8L16,15.2ZM10.332,8.666L12.207,5.853L10.21,4.522L8.335,7.334L10.332,8.666ZM13.427,5.2L18.573,5.2L18.573,2.8L13.427,2.8L13.427,5.2ZM19.793,5.853L21.668,8.666L23.665,7.334L21.79,4.522L19.793,5.853ZM18.573,5.2C19.063,5.2 19.521,5.445 19.793,5.853L21.79,4.522C21.073,3.446 19.866,2.8 18.573,2.8L18.573,5.2ZM12.207,5.853C12.479,5.445 12.937,5.2 13.427,5.2L13.427,2.8C12.134,2.8 10.927,3.446 10.21,4.522L12.207,5.853ZM28.133,13.333L28.133,22.667L30.533,22.667L30.533,13.333L28.133,13.333ZM24,26.8L8,26.8L8,29.2L24,29.2L24,26.8ZM3.867,22.667L3.867,13.333L1.467,13.333L1.467,22.667L3.867,22.667ZM8,26.8C5.717,26.8 3.867,24.949 3.867,22.667L1.467,22.667C1.467,26.275 4.392,29.2 8,29.2L8,26.8ZM28.133,22.667C28.133,24.949 26.283,26.8 24,26.8L24,29.2C27.608,29.2 30.533,26.275 30.533,22.667L28.133,22.667ZM24,9.2C26.283,9.2 28.133,11.051 28.133,13.333L30.533,13.333C30.533,9.725 27.608,6.8 24,6.8L24,9.2ZM8,6.8C4.392,6.8 1.467,9.725 1.467,13.333L3.867,13.333C3.867,11.051 5.717,9.2 8,9.2L8,6.8ZM8,9.2L9.333,9.2L9.333,6.8L8,6.8L8,9.2ZM24,6.8L22.667,6.8L22.667,9.2L24,9.2L24,6.8Z" fill="#FFFFFF"/>
<circle cx="16" cy="8" r="1.333" fill="#FFFFFF"/>
</svg>
