<svg width="54" height="54" viewBox="0 0 54 54" fill="none" xmlns="http://www.w3.org/2000/svg" xmlns:xlink="http://www.w3.org/1999/xlink">
<path d="M26,52.25C11.503,52.25 -0.25,40.497 -0.25,26C-0.25,11.503 11.503,-0.25 26,-0.25C40.497,-0.25 52.25,11.503 52.25,26C52.25,40.497 40.497,52.25 26,52.25ZM26,49.625C39.048,49.625 49.625,39.048 49.625,26C49.625,12.952 39.048,2.375 26,2.375C12.952,2.375 2.375,12.952 2.375,26C2.375,39.048 12.952,49.625 26,49.625ZM25.969,44.375C16.614,44.375 7.735,35.402 7.735,28.918C7.735,25.196 15.821,29.675 25.969,29.675C36.117,29.675 44.293,25.202 44.265,28.918C44.22,35.202 35.324,44.375 25.969,44.375ZM25.969,36.106C34.667,36.106 40.685,32.744 40.685,30.318C40.685,27.893 34.667,31.764 25.969,31.764C17.27,31.764 11.353,28.358 11.353,30.318C11.353,32.279 17.27,36.106 25.969,36.106ZM18.092,21.341C16.371,21.341 14.975,19.945 14.975,18.223C14.975,16.502 16.371,15.106 18.092,15.106C19.814,15.106 21.209,16.502 21.209,18.223C21.209,19.945 19.814,21.341 18.092,21.341ZM33.842,21.341C32.121,21.341 30.725,19.945 30.725,18.223C30.725,16.502 32.121,15.106 33.842,15.106C35.564,15.106 36.959,16.502 36.959,18.223C36.959,19.945 35.564,21.341 33.842,21.341Z" clip-rule="evenodd" fill-rule="evenodd" fill="#989980"/>
</svg>
