<svg width="68" height="68" viewBox="0 0 68 68" fill="none" xmlns="http://www.w3.org/2000/svg" xmlns:xlink="http://www.w3.org/1999/xlink">
<path d="M61.782,28.451L59.5,28.451L59.5,28.333L34,28.333L34,39.667L50.013,39.667C47.676,46.264 41.399,51 34,51C24.612,51 17,43.388 17,34C17,24.612 24.612,17 34,17C38.334,17 42.276,18.635 45.278,21.305L53.292,13.291C48.232,8.575 41.463,5.667 34,5.667C18.353,5.667 5.667,18.353 5.667,34C5.667,49.647 18.353,62.333 34,62.333C49.647,62.333 62.333,49.647 62.333,34C62.333,32.1 62.138,30.246 61.782,28.451Z" fill="#FFC107"/>
<path d="M8.934,20.812L18.242,27.639C20.761,21.403 26.861,17 34,17C38.334,17 42.276,18.635 45.278,21.305L53.292,13.291C48.232,8.575 41.463,5.667 34,5.667C23.117,5.667 13.679,11.811 8.934,20.812Z" fill="#FF3D00"/>
<path d="M34,62.333C41.318,62.333 47.968,59.533 52.996,54.978L44.227,47.558C41.382,49.712 37.846,51 34,51C26.63,51 20.373,46.301 18.016,39.743L8.776,46.862C13.465,56.038 22.988,62.333 34,62.333Z" fill="#4CAF50"/>
<path d="M61.782,28.451L59.5,28.451L59.5,28.333L34,28.333L34,39.667L50.013,39.667C48.891,42.836 46.852,45.569 44.223,47.559C44.224,47.558 44.226,47.558 44.227,47.556L52.996,54.977C52.376,55.54 62.333,48.167 62.333,34C62.333,32.1 62.138,30.246 61.782,28.451Z" fill="#1976D2"/>
</svg>
