<svg width="36" height="46" viewBox="0 0 36 46" fill="none" xmlns="http://www.w3.org/2000/svg" xmlns:xlink="http://www.w3.org/1999/xlink">
<path d="M32.5,23.52L32.5,35.6L35.5,35.6L35.5,23.52L32.5,23.52ZM26,42.1L10,42.1L10,45.1L26,45.1L26,42.1ZM3.5,35.6L3.5,23.52L0.5,23.52L0.5,35.6L3.5,35.6ZM10,17.02L10.533,17.02L10.533,14.02L10,14.02L10,17.02ZM12.033,15.52L12.033,9.467L9.033,9.467L9.033,15.52L12.033,15.52ZM10.533,17.02L25.467,17.02L25.467,14.02L10.533,14.02L10.533,17.02ZM25.467,17.02L26,17.02L26,14.02L25.467,14.02L25.467,17.02ZM23.967,9.467L23.967,15.52L26.967,15.52L26.967,9.467L23.967,9.467ZM18,3.5C21.295,3.5 23.967,6.171 23.967,9.467L26.967,9.467C26.967,4.515 22.952,0.5 18,0.5L18,3.5ZM10,42.1C6.41,42.1 3.5,39.19 3.5,35.6L0.5,35.6C0.5,40.847 4.753,45.1 10,45.1L10,42.1ZM32.5,35.6C32.5,39.19 29.59,42.1 26,42.1L26,45.1C31.247,45.1 35.5,40.847 35.5,35.6L32.5,35.6ZM35.5,23.52C35.5,18.273 31.247,14.02 26,14.02L26,17.02C29.59,17.02 32.5,19.93 32.5,23.52L35.5,23.52ZM12.033,9.467C12.033,6.171 14.705,3.5 18,3.5L18,0.5C13.048,0.5 9.033,4.515 9.033,9.467L12.033,9.467ZM3.5,23.52C3.5,19.93 6.41,17.02 10,17.02L10,14.02C4.753,14.02 0.5,18.273 0.5,23.52L3.5,23.52Z" fill="#989980"/>
<path d="M21.834,29.56C21.834,31.568 20.154,33.26 18.001,33.26L18.001,36.26C21.738,36.26 24.834,33.296 24.834,29.56L21.834,29.56ZM18.001,33.26C15.847,33.26 14.167,31.568 14.167,29.56L11.167,29.56C11.167,33.296 14.263,36.26 18.001,36.26L18.001,33.26ZM14.167,29.56C14.167,27.552 15.847,25.86 18.001,25.86L18.001,22.86C14.263,22.86 11.167,25.824 11.167,29.56L14.167,29.56ZM18.001,25.86C20.154,25.86 21.834,27.552 21.834,29.56L24.834,29.56C24.834,25.824 21.738,22.86 18.001,22.86L18.001,25.86Z" fill="#989980"/>
</svg>
