<svg width="556" height="302" viewBox="0 0 556 302" fill="none" xmlns="http://www.w3.org/2000/svg" xmlns:xlink="http://www.w3.org/1999/xlink">
<mask id="mask_0_39_1310" style="mask-type:alpha" maskUnits="userSpaceOnUse" x="52" y="6" width="142" height="142">
<path d="M52,24C52,18.409 52,15.613 52.913,13.408C54.131,10.467 56.467,8.131 59.408,6.913C61.613,6 64.409,6 70,6L318,6C323.592,6 326.386,6 328.592,6.913C331.532,8.131 333.868,10.467 335.086,13.408C336,15.613 336,18.409 336,24L336,272C336,277.592 336,280.386 335.086,282.592C333.868,285.532 331.532,287.868 328.592,289.086C326.386,290 323.592,290 318,290L70,290C64.409,290 61.613,290 59.408,289.086C56.467,287.868 54.131,285.532 52.913,282.592C52,280.386 52,277.592 52,272L52,24Z" fill="url(#pattern_0_39_1310)"/>
</mask>
<g mask="url(#mask_0_39_1310)">
<rect  x="0" y="0" width="556" height="302" fill="url(#pattern_0_197_2301)"/>
</g>
</svg>
