<svg width="36" height="32" viewBox="0 0 36 32" fill="none" xmlns="http://www.w3.org/2000/svg" xmlns:xlink="http://www.w3.org/1999/xlink">
<g opacity="0.4">
<path d="M28.346,12.181C28.992,11.662 29.094,10.717 28.574,10.072C28.055,9.427 27.11,9.325 26.465,9.844L28.346,12.181ZM20.308,16.727L21.234,17.908L21.249,17.896L20.308,16.727ZM15.739,16.727L14.803,17.9L14.813,17.908L15.739,16.727ZM9.516,9.84C8.868,9.324 7.925,9.429 7.408,10.077C6.891,10.724 6.997,11.668 7.644,12.185L9.516,9.84ZM26.465,9.844L19.367,15.559L21.249,17.896L28.346,12.181L26.465,9.844ZM19.383,15.547C18.583,16.174 17.464,16.174 16.664,15.547L14.813,17.908C16.7,19.387 19.347,19.387 21.234,17.908L19.383,15.547ZM16.674,15.555L9.516,9.84L7.644,12.185L14.803,17.9L16.674,15.555Z" fill="#989980"/>
</g>
<path d="M25.822,1.76L25.838,0.26L25.822,0.26L25.822,1.76ZM31.779,4.406L32.879,3.386L32.879,3.386L31.779,4.406ZM33.986,10.569L32.488,10.481C32.486,10.511 32.486,10.54 32.486,10.569L33.986,10.569ZM33.986,21.432L32.486,21.432C32.486,21.461 32.486,21.49 32.488,21.52L33.986,21.432ZM31.779,27.595L32.879,28.615L32.879,28.615L31.779,27.595ZM25.822,30.241L25.822,31.741L25.838,31.741L25.822,30.241ZM10.133,3.26L25.822,3.26L25.822,0.26L10.133,0.26L10.133,3.26ZM25.805,3.26C27.654,3.28 29.415,4.062 30.679,5.425L32.879,3.386C31.058,1.421 28.514,0.29 25.838,0.26L25.805,3.26ZM30.679,5.425C31.943,6.789 32.598,8.616 32.488,10.481L35.483,10.657C35.64,7.979 34.7,5.351 32.879,3.386L30.679,5.425ZM32.486,10.569L32.486,21.432L35.486,21.432L35.486,10.569L32.486,10.569ZM32.488,21.52C32.598,23.385 31.943,25.212 30.679,26.576L32.879,28.615C34.7,26.65 35.64,24.022 35.483,21.344L32.488,21.52ZM30.679,26.576C29.415,27.939 27.654,28.721 25.805,28.741L25.838,31.741C28.514,31.711 31.058,30.58 32.879,28.615L30.679,26.576ZM25.822,28.741L10.133,28.741L10.133,31.741L25.822,31.741L25.822,28.741ZM10.133,28.741C6.257,28.741 3.5,25.623 3.5,21.432L0.5,21.432C0.5,26.954 4.293,31.741 10.133,31.741L10.133,28.741ZM3.5,21.432L3.5,10.569L0.5,10.569L0.5,21.432L3.5,21.432ZM3.5,10.569C3.5,6.378 6.257,3.26 10.133,3.26L10.133,0.26C4.293,0.26 0.5,5.047 0.5,10.569L3.5,10.569Z" fill="#989980"/>
</svg>
