<svg width="306" height="256" viewBox="0 0 306 256" fill="none" xmlns="http://www.w3.org/2000/svg" xmlns:xlink="http://www.w3.org/1999/xlink">
<path d="M77.447,197.188C71.59,197.188 65.864,198.912 60.994,202.143C56.123,205.375 52.327,209.967 50.086,215.34C47.844,220.714 47.258,226.626 48.401,232.331C49.543,238.035 52.364,243.275 56.506,247.387C60.648,251.499 65.925,254.3 71.669,255.435C77.414,256.569 83.369,255.987 88.78,253.761C94.192,251.536 98.817,247.767 102.072,242.931C105.326,238.095 107.063,232.41 107.063,226.594C107.063,218.795 103.942,211.315 98.388,205.8C92.834,200.286 85.302,197.188 77.447,197.188ZM77.447,238.857C75.004,238.858 72.616,238.14 70.584,236.793C68.552,235.447 66.968,233.532 66.032,231.292C65.096,229.051 64.85,226.585 65.326,224.206C65.802,221.827 66.977,219.641 68.704,217.925C70.431,216.209 72.632,215.041 75.028,214.567C77.424,214.093 79.907,214.336 82.164,215.264C84.421,216.191 86.351,217.763 87.708,219.78C89.065,221.797 89.79,224.168 89.79,226.594C89.79,229.845 88.49,232.963 86.175,235.262C83.861,237.562 80.721,238.855 77.447,238.857Z" fill="#F3F0F3"/>
<path d="M208.289,197.188C202.432,197.189 196.707,198.915 191.837,202.147C186.968,205.379 183.173,209.972 180.933,215.346C178.693,220.719 178.107,226.631 179.251,232.335C180.394,238.039 183.215,243.278 187.357,247.39C191.5,251.501 196.777,254.301 202.521,255.435C208.266,256.569 214.22,255.987 219.631,253.761C225.042,251.535 229.667,247.766 232.921,242.93C236.175,238.095 237.912,232.409 237.912,226.594C237.912,222.731 237.145,218.907 235.657,215.339C234.168,211.771 231.986,208.529 229.235,205.798C226.484,203.067 223.218,200.901 219.624,199.424C216.03,197.946 212.179,197.187 208.289,197.188ZM208.289,238.857C205.846,238.857 203.458,238.137 201.427,236.79C199.396,235.443 197.813,233.527 196.879,231.287C195.944,229.046 195.699,226.58 196.176,224.201C196.652,221.823 197.829,219.637 199.556,217.922C201.283,216.207 203.484,215.04 205.879,214.566C208.275,214.093 210.758,214.336 213.015,215.264C215.272,216.192 217.201,217.764 218.558,219.781C219.915,221.797 220.639,224.168 220.639,226.594C220.639,229.846 219.338,232.965 217.022,235.265C214.706,237.565 211.564,238.857 208.289,238.857Z" fill="#F3F0F3"/>
<path d="M275.832,103.423L284.012,89.777L292.072,76.321L303.804,56.734C308.844,48.32 304.902,41.435 295.042,41.435L86.997,41.435C82.246,41.421 77.694,39.542 74.335,36.206C70.975,32.871 69.082,28.35 69.068,23.633L69.068,17.78C69.049,13.066 67.153,8.552 63.795,5.221C60.436,1.89 55.887,0.013 51.14,0L17.928,0C8.106,0 0,5.122 0,11.429C0,17.736 8.106,22.858 17.928,22.858L28.112,22.858C32.865,22.871 37.419,24.752 40.78,28.089C44.14,31.426 46.035,35.948 46.048,40.667L46.048,161.745C46.062,166.463 47.955,170.984 51.314,174.32C54.673,177.657 59.225,179.539 63.977,179.554L212.304,179.554C222.164,179.554 234.36,172.669 239.4,164.247L267.778,116.878L275.832,103.423Z" fill="#F3F0F3"/>
<path d="M208.289,218.193C218.782,218.193 227.289,209.686 227.289,199.193C227.289,188.699 218.782,180.193 208.289,180.193L208.289,218.193ZM68.103,199.193L50.282,205.78L54.87,218.193L68.103,218.193L68.103,199.193ZM209.276,193.433C219.77,193.433 228.276,184.926 228.276,174.433C228.276,163.939 219.77,155.433 209.276,155.433L209.276,193.433ZM208.289,180.193L68.103,180.193L68.103,218.193L208.289,218.193L208.289,180.193ZM68.103,199.193C85.925,192.605 85.929,192.616 85.933,192.628C85.934,192.631 85.938,192.642 85.941,192.649C85.946,192.664 85.952,192.678 85.957,192.692C85.967,192.72 85.976,192.746 85.985,192.772C86.004,192.823 86.02,192.869 86.035,192.911C86.064,192.996 86.086,193.063 86.103,193.116C86.136,193.22 86.149,193.269 86.15,193.273C86.151,193.277 86.143,193.247 86.132,193.19C86.121,193.133 86.109,193.063 86.099,192.988C86.038,192.491 86.174,192.686 85.924,193.367C85.498,194.527 84.704,195.077 84.847,194.999C85.438,194.678 88.281,193.433 95.457,193.433L95.457,155.433C84.38,155.433 74.677,157.282 66.716,161.604C58.309,166.168 52.958,172.908 50.257,180.258C47.731,187.13 47.874,193.514 48.388,197.66C48.655,199.817 49.056,201.635 49.412,202.984C49.592,203.665 49.766,204.247 49.916,204.713C49.991,204.947 50.06,205.154 50.122,205.332C50.152,205.421 50.181,205.503 50.208,205.578C50.222,205.615 50.234,205.651 50.247,205.684C50.253,205.701 50.259,205.718 50.265,205.734C50.268,205.742 50.272,205.753 50.273,205.757C50.278,205.769 50.282,205.78 68.103,199.193ZM95.457,193.433L209.276,193.433L209.276,155.433L95.457,155.433L95.457,193.433Z" fill="#F3F0F3"/>
<path d="M6.05,13.58C6.05,13.58 13.507,5.217 34.096,5.319C11.864,0.681 3.5,5.978 6.05,13.58Z" fill="#FFFFFF"/>
<path d="M58.369,230.289C58.369,230.289 55.709,210.534 77.439,208.58C56.895,203.217 53.454,219.072 58.369,230.289Z" fill="#FFFFFF"/>
<path d="M189.955,230.289C189.955,230.289 187.302,210.534 209.026,208.58C188.481,203.217 185.04,219.072 189.955,230.289Z" fill="#FFFFFF"/>
<path d="M122.905,197.188L196.226,197.188C196.226,197.188 198.252,194.802 181.488,194.802C164.724,194.802 122.905,197.188 122.905,197.188Z" fill="#FFFFFF"/>
<path d="M239.488,47.559L278.374,47.559C291.807,47.559 299.913,48.093 298.071,53.581C297.702,50.296 249.068,46.674 239.488,47.559Z" fill="#FFFFFF"/>
<path d="M130.09,106.452C130.09,106.452 140.959,87.275 157.539,87.992C140.959,79.563 129.353,98.403 130.09,106.452Z" fill="#FFFFFF"/>
<path d="M67.057,69.319C67.057,69.319 80.136,47.793 109.243,55.351C95.058,45.174 68.376,49.381 67.057,69.319Z" fill="#FFFFFF"/>
<path d="M174.119,87.992C174.119,87.992 180.198,59.266 194.538,52.681C171.908,55.783 173.014,83.8 174.119,87.992Z" fill="#FFFFFF"/>
<path d="M207.065,139.926C207.065,139.926 228.31,146.329 243.018,126.208C235.222,145.517 216.859,145.231 207.065,139.926Z" fill="#FFFFFF"/>
<path d="M208.289,91.321C208.289,91.321 216.601,86.002 227.75,91.321C220.727,83.712 210.101,85.753 208.289,91.321Z" fill="#FFFFFF"/>
<path d="M102.029,145.516C102.029,145.516 123.458,140.351 124.438,127.393C127.385,139.56 116.951,144.646 102.029,145.516Z" fill="#FFFFFF"/>
<path d="M75.48,116.147C75.48,116.147 82.067,133.956 102.007,124.444C85.383,132.976 74.426,127.122 75.48,116.147Z" fill="#FFFFFF"/>
<path d="M130.061,133.385C130.061,133.385 138.292,144.039 151.386,135.705C146.302,144.931 133.465,141.346 130.061,133.385Z" fill="#FFFFFF"/>
<path d="M153.906,135.441C153.906,135.441 163.714,144.697 175.342,134.446C171.761,144.346 158.519,142.787 153.906,135.441Z" fill="#FFFFFF"/>
<path d="M178.261,135.441C178.261,135.441 188.061,144.697 199.697,134.446C196.116,144.346 182.874,142.787 178.261,135.441Z" fill="#FFFFFF"/>
</svg>
