<svg width="722" height="156" viewBox="0 0 722 156" fill="none" xmlns="http://www.w3.org/2000/svg" xmlns:xlink="http://www.w3.org/1999/xlink">
<path d="M0,30C0,20.681 0,16.022 1.522,12.346C3.552,7.446 7.446,3.552 12.346,1.522C16.022,0 20.681,0 30,0L692,0C701.318,0 705.978,0 709.654,1.522C714.554,3.552 718.448,7.446 720.478,12.346C722,16.022 722,20.681 722,30L722,126C722,135.319 722,139.978 720.478,143.654C718.448,148.554 714.554,152.448 709.654,154.478C705.978,156 701.318,156 692,156L30,156C20.681,156 16.022,156 12.346,154.478C7.446,152.448 3.552,148.554 1.522,143.654C0,139.978 0,135.319 0,126L0,30Z" fill="#FFFFFF" stroke="#DCDCDC" stroke-width="1" stroke-miterlimit="3.999327"/>
</svg>
