<svg width="722" height="320" viewBox="0 0 722 320" fill="none" xmlns="http://www.w3.org/2000/svg" xmlns:xlink="http://www.w3.org/1999/xlink">
<path d="M0,30C0,20.681 0,16.022 1.522,12.346C3.552,7.446 7.446,3.552 12.346,1.522C16.022,0 20.681,0 30,0L692,0C701.318,0 705.978,0 709.654,1.522C714.554,3.552 718.448,7.446 720.478,12.346C722,16.022 722,20.681 722,30L722,290C722,299.318 722,303.978 720.478,307.654C718.448,312.554 714.554,316.448 709.654,318.478C705.978,320 701.318,320 692,320L30,320C20.681,320 16.022,320 12.346,318.478C7.446,316.448 3.552,312.554 1.522,307.654C0,303.978 0,299.318 0,290L0,30Z" fill="#FFFFFF" stroke="#E9E9E9" stroke-width="1" stroke-miterlimit="3.999327"/>
</svg>
