<svg width="722" height="182" viewBox="0 0 722 182" fill="none" xmlns="http://www.w3.org/2000/svg" xmlns:xlink="http://www.w3.org/1999/xlink">
<path d="M0,30C0,20.681 0,16.022 1.522,12.346C3.552,7.446 7.446,3.552 12.346,1.522C16.022,0 20.681,0 30,0L692,0C701.318,0 705.978,0 709.654,1.522C714.554,3.552 718.448,7.446 720.478,12.346C722,16.022 722,20.681 722,30L722,152C722,161.319 722,165.978 720.478,169.654C718.448,174.554 714.554,178.448 709.654,180.478C705.978,182 701.318,182 692,182L30,182C20.681,182 16.022,182 12.346,180.478C7.446,178.448 3.552,174.554 1.522,169.654C0,165.978 0,161.319 0,152L0,30Z" fill="#FFFFFF" stroke="#DCDCDC" stroke-width="1" stroke-miterlimit="3.999327"/>
</svg>
