<svg width="722" height="298" viewBox="0 0 722 298" fill="none" xmlns="http://www.w3.org/2000/svg" xmlns:xlink="http://www.w3.org/1999/xlink">
<path d="M0,21C0,14.477 0,11.215 1.066,8.642C2.487,5.212 5.212,2.487 8.642,1.066C11.215,0 14.477,0 21,0L701,0C707.524,0 710.784,0 713.358,1.066C716.788,2.487 719.514,5.212 720.934,8.642C722,11.215 722,14.477 722,21L722,277C722,283.524 722,286.784 720.934,289.358C719.514,292.788 716.788,295.514 713.358,296.934C710.784,298 707.524,298 701,298L21,298C14.477,298 11.215,298 8.642,296.934C5.212,295.514 2.487,292.788 1.066,289.358C0,286.784 0,283.524 0,277L0,21Z" fill="url(#pattern_0_197_1813)"/>
</svg>
