<svg width="750" height="460" viewBox="0 0 750 460" fill="none" xmlns="http://www.w3.org/2000/svg" xmlns:xlink="http://www.w3.org/1999/xlink">
<path d="M0,30C0,20.681 0,16.022 1.522,12.346C3.552,7.446 7.446,3.552 12.346,1.522C16.022,0 20.681,0 30,0L720,0C729.318,0 733.978,0 737.654,1.522C742.554,3.552 746.448,7.446 748.478,12.346C750,16.022 750,20.681 750,30L750,430C750,439.318 750,443.978 748.478,447.654C746.448,452.554 742.554,456.448 737.654,458.478C733.978,460 729.318,460 720,460L30,460C20.681,460 16.022,460 12.346,458.478C7.446,456.448 3.552,452.554 1.522,447.654C0,443.978 0,439.318 0,430L0,30Z" fill="#FFFFFF" stroke="#F3F0F3" stroke-width="1" stroke-miterlimit="3.999327"/>
</svg>
