<svg width="696" height="184" viewBox="0 0 696 184" fill="none" xmlns="http://www.w3.org/2000/svg" xmlns:xlink="http://www.w3.org/1999/xlink">
<path d="M0,36C0,24.817 0,19.226 1.827,14.816C4.263,8.935 8.935,4.263 14.816,1.827C19.226,0 24.817,0 36,0L660,0C671.182,0 676.774,0 681.184,1.827C687.066,4.263 691.738,8.935 694.174,14.816C696,19.226 696,24.817 696,36L696,148C696,159.183 696,164.774 694.174,169.184C691.738,175.065 687.066,179.737 681.184,182.173C676.774,184 671.182,184 660,184L36,184C24.817,184 19.226,184 14.816,182.173C8.935,179.737 4.263,175.065 1.827,169.184C0,164.774 0,159.183 0,148L0,36Z" fill="#FFF2F0"/>
</svg>
