<svg width="112" height="106" viewBox="0 0 112 106" fill="none" xmlns="http://www.w3.org/2000/svg" xmlns:xlink="http://www.w3.org/1999/xlink">
<path d="M0,18C0,12.409 0,9.613 0.913,7.408C2.131,4.467 4.467,2.131 7.408,0.913C9.613,0 12.409,0 18,0L94,0C99.591,0 102.387,0 104.592,0.913C107.533,2.131 109.869,4.467 111.087,7.408C112,9.613 112,12.409 112,18L112,88C112,93.591 112,96.387 111.087,98.592C109.869,101.533 107.533,103.869 104.592,105.087C102.387,106 99.591,106 94,106L18,106C12.409,106 9.613,106 7.408,105.087C4.467,103.869 2.131,101.533 0.913,98.592C0,96.387 0,93.591 0,88L0,18Z" fill="url(#pattern_0_197_1473)"/>
</svg>
