<svg width="138" height="140" viewBox="0 0 138 140" fill="none" xmlns="http://www.w3.org/2000/svg" xmlns:xlink="http://www.w3.org/1999/xlink">
<path d="M0,30C0,20.681 0,16.022 1.522,12.346C3.552,7.446 7.446,3.552 12.346,1.522C16.022,0 20.681,0 30,0L108,0C117.319,0 121.978,0 125.654,1.522C130.554,3.552 134.448,7.446 136.478,12.346C138,16.022 138,20.681 138,30L138,110C138,119.319 138,123.978 136.478,127.654C134.448,132.554 130.554,136.448 125.654,138.478C121.978,140 117.319,140 108,140L30,140C20.681,140 16.022,140 12.346,138.478C7.446,136.448 3.552,132.554 1.522,127.654C0,123.978 0,119.319 0,110L0,30Z" fill="url(#pattern_0_197_1598)"/>
</svg>
