<svg width="132" height="134" viewBox="0 0 132 134" fill="none" xmlns="http://www.w3.org/2000/svg" xmlns:xlink="http://www.w3.org/1999/xlink">
<path d="M0,30C0,20.681 0,16.022 1.522,12.346C3.552,7.446 7.446,3.552 12.346,1.522C16.022,0 20.681,0 30,0L102,0C111.319,0 115.978,0 119.654,1.522C124.554,3.552 128.448,7.446 130.478,12.346C132,16.022 132,20.681 132,30L132,104C132,113.319 132,117.978 130.478,121.654C128.448,126.554 124.554,130.448 119.654,132.478C115.978,134 111.319,134 102,134L30,134C20.681,134 16.022,134 12.346,132.478C7.446,130.448 3.552,126.554 1.522,121.654C0,117.978 0,113.319 0,104L0,30Z" fill="#F7F7F7"/>
</svg>
