<svg width="36" height="36" viewBox="0 0 36 36" fill="none" xmlns="http://www.w3.org/2000/svg" xmlns:xlink="http://www.w3.org/1999/xlink">
<path d="M-0.348,0.844L-0.203,0.676C0.329,0.143 1.163,0.095 1.75,0.531L1.918,0.676L17.119,15.879L32.324,0.676C32.909,0.09 33.859,0.09 34.445,0.676C35.031,1.262 35.031,2.211 34.445,2.797L19.241,17.999L34.445,33.203C34.978,33.735 35.026,34.569 34.59,35.156L34.445,35.324C33.912,35.857 33.079,35.905 32.492,35.469L32.324,35.324L17.119,20.121L1.918,35.324C1.332,35.91 0.383,35.91 -0.203,35.324C-0.789,34.738 -0.789,33.789 -0.203,33.203L14.999,17.999L-0.203,2.797C-0.736,2.265 -0.784,1.431 -0.348,0.844L-0.203,0.676L-0.348,0.844Z" fill="#989980" stroke="#989980" stroke-width="0.2" stroke-miterlimit="3.999327"/>
</svg>
