<svg width="48" height="48" viewBox="0 0 48 48" fill="none" xmlns="http://www.w3.org/2000/svg" xmlns:xlink="http://www.w3.org/1999/xlink">
<g filter="url(#filter152_6129)">
<path d="M26.508,0.503C26.33,0.192 25.999,0 25.641,0L20.771,0C20.413,0 20.081,0.192 19.903,0.504L18.651,2.694C16.219,3.226 13.945,4.18 11.909,5.475L9.487,4.819C9.141,4.725 8.771,4.824 8.518,5.077L5.075,8.52C4.821,8.774 4.723,9.144 4.817,9.49L5.47,11.892C4.159,13.937 3.193,16.224 2.654,18.672L0.503,19.907C0.192,20.086 0,20.417 0,20.775L0,25.644C0,26.003 0.192,26.334 0.504,26.513L2.654,27.744C3.193,30.191 4.159,32.479 5.47,34.524L4.819,36.929C4.725,37.275 4.824,37.645 5.077,37.898L8.52,41.341C8.774,41.595 9.144,41.693 9.49,41.599L11.909,40.941C13.945,42.236 16.219,43.19 18.651,43.722L19.907,45.913C20.086,46.224 20.417,46.416 20.775,46.416L25.644,46.416C26.003,46.416 26.334,46.224 26.513,45.912L27.779,43.699C30.183,43.16 32.431,42.208 34.445,40.923L36.929,41.597C37.275,41.69 37.645,41.592 37.898,41.339L41.341,37.895C41.595,37.642 41.693,37.272 41.599,36.926L40.919,34.426C42.188,32.422 43.127,30.189 43.659,27.802L45.913,26.508C46.224,26.33 46.416,25.999 46.416,25.641L46.416,20.771C46.416,20.413 46.224,20.081 45.912,19.903L43.659,18.614C43.126,16.226 42.187,13.992 40.918,11.987L41.597,9.487C41.69,9.141 41.592,8.771 41.339,8.518L37.895,5.075C37.642,4.821 37.272,4.723 36.926,4.817L34.445,5.493C32.431,4.207 30.182,3.255 27.777,2.716L26.508,0.503ZM5.202,22.012C5.818,12.628 13.624,5.208 23.163,5.208C33.104,5.208 41.163,13.267 41.163,23.208C41.163,33.149 33.104,41.208 23.163,41.208C13.624,41.208 5.818,33.787 5.202,24.404L5.202,22.012Z" clip-rule="evenodd" fill-rule="evenodd" fill="#FFFFFF" stroke="#000000" stroke-opacity="0.2" stroke-width="0.2" stroke-miterlimit="3.999327"/>
</g>
<defs>
<filter id="filter152_6129" x="-1" y="-1" width="25.207876" height="25.207876" filterUnits="userSpaceOnUse" color-interpolation-filters="sRGB">
<feFlood flood-opacity="0" result="BackgroundImageFix"/>
<feColorMatrix in="SourceAlpha" type="matrix" values="0 0 0 0 0 0 0 0 0 0 0 0 0 0 0 0 0 0 127 0" result="hardAlpha"/>
<feMorphology radius="0" operator="dilate" in="SourceAlpha" result="0dropshadow"/>
<feOffset dx="0" dy="0"/>
<feGaussianBlur stdDeviation="0.5"/>
<feComposite in2="hardAlpha" operator="out"/>
<feColorMatrix type="matrix" values="0 0 0 0 0.14902 0 0 0 0 0.14902 0 0 0 0 0.14902 0 0 0 0.4 0"/>
<feBlend mode="normal" in2="BackgroundImageFix" result="0dropshadow"/>
<feBlend mode="normal" in="SourceGraphic" in2="0dropshadow" result="shape"/>
</filter>
</defs>
</svg>
