<svg width="36" height="36" viewBox="0 0 36 36" fill="none" xmlns="http://www.w3.org/2000/svg" xmlns:xlink="http://www.w3.org/1999/xlink">
<path d="M-0.348,0.844L-0.203,0.676C0.33,0.143 1.163,0.095 1.75,0.53L1.919,0.676L17.12,15.878L32.324,0.676C32.91,0.09 33.86,0.09 34.446,0.676C35.031,1.261 35.031,2.211 34.446,2.797L19.242,17.998L34.446,33.203C34.978,33.735 35.027,34.569 34.591,35.156L34.446,35.324C33.913,35.857 33.08,35.905 32.492,35.469L32.324,35.324L17.12,20.12L1.919,35.324C1.333,35.91 0.383,35.91 -0.203,35.324C-0.789,34.738 -0.789,33.788 -0.203,33.203L15,17.998L-0.203,2.797C-0.735,2.264 -0.784,1.431 -0.348,0.844L-0.203,0.676L-0.348,0.844Z" fill="#FFFFFF" stroke="#000000" stroke-opacity="0.2" stroke-width="0.2" stroke-miterlimit="3.999327"/>
</svg>
