<svg width="86" height="82" viewBox="0 0 86 82" fill="none" xmlns="http://www.w3.org/2000/svg" xmlns:xlink="http://www.w3.org/1999/xlink">
<path d="M41.072,0.311C41.408,-0.526 42.592,-0.526 42.928,0.311L53.663,27.043C53.806,27.399 54.14,27.642 54.523,27.668L83.264,29.617C84.163,29.678 84.529,30.804 83.838,31.382L61.731,49.852C61.437,50.098 61.309,50.491 61.403,50.863L68.431,78.8C68.65,79.674 67.693,80.37 66.929,79.891L42.532,64.574C42.207,64.37 41.793,64.37 41.468,64.574L17.071,79.891C16.307,80.37 15.35,79.674 15.569,78.8L22.597,50.863C22.691,50.491 22.563,50.098 22.269,49.852L0.162,31.382C-0.529,30.804 -0.163,29.678 0.736,29.617L29.477,27.668C29.86,27.642 30.194,27.399 30.337,27.043L41.072,0.311Z" fill="#596235"/>
</svg>
