<svg width="16" height="10" viewBox="0 0 16 10" fill="none" xmlns="http://www.w3.org/2000/svg" xmlns:xlink="http://www.w3.org/1999/xlink">
<path d="M15.707,1.207C16.098,0.817 16.098,0.183 15.707,-0.207C15.317,-0.598 14.683,-0.598 14.293,-0.207L15.707,1.207ZM8,7.5L7.293,8.207C7.683,8.598 8.317,8.598 8.707,8.207L8,7.5ZM1.707,-0.207C1.317,-0.598 0.683,-0.598 0.293,-0.207C-0.098,0.183 -0.098,0.817 0.293,1.207L1.707,-0.207ZM14.293,-0.207L7.293,6.793L8.707,8.207L15.707,1.207L14.293,-0.207ZM8.707,6.793L1.707,-0.207L0.293,1.207L7.293,8.207L8.707,6.793Z" transform="rotate(180 8 4)" fill="#FFFFFF"/>
</svg>
