<svg width="50" height="32" viewBox="0 0 50 32" fill="none" xmlns="http://www.w3.org/2000/svg" xmlns:xlink="http://www.w3.org/1999/xlink">
<path d="M-0.446,2.444C-0.446,1.094 0.649,0 1.999,0L4.443,0C7.636,0 10.352,2.041 11.359,4.889L41.11,4.889C45.801,4.889 49.286,9.233 48.269,13.813L44.347,26.035C43.601,29.391 40.625,31.778 37.188,31.778L14.221,31.778C10.171,31.778 6.888,28.495 6.888,24.444L6.888,7.333C6.888,5.983 5.793,4.889 4.443,4.889L1.999,4.889C0.649,4.889 -0.446,3.794 -0.446,2.444ZM31.791,23.307C32.513,22.9 32.768,21.985 32.361,21.264C31.954,20.542 31.039,20.287 30.318,20.694C28.043,21.976 26.493,22.497 25.054,22.5C23.619,22.503 22.069,21.989 19.796,20.696C19.076,20.287 18.16,20.538 17.751,21.259C17.341,21.979 17.593,22.894 18.313,23.304C20.753,24.692 22.85,25.505 25.06,25.5C27.267,25.496 29.361,24.677 31.791,23.307Z" clip-rule="evenodd" fill-rule="evenodd" fill="#D96846"/>
</svg>
