<svg width="46" height="44" viewBox="0 0 46 44" fill="none" xmlns="http://www.w3.org/2000/svg" xmlns:xlink="http://www.w3.org/1999/xlink">
<path d="M26.313,1.523L41.556,13.719C43.203,15.035 44.146,16.999 44.146,19.11L44.146,31.032C44.146,38.184 38.328,44 31.178,44L12.822,44C5.67,44 -0.146,38.181 -0.146,31.032L-0.146,19.11C-0.146,17.002 0.797,15.038 2.444,13.719L17.689,1.523C20.228,-0.508 23.775,-0.508 26.313,1.523ZM15.661,23.082C15.609,23.224 15.567,23.371 15.536,23.521C15.668,23.514 15.793,23.51 15.911,23.51C16.087,23.51 16.263,23.517 16.438,23.53C16.514,23.265 16.619,23.096 16.762,22.869C16.776,22.845 16.791,22.821 16.807,22.797C17.074,22.443 17.447,22.167 17.889,22.021C18.12,21.944 18.246,21.694 18.17,21.461C18.094,21.229 17.845,21.102 17.614,21.179C17.374,21.258 17.148,21.366 16.939,21.497C16.881,20.983 16.685,20.538 16.352,20.164C15.896,19.652 15.195,19.292 14.248,19.085C13.972,19.025 13.668,18.976 13.338,18.941C13.058,18.902 12.81,19.14 12.841,19.426C12.876,19.762 12.924,20.072 12.985,20.355C13.191,21.308 13.548,22.014 14.057,22.472C14.496,22.867 15.031,23.07 15.661,23.082ZM28.498,14.352C28.399,14.524 28.315,14.707 28.249,14.898C28.37,14.911 28.492,14.928 28.612,14.949C28.785,14.979 28.957,15.02 29.126,15.07C29.248,14.773 29.43,14.508 29.656,14.291C29.984,13.978 30.407,13.764 30.876,13.696C31.116,13.662 31.283,13.437 31.249,13.195C31.215,12.953 30.992,12.786 30.752,12.82C30.501,12.856 30.261,12.922 30.033,13.015C30.064,12.499 29.948,12.027 29.684,11.6C29.33,11.025 28.712,10.554 27.834,10.186C27.566,10.062 27.233,9.959 26.949,9.876C26.676,9.772 26.372,9.962 26.353,10.26C26.33,10.59 26.324,10.904 26.336,11.201C26.374,12.177 26.604,12.935 27.024,13.472C27.388,13.937 27.879,14.231 28.498,14.352ZM24.258,18.748C24.433,17.749 24.986,16.938 25.739,16.419C26.626,15.807 27.476,15.71 28.516,15.841C29.477,16.018 30.281,16.572 30.804,17.322C31.33,18.079 31.571,19.039 31.4,20.017L31.01,22.244C30.903,22.859 30.914,23.457 31.044,24.029C31.174,24.598 31.422,25.141 31.787,25.651C32.341,26.423 32.744,27.308 32.959,28.253C33.165,29.16 33.198,30.126 33.027,31.104C32.685,33.058 31.587,34.688 30.092,35.742C28.595,36.797 26.697,37.276 24.753,36.931C24.044,36.806 23.377,36.579 22.768,36.269C22.265,36.013 21.798,35.7 21.376,35.339C22.391,34.105 23.001,32.521 23.001,30.794C23.001,28.824 22.207,27.04 20.924,25.749C20.774,25.598 20.617,25.454 20.454,25.317C20.628,25.102 20.814,24.898 21.011,24.705C21.312,24.411 21.637,24.144 21.978,23.911C22.457,23.584 22.945,23.117 23.245,22.616C23.553,22.128 23.762,21.579 23.869,20.975L24.258,18.748ZM29.586,22.44C29.825,22.483 30.054,22.321 30.095,22.08L30.485,19.853C30.555,19.455 30.53,19.059 30.428,18.687C30.323,18.304 30.134,17.949 29.88,17.65C29.722,17.465 29.444,17.443 29.26,17.602C29.076,17.761 29.054,18.04 29.212,18.226C29.383,18.427 29.511,18.666 29.582,18.923C29.649,19.167 29.665,19.433 29.618,19.701L29.228,21.928C29.186,22.169 29.346,22.399 29.586,22.44ZM17.305,26.206C17.213,26.432 17.32,26.69 17.544,26.783C18.04,26.988 18.491,27.284 18.874,27.65C19.258,28.017 19.576,28.455 19.805,28.942C19.908,29.162 20.171,29.257 20.39,29.153C20.61,29.049 20.704,28.785 20.6,28.564C20.324,27.978 19.942,27.45 19.48,27.009C19.019,26.569 18.477,26.212 17.878,25.965C17.654,25.873 17.397,25.98 17.305,26.206ZM15.91,24.546C17.625,24.546 19.178,25.246 20.301,26.376C21.424,27.506 22.12,29.069 22.12,30.794C22.12,32.519 21.424,34.082 20.301,35.212C19.178,36.342 17.625,37.042 15.91,37.042C14.196,37.042 12.643,36.342 11.52,35.212C10.397,34.082 9.701,32.519 9.701,30.794C9.701,29.069 10.397,27.506 11.52,26.376C12.643,25.246 14.196,24.546 15.91,24.546Z" clip-rule="evenodd" fill-rule="evenodd" fill="#989980"/>
</svg>
