<svg width="32" height="36" viewBox="0 0 32 36" fill="none" xmlns="http://www.w3.org/2000/svg" xmlns:xlink="http://www.w3.org/1999/xlink">
<path d="M24,8.4C24,12.819 20.418,18.4 16,18.4C11.582,18.4 8,12.819 8,8.4C8,3.982 11.582,0.4 16,0.4C20.418,0.4 24,3.982 24,8.4ZM21.6,8.4C21.6,10.027 20.913,12.035 19.731,13.626C18.531,15.24 17.162,16 16,16C14.838,16 13.469,15.24 12.269,13.626C11.087,12.035 10.4,10.027 10.4,8.4C10.4,5.308 12.907,2.8 16,2.8C19.093,2.8 21.6,5.308 21.6,8.4Z" clip-rule="evenodd" fill-rule="evenodd" fill="#989980"/>
<path d="M0,34.291C0,27.061 5.861,21.2 13.091,21.2L19.116,21.2C26.232,21.2 32,26.969 32,34.085C32,34.922 31.321,35.6 30.484,35.6L1.309,35.6C0.586,35.6 0,35.014 0,34.291ZM13.091,23.6L19.116,23.6C24.608,23.6 29.114,27.824 29.563,33.2L2.455,33.2C3.001,27.808 7.555,23.6 13.091,23.6Z" clip-rule="evenodd" fill-rule="evenodd" fill="#989980"/>
</svg>
