<svg width="32" height="32" viewBox="0 0 32 32" fill="none" xmlns="http://www.w3.org/2000/svg" xmlns:xlink="http://www.w3.org/1999/xlink">
<path d="M30.285,0.657C29.409,-0.219 27.987,-0.219 27.111,0.657L14.943,12.826L3.832,1.715C2.955,0.838 1.534,0.838 0.658,1.715C-0.219,2.592 -0.219,4.013 0.658,4.889L11.768,16L0.657,27.111C-0.219,27.987 -0.219,29.409 0.657,30.285C1.534,31.162 2.955,31.162 3.832,30.285L14.943,19.174L27.111,31.343C27.987,32.219 29.409,32.219 30.285,31.343C31.162,30.466 31.162,29.045 30.285,28.168L18.117,16L30.285,3.832C31.162,2.955 31.162,1.534 30.285,0.657Z" fill="#FFFFFF"/>
</svg>
