<svg width="20" height="20" viewBox="0 0 20 20" fill="none" xmlns="http://www.w3.org/2000/svg" xmlns:xlink="http://www.w3.org/1999/xlink">
<path d="M8.393,-0.8C7.829,-0.8 7.372,-0.342 7.372,0.222L7.372,7.372L0.221,7.372C-0.343,7.372 -0.8,7.829 -0.8,8.393C-0.8,8.957 -0.343,9.414 0.221,9.414L7.372,9.414L7.372,17.245C7.372,17.81 7.829,18.267 8.393,18.267C8.957,18.267 9.414,17.81 9.414,17.245L9.414,9.414L17.245,9.414C17.809,9.414 18.267,8.957 18.267,8.393C18.267,7.829 17.809,7.372 17.245,7.372L9.414,7.372L9.414,0.222C9.414,-0.342 8.957,-0.8 8.393,-0.8Z" clip-rule="evenodd" fill-rule="evenodd" fill="#FFFFFF"/>
</svg>
