<svg width="14" height="14" viewBox="0 0 14 14" fill="none" xmlns="http://www.w3.org/2000/svg" xmlns:xlink="http://www.w3.org/1999/xlink">
<path d="M6.285,-0.4C5.875,-0.4 5.542,-0.067 5.542,0.343L5.542,5.543L0.342,5.543C-0.068,5.543 -0.4,5.876 -0.4,6.286C-0.4,6.696 -0.068,7.029 0.342,7.029L5.542,7.029L5.542,12.724C5.542,13.134 5.875,13.467 6.285,13.467C6.695,13.467 7.028,13.134 7.028,12.724L7.028,7.029L12.723,7.029C13.134,7.029 13.466,6.696 13.466,6.286C13.466,5.876 13.134,5.543 12.723,5.543L7.028,5.543L7.028,0.343C7.028,-0.067 6.695,-0.4 6.285,-0.4Z" clip-rule="evenodd" fill-rule="evenodd" fill="#FFFFFF"/>
</svg>
