<svg width="42" height="34" viewBox="0 0 42 34" fill="none" xmlns="http://www.w3.org/2000/svg" xmlns:xlink="http://www.w3.org/1999/xlink">
<path d="M4.261,1.202C3.724,1.739 3.724,2.608 4.261,3.145L33.514,32.397C34.05,32.934 34.92,32.934 35.456,32.397C35.993,31.861 35.993,30.991 35.456,30.455L6.204,1.202C5.667,0.666 4.797,0.666 4.261,1.202Z" fill="#989980"/>
<path d="M0,16.63C0,15.466 2.332,12.053 6.088,8.978L7.992,10.971C7.88,11.061 7.768,11.153 7.658,11.244C5.99,12.632 4.663,14.068 3.777,15.244C3.332,15.834 3.028,16.318 2.85,16.663C2.82,16.722 2.796,16.771 2.777,16.812L2.78,16.827C2.812,16.96 2.869,17.138 2.963,17.361C3.152,17.812 3.461,18.373 3.908,19.016C4.804,20.301 6.151,21.76 7.855,23.135C11.291,25.907 15.852,28.078 20.605,28.078C21.757,28.078 22.886,27.943 23.981,27.698L26.144,29.961C24.396,30.507 22.539,30.825 20.605,30.825C9.478,30.825 0,20.751 0,16.63Z" fill="#989980"/>
<path d="M12.821,17.546C12.821,17.07 12.863,16.605 12.945,16.152L21.651,25.261C21.309,25.307 20.96,25.33 20.605,25.33C16.306,25.33 12.821,21.845 12.821,17.546Z" fill="#989980"/>
<path d="M18.729,9.99L28.069,19.762C28.277,19.06 28.389,18.316 28.389,17.546C28.389,13.247 24.904,9.762 20.605,9.762C19.958,9.762 19.33,9.841 18.729,9.99Z" fill="#989980"/>
<path d="M32.813,23.034C32.522,23.289 32.221,23.539 31.913,23.783L33.818,25.777C37.826,22.543 40.294,18.597 40.294,16.63C40.294,13.425 31.274,3.352 20.147,3.352C17.843,3.352 15.63,3.823 13.568,4.59L15.664,6.783C17.113,6.349 18.617,6.099 20.147,6.099C24.894,6.099 29.342,8.265 32.676,10.934C34.329,12.257 35.63,13.645 36.493,14.824C36.925,15.415 37.216,15.914 37.39,16.29C37.483,16.492 37.523,16.618 37.539,16.676C37.525,16.759 37.482,16.952 37.354,17.27C37.179,17.707 36.893,18.259 36.479,18.896C35.65,20.171 34.403,21.642 32.813,23.034Z" fill="#989980"/>
</svg>
