<svg width="46" height="34" viewBox="0 0 46 34" fill="none" xmlns="http://www.w3.org/2000/svg" xmlns:xlink="http://www.w3.org/1999/xlink">
<path d="M20.429,11.05C19.843,10.464 19.843,9.515 20.429,8.929C21.015,8.343 21.964,8.343 22.55,8.929L27.5,13.879L32.45,8.929C33.035,8.343 33.985,8.343 34.571,8.929C35.157,9.515 35.157,10.464 34.571,11.05L29.621,16L34.571,20.95C35.157,21.536 35.157,22.485 34.571,23.071C33.985,23.657 33.035,23.657 32.45,23.071L27.5,18.121L22.55,23.071C21.964,23.657 21.015,23.657 20.429,23.071C19.843,22.485 19.843,21.536 20.429,20.95L25.379,16L20.429,11.05Z" fill="#FFFFFF"/>
<path d="M14.243,0.757L-1,16L14.243,31.243C15.368,32.368 16.894,33 18.485,33L39,33C42.314,33 45,30.314 45,27L45,5C45,1.686 42.314,-1 39,-1L18.485,-1C16.894,-1 15.368,-0.368 14.243,0.757ZM39,30.4L18.485,30.4C17.584,30.4 16.719,30.042 16.081,29.404L2.677,16L16.081,2.596C16.719,1.958 17.584,1.6 18.485,1.6L39,1.6C40.878,1.6 42.4,3.122 42.4,5L42.4,27C42.4,28.878 40.878,30.4 39,30.4Z" clip-rule="evenodd" fill-rule="evenodd" fill="#FFFFFF"/>
</svg>
