<svg width="32" height="50" viewBox="0 0 32 50" fill="none" xmlns="http://www.w3.org/2000/svg" xmlns:xlink="http://www.w3.org/1999/xlink">
<path d="M15.996,-0.25C11.354,-0.25 7.574,3.519 7.574,8.168L7.574,27.661C7.574,32.31 11.344,36.078 15.996,36.078C20.638,36.078 24.417,32.31 24.417,27.661L24.417,8.168C24.417,3.518 20.647,-0.25 15.996,-0.25ZM11.183,8.156L11.183,27.672C11.183,30.3 13.338,32.467 15.996,32.467C18.672,32.467 20.808,30.32 20.808,27.672L20.808,8.156C20.808,5.528 18.654,3.361 15.996,3.361C13.319,3.361 11.183,5.508 11.183,8.156Z" clip-rule="evenodd" fill-rule="evenodd" fill="#989980"/>
<path d="M17.969,46.014L17.969,40.981C27.156,40.455 31.094,32.919 31.094,25.555L31.094,22.16C31.095,22.133 31.095,22.107 31.094,22.08L31.094,22.039C31.094,21.042 30.279,20.234 29.283,20.234C28.286,20.234 27.497,21.042 27.497,22.039L27.497,25.553C27.497,32.918 24.531,37.961 16.131,37.961C8.781,37.961 4.516,32.918 4.516,25.553L4.516,22.16C4.516,21.163 3.707,20.354 2.711,20.354C1.714,20.354 0.906,21.163 0.906,22.16L0.906,25.555C0.906,32.928 6.156,40.455 14.294,40.981L14.294,46.014L7.53,46.014C6.546,46.014 5.719,46.822 5.719,47.82C5.719,48.824 6.53,49.625 7.53,49.625L24.531,49.625C25.515,49.625 26.369,48.817 26.369,47.82C26.369,46.815 25.531,46.014 24.531,46.014L17.969,46.014Z" fill="#989980"/>
</svg>
