<svg width="26" height="28" viewBox="0 0 26 28" fill="none" xmlns="http://www.w3.org/2000/svg" xmlns:xlink="http://www.w3.org/1999/xlink">
<path d="M10.13,0.882C14.95,0.07 20.005,1.508 22.796,5.706C26.813,11.23 26.173,19.341 21.376,24.179C17.124,28.287 9.927,28.634 5.265,25.031C1.825,22.371 0.035,17.925 0.202,13.624C0.301,7.726 4.16,2.059 10.13,0.882ZM13.557,1.86C11.537,2.78 10.117,5.111 9.233,7.063C7.497,11.225 6.789,15.887 6.852,20.383C6.893,22.019 6.983,23.683 7.808,25.144C8.552,26.316 10.189,26.749 11.429,26.123C13.561,25.054 15.225,22.926 16.141,20.752C18.106,16.05 19.008,10.544 17.958,5.526C17.453,3.51 16.01,1.071 13.557,1.86Z" fill="#F1762B"/>
</svg>
