<svg width="24" height="26" viewBox="0 0 24 26" fill="none" xmlns="http://www.w3.org/2000/svg" xmlns:xlink="http://www.w3.org/1999/xlink">
<path d="M0.3,-0.812C3.005,-0.938 5.728,-0.857 8.438,-0.857C10.278,3.805 13.998,7.89 17.438,11.457C18.709,12.674 19.909,14.279 21.559,14.906C21.618,12.769 21.784,10.573 21.532,8.445C20.914,5.135 19.616,2.155 18.083,-0.821C20.026,-0.871 21.974,-0.866 23.917,-0.857C23.719,1.366 23.223,3.539 22.952,5.753C22.686,9.491 22.817,13.292 22.889,17.034C22.925,19.681 23.651,22.31 23.958,24.952C22.159,24.979 20.355,24.988 18.556,24.952C16.811,21.669 14.543,18.644 12.244,15.736C10.215,13.391 8.416,10.871 6.364,8.548C5.151,7.205 4.258,5.717 2.825,4.743C2.595,7.475 2.572,10.235 2.59,12.976C2.559,17.178 4.304,21.232 6.121,24.938C4.173,24.974 2.225,24.974 0.277,24.961C0.485,22.111 1.328,19.433 1.332,16.583C1.4,13.278 1.368,9.969 1.287,6.659C1.215,4.094 0.408,1.726 0.3,-0.812Z" fill="#F1762B"/>
</svg>
