<svg width="140" height="132" viewBox="0 0 140 132" fill="none" xmlns="http://www.w3.org/2000/svg" xmlns:xlink="http://www.w3.org/1999/xlink">
<path d="M97.021,0.037C101.021,-0.292 104.641,1.664 108.352,2.981C117.749,6.327 126.126,10.872 135.094,15.096C136.456,15.732 137.619,16.693 138.453,17.942C139.621,19.47 139.211,21.945 139.256,23.767C135.919,22.414 132.443,21.508 129.057,20.277C122.952,18.451 117.054,16.07 110.904,14.366C107.157,12.995 103.37,11.773 99.6,10.47C98.257,11.417 97.125,12.608 96.836,14.285C96.809,15.182 96.588,16.097 97.517,16.611C100.029,17.896 103.063,18.568 105.705,19.587C110.918,21.508 116.184,23.235 121.396,25.138C126.96,26.892 132.389,29.097 138.003,30.693C137.664,32.677 136.871,34.471 136.276,36.378C134.513,35.905 132.808,35.26 131.05,34.773C127.15,33.678 123.439,32.091 119.552,30.95C111.81,28.384 103.996,26.017 96.313,23.285C94.009,22.342 92.174,25.508 92.296,27.451C92.643,28.204 93.107,29.178 93.951,29.453C96.394,30.467 99.037,31.067 101.517,31.996C102.856,32.496 104.195,32.997 105.57,33.403C110.462,34.859 115.224,36.694 120.111,38.164C122.672,38.881 125.089,39.986 127.637,40.734C129.391,41.293 131.086,41.546 132.632,42.628C131.424,43.854 129.999,45.428 128.326,45.987C126.469,46.492 124.575,46.185 122.749,45.694C118.989,44.72 115.242,44.26 111.459,43.426C106.201,42.222 101.016,41.51 95.925,39.611C91.322,37.943 85.875,36.121 82.304,32.641C80.081,30.688 78.868,27.609 78.742,24.691C78.616,22.906 78.499,20.827 77.7,19.2C76.848,17.621 75.496,16.269 74.269,14.97C71.925,12.333 68.363,11.426 65.008,10.917C56.766,11.593 48.591,14.483 41.399,18.501C38,20.633 34.767,23.05 31.791,25.742C20.618,36.252 13.444,51.213 13.232,66.638C12.853,68.942 13.386,71.133 13.372,73.446C13.782,78.947 15.171,84.421 17.141,89.566C19.252,95.296 22.656,100.441 26.358,105.252C29.352,109.08 32.981,112.16 36.859,115.045C40.475,117.931 44.488,119.892 48.668,121.809C50.99,122.877 53.42,123.468 55.864,124.171C60.864,125.677 65.725,125.925 70.87,126.218C73.237,125.898 75.613,126.034 77.953,125.574C80.92,125.1 83.846,124.437 86.75,123.684C89.554,122.981 92.26,121.728 94.884,120.528C99.997,117.999 105.187,114.91 109.29,110.906C111.175,109.355 112.717,107.718 114.25,105.82C113.032,107.93 111.328,109.544 109.7,111.316C102.635,118.9 94.09,124.933 84.18,128.162C81.267,129.158 78.192,130.272 75.153,130.75C72.651,131.106 70.135,131.331 67.619,131.643C62.456,132.22 57.51,131.647 52.387,131.034C46.242,130.177 40.746,127.878 35.186,125.235C31.295,123.436 27.634,120.808 24.22,118.224C13.724,109.905 6.126,98.245 2.524,85.359C-0.276,75.516 -0.439,64.888 1.622,54.888C4.228,42.939 10.31,31.901 18.801,23.122C23.17,18.807 28.256,15.169 33.698,12.328C36.142,10.894 38.68,9.771 41.341,8.793C45.29,7.102 49.578,6.412 53.821,5.614C56.955,4.978 60.044,5.15 63.218,4.888C67.447,4.983 71.568,5.222 75.703,6.137C77.7,6.512 79.68,7.269 81.7,7.413C84.121,7.134 86.479,5.366 88.265,3.797C90.655,1.637 93.716,-0.053 97.021,0.037Z" fill="#F1762B"/>
</svg>
