<svg width="34" height="38" viewBox="0 0 34 38" fill="none" xmlns="http://www.w3.org/2000/svg" xmlns:xlink="http://www.w3.org/1999/xlink">
<path d="M0.173,0.999C10.957,0.974 21.736,0.968 32.514,1.012C32.289,3.055 31.902,5.067 31.496,7.079C31.002,9.534 31.058,12.184 30.896,14.714C29.84,11.328 28.834,7.21 26.447,4.498C25.179,2.955 23.535,2.674 21.686,2.23C19.886,10.272 20.042,18.251 20.43,26.423C20.673,29.891 21.542,33.29 21.898,36.752C18.074,36.796 14.238,36.846 10.414,36.721C12.138,29.123 12.651,21.693 12.338,13.914C12.288,9.953 11.145,6.185 10.989,2.236C9.002,2.63 7.202,2.961 5.878,4.642C3.966,7.197 2.96,10.621 1.791,13.546C1.285,9.366 0.579,5.192 0.173,0.999Z" fill="#F1762B"/>
</svg>
