<svg width="24" height="10" viewBox="0 0 24 10" fill="none" xmlns="http://www.w3.org/2000/svg" xmlns:xlink="http://www.w3.org/1999/xlink">
<path d="M2.625,-0.313C2.193,-0.658 1.564,-0.588 1.219,-0.156C0.874,0.275 0.944,0.904 1.375,1.249L2.625,-0.313ZM12,8.468L11.375,9.249C11.741,9.541 12.259,9.541 12.625,9.249L12,8.468ZM22.625,1.249C23.056,0.904 23.126,0.275 22.781,-0.156C22.436,-0.588 21.807,-0.658 21.375,-0.313L22.625,1.249ZM1.375,1.249L11.375,9.249L12.625,7.687L2.625,-0.313L1.375,1.249ZM12.625,9.249L22.625,1.249L21.375,-0.313L11.375,7.687L12.625,9.249Z" transform="rotate(-360 12 4.468)" fill="#FFFFFF"/>
</svg>
