<svg width="36" height="36" viewBox="0 0 36 36" fill="none" xmlns="http://www.w3.org/2000/svg" xmlns:xlink="http://www.w3.org/1999/xlink">
<path d="M29.938,24.031C28.19,24.031 26.554,24.791 25.418,26.05L14.111,19.614C14.406,18.82 14.562,17.979 14.562,17.126C14.562,16.419 14.446,15.724 14.245,15.054L25.169,9.682C26.306,11.119 28.044,11.981 29.938,11.981C33.282,11.981 36,9.295 36,5.99C36,2.686 33.282,0 29.938,0C26.594,0 23.876,2.686 23.876,5.99C23.876,6.503 23.949,7.017 24.083,7.514L13.158,12.886C11.806,11.043 9.652,9.934 7.282,9.934C3.267,9.934 0,13.162 0,17.124C0,21.088 3.267,24.314 7.282,24.314C9.461,24.314 11.513,23.337 12.885,21.706L24.192,28.136C23.991,28.736 23.874,29.371 23.874,30.01C23.874,33.314 26.592,36 29.936,36C33.28,36 35.998,33.314 35.998,30.01C35.998,26.706 33.28,24.019 29.936,24.019L29.938,24.031ZM29.938,2.426C31.931,2.426 33.551,4.027 33.551,5.997C33.551,7.966 31.931,9.567 29.938,9.567C28.563,9.567 27.323,8.807 26.701,7.582C26.457,7.093 26.325,6.547 26.325,6C26.325,4.031 27.945,2.43 29.938,2.43L29.938,2.426ZM7.29,21.903C4.625,21.903 2.456,19.763 2.456,17.132C2.456,14.499 4.625,12.361 7.29,12.361C9.136,12.361 10.79,13.372 11.613,15.017C11.946,15.671 12.118,16.382 12.118,17.136C12.118,17.973 11.898,18.795 11.477,19.518C10.614,20.994 9.01,21.909 7.29,21.909L7.29,21.903ZM29.938,33.594C27.945,33.594 26.325,31.993 26.325,30.024C26.325,29.394 26.491,28.785 26.814,28.243C27.455,27.139 28.651,26.457 29.938,26.457C31.931,26.457 33.551,28.058 33.551,30.027C33.551,31.997 31.931,33.598 29.938,33.598L29.938,33.594Z" fill="#596235"/>
</svg>
