<svg width="36" height="40" viewBox="0 0 36 40" fill="none" xmlns="http://www.w3.org/2000/svg" xmlns:xlink="http://www.w3.org/1999/xlink">
<path d="M7.1,12.8C7.1,11.972 6.428,11.3 5.6,11.3C4.772,11.3 4.1,11.972 4.1,12.8L7.1,12.8ZM32.3,12.8C32.3,11.972 31.628,11.3 30.8,11.3C29.972,11.3 29.3,11.972 29.3,12.8L32.3,12.8ZM23.3,18.2C23.3,17.372 22.628,16.7 21.8,16.7C20.972,16.7 20.3,17.372 20.3,18.2L23.3,18.2ZM20.3,29C20.3,29.828 20.972,30.5 21.8,30.5C22.628,30.5 23.3,29.828 23.3,29L20.3,29ZM16.1,18.2C16.1,17.372 15.428,16.7 14.6,16.7C13.772,16.7 13.1,17.372 13.1,18.2L16.1,18.2ZM13.1,29C13.1,29.828 13.772,30.5 14.6,30.5C15.428,30.5 16.1,29.828 16.1,29L13.1,29ZM34.4,8.9C35.228,8.9 35.9,8.228 35.9,7.4C35.9,6.572 35.228,5.9 34.4,5.9L34.4,8.9ZM2,5.9C1.172,5.9 0.5,6.572 0.5,7.4C0.5,8.228 1.172,8.9 2,8.9L2,5.9ZM22.869,3.603L21.621,4.435L21.621,4.435L22.869,3.603ZM13.531,3.603L12.283,2.771L13.531,3.603ZM12.8,39.5L23.6,39.5L23.6,36.5L12.8,36.5L12.8,39.5ZM4.1,12.8L4.1,30.8L7.1,30.8L7.1,12.8L4.1,12.8ZM32.3,30.8L32.3,12.8L29.3,12.8L29.3,30.8L32.3,30.8ZM23.6,39.5C28.405,39.5 32.3,35.605 32.3,30.8L29.3,30.8C29.3,33.948 26.748,36.5 23.6,36.5L23.6,39.5ZM12.8,36.5C9.652,36.5 7.1,33.948 7.1,30.8L4.1,30.8C4.1,35.605 7.995,39.5 12.8,39.5L12.8,36.5ZM20.3,18.2L20.3,29L23.3,29L23.3,18.2L20.3,18.2ZM13.1,18.2L13.1,29L16.1,29L16.1,18.2L13.1,18.2ZM16.527,3.5L19.873,3.5L19.873,0.5L16.527,0.5L16.527,3.5ZM21.621,4.435L24.152,8.232L26.648,6.568L24.117,2.771L21.621,4.435ZM25.4,5.9L11,5.9L11,8.9L25.4,8.9L25.4,5.9ZM12.248,8.232L14.779,4.435L12.283,2.771L9.752,6.568L12.248,8.232ZM25.4,8.9L34.4,8.9L34.4,5.9L25.4,5.9L25.4,8.9ZM11,5.9L2,5.9L2,8.9L11,8.9L11,5.9ZM19.873,3.5C20.575,3.5 21.231,3.851 21.621,4.435L24.117,2.771C23.171,1.352 21.579,0.5 19.873,0.5L19.873,3.5ZM16.527,0.5C14.821,0.5 13.229,1.352 12.283,2.771L14.779,4.435C15.169,3.851 15.825,3.5 16.527,3.5L16.527,0.5Z" fill="#D96846"/>
</svg>
