<svg width="26" height="28" viewBox="0 0 26 28" fill="none" xmlns="http://www.w3.org/2000/svg" xmlns:xlink="http://www.w3.org/1999/xlink">
<path d="M13,1C9.553,1 6.245,2.37 3.807,4.807C1.37,7.245 0,10.552 0,14C0,17.448 1.37,20.755 3.807,23.193C6.245,25.63 9.552,27 13,27C16.448,27 19.755,25.63 22.193,23.193C24.63,20.755 26,17.448 26,14C25.996,10.554 24.626,7.249 22.189,4.811C19.751,2.374 16.446,1.004 13,1ZM13,25C10.083,25 7.285,23.841 5.221,21.779C3.159,19.715 2,16.918 2,14C2,11.082 3.159,8.285 5.221,6.221C7.285,4.159 10.082,3 13,3C15.918,3 18.715,4.159 20.779,6.221C22.841,8.285 24,11.082 24,14C23.996,16.916 22.836,19.713 20.774,21.774C18.713,23.836 15.916,24.996 13,25ZM20.666,14C20.66,14.549 20.216,14.993 19.666,15L13,15C12.451,14.992 12.007,14.549 12,14L12,6C12,5.447 12.447,5 13,5C13.553,5 14,5.447 14,6L14,13L19.666,13C20.216,13.008 20.66,13.451 20.666,14Z" fill="#596235"/>
</svg>
