<svg width="36" height="36" viewBox="0 0 36 36" fill="none" xmlns="http://www.w3.org/2000/svg" xmlns:xlink="http://www.w3.org/1999/xlink">
<path d="M2,32.5C1.172,32.5 0.5,33.172 0.5,34C0.5,34.828 1.172,35.5 2,35.5L2,32.5ZM34,35.5C34.828,35.5 35.5,34.828 35.5,34C35.5,33.172 34.828,32.5 34,32.5L34,35.5ZM9.679,28.645L9.467,27.161L9.467,27.161L9.679,28.645ZM7.355,26.321L5.87,26.109L5.87,26.109L7.355,26.321ZM9.389,17.893L8.328,16.833L8.328,16.833L9.389,17.893ZM8.226,20.218L9.711,20.43L9.711,20.43L8.226,20.218ZM18.107,26.611L19.167,27.672L19.167,27.672L18.107,26.611ZM15.782,27.774L15.994,29.259L15.994,29.259L15.782,27.774ZM32.796,6.11L31.736,7.17L31.736,7.17L32.796,6.11ZM32.796,11.922L31.736,10.861L31.736,10.861L32.796,11.922ZM29.89,3.204L30.951,2.143L30.951,2.143L29.89,3.204ZM24.078,3.204L25.139,4.264L25.139,4.264L24.078,3.204ZM22.672,6.11C22.672,5.281 22.001,4.61 21.172,4.61C20.344,4.61 19.672,5.281 19.672,6.11L22.672,6.11ZM29.89,16.328C30.719,16.328 31.39,15.656 31.39,14.828C31.39,13.999 30.719,13.328 29.89,13.328L29.89,16.328ZM2,35.5L34,35.5L34,32.5L2,32.5L2,35.5ZM28.83,4.264L31.736,7.17L33.857,5.049L30.951,2.143L28.83,4.264ZM31.736,10.861L17.046,25.551L19.167,27.672L33.857,12.982L31.736,10.861ZM10.449,18.954L25.139,4.264L23.018,2.143L8.328,16.833L10.449,18.954ZM15.57,26.289L9.467,27.161L9.891,30.13L15.994,29.259L15.57,26.289ZM8.839,26.533L9.711,20.43L6.741,20.006L5.87,26.109L8.839,26.533ZM9.467,27.161C9.101,27.213 8.787,26.899 8.839,26.533L5.87,26.109C5.534,28.455 7.545,30.466 9.891,30.13L9.467,27.161ZM8.328,16.833C7.47,17.691 6.913,18.804 6.741,20.006L9.711,20.43C9.791,19.871 10.05,19.353 10.449,18.954L8.328,16.833ZM17.046,25.551C16.647,25.95 16.129,26.209 15.57,26.289L15.994,29.259C17.196,29.087 18.309,28.53 19.167,27.672L17.046,25.551ZM31.736,7.17C32.755,8.19 32.755,9.842 31.736,10.861L33.857,12.982C36.048,10.792 36.048,7.24 33.857,5.049L31.736,7.17ZM30.951,2.143C28.76,-0.048 25.208,-0.048 23.018,2.143L25.139,4.264C26.158,3.245 27.81,3.245 28.83,4.264L30.951,2.143ZM21.172,6.11C19.672,6.11 19.672,6.11 19.672,6.111C19.672,6.111 19.672,6.112 19.672,6.113C19.672,6.114 19.672,6.115 19.672,6.116C19.672,6.118 19.672,6.121 19.672,6.124C19.672,6.129 19.672,6.135 19.673,6.142C19.673,6.156 19.673,6.172 19.674,6.191C19.675,6.23 19.677,6.28 19.681,6.34C19.689,6.46 19.704,6.623 19.733,6.821C19.789,7.218 19.899,7.761 20.113,8.4C20.541,9.685 21.381,11.346 23.018,12.982L25.139,10.861C23.869,9.591 23.257,8.347 22.959,7.452C22.808,7.001 22.737,6.636 22.703,6.397C22.686,6.278 22.678,6.19 22.675,6.14C22.673,6.116 22.672,6.1 22.672,6.095C22.672,6.092 22.672,6.092 22.672,6.094C22.672,6.096 22.672,6.097 22.672,6.1C22.672,6.101 22.672,6.103 22.672,6.104C22.672,6.105 22.672,6.106 22.672,6.107C22.672,6.107 22.672,6.108 22.672,6.108C22.672,6.109 22.672,6.11 21.172,6.11ZM23.018,12.982C24.654,14.619 26.315,15.459 27.6,15.887C28.239,16.101 28.782,16.211 29.179,16.267C29.377,16.296 29.54,16.311 29.66,16.319C29.72,16.323 29.77,16.325 29.809,16.326C29.828,16.327 29.844,16.327 29.858,16.327C29.865,16.328 29.871,16.328 29.876,16.328C29.879,16.328 29.882,16.328 29.884,16.328C29.885,16.328 29.886,16.328 29.887,16.328C29.888,16.328 29.889,16.328 29.889,16.328C29.89,16.328 29.89,16.328 29.89,14.828C29.89,13.328 29.891,13.328 29.892,13.328C29.892,13.328 29.893,13.328 29.893,13.328C29.894,13.328 29.895,13.328 29.896,13.328C29.897,13.328 29.899,13.328 29.9,13.328C29.903,13.328 29.904,13.328 29.906,13.328C29.908,13.328 29.908,13.328 29.905,13.328C29.9,13.328 29.884,13.327 29.86,13.325C29.81,13.322 29.722,13.314 29.603,13.297C29.364,13.263 28.999,13.192 28.548,13.041C27.653,12.743 26.409,12.131 25.139,10.861L23.018,12.982Z" fill="#FFFFFF"/>
</svg>
