<svg width="36" height="36" viewBox="0 0 36 36" fill="none" xmlns="http://www.w3.org/2000/svg" xmlns:xlink="http://www.w3.org/1999/xlink">
<path d="M18,0C13.227,0 8.647,1.897 5.272,5.272C1.897,8.647 0,13.226 0,18C0,22.774 1.897,27.353 5.272,30.728C8.647,34.103 13.226,36 18,36C22.774,36 27.353,34.103 30.728,30.728C34.103,27.353 36,22.774 36,18C35.995,13.228 34.098,8.652 30.723,5.277C27.348,1.902 22.772,0.005 18,0ZM18,33.231C13.96,33.231 10.087,31.626 7.229,28.771C4.373,25.913 2.769,22.04 2.769,18C2.769,13.96 4.374,10.087 7.229,7.229C10.087,4.373 13.96,2.769 18,2.769C22.04,2.769 25.913,4.374 28.771,7.229C31.627,10.087 33.231,13.96 33.231,18C33.226,22.038 31.619,25.91 28.764,28.764C25.91,31.619 22.038,33.225 18,33.231ZM28.615,18C28.606,18.76 27.992,19.374 27.23,19.385L18,19.385C17.24,19.374 16.626,18.76 16.615,18L16.615,6.923C16.615,6.158 17.235,5.538 18,5.538C18.765,5.538 19.385,6.158 19.385,6.923L19.385,16.615L27.23,16.615C27.992,16.626 28.606,17.24 28.615,18Z" fill="#596235"/>
</svg>
