<svg width="26" height="26" viewBox="0 0 26 26" fill="none" xmlns="http://www.w3.org/2000/svg" xmlns:xlink="http://www.w3.org/1999/xlink">
<path d="M13,-1C9.553,-1 6.245,0.37 3.807,2.807C1.37,5.245 0,8.552 0,12C0,15.448 1.37,18.755 3.807,21.193C6.245,23.63 9.552,25 13,25C16.448,25 19.755,23.63 22.193,21.193C24.63,18.755 26,15.448 26,12C25.996,8.554 24.626,5.249 22.189,2.811C19.751,0.374 16.446,-0.996 13,-1ZM13,23C10.083,23 7.285,21.841 5.221,19.779C3.159,17.715 2,14.918 2,12C2,9.082 3.159,6.285 5.221,4.221C7.285,2.159 10.082,1 13,1C15.918,1 18.715,2.159 20.779,4.221C22.841,6.285 24,9.082 24,12C23.996,14.916 22.836,17.713 20.774,19.774C18.713,21.836 15.916,22.996 13,23ZM20.666,12C20.66,12.549 20.216,12.993 19.666,13L13,13C12.451,12.993 12.007,12.549 12,12L12,4C12,3.447 12.447,3 13,3C13.553,3 14,3.447 14,4L14,11L19.666,11C20.216,11.007 20.66,11.451 20.666,12Z" fill="#596235"/>
</svg>
