<svg width="38" height="38" viewBox="0 0 38 38" fill="none" xmlns="http://www.w3.org/2000/svg" xmlns:xlink="http://www.w3.org/1999/xlink">
<path d="M0.809,1.074C5.37,0.855 9.956,1.011 14.524,0.98C14.08,4.892 14.624,8.734 15.473,12.546C17.273,19.244 20.028,25.33 22.546,31.616C25.115,25.324 28.132,18.732 29.551,12.058C30.394,8.041 29.338,3.654 25.902,1.168C29.826,0.868 33.787,0.943 37.724,1.086C34,6.641 31.332,12.633 28.882,18.819C26.533,24.761 24.027,30.653 21.859,36.664C19.429,37.127 17.023,37.445 14.542,37.389C14.224,35.59 13.818,33.809 13.293,32.059C10.625,23.005 7.282,14.033 2.921,5.654C2.221,4.192 0.971,2.692 0.809,1.074Z" fill="#F1762B"/>
</svg>
