<svg width="48" height="48" viewBox="0 0 48 48" fill="none" xmlns="http://www.w3.org/2000/svg" xmlns:xlink="http://www.w3.org/1999/xlink">
<path d="M46.154,30.638C46.154,27.139 37.395,25.794 31.617,25.286C31.299,23.295 29.743,21.621 27.604,21.252L26.314,21.03L27.596,13.919L27.727,13.942C27.842,13.962 27.957,13.972 28.071,13.972C28.469,13.972 28.856,13.853 29.188,13.625C29.617,13.332 29.901,12.893 29.991,12.391L31.576,3.597C31.722,2.791 31.538,1.978 31.058,1.307C30.578,0.637 29.86,0.19 29.036,0.046C28.212,-0.093 27.381,0.086 26.696,0.555C26.011,1.025 25.554,1.727 25.409,2.532L23.824,11.327C23.732,11.831 23.848,12.338 24.147,12.757C24.447,13.176 24.896,13.454 25.408,13.542L25.541,13.565L24.259,20.675L22.97,20.453C21.67,20.225 20.354,20.511 19.267,21.255C18.184,21.997 17.46,23.11 17.23,24.384L17.102,25.097C12.245,25.39 0,26.536 0,30.638C0,30.654 0.004,30.668 0.004,30.684C0.035,40.236 10.371,48 23.073,48C35.799,48 46.154,40.213 46.154,30.641C46.154,30.642 46.154,30.641 46.154,30.641C46.154,30.641 46.154,30.639 46.154,30.638ZM27.466,2.887C27.514,2.618 27.665,2.384 27.894,2.227C28.123,2.071 28.397,2.013 28.674,2.058C28.948,2.106 29.187,2.255 29.347,2.479C29.508,2.702 29.569,2.972 29.521,3.242L27.997,11.915L25.903,11.553L27.466,2.887ZM44.066,30.638C44.066,31.369 40.079,33.312 30.329,34.043L31.538,27.334C40.942,28.176 44.066,30.06 44.066,30.638ZM19.286,24.739C19.419,24.001 19.838,23.358 20.465,22.928C20.952,22.594 21.52,22.42 22.103,22.42C22.271,22.42 22.439,22.434 22.607,22.463L27.241,23.263C28.798,23.532 29.841,24.989 29.567,26.512L28.22,33.988C27.945,35.511 26.443,36.532 24.899,36.263L20.264,35.464C19.51,35.334 18.853,34.924 18.414,34.311C17.975,33.696 17.805,32.952 17.938,32.215L19.286,24.739ZM16.728,27.171L15.883,31.86C15.748,32.607 15.813,33.353 16.025,34.06C6.179,33.349 2.128,31.408 2.091,30.649C2.091,30.647 2.091,30.644 2.091,30.641C2.091,30.639 2.089,30.636 2.089,30.634C2.104,29.857 6.354,27.838 16.728,27.171ZM23.073,45.957C12.809,45.957 4.259,40.546 2.456,33.429C3.911,34.143 5.865,34.682 7.921,35.085C8.031,35.427 8.219,35.958 8.514,36.624C8.544,36.692 8.611,36.732 8.681,36.732C8.706,36.732 8.73,36.728 8.754,36.717C8.847,36.678 8.889,36.574 8.849,36.483C8.611,35.945 8.444,35.493 8.332,35.163C11.746,35.799 15.35,36.079 17.325,36.192C18.029,36.858 18.917,37.306 19.901,37.475L24.536,38.274C24.826,38.325 25.114,38.349 25.399,38.349C27.085,38.349 28.625,37.492 29.527,36.151C33.272,35.909 40.058,35.238 43.696,33.451C41.88,40.558 33.331,45.957 23.073,45.957ZM24.148,33.05L25.398,26.116C25.497,25.561 26.038,25.188 26.607,25.289C27.175,25.386 27.554,25.916 27.453,26.472L26.204,33.405C26.115,33.901 25.674,34.249 25.177,34.249C25.117,34.249 25.056,34.244 24.994,34.233C24.427,34.135 24.047,33.605 24.148,33.05ZM20.037,32.341L21.286,25.407C21.386,24.852 21.927,24.476 22.495,24.58C23.063,24.677 23.442,25.207 23.341,25.762L22.092,32.696C22.003,33.192 21.563,33.54 21.066,33.54C21.005,33.54 20.944,33.535 20.883,33.524C20.315,33.426 19.936,32.896 20.037,32.341ZM15.339,44.166C15.424,44.22 15.448,44.331 15.394,44.414C15.359,44.466 15.301,44.495 15.241,44.495C15.207,44.495 15.172,44.486 15.142,44.467C14.555,44.097 13.986,43.684 13.447,43.238C13.371,43.174 13.361,43.061 13.426,42.985C13.492,42.911 13.607,42.903 13.684,42.964C14.21,43.4 14.766,43.805 15.339,44.166ZM11.519,40.801C11.582,40.878 11.571,40.991 11.492,41.053C11.458,41.079 11.418,41.092 11.377,41.092C11.324,41.092 11.271,41.071 11.235,41.027C10.799,40.501 10.383,39.94 10,39.356C9.946,39.273 9.97,39.163 10.055,39.109C10.139,39.055 10.253,39.08 10.307,39.163C10.683,39.735 11.09,40.287 11.519,40.801Z" fill="#0B8A7B"/>
</svg>
