<svg width="24" height="26" viewBox="0 0 24 26" fill="none" xmlns="http://www.w3.org/2000/svg" xmlns:xlink="http://www.w3.org/1999/xlink">
<path d="M0.755,-0.812C3.465,-0.934 6.207,-0.898 8.921,-0.803C8.258,3.35 7.393,7.173 7.604,11.303C11.234,8.463 13.633,3.764 13.435,-0.875C16,-0.848 18.484,-0.934 21.023,-0.744C20.063,0.545 18.818,1.438 17.722,2.61C15.125,5.302 12.366,7.845 9.845,10.613C11.415,10.622 12.939,10.537 14.49,10.334C16.131,14.162 18.475,17.706 20.901,21.079C21.785,22.391 23.034,23.486 23.71,24.907C20.554,24.979 17.371,25.042 14.219,24.92C13.547,20.551 11.23,15.947 7.623,13.292C7.609,17.187 8.2,21.11 8.93,24.929C6.18,25.001 3.425,24.97 0.674,24.965C0.949,22.31 1.702,19.69 1.729,17.034C1.752,15.677 1.784,14.324 1.955,12.972C2.234,11.015 1.671,9.126 1.711,7.128C1.72,4.427 0.868,1.862 0.755,-0.812Z" fill="#F1762B"/>
</svg>
