<svg width="78" height="56" viewBox="0 0 78 56" fill="none" xmlns="http://www.w3.org/2000/svg" xmlns:xlink="http://www.w3.org/1999/xlink">
<path d="M6.897,28.241C5.373,26.642 2.841,26.58 1.241,28.103C-0.358,29.627 -0.42,32.159 1.103,33.759L6.897,28.241ZM24,52L21.103,54.759C21.837,55.529 22.847,55.975 23.91,55.999C24.974,56.023 26.003,55.622 26.77,54.886L24,52ZM76.77,6.886C78.364,5.356 78.415,2.824 76.886,1.23C75.356,-0.364 72.824,-0.415 71.23,1.114L76.77,6.886ZM1.103,33.759L21.103,54.759L26.897,49.241L6.897,28.241L1.103,33.759ZM26.77,54.886L76.77,6.886L71.23,1.114L21.23,49.114L26.77,54.886Z" fill="#FFFFFF"/>
</svg>
