<svg width="42" height="44" viewBox="0 0 42 44" fill="none" xmlns="http://www.w3.org/2000/svg" xmlns:xlink="http://www.w3.org/1999/xlink">
<path d="M37.898,18.898L23.102,18.898L23.102,4.102C23.102,2.396 21.706,1 20,1C18.294,1 16.898,2.396 16.898,4.102L16.898,18.898L2.102,18.898C0.396,18.898 -1,20.294 -1,22C-1,23.706 0.396,25.102 2.102,25.102L16.898,25.102L16.898,39.898C16.898,41.604 18.294,43 20,43C21.706,43 23.102,41.604 23.102,39.898L23.102,25.102L37.898,25.102C39.604,25.102 41,23.706 41,22C41,20.294 39.62,18.898 37.898,18.898Z" fill="#FBFBFB"/>
</svg>
