<svg width="24" height="18" viewBox="0 0 24 18" fill="none" xmlns="http://www.w3.org/2000/svg" xmlns:xlink="http://www.w3.org/1999/xlink">
<path d="M22.299,14.705L21.789,14.705C21.437,8.386 17.189,3.311 11.878,2.856L11.88,1.502C11.88,0.99 11.533,0.578 11.102,0.578C10.671,0.578 10.324,0.99 10.324,1.502L10.324,2.849C5.015,3.305 0.76,8.377 0.413,14.699L-0.097,14.699C-0.528,14.699 -0.875,15.112 -0.875,15.624C-0.875,16.136 -0.528,16.548 -0.097,16.548L22.302,16.548C22.733,16.548 23.081,16.136 23.081,15.624C23.082,15.112 22.724,14.705 22.299,14.705ZM11.096,4.667C15.907,4.667 19.861,9.097 20.225,14.707L1.969,14.705C2.332,9.097 6.287,4.667 11.097,4.667L11.096,4.667Z" fill="#FFFFFF" stroke="#FFFFFF" stroke-width="0.5" stroke-miterlimit="3.999327"/>
</svg>
