<svg width="36" height="38" viewBox="0 0 36 38" fill="none" xmlns="http://www.w3.org/2000/svg" xmlns:xlink="http://www.w3.org/1999/xlink">
<path d="M13.137,0.637C18.436,-0.232 23.866,0.793 27.977,4.386C35.919,11.64 36.231,25.218 28.621,32.822C22.572,39.008 11.663,39.014 5.321,33.278C-0.803,27.811 -2.196,18.551 0.728,11.09C2.778,5.86 7.57,1.643 13.137,0.637ZM16.867,2.405C13.825,4.498 12.119,8.06 10.932,11.446C8.782,17.67 8.164,24.268 8.732,30.81C8.982,32.491 9.557,34.734 11.213,35.559C12.437,36.384 14.287,35.965 15.512,35.328C19.017,33.116 20.96,29.604 22.266,25.774C23.659,21.344 24.622,16.708 24.478,12.04C24.465,9.141 24.016,6.154 22.372,3.705C21.06,1.993 18.804,1.037 16.867,2.405Z" fill="#F1762B"/>
</svg>
