<svg width="24" height="12" viewBox="0 0 24 12" fill="none" xmlns="http://www.w3.org/2000/svg" xmlns:xlink="http://www.w3.org/1999/xlink">
<path d="M2.625,1.219C2.193,0.874 1.564,0.944 1.219,1.375C0.874,1.807 0.944,2.436 1.375,2.781L2.625,1.219ZM12,10L11.375,10.781C11.741,11.073 12.259,11.073 12.625,10.781L12,10ZM22.625,2.781C23.056,2.436 23.126,1.807 22.781,1.375C22.436,0.944 21.807,0.874 21.375,1.219L22.625,2.781ZM1.375,2.781L11.375,10.781L12.625,9.219L2.625,1.219L1.375,2.781ZM12.625,10.781L22.625,2.781L21.375,1.219L11.375,9.219L12.625,10.781Z" transform="rotate(-360 12 6)" fill="#000000"/>
</svg>
