<svg width="488" height="524" viewBox="0 0 488 524" fill="none" xmlns="http://www.w3.org/2000/svg" xmlns:xlink="http://www.w3.org/1999/xlink">
<path d="M321.89,9.991C360.814,22.217 396.37,44.901 423.948,73.756C477.782,130.087 502.342,212.38 479.432,285.06C470.64,312.956 455.39,338.964 449.154,367.464C444.64,388.098 444.966,409.592 438.872,429.864C423.95,479.504 371.996,513.182 318.302,523.154C286.05,529.144 117.71,503.692 56.201,434.596C15.817,389.23 -14.983,328.344 7.701,273.114C21.026,240.672 49.142,215.564 65.598,184.426C82.079,153.243 86.217,117.275 102.721,86.104C130.91,32.873 194.524,0.162 257.632,0.001C279.542,-0.056 301.192,3.488 321.89,9.991Z" fill="#FFEEE9"/>
</svg>
