<svg width="36" height="36" viewBox="0 0 36 36" fill="none" xmlns="http://www.w3.org/2000/svg" xmlns:xlink="http://www.w3.org/1999/xlink">
<path d="M28.286,20.579C25.638,20.583 23.177,21.947 21.77,24.19L15.062,20.334C15.308,19.584 15.433,18.799 15.435,18.008C15.43,17.433 15.366,16.862 15.242,16.299L22.13,12.354C23.613,14.319 25.944,15.458 28.405,15.421C30.864,15.382 33.159,14.172 34.581,12.163C36.003,10.153 36.379,7.586 35.595,5.254C34.811,2.921 32.961,1.103 30.614,0.359C28.269,-0.383 25.708,0.038 23.724,1.495C21.74,2.95 20.571,5.267 20.576,7.728C20.574,8.526 20.699,9.32 20.948,10.079L14.24,13.935C13.066,12.065 11.145,10.788 8.965,10.428C6.787,10.068 4.557,10.661 2.845,12.055C1.131,13.45 0.098,15.511 0.006,17.718C-0.084,19.925 0.776,22.065 2.368,23.596C3.961,25.126 6.133,25.901 8.336,25.721C10.536,25.542 12.556,24.428 13.881,22.661L20.769,26.606C20.647,27.159 20.582,27.722 20.576,28.289C20.576,30.334 21.389,32.296 22.834,33.741C24.28,35.187 26.241,36 28.286,36C30.331,36 32.293,35.187 33.739,33.741C35.184,32.296 35.997,30.334 35.997,28.289C35.997,26.244 35.184,24.283 33.739,22.837C32.293,21.392 30.331,20.579 28.286,20.579L28.286,20.579ZM28.286,2.587C30.364,2.587 32.239,3.84 33.034,5.76C33.831,7.681 33.391,9.893 31.921,11.363C30.451,12.833 28.239,13.273 26.318,12.476C24.398,11.681 23.145,9.806 23.145,7.728C23.145,4.889 25.447,2.587 28.286,2.587ZM7.724,23.149C5.646,23.149 3.771,21.896 2.976,19.976C2.179,18.055 2.619,15.843 4.089,14.373C5.559,12.903 7.771,12.463 9.692,13.26C11.612,14.055 12.865,15.93 12.865,18.009C12.865,19.372 12.323,20.68 11.359,21.644C10.396,22.608 9.088,23.149 7.724,23.149ZM28.286,33.43C26.207,33.43 24.332,32.177 23.537,30.257C22.741,28.336 23.181,26.124 24.65,24.654C26.12,23.184 28.332,22.744 30.253,23.541C32.173,24.336 33.426,26.211 33.426,28.289C33.426,29.653 32.885,30.961 31.921,31.924C30.957,32.888 29.65,33.43 28.286,33.43Z" fill="#FFFFFF"/>
</svg>
