<svg width="66" height="66" viewBox="0 0 66 66" fill="none" xmlns="http://www.w3.org/2000/svg" xmlns:xlink="http://www.w3.org/1999/xlink">
<path d="M61.568,8.473C56.316,2.122 47.108,-0.706 39.08,1.42C30.296,3.747 23.374,11.539 21.485,20.428C20.849,23.427 20.727,26.54 19.775,29.451C18.822,32.365 16.781,35.184 13.808,35.926C11.112,36.599 7.529,35.775 6.104,38.161C3.887,41.874 10.925,45.314 10.537,49.621C10.149,53.931 3.406,54.178 1.102,57.84C-0.146,59.825 0.244,62.466 1.478,64.489C1.701,63.847 1.98,63.225 2.318,62.633C4.293,59.17 8.159,56.868 12.145,56.779C14.526,56.726 16.93,57.405 19.268,56.948C21.607,56.491 23.884,54.163 23.033,51.937C22.412,50.319 20.495,49.601 19.524,48.164C17.988,45.889 19.486,42.571 21.883,41.232C24.279,39.893 27.191,39.99 29.93,40.176C40.249,40.88 51.871,41.943 59.683,35.166C66.548,29.21 67.825,18.026 62.945,10.362C62.524,9.705 62.063,9.074 61.568,8.473Z" fill="#E0EBF2"/>
</svg>
