<svg width="56" height="40" viewBox="0 0 56 40" fill="none" xmlns="http://www.w3.org/2000/svg" xmlns:xlink="http://www.w3.org/1999/xlink">
<path d="M53.238,28.571C53.047,16.476 44.286,6.381 32.762,4.19C32.476,1.905 30.476,0 28,0C25.524,0 23.524,1.905 23.333,4.286C11.714,6.476 2.952,16.476 2.762,28.571C1.428,28.857 0.381,30 0.381,31.429C0.381,33.048 1.619,34.286 3.238,34.286L3.619,34.286L6.19,39.429C6.381,39.81 6.667,40 7.048,40L48.952,40C49.333,40 49.619,39.81 49.809,39.429L52.381,34.286L52.762,34.286C54.381,34.286 55.619,33.048 55.619,31.429C55.619,30 54.571,28.857 53.238,28.571ZM43.714,24.286C43.714,24.857 43.333,25.238 42.762,25.238C42.19,25.238 41.809,24.857 41.809,24.286C41.809,16.667 35.619,10.476 28,10.476C27.428,10.476 27.047,10.095 27.047,9.524C27.047,8.952 27.428,8.571 28,8.571C36.667,8.571 43.714,15.619 43.714,24.286ZM28,1.905C29.333,1.905 30.381,2.762 30.762,4C29.809,3.905 28.952,3.81 28,3.81C27.047,3.81 26.19,3.905 25.238,4C25.619,2.762 26.667,1.905 28,1.905ZM48.381,38.095L7.619,38.095L5.714,34.286L50.286,34.286L48.381,38.095ZM52.762,32.381L51.809,32.381L4.19,32.381L3.238,32.381C2.667,32.381 2.286,32 2.286,31.429C2.286,30.857 2.667,30.476 3.238,30.476L52.762,30.476C53.333,30.476 53.714,30.857 53.714,31.429C53.714,32 53.333,32.381 52.762,32.381Z" fill="#D96846"/>
</svg>
