<svg width="26" height="28" viewBox="0 0 26 28" fill="none" xmlns="http://www.w3.org/2000/svg" xmlns:xlink="http://www.w3.org/1999/xlink">
<path d="M10.323,0.886C14.147,0.259 18.065,0.999 21.032,3.591C26.763,8.826 26.988,18.624 21.496,24.111C17.132,28.575 9.259,28.58 4.682,24.44C0.264,20.495 -0.742,13.813 1.368,8.429C2.847,4.655 6.306,1.612 10.323,0.886ZM13.015,2.162C10.819,3.672 9.588,6.242 8.731,8.686C7.18,13.177 6.734,17.939 7.144,22.659C7.325,23.872 7.739,25.491 8.934,26.086C9.818,26.681 11.153,26.379 12.036,25.919C14.566,24.323 15.968,21.789 16.911,19.025C17.916,15.828 18.61,12.483 18.507,9.115C18.498,7.023 18.173,4.867 16.987,3.1C16.04,1.864 14.413,1.174 13.015,2.162Z" fill="#F1762B"/>
</svg>
