<svg width="26" height="30" viewBox="0 0 26 30" fill="none" xmlns="http://www.w3.org/2000/svg" xmlns:xlink="http://www.w3.org/1999/xlink">
<path d="M3.667,8.666C3.667,8.114 3.219,7.666 2.667,7.666C2.114,7.666 1.667,8.114 1.667,8.666L3.667,8.666ZM22.333,8.666C22.333,8.114 21.886,7.666 21.333,7.666C20.781,7.666 20.333,8.114 20.333,8.666L22.333,8.666ZM15.667,12.666C15.667,12.114 15.219,11.666 14.667,11.666C14.114,11.666 13.667,12.114 13.667,12.666L15.667,12.666ZM13.667,20.666C13.667,21.218 14.114,21.666 14.667,21.666C15.219,21.666 15.667,21.218 15.667,20.666L13.667,20.666ZM10.333,12.666C10.333,12.114 9.886,11.666 9.333,11.666C8.781,11.666 8.333,12.114 8.333,12.666L10.333,12.666ZM8.333,20.666C8.333,21.218 8.781,21.666 9.333,21.666C9.886,21.666 10.333,21.218 10.333,20.666L8.333,20.666ZM24,5.666C24.552,5.666 25,5.218 25,4.666C25,4.114 24.552,3.666 24,3.666L24,5.666ZM0,3.666C-0.552,3.666 -1,4.114 -1,4.666C-1,5.218 -0.552,5.666 0,5.666L0,3.666ZM15.458,1.853L14.626,2.408L14.626,2.408L15.458,1.853ZM8.542,1.853L7.71,1.299L7.71,1.299L8.542,1.853ZM8,28.333L16,28.333L16,26.333L8,26.333L8,28.333ZM1.667,8.666L1.667,21.999L3.667,21.999L3.667,8.666L1.667,8.666ZM22.333,21.999L22.333,8.666L20.333,8.666L20.333,21.999L22.333,21.999ZM16,28.333C19.498,28.333 22.333,25.497 22.333,21.999L20.333,21.999C20.333,24.393 18.393,26.333 16,26.333L16,28.333ZM8,26.333C5.607,26.333 3.667,24.393 3.667,21.999L1.667,21.999C1.667,25.497 4.502,28.333 8,28.333L8,26.333ZM13.667,12.666L13.667,20.666L15.667,20.666L15.667,12.666L13.667,12.666ZM8.333,12.666L8.333,20.666L10.333,20.666L10.333,12.666L8.333,12.666ZM10.76,1.666L13.24,1.666L13.24,-0.334L10.76,-0.334L10.76,1.666ZM14.626,2.408L16.501,5.221L18.165,4.111L16.29,1.299L14.626,2.408ZM17.333,3.666L6.667,3.666L6.667,5.666L17.333,5.666L17.333,3.666ZM7.499,5.221L9.374,2.408L7.71,1.299L5.835,4.111L7.499,5.221ZM17.333,5.666L24,5.666L24,3.666L17.333,3.666L17.333,5.666ZM6.667,3.666L0,3.666L0,5.666L6.667,5.666L6.667,3.666ZM13.24,1.666C13.797,1.666 14.317,1.945 14.626,2.408L16.29,1.299C15.61,0.279 14.465,-0.334 13.24,-0.334L13.24,1.666ZM10.76,-0.334C9.535,-0.334 8.39,0.279 7.71,1.299L9.374,2.408C9.683,1.945 10.203,1.666 10.76,1.666L10.76,-0.334Z" fill="#EA3549"/>
</svg>
