<svg width="24" height="26" viewBox="0 0 24 26" fill="none" xmlns="http://www.w3.org/2000/svg" xmlns:xlink="http://www.w3.org/1999/xlink">
<path d="M0.302,-0.852C8.085,-0.87 15.863,-0.875 23.64,-0.843C23.478,0.631 23.199,2.083 22.906,3.535C22.549,5.307 22.59,7.219 22.473,9.045C21.711,6.601 20.985,3.63 19.262,1.673C18.347,0.559 17.161,0.356 15.827,0.036C14.528,5.839 14.641,11.597 14.92,17.495C15.096,19.997 15.723,22.45 15.98,24.948C13.22,24.979 10.452,25.016 7.693,24.925C8.937,19.443 9.307,14.081 9.081,8.468C9.045,5.609 8.22,2.89 8.107,0.041C6.674,0.325 5.375,0.564 4.419,1.777C3.039,3.621 2.313,6.092 1.47,8.202C1.105,5.185 0.596,2.173 0.302,-0.852Z" fill="#F1762B"/>
</svg>
