<svg width="30" height="38" viewBox="0 0 30 38" fill="none" xmlns="http://www.w3.org/2000/svg" xmlns:xlink="http://www.w3.org/1999/xlink">
<path d="M0.973,1.037C5.903,0.85 10.857,1.037 15.794,1.049C20.517,0.993 25.241,0.931 29.965,1.018C29.196,4.898 28.496,8.76 28.296,12.721C26.803,10.178 25.622,7.723 23.179,5.917C19.967,3.274 15.981,2.293 11.888,2.305C11.701,4.43 11.32,6.523 10.989,8.629C10.489,11.803 10.526,14.933 10.464,18.132C12.782,18.713 15.044,18.357 17.331,17.82C20.074,16.976 21.48,14.977 23.429,13.059C23.142,17.014 23.085,20.857 23.198,24.824C21.561,22.612 19.836,20.725 17.056,20.038C15,19.676 12.37,18.945 10.414,19.882C10.314,25.174 11.164,30.267 11.895,35.478C16.275,35.521 20.555,34.266 23.898,31.366C25.835,29.692 26.597,27.624 28.24,25.537C28.728,29.292 29.171,33.041 29.952,36.746C25.022,36.834 20.099,36.771 15.169,36.696C10.383,36.809 5.603,36.815 0.816,36.765C1.223,33.31 1.979,29.898 2.254,26.436C2.547,21.288 2.528,16.139 2.241,10.991C1.979,7.66 0.991,4.349 0.973,1.037Z" fill="#F1762B"/>
</svg>
