<svg width="36" height="40" viewBox="0 0 36 40" fill="none" xmlns="http://www.w3.org/2000/svg" xmlns:xlink="http://www.w3.org/1999/xlink">
<path d="M9.802,14.565L6.868,14.565C6.578,14.565 6.301,14.677 6.096,14.877C5.892,15.077 5.777,15.348 5.777,15.631L5.777,23.25C5.777,23.533 5.892,23.804 6.096,24.004C6.301,24.204 6.578,24.317 6.868,24.317C7.157,24.317 7.434,24.204 7.639,24.004C7.843,23.804 7.958,23.533 7.958,23.25L7.958,20.507L9.802,20.507C10.607,20.503 11.377,20.189 11.946,19.633C12.515,19.076 12.837,18.323 12.841,17.536C12.845,17.144 12.769,16.756 12.618,16.394C12.467,16.031 12.243,15.702 11.96,15.425C11.677,15.148 11.341,14.93 10.97,14.782C10.599,14.634 10.202,14.56 9.802,14.565ZM9.802,18.374L7.958,18.374L7.958,16.698L9.802,16.698C9.915,16.695 10.028,16.715 10.133,16.756C10.238,16.797 10.334,16.859 10.414,16.937C10.494,17.016 10.557,17.109 10.599,17.212C10.642,17.315 10.662,17.425 10.659,17.536C10.659,17.646 10.637,17.755 10.594,17.857C10.551,17.958 10.488,18.051 10.408,18.129C10.328,18.206 10.234,18.268 10.13,18.31C10.026,18.352 9.914,18.374 9.802,18.374ZM18.406,14.552L15.461,14.552C15.171,14.552 14.894,14.664 14.689,14.864C14.485,15.064 14.37,15.335 14.37,15.618L14.37,23.263C14.37,23.546 14.485,23.817 14.689,24.017C14.894,24.217 15.171,24.33 15.461,24.33L18.406,24.33C19.216,24.33 19.993,24.015 20.565,23.455C21.138,22.895 21.46,22.135 21.46,21.343L21.46,17.521C21.455,16.732 21.131,15.977 20.559,15.42C19.987,14.864 19.213,14.552 18.406,14.552ZM19.278,21.352C19.278,21.578 19.186,21.795 19.023,21.955C18.859,22.115 18.637,22.205 18.406,22.205L16.551,22.205L16.551,16.685L18.406,16.685C18.637,16.685 18.859,16.775 19.023,16.935C19.186,17.095 19.278,17.312 19.278,17.538L19.278,21.352ZM23.026,23.272L23.026,15.618C23.026,15.335 23.141,15.064 23.346,14.864C23.55,14.664 23.828,14.552 24.117,14.552L29.014,14.552C29.304,14.552 29.581,14.664 29.786,14.864C29.99,15.064 30.105,15.335 30.105,15.618C30.105,15.901 29.99,16.172 29.786,16.372C29.581,16.572 29.304,16.685 29.014,16.685L25.199,16.685L25.199,18.374L27.727,18.374C28.017,18.374 28.294,18.486 28.499,18.687C28.703,18.887 28.818,19.158 28.818,19.441C28.818,19.724 28.703,19.995 28.499,20.195C28.294,20.395 28.017,20.507 27.727,20.507L25.199,20.507L25.199,23.263C25.199,23.546 25.084,23.817 24.88,24.017C24.675,24.217 24.398,24.33 24.108,24.33C23.819,24.33 23.541,24.217 23.337,24.017C23.132,23.817 23.017,23.546 23.017,23.263L23.026,23.272ZM36,5.149C35.997,3.784 35.442,2.475 34.454,1.51C33.466,0.545 32.128,0.002 30.731,0L5.09,0C3.693,0.002 2.355,0.545 1.367,1.51C0.379,2.475 -0.176,3.784 -0.179,5.149L-0.179,33.732C-0.176,35.097 0.379,36.406 1.367,37.371C2.355,38.337 3.693,38.88 5.09,38.881L24.697,38.881C24.841,38.882 24.984,38.854 25.116,38.798C25.248,38.745 25.368,38.666 25.469,38.568L35.677,28.587C35.778,28.488 35.859,28.371 35.915,28.242C35.97,28.112 35.999,27.973 36,27.832L36,5.149ZM2.003,33.732L2.003,5.149C2.005,4.349 2.33,3.583 2.909,3.018C3.488,2.452 4.272,2.134 5.09,2.133L30.731,2.133C31.549,2.134 32.333,2.452 32.912,3.018C33.491,3.583 33.817,4.349 33.818,5.149L33.818,26.766L28.873,26.766C27.476,26.767 26.137,27.311 25.15,28.276C24.163,29.242 23.608,30.551 23.606,31.917L23.606,36.748L5.09,36.748C4.272,36.747 3.488,36.429 2.909,35.864C2.33,35.298 2.005,34.532 2.003,33.732ZM32.274,28.899L25.788,35.24L25.788,31.917C25.789,31.117 26.114,30.35 26.692,29.784C27.27,29.218 28.055,28.9 28.873,28.899L32.274,28.899Z" fill="#FFFFFF"/>
</svg>
