<svg width="28" height="22" viewBox="0 0 28 22" fill="none" xmlns="http://www.w3.org/2000/svg" xmlns:xlink="http://www.w3.org/1999/xlink">
<path d="M15.75,17.5C16.716,17.5 17.5,18.283 17.5,19.25C17.5,20.216 16.716,21 15.75,21L12.25,21C11.284,21 10.5,20.216 10.5,19.25C10.5,18.283 11.284,17.5 12.25,17.5L15.75,17.5ZM21,8.75C21.966,8.75 22.75,9.533 22.75,10.5C22.75,11.467 21.966,12.25 21,12.25L7,12.25C6.034,12.25 5.25,11.467 5.25,10.5C5.25,9.533 6.034,8.75 7,8.75L21,8.75ZM26.25,0C27.216,0 28,0.784 28,1.75C28,2.717 27.216,3.5 26.25,3.5L1.75,3.5C0.784,3.5 0,2.717 0,1.75C0,0.784 0.784,0 1.75,0L26.25,0Z" fill="#FFFFFF"/>
</svg>
