<svg width="42" height="44" viewBox="0 0 42 44" fill="none" xmlns="http://www.w3.org/2000/svg" xmlns:xlink="http://www.w3.org/1999/xlink">
<path d="M35.2,2.933L32.267,2.933L32.267,1.467C32.267,1.078 32.112,0.705 31.837,0.43C31.562,0.155 31.189,0 30.8,0C30.411,0 30.038,0.155 29.763,0.43C29.488,0.705 29.333,1.078 29.333,1.467L29.333,2.933L11.733,2.933L11.733,1.467C11.733,1.078 11.579,0.705 11.304,0.43C11.029,0.155 10.656,0 10.267,0C9.878,0 9.505,0.155 9.23,0.43C8.955,0.705 8.8,1.078 8.8,1.467L8.8,2.933L5.867,2.933C4.311,2.935 2.82,3.554 1.72,4.654C0.62,5.753 0.002,7.245 0,8.8L0,38.133C0.002,39.689 0.62,41.18 1.72,42.28C2.82,43.38 4.311,43.998 5.867,44L35.2,44C36.755,43.998 38.247,43.38 39.346,42.28C40.446,41.18 41.065,39.689 41.067,38.133L41.067,8.8C41.065,7.245 40.446,5.753 39.346,4.654C38.247,3.554 36.755,2.935 35.2,2.933ZM5.867,5.867L8.8,5.867L8.8,7.333C8.8,7.722 8.955,8.095 9.23,8.37C9.505,8.645 9.878,8.8 10.267,8.8C10.656,8.8 11.029,8.645 11.304,8.37C11.579,8.095 11.733,7.722 11.733,7.333L11.733,5.867L29.333,5.867L29.333,7.333C29.333,7.722 29.488,8.095 29.763,8.37C30.038,8.645 30.411,8.8 30.8,8.8C31.189,8.8 31.562,8.645 31.837,8.37C32.112,8.095 32.267,7.722 32.267,7.333L32.267,5.867L35.2,5.867C35.978,5.867 36.723,6.177 37.273,6.727C37.823,7.277 38.133,8.022 38.133,8.8L38.133,11.733L2.933,11.733L2.933,8.8C2.934,8.022 3.243,7.277 3.793,6.727C4.343,6.177 5.089,5.867 5.867,5.867ZM35.2,41.067L5.867,41.067C5.089,41.066 4.343,40.757 3.793,40.207C3.243,39.657 2.934,38.911 2.933,38.133L2.933,14.667L38.133,14.667L38.133,38.133C38.133,38.911 37.823,39.657 37.273,40.207C36.723,40.757 35.978,41.066 35.2,41.067Z" fill="#FFFFFF"/>
</svg>
