<svg width="36" height="34" viewBox="0 0 36 34" fill="none" xmlns="http://www.w3.org/2000/svg" xmlns:xlink="http://www.w3.org/1999/xlink">
<path d="M27.329,1.399C29.312,-0.466 32.529,-0.466 34.512,1.399C36.496,3.263 36.496,6.286 34.512,8.151L18.95,22.78C18.918,22.81 18.886,22.84 18.854,22.87C18.386,23.31 17.974,23.699 17.477,23.985C17.04,24.237 16.564,24.422 16.065,24.535C15.498,24.663 14.915,24.662 14.252,24.662C14.208,24.662 14.162,24.662 14.117,24.662L11.392,24.662C10.493,24.662 9.764,23.977 9.764,23.132L9.764,20.57C9.764,20.527 9.764,20.485 9.764,20.443C9.764,19.82 9.763,19.271 9.899,18.739C10.019,18.27 10.216,17.823 10.484,17.412C10.788,16.945 11.202,16.557 11.67,16.117C11.702,16.087 11.734,16.057 11.766,16.027L27.329,1.399ZM32.211,3.562C31.498,2.892 30.343,2.892 29.63,3.562L14.068,18.19C13.45,18.771 13.336,18.892 13.259,19.01C13.17,19.147 13.104,19.297 13.064,19.453C13.03,19.588 13.019,19.749 13.019,20.57L13.019,21.602L14.117,21.602C14.99,21.602 15.162,21.592 15.306,21.56C15.472,21.522 15.63,21.461 15.776,21.377C15.902,21.304 16.031,21.197 16.649,20.616L32.211,5.988C32.923,5.318 32.923,4.232 32.211,3.562ZM9.372,3.245L16.274,3.245C17.173,3.245 17.901,3.93 17.901,4.775C17.901,5.62 17.173,6.305 16.274,6.305L9.439,6.305C8.045,6.305 7.097,6.306 6.365,6.362C5.651,6.417 5.286,6.516 5.032,6.638C4.419,6.931 3.922,7.399 3.61,7.975C3.48,8.214 3.374,8.557 3.316,9.228C3.256,9.916 3.255,10.807 3.255,12.118L3.255,24.967C3.255,26.278 3.256,27.169 3.316,27.857C3.374,28.528 3.48,28.871 3.61,29.11C3.922,29.686 4.419,30.154 5.032,30.447C5.286,30.569 5.651,30.668 6.365,30.723C7.097,30.779 8.045,30.781 9.439,30.781L23.109,30.781C24.503,30.781 25.451,30.779 26.183,30.723C26.896,30.668 27.261,30.569 27.516,30.447C28.128,30.154 28.626,29.686 28.938,29.11C29.068,28.871 29.174,28.528 29.232,27.857C29.292,27.169 29.293,26.278 29.293,24.967L29.293,18.543C29.293,17.698 30.022,17.013 30.92,17.013C31.819,17.013 32.548,17.698 32.548,18.543L32.548,25.031C32.548,26.262 32.548,27.278 32.476,28.106C32.401,28.966 32.241,29.757 31.838,30.499C31.214,31.65 30.218,32.586 28.994,33.173C28.204,33.551 27.363,33.702 26.448,33.772C25.567,33.84 24.486,33.84 23.176,33.84L9.372,33.84C8.062,33.84 6.98,33.84 6.1,33.772C5.185,33.702 4.344,33.551 3.554,33.173C2.329,32.586 1.334,31.65 0.71,30.499C0.307,29.757 0.147,28.966 0.072,28.106C0,27.278 0,26.262 0,25.031L0,12.054C0,10.823 0,9.807 0.072,8.979C0.147,8.119 0.307,7.329 0.709,6.586C1.334,5.435 2.329,4.499 3.554,3.912C4.344,3.534 5.185,3.383 6.1,3.313C6.98,3.245 8.062,3.245 9.372,3.245Z" clip-rule="evenodd" fill-rule="evenodd" fill="#D96846"/>
</svg>
