<svg width="36" height="38" viewBox="0 0 36 38" fill="none" xmlns="http://www.w3.org/2000/svg" xmlns:xlink="http://www.w3.org/1999/xlink">
<path d="M-0.606,1.099C4.005,0.868 8.641,1.018 13.259,0.974C13.583,2.967 13.602,5.035 14.077,6.997C15.47,12.227 17.882,16.832 20.519,21.512C22.25,18.101 23.306,14.514 24.062,10.778C24.618,7.41 24.499,4.086 22.843,1.03C26.611,0.98 30.398,0.905 34.165,1.086C33.272,2.661 31.872,3.698 30.841,5.16C27.211,10.453 23.962,16.264 21.763,22.299C20.894,24.386 21.694,26.136 21.788,28.298C21.975,31.178 22.7,33.928 23.193,36.758C19.394,36.795 15.595,36.845 11.796,36.727C12.39,33.353 13.29,29.841 13.271,26.405C13.371,23.886 11.721,21.331 10.691,19.075C7.385,12.671 4.124,6.579 -0.606,1.099Z" fill="#F1762B"/>
</svg>
