<svg width="36" height="36" viewBox="0 0 36 36" fill="none" xmlns="http://www.w3.org/2000/svg" xmlns:xlink="http://www.w3.org/1999/xlink">
<path d="M18,0C8.075,0 0,8.075 0,18C0,27.925 8.075,36 18,36C27.925,36 36,27.925 36,18C36,8.075 27.925,0 18,0ZM18,2.7C26.466,2.7 33.3,9.534 33.3,18C33.3,26.466 26.466,33.3 18,33.3C9.534,33.3 2.7,26.466 2.7,18C2.7,9.534 9.534,2.7 18,2.7ZM18,4.95C17.254,4.95 16.65,5.554 16.65,6.3L16.65,18C16.65,18.746 17.254,19.35 18,19.35L28.8,19.35C29.546,19.35 30.15,18.746 30.15,18C30.15,17.254 29.546,16.65 28.8,16.65L19.35,16.65L19.35,6.3C19.35,5.554 18.746,4.95 18,4.95Z" fill="#737368"/>
</svg>
