<svg width="30" height="24" viewBox="0 0 30 24" fill="none" xmlns="http://www.w3.org/2000/svg" xmlns:xlink="http://www.w3.org/1999/xlink">
<path d="M3.414,10.586C2.633,9.805 1.367,9.805 0.586,10.586C-0.195,11.367 -0.195,12.633 0.586,13.414L3.414,10.586ZM28.6,3.2C29.263,2.316 29.084,1.063 28.2,0.4C27.316,-0.263 26.063,-0.084 25.4,0.8L28.6,3.2ZM10.369,20.369L11.784,18.955L10.369,20.369ZM0.586,13.414L8.955,21.784L11.784,18.955L3.414,10.586L0.586,13.414ZM14.984,21.355L28.6,3.2L25.4,0.8L11.784,18.955L14.984,21.355ZM8.955,21.784C10.676,23.505 13.523,23.303 14.984,21.355L11.784,18.955L11.784,18.955L8.955,21.784Z" fill="#D96846"/>
</svg>
