<svg width="48" height="40" viewBox="0 0 48 40" fill="none" xmlns="http://www.w3.org/2000/svg" xmlns:xlink="http://www.w3.org/1999/xlink">
<path d="M8.836,25.343L8.836,37.368L38.485,37.368L38.485,25.343C38.485,24.751 38.876,24.251 39.414,24.085C40.97,23.498 42.298,22.452 43.233,21.113C44.151,19.796 44.691,18.189 44.691,16.449C44.691,14.196 43.777,12.157 42.301,10.681C40.826,9.206 38.786,8.292 36.533,8.292C35.938,8.292 35.364,8.354 34.818,8.471C34.246,8.594 33.7,8.772 33.188,9.003C32.526,9.298 31.752,9.001 31.456,8.341C31.431,8.283 31.409,8.224 31.391,8.163C30.841,6.544 29.793,5.151 28.431,4.168C27.094,3.203 25.446,2.635 23.661,2.635C21.876,2.635 20.228,3.203 18.892,4.168C17.513,5.162 16.458,6.574 15.913,8.216C15.686,8.904 14.945,9.275 14.259,9.05C14.216,9.036 14.175,9.019 14.136,9.003L14.136,9.004C13.622,8.774 13.077,8.595 12.506,8.472C11.96,8.356 11.386,8.294 10.791,8.294C8.538,8.294 6.498,9.207 5.023,10.683C3.547,12.159 2.633,14.198 2.633,16.451C2.633,18.192 3.173,19.799 4.091,21.114C5.038,22.472 6.392,23.529 7.977,24.111C8.509,24.307 8.839,24.81 8.839,25.344L8.841,25.344L8.836,25.343ZM27.564,18.772C27.564,18.045 28.153,17.457 28.881,17.457C29.608,17.457 30.196,18.046 30.196,18.772L30.196,31.491C30.196,32.218 29.606,32.808 28.881,32.808C28.153,32.808 27.564,32.218 27.564,31.491L27.564,18.772ZM17.127,18.772C17.127,18.045 17.716,17.457 18.442,17.457C19.169,17.457 19.758,18.046 19.758,18.772L19.758,31.491C19.758,32.218 19.169,32.808 18.442,32.808C17.714,32.808 17.127,32.218 17.127,31.491L17.127,18.772ZM6.206,38.683L6.206,26.214C4.489,25.407 3.018,24.157 1.941,22.611C0.718,20.858 0,18.733 0,16.446C0,13.468 1.208,10.771 3.16,8.818C5.113,6.865 7.81,5.657 10.789,5.657C11.557,5.657 12.313,5.741 13.05,5.897C13.35,5.962 13.645,6.038 13.936,6.127C14.721,4.492 15.904,3.086 17.36,2.036C19.136,0.755 21.313,0 23.661,0C26.01,0 28.185,0.755 29.962,2.036C31.419,3.086 32.602,4.492 33.387,6.127C33.678,6.038 33.974,5.962 34.273,5.897C35.008,5.739 35.765,5.657 36.533,5.657C39.512,5.657 42.209,6.865 44.162,8.818C46.115,10.771 47.322,13.468 47.322,16.446C47.322,18.733 46.604,20.858 45.382,22.611C44.304,24.157 42.833,25.405 41.117,26.214L41.117,38.683C41.117,39.411 40.527,40 39.802,40L7.521,40C6.794,40 6.206,39.411 6.206,38.683Z" fill="#828A89"/>
</svg>
