<svg width="44" height="44" viewBox="0 0 44 44" fill="none" xmlns="http://www.w3.org/2000/svg" xmlns:xlink="http://www.w3.org/1999/xlink">
<path d="M7.825,24.203L6.714,25.211L7.825,24.203ZM7.825,19.797L6.714,18.789L6.714,18.789L7.825,19.797ZM36.175,24.203L37.286,25.211L37.286,25.211L36.175,24.203ZM36.175,19.797L37.286,18.789L36.175,19.797ZM0.5,14C0.5,14.828 1.172,15.5 2,15.5C2.828,15.5 3.5,14.828 3.5,14L0.5,14ZM14,3.5C14.828,3.5 15.5,2.828 15.5,2C15.5,1.172 14.828,0.5 14,0.5L14,3.5ZM30,0.5C29.172,0.5 28.5,1.172 28.5,2C28.5,2.828 29.172,3.5 30,3.5L30,0.5ZM40.5,14C40.5,14.828 41.172,15.5 42,15.5C42.828,15.5 43.5,14.828 43.5,14L40.5,14ZM43.5,30C43.5,29.172 42.828,28.5 42,28.5C41.172,28.5 40.5,29.172 40.5,30L43.5,30ZM30,40.5C29.172,40.5 28.5,41.172 28.5,42C28.5,42.828 29.172,43.5 30,43.5L30,40.5ZM14,43.5C14.828,43.5 15.5,42.828 15.5,42C15.5,41.172 14.828,40.5 14,40.5L14,43.5ZM3.5,31.111C3.5,30.283 2.828,29.611 2,29.611C1.172,29.611 0.5,30.283 0.5,31.111L3.5,31.111ZM35.065,23.194C33.778,24.611 31.871,26.46 29.577,27.947C27.276,29.438 24.686,30.5 22,30.5L22,33.5C25.47,33.5 28.629,32.136 31.209,30.464C33.795,28.788 35.897,26.739 37.286,25.211L35.065,23.194ZM22,30.5C19.314,30.5 16.724,29.438 14.423,27.947C12.129,26.46 10.222,24.611 8.935,23.194L6.714,25.211C8.103,26.739 10.205,28.788 12.791,30.464C15.371,32.136 18.53,33.5 22,33.5L22,30.5ZM8.935,20.806C10.222,19.389 12.129,17.54 14.423,16.053C16.724,14.562 19.314,13.5 22,13.5L22,10.5C18.53,10.5 15.371,11.864 12.791,13.536C10.205,15.212 8.103,17.261 6.714,18.789L8.935,20.806ZM22,13.5C24.686,13.5 27.276,14.562 29.577,16.053C31.871,17.54 33.778,19.389 35.065,20.806L37.286,18.789C35.897,17.261 33.795,15.212 31.209,13.536C28.629,11.864 25.47,10.5 22,10.5L22,13.5ZM8.935,23.194C8.302,22.498 8.302,21.502 8.935,20.806L6.714,18.789C5.042,20.628 5.042,23.371 6.714,25.211L8.935,23.194ZM37.286,25.211C38.958,23.371 38.958,20.628 37.286,18.789L35.065,20.806C35.698,21.502 35.698,22.498 35.065,23.194L37.286,25.211ZM24.5,22C24.5,23.381 23.381,24.5 22,24.5L22,27.5C25.038,27.5 27.5,25.038 27.5,22L24.5,22ZM22,24.5C20.619,24.5 19.5,23.381 19.5,22L16.5,22C16.5,25.038 18.962,27.5 22,27.5L22,24.5ZM19.5,22C19.5,20.619 20.619,19.5 22,19.5L22,16.5C18.962,16.5 16.5,18.962 16.5,22L19.5,22ZM22,19.5C23.381,19.5 24.5,20.619 24.5,22L27.5,22C27.5,18.962 25.038,16.5 22,16.5L22,19.5ZM3.5,14L3.5,10L0.5,10L0.5,14L3.5,14ZM10,3.5L14,3.5L14,0.5L10,0.5L10,3.5ZM30,3.5L34,3.5L34,0.5L30,0.5L30,3.5ZM40.5,10L40.5,14L43.5,14L43.5,10L40.5,10ZM40.5,30L40.5,34L43.5,34L43.5,30L40.5,30ZM34,40.5L30,40.5L30,43.5L34,43.5L34,40.5ZM14,40.5L10,40.5L10,43.5L14,43.5L14,40.5ZM3.5,34L3.5,31.111L0.5,31.111L0.5,34L3.5,34ZM10,40.5C6.41,40.5 3.5,37.59 3.5,34L0.5,34C0.5,39.247 4.753,43.5 10,43.5L10,40.5ZM40.5,34C40.5,37.59 37.59,40.5 34,40.5L34,43.5C39.247,43.5 43.5,39.247 43.5,34L40.5,34ZM34,3.5C37.59,3.5 40.5,6.41 40.5,10L43.5,10C43.5,4.753 39.247,0.5 34,0.5L34,3.5ZM3.5,10C3.5,6.41 6.41,3.5 10,3.5L10,0.5C4.753,0.5 0.5,4.753 0.5,10L3.5,10Z" fill="#FFFFFF"/>
</svg>
