<svg width="44" height="44" viewBox="0 0 44 44" fill="none" xmlns="http://www.w3.org/2000/svg" xmlns:xlink="http://www.w3.org/1999/xlink">
<path d="M39.898,18.898L25.102,18.898L25.102,4.102C25.102,2.396 23.706,1 22,1C20.294,1 18.898,2.396 18.898,4.102L18.898,18.898L4.102,18.898C2.396,18.898 1,20.294 1,22C1,23.706 2.396,25.102 4.102,25.102L18.898,25.102L18.898,39.898C18.898,41.604 20.294,43 22,43C23.706,43 25.102,41.604 25.102,39.898L25.102,25.102L39.898,25.102C41.604,25.102 43,23.706 43,22C43,20.294 41.62,18.898 39.898,18.898Z" fill="#FBFBFB"/>
</svg>
