<svg width="24" height="12" viewBox="0 0 24 12" fill="none" xmlns="http://www.w3.org/2000/svg" xmlns:xlink="http://www.w3.org/1999/xlink">
<path d="M2.937,0.829C2.29,0.311 1.346,0.416 0.829,1.063C0.311,1.71 0.416,2.654 1.063,3.171L2.937,0.829ZM12,10L11.063,11.171C11.611,11.61 12.389,11.61 12.937,11.171L12,10ZM22.937,3.171C23.584,2.654 23.689,1.71 23.171,1.063C22.654,0.416 21.71,0.311 21.063,0.829L22.937,3.171ZM1.063,3.171L11.063,11.171L12.937,8.829L2.937,0.829L1.063,3.171ZM12.937,11.171L22.937,3.171L21.063,0.829L11.063,8.829L12.937,11.171Z" transform="rotate(180 12 6)" fill="#707B81"/>
</svg>
