<svg width="32" height="32" viewBox="0 0 32 32" fill="none" xmlns="http://www.w3.org/2000/svg" xmlns:xlink="http://www.w3.org/1999/xlink">
<path d="M1.459,13.7C1.462,13.703 1.463,13.708 1.467,13.711C5.919,20.443 11.522,26.027 18.233,30.521C18.239,30.524 18.245,30.53 18.251,30.533C21.508,32.63 25.7,32.464 28.717,30.13L30.53,28.73C31.4,28.056 31.936,27.038 31.994,25.931C32.054,24.837 31.64,23.762 30.857,22.979C29.762,21.885 28.434,20.56 27.376,19.505C26.653,18.782 25.674,18.374 24.66,18.365C23.636,18.357 22.657,18.757 21.937,19.476C21.483,19.93 21.002,20.41 20.562,20.827C20.553,20.834 20.547,20.842 20.537,20.85C20.103,21.283 19.423,21.357 18.886,21.04C15.579,19.04 12.914,16.397 10.897,13.099C10.58,12.559 10.656,11.877 11.094,11.44L12.487,10.049C13.207,9.331 13.608,8.352 13.599,7.328C13.59,6.314 13.18,5.337 12.456,4.614L8.974,1.14C8.191,0.358 7.114,-0.054 6.02,0.006C4.913,0.064 3.894,0.6 3.22,1.467C2.768,2.049 2.276,2.687 1.826,3.364C-0.461,6.346 -0.618,10.481 1.459,13.7ZM3.523,12.36C2.013,10.015 2.12,6.998 3.803,4.827C3.823,4.803 3.842,4.778 3.859,4.75C4.276,4.118 4.742,3.52 5.163,2.976C5.4,2.67 5.762,2.484 6.151,2.463C6.553,2.441 6.947,2.595 7.233,2.88L10.716,6.355C10.98,6.62 11.131,6.975 11.136,7.346C11.139,7.707 10.999,8.052 10.745,8.306L9.353,9.695C8.124,10.923 7.882,12.835 8.779,14.354C8.782,14.358 8.785,14.363 8.788,14.369C11.014,18.015 13.961,20.939 17.617,23.148C17.621,23.151 17.624,23.153 17.627,23.154C19.134,24.045 21.034,23.813 22.259,22.603C22.711,22.176 23.205,21.683 23.673,21.216C23.927,20.962 24.273,20.823 24.636,20.825C25.008,20.828 25.367,20.98 25.631,21.245L29.115,24.72C29.401,25.007 29.555,25.397 29.531,25.797C29.51,26.187 29.325,26.545 29.018,26.78L27.205,28.182C25.01,29.881 21.958,29.99 19.585,28.468C13.156,24.159 7.785,18.809 3.517,12.358L3.523,12.36Z" clip-rule="evenodd" fill-rule="evenodd" fill="#989980"/>
</svg>
