<svg width="28" height="34" viewBox="0 0 28 34" fill="none" xmlns="http://www.w3.org/2000/svg" xmlns:xlink="http://www.w3.org/1999/xlink">
<path d="M13.268,0C15.166,0 17.006,0.657 18.473,1.861C19.941,3.065 20.946,4.741 21.316,6.603C21.687,8.464 21.4,10.397 20.506,12.071C19.611,13.746 18.164,15.058 16.41,15.784C14.656,16.511 12.705,16.607 10.888,16.056C9.072,15.505 7.503,14.342 6.448,12.763C5.393,11.185 4.918,9.29 5.104,7.401C5.29,5.511 6.126,3.745 7.468,2.403C8.229,1.64 9.133,1.035 10.128,0.623C11.124,0.211 12.19,-0.001 13.268,0ZM2,33C2,33.265 1.895,33.52 1.707,33.707C1.52,33.895 1.265,34 1,34C0.735,34 0.48,33.895 0.293,33.707C0.105,33.52 0,33.265 0,33C0,29.481 1.398,26.106 3.886,23.618C6.374,21.13 9.749,19.732 13.268,19.732C16.787,19.732 20.161,21.13 22.65,23.618C25.138,26.106 26.536,29.481 26.536,33C26.536,33.265 26.43,33.52 26.243,33.707C26.055,33.895 25.801,34 25.536,34C25.27,34 25.016,33.895 24.828,33.707C24.641,33.52 24.535,33.265 24.535,33C24.535,30.012 23.348,27.146 21.235,25.033C19.122,22.919 16.256,21.732 13.268,21.732C10.279,21.732 7.414,22.919 5.3,25.033C3.187,27.146 2,30.012 2,33ZM17.656,3.818C16.64,2.803 15.305,2.171 13.876,2.03C12.447,1.889 11.013,2.248 9.819,3.045C8.625,3.843 7.745,5.03 7.328,6.404C6.911,7.778 6.983,9.254 7.532,10.581C8.082,11.907 9.074,13.002 10.341,13.679C11.607,14.356 13.069,14.573 14.477,14.293C15.885,14.013 17.153,13.253 18.064,12.143C18.975,11.033 19.473,9.642 19.473,8.206C19.474,7.391 19.314,6.583 19.002,5.83C18.69,5.077 18.233,4.393 17.656,3.817L17.656,3.818Z" clip-rule="evenodd" fill-rule="evenodd" fill="#596235" stroke="#596235" stroke-width="0.5" stroke-miterlimit="3.999327"/>
</svg>
