<svg width="36" height="38" viewBox="0 0 36 38" fill="none" xmlns="http://www.w3.org/2000/svg" xmlns:xlink="http://www.w3.org/1999/xlink">
<path d="M13.821,0.63C20.501,-0.494 27.505,1.499 31.373,7.316C36.94,14.97 36.053,26.211 29.405,32.915C23.513,38.607 13.54,39.089 7.08,34.096C2.312,30.41 -0.169,24.249 0.063,18.288C0.2,10.115 5.549,2.261 13.821,0.63ZM18.57,1.986C15.771,3.261 13.803,6.491 12.578,9.197C10.172,14.964 9.191,21.425 9.279,27.654C9.335,29.922 9.46,32.228 10.604,34.252C11.635,35.877 13.903,36.477 15.621,35.608C18.576,34.127 20.882,31.178 22.15,28.167C24.875,21.65 26.124,14.02 24.668,7.066C23.969,4.273 21.969,0.893 18.57,1.986Z" fill="#F1762B"/>
</svg>
