<svg width="36" height="38" viewBox="0 0 36 38" fill="none" xmlns="http://www.w3.org/2000/svg" xmlns:xlink="http://www.w3.org/1999/xlink">
<path d="M13.754,0.58C19.665,-0.289 25.682,1.18 29.693,5.791C36.404,13.414 36.048,25.861 28.787,32.984C22.289,39.195 11.092,39.001 4.831,32.546C-1.23,26.154 -2.173,15.976 2.413,8.484C4.781,4.416 9.074,1.292 13.754,0.58ZM17.465,2.311C14.979,3.785 13.398,6.385 12.236,8.953C10.13,13.876 9.068,19.2 8.743,24.536C8.674,27.654 8.512,30.759 9.83,33.659C10.511,35.364 12.304,36.345 14.116,35.939C16.747,35.177 18.909,33.046 20.29,30.747C22.77,26.685 23.939,21.687 24.588,17.019C25.219,13.014 24.982,8.515 23.326,4.773C22.202,2.611 19.902,0.742 17.465,2.311Z" fill="#F1762B"/>
</svg>
