<svg width="26" height="28" viewBox="0 0 26 28" fill="none" xmlns="http://www.w3.org/2000/svg" xmlns:xlink="http://www.w3.org/1999/xlink">
<path d="M9.903,0.845C14.169,0.218 18.511,1.278 21.406,4.605C26.248,10.106 25.991,19.088 20.752,24.228C16.063,28.71 7.983,28.57 3.465,23.913C-0.909,19.3 -1.59,11.955 1.72,6.549C3.429,3.613 6.526,1.359 9.903,0.845ZM12.582,2.094C10.787,3.158 9.646,5.034 8.808,6.887C7.288,10.44 6.522,14.282 6.287,18.132C6.238,20.382 6.12,22.623 7.072,24.715C7.563,25.946 8.857,26.654 10.165,26.361C12.063,25.811 13.623,24.273 14.62,22.614C16.41,19.683 17.253,16.076 17.722,12.708C18.177,9.818 18.006,6.571 16.811,3.87C16,2.31 14.34,0.962 12.582,2.094Z" fill="#F1762B"/>
</svg>
