<svg width="24" height="12" viewBox="0 0 24 12" fill="none" xmlns="http://www.w3.org/2000/svg" xmlns:xlink="http://www.w3.org/1999/xlink">
<path d="M1.937,0.829C1.29,0.311 0.346,0.416 -0.171,1.063C-0.689,1.71 -0.584,2.654 0.063,3.171L1.937,0.829ZM11,10L10.063,11.171C10.611,11.61 11.389,11.61 11.937,11.171L11,10ZM21.937,3.171C22.584,2.654 22.689,1.71 22.171,1.063C21.654,0.416 20.71,0.311 20.063,0.829L21.937,3.171ZM0.063,3.171L10.063,11.171L11.937,8.829L1.937,0.829L0.063,3.171ZM11.937,11.171L21.937,3.171L20.063,0.829L10.063,8.829L11.937,11.171Z" transform="rotate(180 11 6)" fill="#707B81"/>
</svg>
