<svg width="26" height="30" viewBox="0 0 26 30" fill="none" xmlns="http://www.w3.org/2000/svg" xmlns:xlink="http://www.w3.org/1999/xlink">
<path d="M3.667,8.667C3.667,8.114 3.219,7.667 2.667,7.667C2.114,7.667 1.667,8.114 1.667,8.667L3.667,8.667ZM22.333,8.667C22.333,8.114 21.886,7.667 21.333,7.667C20.781,7.667 20.333,8.114 20.333,8.667L22.333,8.667ZM15.667,12.667C15.667,12.114 15.219,11.667 14.667,11.667C14.114,11.667 13.667,12.114 13.667,12.667L15.667,12.667ZM13.667,20.667C13.667,21.219 14.114,21.667 14.667,21.667C15.219,21.667 15.667,21.219 15.667,20.667L13.667,20.667ZM10.333,12.667C10.333,12.114 9.886,11.667 9.333,11.667C8.781,11.667 8.333,12.114 8.333,12.667L10.333,12.667ZM8.333,20.667C8.333,21.219 8.781,21.667 9.333,21.667C9.886,21.667 10.333,21.219 10.333,20.667L8.333,20.667ZM24,5.667C24.552,5.667 25,5.219 25,4.667C25,4.114 24.552,3.667 24,3.667L24,5.667ZM0,3.667C-0.552,3.667 -1,4.114 -1,4.667C-1,5.219 -0.552,5.667 0,5.667L0,3.667ZM15.458,1.854L14.626,2.409L14.626,2.409L15.458,1.854ZM8.542,1.854L7.71,1.299L7.71,1.299L8.542,1.854ZM8,28.333L16,28.333L16,26.333L8,26.333L8,28.333ZM1.667,8.667L1.667,22L3.667,22L3.667,8.667L1.667,8.667ZM22.333,22L22.333,8.667L20.333,8.667L20.333,22L22.333,22ZM16,28.333C19.498,28.333 22.333,25.498 22.333,22L20.333,22C20.333,24.393 18.393,26.333 16,26.333L16,28.333ZM8,26.333C5.607,26.333 3.667,24.393 3.667,22L1.667,22C1.667,25.498 4.502,28.333 8,28.333L8,26.333ZM13.667,12.667L13.667,20.667L15.667,20.667L15.667,12.667L13.667,12.667ZM8.333,12.667L8.333,20.667L10.333,20.667L10.333,12.667L8.333,12.667ZM10.76,1.667L13.24,1.667L13.24,-0.333L10.76,-0.333L10.76,1.667ZM14.626,2.409L16.501,5.221L18.165,4.112L16.29,1.299L14.626,2.409ZM17.333,3.667L6.667,3.667L6.667,5.667L17.333,5.667L17.333,3.667ZM7.499,5.221L9.374,2.409L7.71,1.299L5.835,4.112L7.499,5.221ZM17.333,5.667L24,5.667L24,3.667L17.333,3.667L17.333,5.667ZM6.667,3.667L0,3.667L0,5.667L6.667,5.667L6.667,3.667ZM13.24,1.667C13.797,1.667 14.317,1.945 14.626,2.409L16.29,1.299C15.61,0.279 14.465,-0.333 13.24,-0.333L13.24,1.667ZM10.76,-0.333C9.535,-0.333 8.39,0.279 7.71,1.299L9.374,2.409C9.683,1.945 10.203,1.667 10.76,1.667L10.76,-0.333Z" fill="#EA3549"/>
</svg>
