<svg width="194" height="184" viewBox="0 0 194 184" fill="none" xmlns="http://www.w3.org/2000/svg" xmlns:xlink="http://www.w3.org/1999/xlink">
<path d="M134.539,0.051C140.082,-0.405 145.099,2.307 150.241,4.131C163.263,8.767 174.872,15.066 187.3,20.92C189.187,21.801 190.799,23.132 191.955,24.863C193.573,26.981 193.005,30.411 193.067,32.936C188.444,31.061 183.626,29.805 178.934,28.1C170.473,25.569 162.301,22.27 153.778,19.908C148.586,18.009 143.337,16.315 138.113,14.509C136.251,15.822 134.683,17.471 134.283,19.796C134.246,21.039 133.94,22.307 135.227,23.02C138.707,24.8 142.912,25.731 146.574,27.144C153.797,29.805 161.095,32.198 168.318,34.835C176.028,37.266 183.551,40.321 191.33,42.533C190.862,45.282 189.762,47.769 188.937,50.412C186.494,49.756 184.132,48.863 181.695,48.188C176.291,46.67 171.148,44.47 165.762,42.889C155.034,39.334 144.206,36.054 133.558,32.267C130.366,30.961 127.822,35.348 127.991,38.041C128.472,39.084 129.116,40.434 130.284,40.815C133.671,42.221 137.332,43.052 140.769,44.339C142.625,45.032 144.48,45.726 146.386,46.288C153.166,48.307 159.764,50.85 166.537,52.887C170.086,53.88 173.435,55.411 176.965,56.448C179.396,57.223 181.745,57.573 183.889,59.072C182.214,60.772 180.24,62.953 177.921,63.727C175.347,64.427 172.723,64.002 170.192,63.321C164.981,61.972 159.789,61.334 154.546,60.178C147.261,58.51 140.075,57.523 133.021,54.892C126.642,52.58 119.094,50.056 114.145,45.232C111.064,42.527 109.384,38.259 109.209,34.217C109.034,31.742 108.871,28.862 107.765,26.606C106.584,24.419 104.71,22.545 103.01,20.745C99.761,17.09 94.825,15.834 90.176,15.128C78.754,16.065 67.426,20.07 57.46,25.638C52.749,28.593 48.269,31.942 44.145,35.672C28.662,50.237 18.721,70.969 18.427,92.345C17.902,95.538 18.639,98.574 18.621,101.78C19.189,109.403 21.114,116.988 23.844,124.117C26.769,132.059 31.486,139.188 36.616,145.855C40.765,151.16 45.795,155.428 51.168,159.427C56.179,163.425 61.74,166.144 67.532,168.799C70.75,170.28 74.118,171.098 77.505,172.073C84.434,174.16 91.17,174.504 98.299,174.91C101.58,174.466 104.872,174.654 108.115,174.016C112.227,173.36 116.282,172.442 120.306,171.398C124.192,170.424 127.941,168.687 131.578,167.025C138.663,163.519 145.855,159.239 151.541,153.691C154.153,151.541 156.29,149.273 158.414,146.643C156.727,149.567 154.365,151.804 152.11,154.259C142.319,164.769 130.478,173.129 116.744,177.603C112.708,178.984 108.446,180.527 104.235,181.189C100.767,181.683 97.281,181.995 93.794,182.427C86.64,183.226 79.785,182.433 72.687,181.583C64.171,180.396 56.554,177.209 48.85,173.548C43.458,171.055 38.384,167.412 33.654,163.832C19.108,152.303 8.58,136.145 3.587,118.288C-0.293,104.648 -0.518,89.92 2.338,76.062C5.949,59.504 14.378,44.208 26.144,32.042C32.198,26.063 39.246,21.02 46.788,17.084C50.175,15.097 53.692,13.541 57.379,12.185C62.852,9.842 68.795,8.886 74.674,7.78C79.017,6.899 83.297,7.136 87.696,6.774C93.557,6.905 99.268,7.236 104.997,8.505C107.765,9.023 110.508,10.073 113.308,10.273C116.663,9.886 119.931,7.436 122.405,5.262C125.717,2.269 129.959,-0.074 134.539,0.051Z" fill="#F1762B"/>
</svg>
