<svg width="32" height="38" viewBox="0 0 32 38" fill="none" xmlns="http://www.w3.org/2000/svg" xmlns:xlink="http://www.w3.org/1999/xlink">
<path d="M12.274,0.992C16.192,1.092 20.272,1.192 23.883,2.904C26.483,4.035 28.832,6.128 29.894,8.79C30.707,11.258 29.975,13.726 28.432,15.726C26.564,18.338 23.334,19.237 20.584,20.606C23.808,26.186 26.995,31.678 31.106,36.677C26.464,36.845 21.753,36.864 17.11,36.683C17.466,30.959 15.398,26.048 12.93,21.043C11.699,21.037 10.468,21.031 9.237,21.031C9.206,26.467 9.681,31.422 10.768,36.752C6.95,36.827 3.133,36.802 -0.685,36.752C-0.01,33.096 0.69,29.522 0.758,25.786C0.821,23.037 1.339,20.406 1.214,17.65C0.777,12.064 0.552,6.535 -0.623,1.03C3.676,0.924 7.975,0.967 12.274,0.992ZM8.819,19.287C11.162,20.012 13.399,19.631 15.754,19.206C17.66,18.85 19.272,17.3 20.359,15.776C21.59,13.989 21.497,11.708 21.284,9.653C20.897,7.397 20.041,5.054 18.191,3.598C16.148,2.123 13.517,2.073 11.943,4.223C8.931,8.703 9.456,14.139 8.819,19.287Z" fill="#F1762B"/>
</svg>
