<svg width="24" height="26" viewBox="0 0 24 26" fill="none" xmlns="http://www.w3.org/2000/svg" xmlns:xlink="http://www.w3.org/1999/xlink">
<path d="M9.878,-0.857C12.705,-0.785 15.649,-0.713 18.256,0.523C20.131,1.339 21.826,2.849 22.593,4.77C23.179,6.551 22.652,8.332 21.538,9.775C20.19,11.66 17.859,12.309 15.875,13.297C18.201,17.323 20.501,21.286 23.468,24.893C20.118,25.015 16.718,25.029 13.368,24.898C13.625,20.768 12.132,17.224 10.351,13.612C9.463,13.608 8.575,13.603 7.687,13.603C7.664,17.526 8.007,21.101 8.791,24.947C6.036,25.002 3.281,24.984 0.526,24.947C1.013,22.31 1.518,19.731 1.568,17.034C1.613,15.05 1.987,13.152 1.897,11.164C1.582,7.133 1.419,3.142 0.572,-0.83C3.674,-0.907 6.776,-0.875 9.878,-0.857ZM7.385,12.345C9.075,12.868 10.69,12.593 12.389,12.287C13.765,12.03 14.928,10.911 15.712,9.811C16.601,8.522 16.533,6.876 16.38,5.392C16.1,3.765 15.483,2.074 14.148,1.023C12.673,-0.041 10.775,-0.077 9.639,1.474C7.466,4.707 7.844,8.63 7.385,12.345Z" fill="#F1762B"/>
</svg>
