<svg width="28" height="26" viewBox="0 0 28 26" fill="none" xmlns="http://www.w3.org/2000/svg" xmlns:xlink="http://www.w3.org/1999/xlink">
<path d="M-0.617,-0.798C2.675,-0.956 5.984,-0.843 9.28,-0.866C8.96,1.957 9.352,4.73 9.966,7.48C11.264,12.314 13.253,16.706 15.07,21.242C16.923,16.701 19.101,11.944 20.124,7.129C20.733,4.229 19.971,1.064 17.491,-0.73C20.323,-0.947 23.181,-0.893 26.022,-0.789C23.334,3.219 21.409,7.543 19.642,12.007C17.946,16.295 16.138,20.547 14.574,24.885C12.82,25.218 11.084,25.448 9.294,25.408C9.064,24.109 8.771,22.824 8.392,21.562C6.467,15.028 4.054,8.553 0.907,2.507C0.402,1.452 -0.5,0.37 -0.617,-0.798Z" fill="#F1762B"/>
</svg>
