<svg width="28" height="30" viewBox="0 0 28 30" fill="none" xmlns="http://www.w3.org/2000/svg" xmlns:xlink="http://www.w3.org/1999/xlink">
<path d="M5.667,8.666C5.667,8.114 5.219,7.666 4.667,7.666C4.114,7.666 3.667,8.114 3.667,8.666L5.667,8.666ZM24.333,8.666C24.333,8.114 23.886,7.666 23.333,7.666C22.781,7.666 22.333,8.114 22.333,8.666L24.333,8.666ZM17.667,12.666C17.667,12.114 17.219,11.666 16.667,11.666C16.114,11.666 15.667,12.114 15.667,12.666L17.667,12.666ZM15.667,20.666C15.667,21.218 16.114,21.666 16.667,21.666C17.219,21.666 17.667,21.218 17.667,20.666L15.667,20.666ZM12.333,12.666C12.333,12.114 11.886,11.666 11.333,11.666C10.781,11.666 10.333,12.114 10.333,12.666L12.333,12.666ZM10.333,20.666C10.333,21.218 10.781,21.666 11.333,21.666C11.886,21.666 12.333,21.218 12.333,20.666L10.333,20.666ZM26,5.666C26.552,5.666 27,5.218 27,4.666C27,4.114 26.552,3.666 26,3.666L26,5.666ZM2,3.666C1.448,3.666 1,4.114 1,4.666C1,5.218 1.448,5.666 2,5.666L2,3.666ZM17.458,1.853L16.626,2.408L16.626,2.408L17.458,1.853ZM10.542,1.853L9.71,1.299L9.71,1.299L10.542,1.853ZM10,28.333L18,28.333L18,26.333L10,26.333L10,28.333ZM3.667,8.666L3.667,21.999L5.667,21.999L5.667,8.666L3.667,8.666ZM24.333,21.999L24.333,8.666L22.333,8.666L22.333,21.999L24.333,21.999ZM18,28.333C21.498,28.333 24.333,25.497 24.333,21.999L22.333,21.999C22.333,24.393 20.393,26.333 18,26.333L18,28.333ZM10,26.333C7.607,26.333 5.667,24.393 5.667,21.999L3.667,21.999C3.667,25.497 6.502,28.333 10,28.333L10,26.333ZM15.667,12.666L15.667,20.666L17.667,20.666L17.667,12.666L15.667,12.666ZM10.333,12.666L10.333,20.666L12.333,20.666L12.333,12.666L10.333,12.666ZM12.76,1.666L15.24,1.666L15.24,-0.334L12.76,-0.334L12.76,1.666ZM16.626,2.408L18.501,5.221L20.165,4.111L18.29,1.299L16.626,2.408ZM19.333,3.666L8.667,3.666L8.667,5.666L19.333,5.666L19.333,3.666ZM9.499,5.221L11.374,2.408L9.71,1.299L7.835,4.111L9.499,5.221ZM19.333,5.666L26,5.666L26,3.666L19.333,3.666L19.333,5.666ZM8.667,3.666L2,3.666L2,5.666L8.667,5.666L8.667,3.666ZM15.24,1.666C15.797,1.666 16.317,1.945 16.626,2.408L18.29,1.299C17.61,0.279 16.465,-0.334 15.24,-0.334L15.24,1.666ZM12.76,-0.334C11.535,-0.334 10.39,0.279 9.71,1.299L11.374,2.408C11.683,1.945 12.203,1.666 12.76,1.666L12.76,-0.334Z" fill="#EA3549"/>
</svg>
