<svg width="34" height="38" viewBox="0 0 34 38" fill="none" xmlns="http://www.w3.org/2000/svg" xmlns:xlink="http://www.w3.org/1999/xlink">
<path d="M0.139,1.055C3.888,0.88 7.662,0.993 11.417,0.993C13.966,7.453 19.121,13.114 23.888,18.057C25.65,19.744 27.313,21.968 29.599,22.837C29.681,19.875 29.912,16.832 29.562,13.883C28.706,9.297 26.906,5.167 24.782,1.043C27.475,0.974 30.174,0.98 32.867,0.993C32.592,4.073 31.905,7.085 31.53,10.153C31.161,15.332 31.343,20.6 31.443,25.786C31.493,29.454 32.499,33.096 32.924,36.758C30.43,36.795 27.931,36.808 25.438,36.758C23.02,32.209 19.877,28.017 16.69,23.986C13.879,20.737 11.386,17.244 8.543,14.027C6.862,12.165 5.625,10.103 3.638,8.753C3.319,12.539 3.288,16.363 3.313,20.162C3.269,25.986 5.687,31.603 8.205,36.739C5.506,36.789 2.807,36.789 0.107,36.77C0.395,32.822 1.563,29.11 1.57,25.161C1.663,20.581 1.62,15.995 1.507,11.409C1.407,7.853 0.289,4.573 0.139,1.055Z" fill="#F1762B"/>
</svg>
