<svg width="42" height="40" viewBox="0 0 42 40" fill="none" xmlns="http://www.w3.org/2000/svg" xmlns:xlink="http://www.w3.org/1999/xlink">
<path d="M30.883,1.892C33.198,-0.284 36.95,-0.284 39.264,1.892C41.579,4.067 41.579,7.594 39.264,9.77L21.108,26.836C21.071,26.872 21.033,26.907 20.996,26.942C20.451,27.456 19.969,27.909 19.389,28.243C18.88,28.536 18.324,28.753 17.743,28.884C17.081,29.033 16.4,29.033 15.628,29.032C15.575,29.032 15.523,29.032 15.47,29.032L12.29,29.032C11.242,29.032 10.392,28.233 10.392,27.247L10.392,24.259C10.392,24.209 10.392,24.159 10.392,24.11C10.391,23.384 10.39,22.743 10.549,22.122C10.689,21.575 10.919,21.053 11.231,20.574C11.587,20.029 12.069,19.576 12.615,19.063C12.652,19.029 12.69,18.994 12.727,18.958L30.883,1.892ZM36.579,4.416C35.748,3.634 34.4,3.634 33.568,4.416L15.412,21.482C14.692,22.16 14.559,22.301 14.469,22.439C14.365,22.599 14.288,22.773 14.241,22.955C14.201,23.112 14.189,23.301 14.189,24.259L14.189,25.462L15.47,25.462C16.489,25.462 16.689,25.451 16.856,25.413C17.05,25.369 17.235,25.297 17.405,25.199C17.552,25.115 17.703,24.99 18.423,24.312L36.579,7.246C37.411,6.464 37.411,5.197 36.579,4.416ZM9.934,4.046L17.986,4.046C19.035,4.046 19.885,4.845 19.885,5.831C19.885,6.816 19.035,7.615 17.986,7.615L10.012,7.615C8.386,7.615 7.28,7.617 6.426,7.682C5.593,7.746 5.168,7.862 4.871,8.004C4.156,8.347 3.575,8.893 3.211,9.564C3.06,9.843 2.937,10.244 2.869,11.026C2.799,11.829 2.797,12.868 2.797,14.397L2.797,29.389C2.797,30.918 2.799,31.957 2.869,32.76C2.937,33.542 3.06,33.943 3.211,34.222C3.575,34.893 4.156,35.439 4.871,35.782C5.168,35.924 5.593,36.04 6.426,36.103C7.28,36.169 8.386,36.171 10.012,36.171L25.96,36.171C27.587,36.171 28.692,36.169 29.547,36.103C30.379,36.04 30.805,35.924 31.102,35.782C31.816,35.439 32.397,34.893 32.761,34.222C32.913,33.943 33.036,33.542 33.104,32.76C33.174,31.957 33.175,30.918 33.175,29.389L33.175,21.893C33.175,20.907 34.025,20.108 35.074,20.108C36.122,20.108 36.972,20.907 36.972,21.893L36.972,29.462C36.972,30.899 36.972,32.085 36.888,33.051C36.801,34.054 36.614,34.976 36.145,35.842C35.416,37.185 34.255,38.277 32.826,38.962C31.904,39.403 30.923,39.579 29.856,39.661C28.828,39.74 27.567,39.74 26.039,39.74L9.934,39.74C8.405,39.74 7.144,39.74 6.116,39.661C5.049,39.579 4.068,39.403 3.147,38.962C1.718,38.277 0.556,37.185 -0.172,35.842C-0.642,34.976 -0.829,34.054 -0.916,33.051C-1,32.085 -1,30.899 -1,29.462L-1,14.323C-1,12.887 -1,11.701 -0.916,10.735C-0.829,9.732 -0.642,8.81 -0.172,7.944C0.556,6.601 1.718,5.508 3.147,4.824C4.068,4.383 5.049,4.207 6.116,4.125C7.144,4.046 8.405,4.046 9.934,4.046Z" clip-rule="evenodd" fill-rule="evenodd" fill="#FFFFFF"/>
</svg>
