<svg width="22" height="26" viewBox="0 0 22 26" fill="none" xmlns="http://www.w3.org/2000/svg" xmlns:xlink="http://www.w3.org/1999/xlink">
<path d="M0.366,-0.825C3.924,-0.96 7.499,-0.825 11.062,-0.816C14.47,-0.857 17.879,-0.902 21.288,-0.839C20.733,1.962 20.228,4.748 20.084,7.607C19.006,5.772 18.154,4 16.391,2.696C14.073,0.789 11.197,0.081 8.243,0.09C8.108,1.623 7.833,3.134 7.594,4.653C7.233,6.944 7.261,9.203 7.215,11.511C8.888,11.931 10.52,11.674 12.171,11.286C14.15,10.677 15.165,9.234 16.571,7.85C16.364,10.704 16.323,13.477 16.405,16.34C15.223,14.744 13.979,13.383 11.972,12.887C10.489,12.625 8.591,12.098 7.179,12.774C7.107,16.593 7.72,20.268 8.248,24.028C11.409,24.06 14.497,23.153 16.91,21.061C18.307,19.853 18.857,18.36 20.043,16.854C20.395,19.564 20.715,22.27 21.279,24.943C17.721,25.006 14.168,24.961 10.611,24.907C7.157,24.988 3.707,24.993 0.254,24.957C0.547,22.463 1.092,20.002 1.291,17.504C1.503,13.788 1.489,10.073 1.282,6.358C1.092,3.954 0.38,1.565 0.366,-0.825Z" fill="#F1762B"/>
</svg>
