<svg width="34" height="38" viewBox="0 0 34 38" fill="none" xmlns="http://www.w3.org/2000/svg" xmlns:xlink="http://www.w3.org/1999/xlink">
<path d="M0.68,1.056C4.436,0.887 8.235,0.937 11.996,1.068C11.078,6.823 9.878,12.121 10.172,17.845C15.201,13.908 18.526,7.398 18.251,0.968C21.806,1.006 25.249,0.887 28.766,1.149C27.436,2.936 25.711,4.174 24.193,5.798C20.594,9.528 16.77,13.052 13.277,16.889C15.451,16.901 17.563,16.783 19.713,16.502C21.987,21.806 25.236,26.717 28.598,31.391C29.822,33.209 31.553,34.728 32.49,36.696C28.117,36.796 23.705,36.883 19.338,36.715C18.407,30.66 15.195,24.281 10.197,20.6C10.178,25.999 10.996,31.435 12.009,36.727C8.197,36.827 4.379,36.783 0.568,36.777C0.949,33.097 1.992,29.467 2.03,25.786C2.061,23.906 2.105,22.031 2.342,20.157C2.73,17.445 1.949,14.827 2.005,12.059C2.017,8.316 0.837,4.761 0.68,1.056Z" fill="#F1762B"/>
</svg>
