<svg width="46" height="22" viewBox="0 0 46 22" fill="none" xmlns="http://www.w3.org/2000/svg" xmlns:xlink="http://www.w3.org/1999/xlink">
<path d="M2.976,0.861C2.347,0.322 1.4,0.395 0.861,1.024C0.322,1.653 0.395,2.6 1.024,3.139L2.976,0.861ZM23,20L22.024,21.139C22.586,21.62 23.414,21.62 23.976,21.139L23,20ZM44.976,3.139C45.605,2.6 45.678,1.653 45.139,1.024C44.6,0.395 43.653,0.322 43.024,0.861L44.976,3.139ZM1.024,3.139L22.024,21.139L23.976,18.861L2.976,0.861L1.024,3.139ZM23.976,21.139L44.976,3.139L43.024,0.861L22.024,18.861L23.976,21.139Z" transform="rotate(180 23 11)" fill="#FFFFFF"/>
</svg>
