<svg width="36" height="40" viewBox="0 0 36 40" fill="none" xmlns="http://www.w3.org/2000/svg" xmlns:xlink="http://www.w3.org/1999/xlink">
<path d="M6.8,12.8C6.8,12.137 6.263,11.6 5.6,11.6C4.937,11.6 4.4,12.137 4.4,12.8L6.8,12.8ZM32,12.8C32,12.137 31.463,11.6 30.8,11.6C30.137,11.6 29.6,12.137 29.6,12.8L32,12.8ZM23,18.2C23,17.537 22.463,17 21.8,17C21.137,17 20.6,17.537 20.6,18.2L23,18.2ZM20.6,29C20.6,29.663 21.137,30.2 21.8,30.2C22.463,30.2 23,29.663 23,29L20.6,29ZM15.8,18.2C15.8,17.537 15.263,17 14.6,17C13.937,17 13.4,17.537 13.4,18.2L15.8,18.2ZM13.4,29C13.4,29.663 13.937,30.2 14.6,30.2C15.263,30.2 15.8,29.663 15.8,29L13.4,29ZM34.4,8.6C35.063,8.6 35.6,8.063 35.6,7.4C35.6,6.737 35.063,6.2 34.4,6.2L34.4,8.6ZM2,6.2C1.337,6.2 0.8,6.737 0.8,7.4C0.8,8.063 1.337,8.6 2,8.6L2,6.2ZM22.869,3.603L21.87,4.269L21.87,4.269L22.869,3.603ZM13.531,3.603L12.533,2.937L12.533,2.937L13.531,3.603ZM12.8,39.2L23.6,39.2L23.6,36.8L12.8,36.8L12.8,39.2ZM4.4,12.8L4.4,30.8L6.8,30.8L6.8,12.8L4.4,12.8ZM32,30.8L32,12.8L29.6,12.8L29.6,30.8L32,30.8ZM23.6,39.2C28.239,39.2 32,35.439 32,30.8L29.6,30.8C29.6,34.114 26.914,36.8 23.6,36.8L23.6,39.2ZM12.8,36.8C9.486,36.8 6.8,34.114 6.8,30.8L4.4,30.8C4.4,35.439 8.161,39.2 12.8,39.2L12.8,36.8ZM20.6,18.2L20.6,29L23,29L23,18.2L20.6,18.2ZM13.4,18.2L13.4,29L15.8,29L15.8,18.2L13.4,18.2ZM16.527,3.2L19.873,3.2L19.873,0.8L16.527,0.8L16.527,3.2ZM21.87,4.269L24.402,8.066L26.398,6.734L23.867,2.937L21.87,4.269ZM25.4,6.2L11,6.2L11,8.6L25.4,8.6L25.4,6.2ZM11.998,8.066L14.53,4.269L12.533,2.937L10.002,6.734L11.998,8.066ZM25.4,8.6L34.4,8.6L34.4,6.2L25.4,6.2L25.4,8.6ZM11,6.2L2,6.2L2,8.6L11,8.6L11,6.2ZM19.873,3.2C20.676,3.2 21.425,3.601 21.87,4.269L23.867,2.937C22.977,1.602 21.478,0.8 19.873,0.8L19.873,3.2ZM16.527,0.8C14.922,0.8 13.423,1.602 12.533,2.937L14.53,4.269C14.975,3.601 15.724,3.2 16.527,3.2L16.527,0.8Z" fill="#D96846"/>
</svg>
