<svg width="38" height="42" viewBox="0 0 38 42" fill="none" xmlns="http://www.w3.org/2000/svg" xmlns:xlink="http://www.w3.org/1999/xlink">
<path d="M6.978,13.333C6.978,12.671 6.441,12.133 5.778,12.133C5.115,12.133 4.578,12.671 4.578,13.333L6.978,13.333ZM33.422,13.333C33.422,12.671 32.885,12.133 32.222,12.133C31.559,12.133 31.022,12.671 31.022,13.333L33.422,13.333ZM23.978,19C23.978,18.337 23.441,17.8 22.778,17.8C22.115,17.8 21.578,18.337 21.578,19L23.978,19ZM21.578,30.333C21.578,30.996 22.115,31.533 22.778,31.533C23.441,31.533 23.978,30.996 23.978,30.333L21.578,30.333ZM16.422,19C16.422,18.337 15.885,17.8 15.222,17.8C14.559,17.8 14.022,18.337 14.022,19L16.422,19ZM14.022,30.333C14.022,30.996 14.559,31.533 15.222,31.533C15.885,31.533 16.422,30.996 16.422,30.333L14.022,30.333ZM36,8.867C36.663,8.867 37.2,8.329 37.2,7.667C37.2,7.004 36.663,6.467 36,6.467L36,8.867ZM2,6.467C1.337,6.467 0.8,7.004 0.8,7.667C0.8,8.329 1.337,8.867 2,8.867L2,6.467ZM23.899,3.682L22.901,4.348L22.901,4.348L23.899,3.682ZM14.101,3.682L13.102,3.017L13.102,3.017L14.101,3.682ZM13.333,40.978L24.667,40.978L24.667,38.578L13.333,38.578L13.333,40.978ZM4.578,13.333L4.578,32.222L6.978,32.222L6.978,13.333L4.578,13.333ZM33.422,32.222L33.422,13.333L31.022,13.333L31.022,32.222L33.422,32.222ZM24.667,40.978C29.502,40.978 33.422,37.058 33.422,32.222L31.022,32.222C31.022,35.732 28.177,38.578 24.667,38.578L24.667,40.978ZM13.333,38.578C9.823,38.578 6.978,35.732 6.978,32.222L4.578,32.222C4.578,37.058 8.498,40.978 13.333,40.978L13.333,38.578ZM21.578,19L21.578,30.333L23.978,30.333L23.978,19L21.578,19ZM14.022,19L14.022,30.333L16.422,30.333L16.422,19L14.022,19ZM17.244,3.2L20.756,3.2L20.756,0.8L17.244,0.8L17.244,3.2ZM22.901,4.348L25.557,8.332L27.554,7.001L24.898,3.017L22.901,4.348ZM26.556,6.467L11.444,6.467L11.444,8.867L26.556,8.867L26.556,6.467ZM12.443,8.332L15.099,4.348L13.102,3.017L10.446,7.001L12.443,8.332ZM26.556,8.867L36,8.867L36,6.467L26.556,6.467L26.556,8.867ZM11.444,6.467L2,6.467L2,8.867L11.444,8.867L11.444,6.467ZM20.756,3.2C21.618,3.2 22.423,3.631 22.901,4.348L24.898,3.017C23.975,1.632 22.42,0.8 20.756,0.8L20.756,3.2ZM17.244,0.8C15.58,0.8 14.025,1.632 13.102,3.017L15.099,4.348C15.577,3.631 16.382,3.2 17.244,3.2L17.244,0.8Z" fill="#EA3549"/>
</svg>
