<svg width="46" height="44" viewBox="0 0 46 44" fill="none" xmlns="http://www.w3.org/2000/svg" xmlns:xlink="http://www.w3.org/1999/xlink">
<path d="M43.996,21.452C43.83,15.568 41.411,10.122 37.121,6.054C32.887,1.985 27.278,-0.105 21.448,0.004C15.564,0.17 10.118,2.588 6.049,6.878C2.034,11.113 -0.11,16.721 0,22.608C0.165,28.492 2.584,33.938 6.874,38.007C10.999,41.856 16.333,44 21.998,44L22.603,44C28.487,43.835 33.933,41.416 38.002,37.126C42.015,32.891 44.161,27.283 43.996,21.452ZM21.832,7.153C25.351,7.044 28.266,9.847 28.322,13.312C28.432,16.831 25.628,19.746 22.163,19.802C18.644,19.912 15.729,17.108 15.673,13.643C15.564,10.178 18.313,7.263 21.832,7.153ZM34.756,32.945C31.787,36.41 27.388,38.663 22.438,38.775C17.214,38.885 12.43,36.632 9.295,32.945C8.801,32.395 8.58,31.626 8.636,30.911C9.186,25.905 13.42,22.002 18.591,22.002L25.409,22.002C30.578,22.002 34.815,25.907 35.364,30.911C35.472,31.626 35.197,32.341 34.757,32.945L34.756,32.945Z" fill="#989980"/>
</svg>
