<svg width="32" height="32" viewBox="0 0 32 32" fill="none" xmlns="http://www.w3.org/2000/svg" xmlns:xlink="http://www.w3.org/1999/xlink">
<path d="M26.375,24.254C25.789,23.668 24.84,23.668 24.254,24.254C23.668,24.84 23.668,25.789 24.254,26.375L26.375,24.254ZM29.269,31.391C29.855,31.976 30.805,31.976 31.391,31.391C31.976,30.805 31.976,29.855 31.391,29.269L29.269,31.391ZM30.397,15.283C30.397,6.936 23.63,0.17 15.283,0.17L15.283,3.17C21.974,3.17 27.397,8.593 27.397,15.283L30.397,15.283ZM15.283,0.17C6.936,0.17 0.17,6.936 0.17,15.283L3.17,15.283C3.17,8.593 8.593,3.17 15.283,3.17L15.283,0.17ZM0.17,15.283C0.17,23.63 6.936,30.397 15.283,30.397L15.283,27.397C8.593,27.397 3.17,21.974 3.17,15.283L0.17,15.283ZM15.283,30.397C23.63,30.397 30.397,23.63 30.397,15.283L27.397,15.283C27.397,21.974 21.974,27.397 15.283,27.397L15.283,30.397ZM24.254,26.375L29.269,31.391L31.391,29.269L26.375,24.254L24.254,26.375Z" fill="#707B81"/>
</svg>
