<svg width="32" height="38" viewBox="0 0 32 38" fill="none" xmlns="http://www.w3.org/2000/svg" xmlns:xlink="http://www.w3.org/1999/xlink">
<path d="M24.417,0.88C26.86,1.367 29.291,1.349 31.759,1.055C31.271,5.085 30.097,8.822 30.397,12.946C29.172,9.884 28.685,6.985 26.504,4.373C25.123,2.636 22.418,1.199 20.224,2.192C16.763,3.279 14.214,6.497 12.714,9.659C9.902,16.026 9.765,23.193 11.708,29.816C12.789,32.903 14.732,35.614 18.181,36.127C22.368,36.664 26.698,33.627 28.991,30.316C29.622,29.772 29.816,28.46 30.772,29.272C30.953,31.834 31.284,34.252 31.79,36.77C29.285,36.489 26.966,35.971 24.455,36.564C20.424,37.464 16.282,38.058 12.258,36.695C3.841,34.034 -1.613,24.355 0.43,15.789C1.467,10.109 4.997,4.748 10.315,2.248C14.72,-0.063 19.637,0.018 24.417,0.88Z" fill="#F1762B"/>
</svg>
