<svg width="26" height="26" viewBox="0 0 26 26" fill="none" xmlns="http://www.w3.org/2000/svg" xmlns:xlink="http://www.w3.org/1999/xlink">
<path d="M-0.325,-0.78C3.003,-0.947 6.348,-0.839 9.681,-0.87C9.915,0.568 9.929,2.061 10.271,3.476C11.277,7.25 13.017,10.573 14.92,13.951C16.169,11.489 16.931,8.901 17.476,6.204C17.878,3.774 17.792,1.375 16.597,-0.83C19.316,-0.866 22.048,-0.92 24.767,-0.789C24.122,0.347 23.112,1.096 22.369,2.151C19.749,5.97 17.404,10.163 15.817,14.519C15.19,16.025 15.768,17.287 15.835,18.847C15.97,20.926 16.493,22.91 16.85,24.952C14.108,24.979 11.367,25.015 8.625,24.93C9.054,22.495 9.703,19.961 9.69,17.481C9.762,15.664 8.571,13.82 7.827,12.192C5.442,7.571 3.089,3.174 -0.325,-0.78Z" fill="#F1762B"/>
</svg>
