<svg width="40" height="40" viewBox="0 0 40 40" fill="none" xmlns="http://www.w3.org/2000/svg" xmlns:xlink="http://www.w3.org/1999/xlink">
<path d="M30.365,1.653C32.569,-0.551 36.143,-0.551 38.347,1.653C40.551,3.857 40.551,7.431 38.347,9.635L21.055,26.926C21.02,26.962 20.984,26.998 20.949,27.033C20.429,27.554 19.971,28.013 19.419,28.351C18.933,28.649 18.404,28.868 17.85,29.001C17.22,29.152 16.572,29.151 15.836,29.151C15.786,29.151 15.736,29.151 15.685,29.151L12.657,29.151C11.659,29.151 10.849,28.341 10.849,27.343L10.849,24.315C10.849,24.264 10.849,24.214 10.849,24.164C10.848,23.428 10.848,22.78 10.999,22.15C11.132,21.596 11.351,21.067 11.649,20.581C11.987,20.029 12.446,19.571 12.967,19.051C13.002,19.016 13.038,18.98 13.074,18.944L30.365,1.653ZM35.79,4.21C34.998,3.418 33.714,3.418 32.922,4.21L15.631,21.502C14.944,22.188 14.818,22.331 14.732,22.471C14.633,22.633 14.56,22.809 14.516,22.994C14.477,23.153 14.466,23.344 14.466,24.315L14.466,25.534L15.685,25.534C16.656,25.534 16.847,25.523 17.006,25.484C17.191,25.44 17.367,25.367 17.529,25.268C17.669,25.182 17.812,25.056 18.498,24.369L35.79,7.078C36.581,6.286 36.581,5.002 35.79,4.21ZM10.413,3.836L18.082,3.836C19.081,3.836 19.89,4.645 19.89,5.644C19.89,6.643 19.081,7.452 18.082,7.452L10.488,7.452C8.939,7.452 7.886,7.454 7.072,7.52C6.279,7.585 5.874,7.702 5.591,7.846C4.911,8.193 4.357,8.746 4.011,9.427C3.867,9.71 3.749,10.115 3.684,10.908C3.618,11.722 3.616,12.775 3.616,14.323L3.616,29.512C3.616,31.061 3.618,32.114 3.684,32.928C3.749,33.721 3.867,34.126 4.011,34.409C4.357,35.089 4.911,35.643 5.591,35.989C5.874,36.134 6.279,36.251 7.072,36.316C7.886,36.382 8.939,36.384 10.488,36.384L25.677,36.384C27.225,36.384 28.278,36.382 29.092,36.316C29.885,36.251 30.29,36.134 30.573,35.989C31.254,35.643 31.807,35.089 32.154,34.409C32.298,34.126 32.415,33.721 32.48,32.928C32.546,32.114 32.548,31.061 32.548,29.512L32.548,21.918C32.548,20.919 33.357,20.11 34.356,20.11C35.355,20.11 36.164,20.919 36.164,21.918L36.164,29.587C36.164,31.043 36.164,32.244 36.084,33.222C36.001,34.239 35.823,35.173 35.376,36.051C34.682,37.412 33.576,38.518 32.215,39.212C31.337,39.659 30.403,39.837 29.387,39.92C28.408,40 27.207,40 25.751,40L10.413,40C8.957,40 7.756,40 6.777,39.92C5.761,39.837 4.827,39.659 3.949,39.212C2.588,38.518 1.482,37.412 0.788,36.051C0.341,35.173 0.163,34.239 0.08,33.222C0,32.244 0,31.043 0,29.587L0,14.249C0,12.793 0,11.592 0.08,10.613C0.163,9.597 0.341,8.663 0.788,7.785C1.482,6.424 2.588,5.318 3.949,4.624C4.827,4.177 5.761,3.999 6.777,3.916C7.756,3.836 8.957,3.836 10.413,3.836Z" clip-rule="evenodd" fill-rule="evenodd" fill="#FFFFFF"/>
</svg>
