<svg width="34" height="24" viewBox="0 0 34 24" fill="none" xmlns="http://www.w3.org/2000/svg" xmlns:xlink="http://www.w3.org/1999/xlink">
<path d="M16.541,4.208C21.515,4.208 26.299,6.052 29.904,9.359C30.176,9.615 30.61,9.611 30.877,9.352L33.472,6.825C33.607,6.694 33.683,6.516 33.682,6.33C33.681,6.145 33.603,5.968 33.466,5.838C24.004,-2.912 9.077,-2.912 -0.385,5.838C-0.523,5.967 -0.6,6.145 -0.602,6.33C-0.603,6.515 -0.527,6.694 -0.392,6.825L2.204,9.352C2.471,9.612 2.905,9.615 3.176,9.359C6.782,6.052 11.566,4.208 16.541,4.208ZM16.534,12.649C19.249,12.648 21.867,13.672 23.879,15.52C24.151,15.783 24.58,15.777 24.845,15.507L27.42,12.869C27.555,12.73 27.631,12.543 27.629,12.348C27.627,12.152 27.548,11.966 27.409,11.831C21.282,6.049 11.792,6.049 5.665,11.831C5.526,11.966 5.447,12.152 5.445,12.348C5.444,12.543 5.519,12.731 5.655,12.869L8.229,15.507C8.494,15.777 8.923,15.783 9.195,15.52C11.206,13.673 13.821,12.65 16.534,12.649ZM21.583,18.236C21.587,18.446 21.513,18.65 21.378,18.797L17.025,23.707C16.897,23.851 16.723,23.932 16.542,23.932C16.36,23.932 16.186,23.851 16.059,23.707L11.705,18.797C11.57,18.649 11.496,18.446 11.5,18.236C11.504,18.025 11.586,17.825 11.726,17.684C14.506,15.056 18.578,15.056 21.358,17.684C21.498,17.825 21.579,18.025 21.583,18.236Z" clip-rule="evenodd" fill-rule="evenodd" fill="#FFFFFF" fill-opacity="0.29"/>
</svg>
