<svg focusable="false" xmlns="http://www.w3.org/2000/svg" width="24" height="24" viewBox="0 0 24 24" data-di-res-id="dbcb9384-c4993e77" data-di-rand="1722503935078"><g fill="none" fill-rule="evenodd"><path stroke="currentColor" stroke-linecap="round" stroke-linejoin="round" stroke-width="2" vector-effect="non-scaling-stroke" d="M8,22 C8.55228475,22 9,21.5522847 9,21 C9,20.4477153 8.55228475,20 8,20 C7.44771525,20 7,20.4477153 7,21 C7,21.5522847 7.44771525,22 8,22 Z M18,22 C18.5522847,22 19,21.5522847 19,21 C19,20.4477153 18.5522847,20 18,20 C17.4477153,20 17,20.4477153 17,21 C17,21.5522847 17.4477153,22 18,22 Z M2,3 L4.5,3 L6.68,14.39 C6.86873697,15.3402315 7.71138394,16.0185624 8.68,16 L17.4,16 C18.3686161,16.0185624 19.211263,15.3402315 19.4,14.39 L21,7 M13,12 L13,6 M10,9 L16,9"></path></g></svg>