<svg id="Layer_1" data-name="Layer 1" xmlns="http://www.w3.org/2000/svg" version="1.1" viewBox="0 0 440 440" data-di-res-id="63635344-b953231d" data-di-rand="1722503934684"><rect x="-.3333907" y=".2501654" width="439.9999862" height="439.9999872" rx="219.9997878" ry="219.9997878" fill="#c42127" stroke-width="0"></rect><g><path d="M74.731163,137.9059296l26.6138077-.0074921c7.4364777-.0020905,13.4053574,1.6597595,17.5157013,4.8873901,4.2085648,3.1298676,6.4603577,7.9238434,6.4620895,14.0882416.0015717,5.5769653-2.5409851,11.2529144-8.4107285,14.5810852,11.6447906,4.1061401,11.9412384,13.792984,11.9420929,16.8263092.0016174,5.7729492-2.2470245,12.1334534-6.6491394,15.7549438-6.6520157,5.5788422-11.4464111,6.2653503-23.6769562,6.2687988l-23.7764587.0066986-.0203857-72.4059906h-.0000229v.0000153ZM93.2315903,165.3956757l6.5558472-.0018463c1.2720795-.0003662,3.2287979-.0009155,4.892128-.6865387,1.6627808-.783371,2.9344406-2.2512665,2.9336548-5.088623-.0007706-2.739624-1.2732391-4.1095886-2.8386993-4.7937927-1.5659943-.6847229-3.5227127-.6841736-4.9902496-.6837616l-6.5558472.0018463.0031662,11.2527161ZM93.2396545,194.0644531l8.7080307-.0024567c1.1743469-.0003204,3.5225143-.0009918,5.4795151-.8821564,2.0542068-.8811951,3.7172318-2.6429291,3.7162704-6.0677185-.000885-3.131073-1.566597-4.6958923-3.5240555-5.478241-1.8592072-.7823792-4.2073822-.7817078-5.6754456-.7812958l-8.7080307.0024567.0037155,13.2094269v-.0000153Z" fill="#fff" stroke-width="0"></path><path d="M135.7967834,182.9957581c-.0037231-13.2094269,9.4833527-28.769165,29.2481079-28.7747498,19.7647552-.0055695,29.2600708,15.5488434,29.2638092,28.8560181s-9.4828033,28.8674316-29.2475586,28.8730011-29.2605896-15.5493622-29.264328-28.8565369l-.0000305-.0977325ZM152.0395966,183.1866455c.0021973,7.8279266,5.9722443,13.5991974,13.0172729,13.597229s13.0118103-5.7766113,13.0095978-13.7022705-5.9722748-13.6964111-13.0173035-13.6944275-13.0118103,5.7760925-13.0095978,13.7017517l.0000305.0977325v-.0000153Z" fill="#fff" stroke-width="0"></path><path d="M204.4745636,155.9711609l15.166153-.0042572.0016174,5.7724304c1.8582306-2.6418915,5.2810974-7.6334229,14.9685364-7.6361542,18.2972107-.0051422,20.1598663,14.8672943,20.1619415,22.2055206l.009552,33.9525604-16.2422485.0045776-.0083466-29.6471405c-.0016785-5.9689331-1.2752533-11.2518311-8.5157471-11.2497864-8.0233917.0022583-9.2938538,5.7750397-9.2922668,11.3525391l.008316,29.549408-16.2422485.0045776-.0152893-54.3042145.0000153-.0000153.0000153-.0000458Z" fill="#fff" stroke-width="0"></path><path d="M316.6187134,210.2438202l-15.166687.0042572-.0016479-5.7729492c-1.8577271,2.6424103-5.2816162,7.6334229-15.0662537,7.6361847-18.3944397.0051727-20.2581177-14.8667297-20.2601929-22.2049561l-.0095825-33.9525604,16.2432861-.0045776.0083313,29.6471405c.0016785,5.9684143,1.2742004,11.2518311,8.6129456,11.2497711,8.1216431-.0022888,9.3920898-5.7756042,9.3905334-11.3525696l-.0083313-29.549408,16.2422485-.0045776.0152893,54.3042297h.0000305l.0000305.0000153Z" fill="#fff" stroke-width="0"></path><path d="M352.4161377,171.1934052c-.0975342-1.1743164-.2938232-4.1093445-5.0884094-4.1079865-3.425293.0009613-4.5985107,2.1534729-4.598114,3.6215363.0006714,2.4459076,4.0128479,4.1083069,8.3186035,5.3791656,9.197937,2.5410309,18.9833374,5.2779083,18.9866638,17.0198059.0033569,11.9368286-10.072998,18.9847107-22.1080933,18.9880829-8.2188416.0023193-20.6459045-3.7121582-22.1174622-17.9972839l16.1439819-.0045471c.6860352,4.9898529,5.4806519,4.9885254,6.1663208,4.988327,2.739624-.0007629,5.6742554-1.5668793,5.6735229-4.2087555-.0010376-3.7185059-4.0128784-4.2065582-14.3861084-8.215332-7.0456543-2.2484589-12.9171143-6.8453979-12.9191895-14.1836243-.0031738-11.2527161,9.7794495-18.3982391,21.0316467-18.4013977,7.1422424-.0020142,19.4718323,2.8323822,20.8462219,17.1175385l-15.949585.0044861-.0000305-.0000153h.0000305Z" fill="#fff" stroke-width="0"></path><path d="M102.1540375,236.4361267l40.9970551-.0115509.0045776,16.2422485-22.5043793.0063324.0031662,11.2521973,21.8197403-.006134.0045776,16.2422485-21.8197327.006134.0034943,12.427063,22.5043793-.0063477.0045776,16.2422485-40.9970551.0115356-.0203857-72.4059753h-.0000153Z" fill="#fff" stroke-width="0"></path><path d="M154.1141357,254.5232544l15.166153-.0042572.0016174,5.7729645c1.8582306-2.6429443,5.2816162-7.6339569,14.9680176-7.636673,18.297226-.0051422,20.1609039,14.8672638,20.1629791,22.2060089l.009552,33.9520264-16.2427673.0045776-.0083466-29.6476746c-.0016785-5.9684143-1.2752533-11.2518311-8.5157318-11.2498169-8.0233917.0022583-9.2938385,5.7755737-9.2922668,11.3530579l.008316,29.549408-16.2422485.0045776-.0152893-54.3042297.0000153.0000153v.0000153Z" fill="#fff" stroke-width="0"></path><path d="M220.1611023,266.8334656l-8.0233917.0022583-.0034637-12.3287964,8.0233917-.0022583-.0050964-18.1017609,16.2427673-.0045776.0050964,18.1017609,7.8279266-.0021973.0034637,12.3287964-7.8279266.0021973.0118103,41.9754333-16.2427673.0045776-.0118103-41.9754333v.0000305-.0000305Z" fill="#fff" stroke-width="0"></path><path d="M252.15242,254.4956512l15.2638702-.004303.001709,6.0666656c1.5649719-2.936554,4.4003906-7.9274292,13.7941284-7.930069l.0046082,16.3404999-.5874329.0001526c-8.3171082.0023499-12.2297058,3.0367737-12.2275391,10.6681824l.0082092,29.1584778-16.2422485.0045776-.0152893-54.3042297.0000153.0000153-.0000305.0000305Z" fill="#fff" stroke-width="0"></path><path d="M307.0575562,306.0448303l-20.1701965-51.5589294,17.3178101-.0048676,11.0655823,31.5030365,10.3631897-31.5090485,17.2206116-.0048523-27.1803284,72.41362-17.2206116.0048218,8.6039124-20.8437805h.0000305Z" fill="#fff" stroke-width="0"></path></g><polygon points="375.9986267 260.2683105 373.2592468 255.3193207 367.0472107 260.744751 368.7298889 252.6877441 363.0430298 252.6893463 364.835907 260.6925354 358.515686 255.3234711 355.7791138 260.2739868 363.3617859 262.5887451 355.7804565 265.118042 358.7307434 270.277771 364.7314148 264.5892639 363.048645 272.6985779 368.7355042 272.696991 366.9431763 264.6937866 373.0526123 270.2737732 376 265.1123352 368.416687 262.6924438 375.9986267 260.2683105" fill="#fff" stroke-width="0"></polygon></svg>